<svg id="Calque_1" data-name="Calque 1" xmlns="http://www.w3.org/2000/svg" viewBox="0 0 410 410"><defs><style>.cls-1{fill:#e20613;}.cls-2{fill:#0069b3;}.cls-3{fill:#fff;opacity:0.3;}.cls-4{fill:none;stroke:#161b1c;stroke-width:10px;}</style></defs><title>fra</title><path class="cls-1" d="M290,13.29V396.71c32-6.78,58.76-17.72,73.88-32.84,54.83-54.83,54.83-262.92,0-317.75C348.76,31,322,20.07,290,13.29Z" transform="translate(0 0)"/><path class="cls-2" d="M120,13.29C88,20.07,61.24,31,46.12,46.12-8.71,101-8.71,309,46.12,363.88,61.24,379,88,389.93,120,396.71Z" transform="translate(0 0)"/><path class="cls-3" d="M352.15,57.85c-50.22-50.22-240.81-50.22-291,0-28.57,28.58,262.45,319.61,291,291C402.38,298.66,402.38,108.07,352.15,57.85Z" transform="translate(0 0)"/><path class="cls-4" d="M363.88,46.13C309-8.71,101-8.71,46.12,46.12S-8.71,309,46.12,363.88s262.92,54.83,317.75,0S418.71,101,363.88,46.13Z" transform="translate(0 0)"/></svg>