<svg id="Calque_1" data-name="Calque 1" xmlns="http://www.w3.org/2000/svg" viewBox="0 0 410 410"><defs><style>.cls-1{fill:#0069b3;}.cls-2,.cls-4{fill:#fff;}.cls-3{fill:#e20613;}.cls-4{opacity:0.3;}.cls-5{fill:none;stroke:#161b1c;stroke-width:10px;}</style></defs><title>uk</title><path class="cls-1" d="M363.88,46.13C309-8.71,101-8.71,46.12,46.12S-8.71,309,46.12,363.88s262.92,54.83,317.75,0S418.71,101,363.88,46.13Z"/><path class="cls-2" d="M29.54,339.62c4.82,9.76,10.34,18,16.59,24.25,6.93,6.93,16.32,13,27.54,18.17L382.1,73.8c-5.19-11.27-11.27-20.72-18.23-27.68-6.21-6.21-14.41-11.72-24.12-16.52Z"/><path class="cls-2" d="M46.12,46.12c-7,7-13.18,16.64-18.42,28.1L335.33,382.49c11.66-5.28,21.41-11.48,28.54-18.62,6-6,11.42-14,16.13-23.31L69.88,29.78C60.33,34.54,52.26,40,46.12,46.12Z"/><path class="cls-3" d="M245.15,220.38l.6,27.54,117,117c.37-.35.76-.7,1.12-1.05A78.77,78.77,0,0,0,374.72,350Z"/><path class="cls-3" d="M32.59,64.56,162.06,194.63l.89-26.06L43.7,48.7A88.93,88.93,0,0,0,32.59,64.56Z"/><path class="cls-3" d="M363.88,46.13a79.73,79.73,0,0,0-14.69-11.33L242.63,141.34l3.11,23.83L364.32,46.6Z"/><path class="cls-3" d="M48.28,365.91A87.39,87.39,0,0,0,64,377.1L164,277.36l.22-27.17Z"/><path class="cls-2" d="M7.92,256.71H402.08a462.23,462.23,0,0,0,.65-97.38H7.26A462.21,462.21,0,0,0,7.92,256.71Z"/><path class="cls-2" d="M155.55,7.66V402.34a462.6,462.6,0,0,0,97.38.16V7.49A462.56,462.56,0,0,0,155.55,7.66Z"/><path class="cls-3" d="M171.05,6.24V403.76a468,468,0,0,0,66.38.11V6.13A468,468,0,0,0,171.05,6.24Z"/><path class="cls-3" d="M6.41,241.21H403.59a467.7,467.7,0,0,0,.43-66.38H6A467.76,467.76,0,0,0,6.41,241.21Z"/><path class="cls-4" d="M352.15,57.85c-50.22-50.22-240.81-50.22-291,0-28.57,28.58,262.45,319.61,291,291C402.37,298.66,402.37,108.07,352.15,57.85Z"/><path class="cls-5" d="M363.88,46.13C309-8.71,101-8.71,46.12,46.12S-8.71,309,46.12,363.88s262.92,54.83,317.75,0S418.71,101,363.88,46.13Z"/></svg>