<svg xmlns="http://www.w3.org/2000/svg" viewBox="0 0 96.63 96.43"><defs><style>.cls-1{fill:#a2c3e4;}.cls-2{fill:#538fc6;}</style></defs><title>eis</title><g id="Layer_2" data-name="Layer 2"><path class="cls-1" d="M2,99s24-30,7.2-63.54c0,0,87.52-34.77,56.35,56.35C65.53,91.81,37.35,74.42,2,99Z" transform="translate(-1.98 -2.57)"/><path class="cls-2" d="M9.18,91.81s24-30,7.19-63.55c0,0,87.52-34.77,56.35,56.35C72.72,84.61,44.55,67.23,9.18,91.81Z" transform="translate(-1.98 -2.57)"/></g><g id="Layer_1" data-name="Layer 1"><path class="cls-1" d="M21.17,79.82s24-30,7.19-63.55c0,0,87.52-34.76,56.35,56.35C84.71,72.62,56.53,55.24,21.17,79.82Z" transform="translate(-1.98 -2.57)"/><path class="cls-2" d="M28.36,72.62s24-30,7.19-63.54c0,0,87.52-34.77,56.35,56.35C91.9,65.43,63.73,48.05,28.36,72.62Z" transform="translate(-1.98 -2.57)"/></g></svg>