<svg id="Layer_1" data-name="Layer 1" xmlns="http://www.w3.org/2000/svg" viewBox="0 0 466.86 720.19"><defs><style>.cls-1{fill:#e1580a;}.cls-1,.cls-3,.cls-4{fill-rule:evenodd;}.cls-2{fill:#686867;}.cls-3,.cls-5{fill:#e15711;}.cls-4{fill:#6e6b6e;}</style></defs><title>imakr</title><path class="cls-1" d="M30.28,206.58H88.06q11.43,203.23,22.22,407.1H7.17C13.81,478.1,21.5,343.58,29.39,209.24,29.32,208,29.25,206.72,30.28,206.58Z"/><path class="cls-1" d="M224.79,323.2c21.08,0,44.67-.09,64,0,0,59.23,0,119.38,0,178.64,38-55.92,75.35-120.2,113.78-178.64h64V613.84H401.68V442.28c-36.54,53.54-72.39,115.45-109.33,171.55H223.9V441.39c-36.43,52.75-73.07,119.35-109.33,172.26-1.91-37.66-3.34-59.16-4-77.62-.32-8.45-1.19-21-1.58-29.17,0-.82-.31-.45.12-1.37,2.62-5.61,9.93-16.18,14.38-23.21,13.86-21.88,29.74-46.31,42.67-66.67C186.25,383.93,204.62,351.65,224.79,323.2Z"/><circle class="cls-2" cx="178.69" cy="115.42" r="32.17"/><circle class="cls-2" cx="128.95" cy="161.6" r="21.32"/><circle class="cls-2" cx="224.35" cy="44.36" r="44.36"/><path class="cls-3" d="M280.26,710.69c-.36,2.61-4.49,4.89-6.27,5.89-.48.27-.8.21-1.81-.06a5.41,5.41,0,0,1-1.55-4.88c.11-1.21-.61-3.46.58-4.45C274.07,706.06,281,704.13,280.26,710.69Z"/><path class="cls-4" d="M106.79,654.77c-1.26,10.35-4.69,30.37-5,44.62-.11,5.71-.92,11.69,1.34,13.77.94.87,2,0,2.54,2.45-.89,6-6.37,4.77-7.71,3.71-7.53-7.59-1.07-35.42-.62-51.63-4.69,5.16-8.06,10.29-13.18,17.47-3.73,5.22-10.4,16.27-14.24,17.07-9.22-2.62-15.29-27.08-18.45-35.24-1.53,6.71-3.69,13.42-5.43,20.31-1.85,7.32-3.19,14.88-1.7,24.16-.71,5-4.45,4.07-7.15,3.17-3.46-3.22-2.38-10.58-.71-15.59-5.16,4-16,21.41-29.43,16.87C3.93,714.86.29,706.36,0,699.1c-.05-6.63-.1-15,3.55-19.14,1.34-1.52,4.22-2.27,5.23-.77-.76,9.51-5,25.88,2.49,30.38,1.52.33,4.45-.5,5.67-1.12,10.69-5.44,13.47-9.87,21.86-18.4C40.15,683.79,42.4,677,44,671c1.25-4.86.8-9.14,4.2-12.3,6.31-.51,7.3,1,9.57,5.61,3.52,11.5,8.65,23.94,12.21,28.79,1.29-.4,2.4-1.82,3.39-3,2.87-3.51,3-5.39,5.75-9,7-9.14,15.33-19.48,21.8-29.24C102.08,651,106.09,652.5,106.79,654.77Z"/><path class="cls-4" d="M14.93,654.81a4.05,4.05,0,0,1,.68,2.61,5.64,5.64,0,0,1-2.38,5.07c-2.08,1.33-5.12,1-7.87-.24-1.47-4.15,3.66-9.19,7.21-8.31A5.18,5.18,0,0,1,14.93,654.81Z"/><path class="cls-4" d="M232.51,696.76c-3.25,3.51-14,19.47-23.55,20.53-11.28,1.25-14.75-10.47-22.13-16-1.24.9-6.51,4.67-6.24,11.74a7.29,7.29,0,0,1-.88,3.61c-1,1.45-4.16,1.29-4.88.37-1.81-3.36,1.56-14.36,2-22-4.83,4.82-25.92,26.42-33.25,8.3-6.85,5.23-11,13.21-22.7,13.53-3-.36-4.37-3.67-4.53-6.89-2.7,2.12-2.26,3.06-6.36,5.34-1.16.78-4.14-.35-3.12-1,3.2-2.18,7.41-8.34,9.3-11,3.1-15.75,18-32.16,31.4-26.78,3.92,4,2.54,7.7,1.59,12.66-1.18,6.14-1.94,12.9,5.22,14.3,7.38,1.44,19.48-11.51,23.31-15.67,1.34-5.7,1.62-13.66,2.29-20.5.53-5.42-.74-12.09,4-13,2.56-.22,2.56.49,3.36.85,1.62,1.15,0,8.48-1.65,17.26a232.18,232.18,0,0,0-4.19,27.7c7.16-6.13,14-25.5,25.17-27.07,1.44-.2,3.09.18,3.93,3.2-1.44,4.2-5.34,6.16-8.24,8.69-4.18,3.65-7.82,8.38-11.53,12.21,9.33,6.51,13.27,19.43,24.87,10.76,5.65-4.22,11.83-11.35,17.68-18.45.59-6.06,1.45-11.29,4.66-11.56,1.3-.15,2.1.66,2.56,1.91,1,3.14-.95,7.93-.9,9.94,2.17-4.31,15.51-18.27,25.16-10.11.83,1.13.39,3.89-1,3.84-6.24-.24-10.81.61-14.74,3.92-5.43,4.58-10.6,13.49-11.84,18.22-.87,3.32.52,11.64-.07,12.15-1,.68-3.26,1.08-4,.45C229.5,713.89,232.14,702.32,232.51,696.76ZM122.94,709c4.36,3.36,23-11.59,19.84-26.9C128.92,683.71,118.64,703.47,122.94,709Z"/><path class="cls-5" d="M466.44,687.52a1.88,1.88,0,0,0-1.55.71c-.71.71-16.28,17.47-21.56,16.22-2.87-.68-3.15-3.92-3.74-5s-2.08-16.63-2.32-17.11-.65-3.45-4.69-3.15-10.13,9.29-11.41,11.88c-1.9,3.86-7.13,11.64-7.13,11.64s-1.72,1.66-2.32-7c-.62-9.08-.54-14.49-6.42-15.45s-13.07,11.91-13.07,11.91-9.27,15.3-9.62,14.46,1.48-10.69,2-13.54,1.72-11.76,1.43-12.59a3.58,3.58,0,0,0-2.85-2.79c-1.78-.3-4,2.49-4,2.49a8.17,8.17,0,0,1-4.63.89,30.79,30.79,0,0,1-8.32-2.55,25.82,25.82,0,0,1-2.61-2.61,8.7,8.7,0,0,0-5.11-2.44,9.64,9.64,0,0,0-3.56.61c-1.37.37-4.1,2.48-5.35,3.43a47.18,47.18,0,0,0-5.23,6c-.65,1-4.93,7.6-6.89,10.81s0,1.37-2.2,5.29a56,56,0,0,1-8.85,6.77,46.79,46.79,0,0,1-7.6,3.62c-2.49,1-7.84,1.78-9.86,1.43s-2.91-.65-5-3.45.06-9.62.06-9.92a36.66,36.66,0,0,1,4.16-10.57c3-5.23,6.37-5.88,6.85-6s1.47,3.33,2.84,6.36,3,2.32,3.56,2.08,1.66-3.09,1.49-5.29-2.85-9-6.83-10.51c-1.36-.53-3,1-4.28,1.78a36.93,36.93,0,0,0-6.3,6.06,98.84,98.84,0,0,0-5.23,8.79c-.53,1.13-3.9,7.2-3.42,13.91s2.77,9.08,4.85,10.86,6,2,9.5,2c5.29,0,11.11-3,12.65-3.8s10.1-7.31,10.28-7.25a14,14,0,0,0,3.41,7.28c3.84,4.48,8.47,2.7,13.29,2a21.8,21.8,0,0,0,8.38-3.68,26.2,26.2,0,0,0,4.1-3.74,29.43,29.43,0,0,0,7.19-13.19,12,12,0,0,0-1.25-8.38h4.69a11.76,11.76,0,0,0,4.69-1.19c.06.18-.71,8.49-1,10.22s-1.25,12.06-1,14.85,1.6,5.47,4.4,5.94,4.75-3.68,4.75-3.68,7-12.06,9-15,7-10.16,9-9.56c1.5.45,1.9,5.41,1.9,5.41s1.31,15.92,1.9,16.81a4,4,0,0,0,3.86,2.38c2.56,0,6.12-6.06,6.24-6.3s4.58-7.49,6.12-10S427,692,428.48,690s2.67-2.26,2.91-2.08,1,2.14,1.13,5a104.36,104.36,0,0,0,3.09,14.73,6.73,6.73,0,0,0,5.88,3.8c3.74,0,10-4.34,12.3-6.12s12.12-10.34,13-15.62A2.85,2.85,0,0,0,466.44,687.52Zm-103.78,12.3c-2.08,2.91-5.9,7.31-9.4,8.79s-6.28,1.9-8.18,1.48-3.92-3-3.86-4.52.35-8.18,4.15-12.69,7.61-10.65,9.57-10.65c2.14,0,2.2.65,3,1s2.26,1.31,2.55,1.31.95-.3,1.43,0a7.54,7.54,0,0,1,2.79,5.7C364.68,693.4,364.74,696.91,362.66,699.82Z"/></svg>