<svg xmlns="http://www.w3.org/2000/svg" viewBox="0 0 486.34 480.23"><defs><style>.cls-1{fill:#202977;}.cls-2{fill:#0971c7;}.cls-3{fill:#4197d1;}</style></defs><title>medasys</title><g id="Calque_3" data-name="Calque 3"><rect class="cls-1" width="226.23" height="226.23" rx="25" ry="25"/><rect class="cls-2" x="260.11" width="226.23" height="226.23" rx="25" ry="25"/><rect class="cls-3" x="260.11" y="254" width="226.23" height="226.23" rx="25" ry="25"/></g><g id="Calque_1" data-name="Calque 1"><path class="cls-1" d="M139.68,366.21l-1-21.73-1.3-.2L133,366.91c-7.24-3.42-14-6.46-20.54-9.86-1-.53-1.78-2.83-1.6-4.17q3.92-30.22,8.27-60.38a4.32,4.32,0,0,1,3.16-2.69q20.24-.28,40.48,0c1,0,2.81,1.77,2.95,2.87q3.8,31.5,7.16,63c.13,1.18-.62,3.24-1.51,3.63C161.5,363.74,151.53,368,139.68,366.21Z"/><path class="cls-1" d="M76.56,424.71H38.23c1-9.63,2-19,3.08-28.33,1.26-11.24,2.7-22.46,3.79-33.71.34-3.53,1.84-5.35,5.15-6.29,8.4-2.41,16.83-3.85,25.59-2.21,2.46.46,3.87,1.14,3.75,4.06-.9,21.44-1.68,42.88-2.52,64.32A12.47,12.47,0,0,1,76.56,424.71Z"/><path class="cls-1" d="M106.5,352.8c-17.71-14.47-32.48-31-56.45-31.71L54,289.72H98.21Z"/><path class="cls-1" d="M123.26,425c-8.22,0-16.19.09-24.15-.1-1.08,0-2.9-1.26-3.08-2.18-4.27-21.82-8.35-43.67-12.7-66.69,3.33,1.46,5.93,2.09,7.92,3.55,9.62,7.07,18.67,15,28.73,21.37,8.58,5.43,10.33,11.77,7.68,21-2,6.82-2.51,14-3.7,21.09A15.23,15.23,0,0,1,123.26,425Z"/><path class="cls-1" d="M140.56,394.78c11.9.91,23.4,1.73,34.88,2.75,1.1.1,2.88,1.35,3,2.25,1.07,8.17,1.85,16.38,2.74,24.93H141.87Z"/><path class="cls-1" d="M58.83,431.84,61,454.61H55.08V442.36l-1.44-.23a54.17,54.17,0,0,1-2.14,7.21,38.86,38.86,0,0,1-3.66,5.57,43.89,43.89,0,0,1-3-5.5c-.79-2.06-1.1-4.3-2.7-6.33l-1.48,11.56-5.21.32c.65-7.37,1.14-14.28,2-21.13.12-1,2.24-2.4,3.33-2.31,1.6.13,4,1.09,4.47,2.31,1.24,3.09,1.61,6.53,3.46,9.72.45-2.06.93-4.11,1.35-6.18C51.39,430.89,51.38,430.89,58.83,431.84Z"/><path class="cls-1" d="M121.39,454.35c-3.51.91-5.69,1.15-6.59-2.41-.24-.94-2.17-2.09-3.26-2-1.33.08-2.66,1.25-3.86,2.13-1.52,1.11-2.92,2.4-4.37,3.61l-1.74-1.4c2.42-7.16,4.76-14.35,7.37-21.43.29-.78,2.19-1.44,3.26-1.33a3.87,3.87,0,0,1,2.79,2C117.21,440.28,119.2,447.12,121.39,454.35Z"/><path class="cls-1" d="M84.35,454.7V431.65c5.22-.34,10.55-1.68,13.75,3.57a14.84,14.84,0,0,1,.11,15.72C95.13,456.26,89.73,455,84.35,454.7Zm4.67-19v14.57c4.68,0,5.9-1.31,6.16-6.29C95.48,438.21,94.12,436.23,89,435.69Z"/><path class="cls-1" d="M165.77,451.38a21.86,21.86,0,0,1,4-.83c1.62,0,3.34.67,4.85.33a4.07,4.07,0,0,0,2.3-2.74c.15-.63-1.07-1.91-2-2.38-1.29-.68-3.32-.47-4.17-1.41-1.83-2-4.44-4.65-4.26-6.83s3-5.23,5.27-6c3-1,6.67-.26,10-.26l.41,2.5a29,29,0,0,1-4.36,1.35c-1.28.2-2.67-.32-3.93-.08a2.94,2.94,0,0,0-2,1.73,2.87,2.87,0,0,0,1.38,2.25,27.21,27.21,0,0,0,4.24,1.42c3.34,1.14,6,3.51,5,7-.74,2.63-3,5.91-5.38,6.75-3.25,1.16-7.22.29-10.89.29Z"/><path class="cls-1" d="M141.07,434.06a14.65,14.65,0,0,1-3.36,1.23c-1.28.15-2.7-.52-3.92-.23s-2,1.33-3,2a14.06,14.06,0,0,0,2.28,2.24,10.47,10.47,0,0,0,2.84.9c3.89,1,6.06,3.48,5.68,7.6-.39,4.29-3.18,6.66-7.21,7-3,.22-6.1-.53-9.15-.85l-.48-2.05a18.48,18.48,0,0,1,3.91-1.35c1.09-.13,2.38.83,3.36.54,1.42-.41,2.64-1.51,3.94-2.32a19,19,0,0,0-2.86-3.32c-.87-.64-2.62-.3-3.24-1-1.78-2.09-4.14-4.36-4.51-6.83-.54-3.49,2.18-6,5.7-6.3,3.17-.27,6.41.38,9.62.62Z"/><path class="cls-1" d="M78.35,430.88c.73,4.55-1.92,4.06-4.23,4.41-.94.14-1.72,1.42-2.57,2.18A21.26,21.26,0,0,0,73.87,440c1.17.94,2.51,1.68,3.78,2.51-1.36.56-2.71,1.14-4.08,1.69-.44.18-.92.27-1.7.5V449c2,2.91,8.85-1.95,7.68,5.65H65.93c0-7.29-.08-14.52.12-21.73,0-.71,1.73-1.87,2.72-1.95C71.87,430.72,75,430.88,78.35,430.88Z"/><path class="cls-1" d="M145,432c7.48-2.55,6.8,4.23,9.6,6.87,3.59-1.57,2.08-9.46,9.21-6.92-.91,1.78-1.68,3.55-2.66,5.2-2.58,4.34-4.4,8.76-4,14,.3,3.63-.11,3.66-5.37,3.44C153.88,446,149,439.21,145,432Z"/></g></svg>