<svg id="Calque_1" data-name="Calque 1" xmlns="http://www.w3.org/2000/svg" xmlns:xlink="http://www.w3.org/1999/xlink" viewBox="0 0 117.45 111.2"><defs><style>.cls-1{fill:#b3dfd9;}.cls-2{fill:#25b9a1;}.cls-3{fill:url(#linear-gradient);}.cls-4{fill:#62c2a5;}.cls-5{fill:url(#linear-gradient-2);}.cls-6{fill:url(#linear-gradient-3);}.cls-7{fill:#88cfc1;}.cls-8{opacity:0.5;fill:url(#linear-gradient-4);}</style><linearGradient id="linear-gradient" x1="80.13" y1="36.71" x2="98.35" y2="48.68" gradientUnits="userSpaceOnUse"><stop offset="0" stop-color="#066"/><stop offset="1" stop-color="#23b7a1" stop-opacity="0"/></linearGradient><linearGradient id="linear-gradient-2" x1="57.57" y1="79.46" x2="80.22" y2="55.42" gradientUnits="userSpaceOnUse"><stop offset="0" stop-color="#066" stop-opacity="0.6"/><stop offset="1" stop-color="#23b7a1" stop-opacity="0"/></linearGradient><linearGradient id="linear-gradient-3" x1="41.45" y1="33.85" x2="23.76" y2="45.56" xlink:href="#linear-gradient"/><linearGradient id="linear-gradient-4" x1="51.92" y1="96.4" x2="64.3" y2="92.6" xlink:href="#linear-gradient-2"/></defs><title>mmf</title><polygon class="cls-1" points="0 0 0 100.88 25.89 105.42 25.89 0 0 0"/><polygon class="cls-2" points="117.45 0 117.45 100.88 91.54 105.43 91.54 0 117.45 0"/><polygon class="cls-3" points="91.54 0 91.54 105.43 117.45 100.88 117.45 0 91.54 0"/><polygon class="cls-4" points="91.54 0 117.45 0 71.17 80.98 71.17 108.88 46.37 108.88 46.37 80.98 91.54 0"/><polygon class="cls-5" points="91.54 0 117.45 0 70.93 81.35 70.99 108.62 46.56 108.74 46.65 80.56 91.54 0"/><polygon class="cls-6" points="0 0 0 100.88 25.89 105.42 25.89 0 0 0"/><polygon class="cls-7" points="25.91 0 0 0 46.37 80.98 46.37 108.88 58.77 111.2 71.17 108.88 71.17 80.98 25.91 0"/><polygon class="cls-8" points="58.77 111.2 58.77 75.91 71.17 108.88 58.77 111.2"/></svg>