<svg xmlns="http://www.w3.org/2000/svg" viewBox="0 0 88.16 98.97"><defs><style>.cls-1{fill:#25195e;}.cls-2{fill:#d71017;}</style></defs><title>msamlin</title><g id="Layer_1" data-name="Layer 1"><path class="cls-1" d="M56.63,10.66c-13.82,11.42-29.36,11.66-41,25C1.35,52,3.26,60.34,18,76,48.33,108,54.84,107.88,84.5,74.51c12.74-14.35,12.64-18-.16-32.53C76.54,33.14,65.37,20.93,56.63,10.66Z" transform="translate(-5.84 -0.81)"/></g><g id="Layer_2" data-name="Layer 2"><path class="cls-2" d="M43.06,96.27c3.73,6.44-14.54-6.9-25.11-17.92C3.17,63,1.35,51.23,15.64,35.12,27.27,22,42.81,12.24,56.63,1c0,0,11.28-1.59,8.05,4.76-2.57,5.39-32.23,34.92-12.89,25.4,0,0,12.89-3.18-3.22,22.22C48.57,53.37,31.1,75.66,43.06,96.27Z" transform="translate(-5.84 -0.81)"/></g></svg>