<svg id="Layer_1" data-name="Layer 1" xmlns="http://www.w3.org/2000/svg" viewBox="0 0 201.75 213.89"><defs><style>.cls-1{fill:#ff7a24;}.cls-2{fill:#00a3d9;}</style></defs><title>surely</title><path class="cls-1" d="M112,152.43q-14.52-4.15-22.68-12.31T81.17,115.6q0-19.7,14.13-30.85T133.81,73.6a110.45,110.45,0,0,1,20,1.81,128.26,128.26,0,0,1,20,5.45,71.41,71.41,0,0,1-2.59,14,67.44,67.44,0,0,1-4.93,12.7A103.44,103.44,0,0,0,152.48,103a62.57,62.57,0,0,0-15.82-1.95q-8.82,0-13.74,2.72a9.21,9.21,0,0,0-4.93,8.69q0,5.71,3.5,8a40.86,40.86,0,0,0,10,4.41l14.78,4.41a73.11,73.11,0,0,1,13.1,5.06,36,36,0,0,1,10,7.39,31,31,0,0,1,6.48,10.89,47,47,0,0,1,2.33,15.81,40.51,40.51,0,0,1-4,17.9,41.3,41.3,0,0,1-11.67,14.39,57.72,57.72,0,0,1-18.53,9.58,80.23,80.23,0,0,1-24.64,3.51q-6.22,0-11.41-.39a91.8,91.8,0,0,1-10-1.3q-4.8-.91-9.47-2.2c-3.12-.87-6.48-2-10.11-3.37a74.53,74.53,0,0,1,2.46-14.14,89,89,0,0,1,5.06-13.86,106.88,106.88,0,0,0,16.2,5.05,73.39,73.39,0,0,0,16,1.69,53.9,53.9,0,0,0,7.91-.64,29.09,29.09,0,0,0,7.91-2.34,18.79,18.79,0,0,0,6.09-4.41,10.22,10.22,0,0,0,2.46-7.13q0-6.23-3.76-9a36.32,36.32,0,0,0-10.51-4.8Z"/><path class="cls-2" d="M19.71,192.66A125.08,125.08,0,0,1,0,125.18H0A124.81,124.81,0,0,1,36.65,36.68h0A124.78,124.78,0,0,1,125.17,0h0a125.09,125.09,0,0,1,67.48,19.72h0a19.77,19.77,0,0,1,6,27.29h0a19.77,19.77,0,0,1-27.31,6h0a85.55,85.55,0,0,0-46.16-13.48h0A85.16,85.16,0,0,0,64.61,64.62h0a85.29,85.29,0,0,0-25.09,60.56h0A85.63,85.63,0,0,0,53,171.35h0a19.76,19.76,0,0,1-6,27.29h0a19.65,19.65,0,0,1-10.63,3.12h0a19.76,19.76,0,0,1-16.66-9.11Z"/></svg>