<svg id="Calque_1" data-name="Calque 1" xmlns="http://www.w3.org/2000/svg" viewBox="0 0 75 75"><defs><style>.cls-1{fill:#231f20;}</style></defs><title>codepen</title><path id="codepen_logo" class="cls-1" d="M75,25.65s0-.09,0-.14,0-.18-.06-.27,0-.1-.05-.16-.05-.16-.08-.23l-.07-.16-.11-.21-.09-.15-.14-.19L74.24,24l-.16-.17-.13-.13-.18-.15-.15-.11-.05,0L39.29.54a3.22,3.22,0,0,0-3.58,0L1.44,23.39l-.05,0-.15.11-.18.15-.13.13L.76,24l-.11.14-.14.19-.09.15-.11.21-.07.16c0,.08-.06.15-.08.23l-.05.16c0,.09,0,.18-.06.27s0,.09,0,.14a3.09,3.09,0,0,0,0,.42V48.93a3.27,3.27,0,0,0,0,.42s0,.09,0,.14,0,.18.06.27l.05.16c0,.08.05.16.08.24l.07.16.11.21.09.15.14.19L.77,51l.16.17.13.13.18.15.15.11.05,0L35.71,74.46a3.22,3.22,0,0,0,3.58,0L73.56,51.61l.05,0,.15-.11.18-.15.13-.12.16-.17.11-.14.14-.19.09-.15.11-.21.07-.16c0-.08.06-.16.08-.24s0-.1.05-.16,0-.18.06-.27,0-.09,0-.14a3.3,3.3,0,0,0,0-.42V26.07a3.43,3.43,0,0,0,0-.42M40.72,9.24,66,26.08,54.7,33.62l-14-9.35Zm-6.45,0v15l-14,9.35L9,26.08ZM6.45,32.11l8.06,5.39L6.45,42.89ZM34.28,65.76,9,48.92l11.28-7.54,14,9.34ZM37.5,45.12,26.1,37.5l11.4-7.63L48.9,37.5Zm3.22,20.63v-15l14-9.34L66,48.92,40.72,65.76ZM68.55,42.89,60.49,37.5l8.06-5.39Z"/></svg>