<svg id="github_logo" data-name="github logo" xmlns="http://www.w3.org/2000/svg" viewBox="0 0 70 68.27"><title>github</title><path id="github_logo" d="M35,0A35,35,0,0,0,23.94,68.21c1.75.32,2.39-.76,2.39-1.69s0-3,0-6c-9.74,2.11-11.79-4.69-11.79-4.69-1.59-4-3.89-5.12-3.89-5.12-3.18-2.17.24-2.13.24-2.13,3.51.25,5.36,3.61,5.36,3.61,3.12,5.35,8.19,3.8,10.19,2.91a7.48,7.48,0,0,1,2.22-4.68c-7.77-.89-15.94-3.89-15.94-17.3a13.53,13.53,0,0,1,3.6-9.39,12.61,12.61,0,0,1,.34-9.26s2.94-.94,9.63,3.59a33.13,33.13,0,0,1,17.53,0c6.68-4.53,9.61-3.59,9.61-3.59a12.56,12.56,0,0,1,.35,9.26,13.5,13.5,0,0,1,3.6,9.39c0,13.44-8.18,16.4-16,17.27,1.26,1.08,2.38,3.22,2.38,6.48,0,4.68,0,8.45,0,9.6,0,.94.63,2,2.41,1.68A35,35,0,0,0,35,0Z"/></svg>