<svg id="Calque_1" data-name="Calque 1" xmlns="http://www.w3.org/2000/svg" viewBox="0 0 83.78 65"><defs><style>.cls-1{fill:#d14836;}</style></defs><title>gplus</title><g id="googleplus_logo"><path id="g" class="cls-1" d="M42.57,0H25a36.74,36.74,0,0,0-7.55.85A18.1,18.1,0,0,0,9.73,4.69a15.79,15.79,0,0,0-4.1,5.42,14.54,14.54,0,0,0-1.36,6A13.5,13.5,0,0,0,5.2,21a12.86,12.86,0,0,0,2.73,4.31,13.47,13.47,0,0,0,4.44,3,15,15,0,0,0,6.06,1.15c.45,0,.91,0,1.36,0s.91-.07,1.36-.13c-.23.51-.43,1-.6,1.49a5.59,5.59,0,0,0-.26,1.83A6.16,6.16,0,0,0,21.11,36a25.75,25.75,0,0,0,1.75,2.52c-1,.05-2.11.14-3.41.25a40.84,40.84,0,0,0-4.18.6,38.71,38.71,0,0,0-4.48,1.15A19.59,19.59,0,0,0,6.57,42.4,12.32,12.32,0,0,0,0,52.8a10,10,0,0,0,1.11,4.56,11.23,11.23,0,0,0,3.41,3.88A18.26,18.26,0,0,0,10.28,64a28.43,28.43,0,0,0,8.06,1A30.57,30.57,0,0,0,28,63.59a22.51,22.51,0,0,0,7-3.67,15.59,15.59,0,0,0,4.26-5.17,13.08,13.08,0,0,0,1.45-5.89,11.83,11.83,0,0,0-.6-3.93,12.08,12.08,0,0,0-1.58-3.08,16,16,0,0,0-2.3-2.56Q35,38.1,33.61,36.9L30.54,34.5c-.46-.4-.94-.87-1.45-1.41a3.17,3.17,0,0,1-.77-2.26,3.66,3.66,0,0,1,.77-2.39q.77-.94,1.62-1.8,1.37-1,2.64-2.18a16.38,16.38,0,0,0,2.3-2.56,11.62,11.62,0,0,0,1.62-3.2,13.28,13.28,0,0,0,.6-4.19,12.5,12.5,0,0,0-.68-4.27A15.49,15.49,0,0,0,35.57,7a14.33,14.33,0,0,0-2-2.39q-1-1-1.79-1.58h5.29l5.46-3ZM29.94,44a19.41,19.41,0,0,1,2.9,2.64,9.87,9.87,0,0,1,1.66,2.6,7.55,7.55,0,0,1,.55,2.95,8.15,8.15,0,0,1-3.2,6.61q-3.2,2.6-9.34,2.6-6.91,0-11-2.9A8.85,8.85,0,0,1,7.51,51a7.53,7.53,0,0,1,.89-3.84,9.91,9.91,0,0,1,2.09-2.56A10,10,0,0,1,12.92,43c.82-.37,1.46-.64,1.92-.81a28.17,28.17,0,0,1,2.82-.73,27,27,0,0,1,2.73-.43c.85-.09,1.59-.14,2.22-.17l1.2,0h1.06a5.33,5.33,0,0,1,.9.09q2.39,1.7,4.18,3.07ZM30,21.48a6.22,6.22,0,0,1-1.79,3.25,8.24,8.24,0,0,1-2.6,1.71,8,8,0,0,1-3.2.69,7.4,7.4,0,0,1-4.73-1.58,13.3,13.3,0,0,1-3.32-3.89,18.76,18.76,0,0,1-2-5,20.57,20.57,0,0,1-.64-4.8,14.46,14.46,0,0,1,.39-3.34A7.53,7.53,0,0,1,16.29,3.5a7.68,7.68,0,0,1,3.32-.77,7.28,7.28,0,0,1,4.65,1.58,13.55,13.55,0,0,1,3.37,4,20.19,20.19,0,0,1,2,5.14,21,21,0,0,1,.68,5.05,16.63,16.63,0,0,1-.34,3Z"/><polygon id="_" data-name="+" class="cls-1" points="83.78 17.79 83.78 13.46 70.17 13.46 70.17 0 65.85 0 65.85 13.46 52.17 13.46 52.17 17.79 65.85 17.79 65.85 31.46 70.17 31.46 70.17 17.79 83.78 17.79"/></g></svg>