<svg id="Calque_1" data-name="Calque 1" xmlns="http://www.w3.org/2000/svg" viewBox="0 0 65 62.04"><defs><style>.cls-1{fill:#007fb1;}</style></defs><title>linkedin</title><g id="linkedin_logo"><rect id="i_2" class="cls-1" x="0.82" y="20.18" width="13.94" height="41.86"/><path id="i_1" class="cls-1" d="M7.88,0C3.11,0,0,3.13,0,7.23s3,7.24,7.7,7.24h.09c4.86,0,7.88-3.22,7.88-7.24S12.65,0,7.88,0Z"/><path id="n" class="cls-1" d="M49,19.2A13.84,13.84,0,0,0,36.4,26.11V20.18H22.47c.19,3.93,0,41.86,0,41.86H36.4V38.66a9.57,9.57,0,0,1,.46-3.4A7.63,7.63,0,0,1,44,30.18c5,0,7.06,3.84,7.06,9.47V62H65V38C65,25.18,58.12,19.2,49,19.2Z"/></g></svg>