<svg id="Calque_1" data-name="Calque 1" xmlns="http://www.w3.org/2000/svg" viewBox="0 0 70 69.83"><defs><style>.cls-1{fill:#03b8ef;}</style></defs><title>skype</title><path id="skype_logo" class="cls-1" d="M67.52,40.75a33.44,33.44,0,0,0,.55-6A33,33,0,0,0,35,1.7a33.34,33.34,0,0,0-6.26.59h0l.34.18-.69-.11.35-.07A19.56,19.56,0,0,0,2.46,29.06c0-.12,0-.24.06-.36l.12.69-.18-.33a33.28,33.28,0,0,0-.5,5.7A33,33,0,0,0,35,67.81a33.3,33.3,0,0,0,5.79-.51A19.56,19.56,0,0,0,67.52,40.74ZM35.15,55c-11.74,0-17-5.77-17-10.1a3.69,3.69,0,0,1,3.9-3.78c5,0,3.72,7.22,13.1,7.22,4.8,0,7.45-2.6,7.45-5.27,0-1.6-.79-3.38-4-4.16L28.21,36.3c-8.41-2.11-9.94-6.65-9.94-10.93,0-8.88,8.36-12.21,16.2-12.21,7.23,0,15.75,4,15.75,9.32,0,2.28-2,3.61-4.23,3.61-4.29,0-3.5-5.94-12.14-5.94-4.29,0-6.66,1.94-6.66,4.72s3.39,3.66,6.33,4.33l7.73,1.72c8.47,1.89,10.61,6.83,10.61,11.49,0,7.21-5.54,12.6-16.71,12.6Z"/></svg>