<svg id="Calque_1" data-name="Calque 1" xmlns="http://www.w3.org/2000/svg" viewBox="0 0 54.97 69.97"><defs><style>.cls-1{fill:#f47920;}</style></defs><title>stackoverflow</title><g id="stackoverflow_logo"><rect id="stackoverflow_7" class="cls-1" x="8.64" y="54.72" width="27.63" height="5.9"/><rect id="stackoverflow_6" class="cls-1" x="46.75" y="0.3" width="5.9" height="27.63" transform="translate(-1.68 8.71) rotate(-9.85)"/><rect id="stackoverflow_5" class="cls-1" x="19.95" y="35.04" width="5.9" height="27.63" transform="translate(-27.85 67.17) rotate(-84.73)"/><rect id="stackoverflow_4" class="cls-1" x="21.67" y="24.89" width="5.9" height="27.63" transform="translate(-19.14 52.43) rotate(-74.95)"/><rect id="stackoverflow_3" class="cls-1" x="25.85" y="14.37" width="5.9" height="27.63" transform="translate(-10.11 38.67) rotate(-59.47)"/><rect id="stackoverflow_2" class="cls-1" x="34.88" y="5.01" width="5.9" height="27.63" transform="translate(-4.03 24.59) rotate(-34.3)"/><path id="stackoverflow_1" class="cls-1" d="M41,65.32H4.72V41.2H0V70H0s1.38,0,1.38,0H45.63v0a13.52,13.52,0,0,0,0-1.38V41.2H41V65.32Z"/></g></svg>