<svg id="Calque_1" data-name="Calque 1" xmlns="http://www.w3.org/2000/svg" viewBox="0 0 70 70"><defs><style>.cls-1{fill:#21759b;}</style></defs><title>wp</title><path id="wordpress_logo" class="cls-1" d="M35,0A35,35,0,1,0,70,35,35,35,0,0,0,35,0M3.53,35A31.35,31.35,0,0,1,6.26,22.19l15,41.13A31.47,31.47,0,0,1,3.53,35M35,66.47a31.51,31.51,0,0,1-8.89-1.28l9.44-27.44,9.67,26.5a2.85,2.85,0,0,0,.22.44A31.43,31.43,0,0,1,35,66.47m4.34-46.22c1.9-.1,3.6-.3,3.6-.3a1.3,1.3,0,0,0-.2-2.59s-5.1.4-8.39.4c-3.09,0-8.29-.4-8.29-.4a1.3,1.3,0,0,0-.2,2.59s1.61.2,3.3.3l4.9,13.43L27.18,54.33,15.72,20.25c1.9-.1,3.6-.3,3.6-.3a1.3,1.3,0,0,0-.2-2.59s-5.1.4-8.39.4c-.59,0-1.29,0-2,0a31.46,31.46,0,0,1,47.54-5.92l-.41,0a5.45,5.45,0,0,0-5.28,5.58c0,2.59,1.5,4.79,3.09,7.38a16.57,16.57,0,0,1,2.59,8.68c0,2.69-1,5.82-2.4,10.17L50.71,54.07Zm23.28-.34A31.47,31.47,0,0,1,50.82,62.2l9.61-27.79a29.72,29.72,0,0,0,2.39-11.27,24.2,24.2,0,0,0-.21-3.24"/></svg>