<svg id="Atlassian___Blue" data-name="Atlassian _ Blue" xmlns="http://www.w3.org/2000/svg" viewBox="0 0 794.24 168.87"><defs><style>.cls-1{fill:#205081;}.cls-2{fill:#59afe1;}</style></defs><title>atlassian</title><path class="cls-1" d="M231.78,45.34a3.15,3.15,0,0,0-3-2.2H199.38a3.15,3.15,0,0,0-3,2.2L159.29,163a3.15,3.15,0,0,0,3,4.1h20.24a3.15,3.15,0,0,0,3-2.26l25.54-86.5a3.18,3.18,0,0,1,3-2.16A3.06,3.06,0,0,1,217,78.38l11.85,41H212.93a3.15,3.15,0,0,0-3,2.3l-4.57,16.24a3.15,3.15,0,0,0,3,4h27.11l7.14,22.9a3.15,3.15,0,0,0,3,2.21h20.25a3.15,3.15,0,0,0,3-4.1Z"/><path class="cls-1" d="M319.95,148.93a3.15,3.15,0,0,0-3.88-2.59,38.76,38.76,0,0,1-8.86,1.27c-4.61,0-6.66-2-6.66-6.47V96.07h18.07a3.15,3.15,0,0,0,3.15-3.15V78.86a3.15,3.15,0,0,0-3.15-3.15H300.55V54A3.15,3.15,0,0,0,297,50.9l-18.61,2.59a3.15,3.15,0,0,0-2.72,3.12V75.71H265.51a3.15,3.15,0,0,0-3.15,3.15V92.92a3.15,3.15,0,0,0,3.15,3.15h10.13v48c0,16.48,8.66,24.83,25.74,24.83a66.6,66.6,0,0,0,18.51-3,3.15,3.15,0,0,0,2.08-3.44Z"/><rect class="cls-1" x="332.64" y="40.84" width="24.91" height="126.21" rx="3.15" ry="3.15"/><path class="cls-1" d="M402.24,73.89A119.68,119.68,0,0,0,373,77.68a3.15,3.15,0,0,0-2.27,3.54l2.18,13.51a3.15,3.15,0,0,0,3.71,2.59A122.15,122.15,0,0,1,399.14,95c13.43,0,15.58,2.83,15.58,11.94v7.93H394.78c-19.06,0-27.2,7.86-27.2,26.29,0,17.63,8.92,27.74,24.46,27.74a50,50,0,0,0,25.57-7.06l.8,2.92a3.15,3.15,0,0,0,3,2.32h15a3.15,3.15,0,0,0,3.15-3.15V107.28C439.63,82.94,429.49,73.89,402.24,73.89Zm12.48,59.67v11a33.41,33.41,0,0,1-15.39,4c-5.8,0-7.57-1.77-7.57-7.57,0-5.63,1.09-7.39,7.93-7.39Z"/><path class="cls-1" d="M486.25,110.52c-11.54-3-11.54-3.1-11.54-9.43,0-4.25.42-6.3,9.93-6.3a154.37,154.37,0,0,1,22.3,2.2,3.15,3.15,0,0,0,3.66-2.72l1.75-14.18a3.15,3.15,0,0,0-2.41-3.46,122.11,122.11,0,0,0-25.3-2.74c-28.61,0-34.48,10.8-34.48,27,0,17.83,3.31,23.82,25.24,29.16,14.44,3.47,14.44,6.06,14.44,10.34,0,5.62-.48,7.57-9.93,7.57a98,98,0,0,1-24.16-3.25,3.15,3.15,0,0,0-3.91,2.48l-2.46,13.46a3.15,3.15,0,0,0,2.13,3.56,107.38,107.38,0,0,0,29.5,4.65c27.71,0,33.38-11.6,33.38-29C514.38,120.63,511,117.06,486.25,110.52Z"/><path class="cls-1" d="M558.14,110.52c-11.54-3-11.54-3.1-11.54-9.43,0-4.25.42-6.3,9.93-6.3A154.39,154.39,0,0,1,578.84,97a3.15,3.15,0,0,0,3.66-2.72l1.75-14.18a3.15,3.15,0,0,0-2.41-3.46,122.14,122.14,0,0,0-25.31-2.74c-28.61,0-34.48,10.8-34.48,27,0,17.83,3.31,23.82,25.24,29.16,14.44,3.47,14.44,6.06,14.44,10.34,0,5.62-.48,7.57-9.93,7.57a98,98,0,0,1-24.16-3.25,3.15,3.15,0,0,0-3.91,2.48l-2.46,13.46a3.15,3.15,0,0,0,2.13,3.56,107.39,107.39,0,0,0,29.5,4.65c27.71,0,33.38-11.6,33.38-29C586.28,120.63,582.86,117.06,558.14,110.52Z"/><rect class="cls-1" x="596.6" y="40.84" width="24.91" height="22.75" rx="3.15" ry="3.15"/><rect class="cls-1" x="596.6" y="75.71" width="24.91" height="91.34" rx="3.15" ry="3.15"/><path class="cls-1" d="M666.67,73.89a119.69,119.69,0,0,0-29.2,3.79,3.15,3.15,0,0,0-2.27,3.54l2.18,13.51a3.15,3.15,0,0,0,3.71,2.59A122.11,122.11,0,0,1,663.57,95c13.43,0,15.58,2.83,15.58,11.94v7.93H659.21c-19.06,0-27.2,7.86-27.2,26.29,0,17.63,8.92,27.74,24.46,27.74A50,50,0,0,0,682,161.81l.8,2.92a3.15,3.15,0,0,0,3,2.32h15a3.15,3.15,0,0,0,3.15-3.15V107.28C704.06,82.94,693.92,73.89,666.67,73.89Zm12.48,59.67v11a33.41,33.41,0,0,1-15.39,4c-5.8,0-7.57-1.77-7.57-7.57,0-5.63,1.09-7.39,7.93-7.39Z"/><path class="cls-1" d="M772.87,73.89c-9.86,0-23.29,3.4-34.64,8.73L736.87,78a3.15,3.15,0,0,0-3-2.26H720.07a3.15,3.15,0,0,0-3.15,3.15v85a3.15,3.15,0,0,0,3.15,3.15h18.61a3.15,3.15,0,0,0,3.15-3.15V105c6.7-3.41,16.12-6.93,21.76-6.93,4.19,0,5.75,1.56,5.75,5.75V163.9a3.15,3.15,0,0,0,3.15,3.15h18.61a3.15,3.15,0,0,0,3.15-3.15V101.45C794.24,83.17,787.05,73.89,772.87,73.89Z"/><path class="cls-2" d="M182.17,1.74A4.34,4.34,0,0,0,178.71,0a4.18,4.18,0,0,0-2,.51C151.29,14.42,121.83,21.78,91.5,21.79S31.71,14.42,6.29.51A4.16,4.16,0,0,0,4.3,0,4.34,4.34,0,0,0,.83,1.74a4.24,4.24,0,0,0,.81,5.88,150.63,150.63,0,0,0,41.71,22,149.76,149.76,0,0,0,48.15,7.93h0a149.74,149.74,0,0,0,48.15-7.93,150.72,150.72,0,0,0,41.72-22A4.24,4.24,0,0,0,182.17,1.74Z"/><path class="cls-2" d="M153,41.37a3.41,3.41,0,0,0-3.29-.47A167.8,167.8,0,0,1,128,47.45a4.26,4.26,0,0,0-3,2.6c-5,13.63-17.68,26.6-31,40.19a3.5,3.5,0,0,1-2.5,1.18A3.45,3.45,0,0,1,89,90.24C75.67,76.65,63,63.72,58,50.09a4.27,4.27,0,0,0-3-2.6,168.25,168.25,0,0,1-21.69-6.61,3.43,3.43,0,0,0-1.22-.23,3.36,3.36,0,0,0-2.06.69,3.41,3.41,0,0,0-1.32,3c1.13,11.33,5.61,22.41,13.69,34,7.6,10.92,17.5,21,27.08,30.79,17.65,18,34.32,35,35.79,54.72a3.41,3.41,0,0,0,3.4,3.16h20.74a3.41,3.41,0,0,0,3.41-3.58c-.65-13.18-5.61-26.38-15.17-40.35-2-2.93-4.15-5.78-6.39-8.57a2.48,2.48,0,0,1,.17-3.26l2.08-2.12c9.58-9.77,19.49-19.87,27.08-30.79,8.08-11.61,12.56-22.62,13.69-34A3.5,3.5,0,0,0,153,41.37Z"/><path class="cls-2" d="M69.25,124.5a3.16,3.16,0,0,0-2.42-1,3.41,3.41,0,0,0-2.81,1.6c-8.72,13.27-13.23,25.8-13.85,38.39A3.42,3.42,0,0,0,53.59,167h20.7a3.44,3.44,0,0,0,3.41-3.17,46,46,0,0,1,5.78-18.54,4.81,4.81,0,0,0-.42-5.18A191.67,191.67,0,0,0,69.25,124.5Z"/><path class="cls-2" d="M91.52,51.53c6.5,0,10.27-.39,11.59-.39a3.16,3.16,0,0,1,3.14,3.15,3.38,3.38,0,0,1-.25,1.26,55.09,55.09,0,0,1-12.1,17.71,3.34,3.34,0,0,1-2.39.95h0a3.33,3.33,0,0,1-2.39-.95A55,55,0,0,1,77,55.55a3.36,3.36,0,0,1-.25-1.26,3.17,3.17,0,0,1,3.14-3.15c1.32,0,5.09.39,11.59.39Z"/></svg>