<svg id="Calque_1" data-name="Calque 1" xmlns="http://www.w3.org/2000/svg" xmlns:xlink="http://www.w3.org/1999/xlink" viewBox="0 0 1639.24 594.85"><defs><style>.cls-1{fill:url(#Dégradé_sans_nom_3);}.cls-2{fill:url(#Dégradé_sans_nom_2);}.cls-3{fill:#f2f8f6;}.cls-4{fill:#f1f8f3;}.cls-5{font-size:331.05px;fill:#1fa36a;font-family:GothamRounded-Light, Gotham Rounded;letter-spacing:-0.09em;}.cls-6{letter-spacing:-0.05em;}.cls-7{letter-spacing:0em;}</style><linearGradient id="Dégradé_sans_nom_3" x1="1124.28" y1="1328.07" x2="1124.28" y2="1327.84" gradientTransform="matrix(2497.23, 0, 0, -2497.23, -2807288.24, 3316524.24)" gradientUnits="userSpaceOnUse"><stop offset="0" stop-color="#fdfdfd"/><stop offset="1" stop-color="#cbcbcb"/></linearGradient><linearGradient id="Dégradé_sans_nom_2" x1="1124.2" y1="1328.15" x2="1124.2" y2="1327.92" gradientTransform="matrix(2283.34, 0, 0, -2283.34, -2566642.74, 3032673.61)" gradientUnits="userSpaceOnUse"><stop offset="0" stop-color="#b2e198"/><stop offset="1" stop-color="#04a171"/></linearGradient></defs><title>atom</title><circle class="cls-1" cx="297.43" cy="297.43" r="297.43"/><circle class="cls-2" cx="297.1" cy="297.76" r="271.95"/><path class="cls-3" d="M233.35,255.78q-4.76,7.34-9.28,14.85-4.76-13.07-8.57-26.47,13-1.87,27.62-2.91-5,7.18-9.77,14.52Zm239.92,17.39c-9.61-9.23-23.36-17.68-40.84-25.13-34.72-14.79-81.23-24.36-131-27q-8.75-.46-17.51-.64c38-45.32,74.63-69.43,96-70.24a19,19,0,0,1,11.29,2.65c10,6.49,12.77,26.64,7.42,53.89a9.93,9.93,0,0,0,19.48,3.82c9.2-46.84-3.67-66.29-16.08-74.36-6.48-4.21-14.17-6.18-22.87-5.85-32.85,1.25-78.87,36.27-120.86,90.26a422.88,422.88,0,0,0-47.65,4.25q-2.39-11-3.78-22.15c-3.77-31,.85-53.08,12.36-58.94a15.93,15.93,0,0,1,6.17-1.66c10.28-.77,24.78,6.13,40.81,19.44a9.93,9.93,0,0,0,12.68-15.27c-20.59-17.1-39.08-25.16-55-24a35.86,35.86,0,0,0-13.71,3.77c-10.68,5.45-18,15.88-21.7,31-3.18,13-3.63,29.11-1.34,48,.91,7.47,2.23,15.25,3.94,23.26a243.25,243.25,0,0,0-32.33,9c-42.61,15.39-52.44,35.68-53.19,50-.72,13.67,6.28,34,43.67,53.29a9.93,9.93,0,0,0,9.1-17.64c-21.51-11.1-33.52-23.71-33-34.61.8-15.36,26.56-31.63,70.42-40.79A420.75,420.75,0,0,0,211.4,293c-15.76,29.6-27.27,58.76-33.23,84.71-4.26,18.54-5.51,34.64-3.7,47.84,2.11,15.42,8.28,26.56,18.33,33.1a38,38,0,0,0,21.12,5.94c13.16,0,30.88-5.48,54.3-22.19a9.93,9.93,0,0,0-11.43-16.23l-.09.07c-23.09,16.47-42.93,22.36-53.08,15.77-10.82-7-13.1-29.41-6.1-59.85,4.64-20.19,12.92-42.56,24.15-65.62q3.69,7.89,7.64,15.66c22.6,44.4,50.27,83,77.91,108.78,13.92,13,27.24,22.09,39.57,27.13a55.92,55.92,0,0,0,21,4.58,36.43,36.43,0,0,0,16.79-3.93c10.31-5.25,17.47-15.17,21.3-29.46,3.28-12.24,4-27.51,2.19-45.39-3.59-35.15-16.87-78-37.4-120.71a9.93,9.93,0,0,0-17.89,8.6C372.38,322.43,385,363,388.36,395.88c3,29-1.81,49.57-12.76,55.15-11.5,5.86-32-3.35-54.85-24.63-26-24.2-52.18-60.87-73.76-103.26q-7.28-14.29-13.61-29,7.85-14,16.62-27.53t18.32-26.36q2.44,0,4.92,0c8.52,0,17.66.21,27.19.71,47.46,2.49,91.58,11.51,124.22,25.41,28.71,12.23,45.44,27.23,44.77,40.13-.57,11-13.88,22.27-36.51,31.06A9.93,9.93,0,0,0,440.08,356c39.32-15.27,48.43-34.82,49.15-48.53.63-12-4.75-23.52-16-34.3Z"/><path class="cls-4" d="M276.94,300.06a21.69,21.69,0,1,0,21.69-21.71,21.7,21.7,0,0,0-21.69,21.71"/><text class="cls-5" transform="translate(642.45 422.23)">A<tspan class="cls-6" x="231.73" y="0">T</tspan><tspan class="cls-7" x="428.05" y="0">OM</tspan></text></svg>