<svg id="Calque_1" data-name="Calque 1" xmlns="http://www.w3.org/2000/svg" xmlns:xlink="http://www.w3.org/1999/xlink" viewBox="0 0 68.22 76.26"><defs><style>.cls-1{opacity:0.95;fill:url(#linear-gradient);}.cls-2{fill:url(#linear-gradient-2);}.cls-3{fill:url(#linear-gradient-3);}.cls-4{fill:url(#linear-gradient-4);}.cls-5{fill:#83e605;}</style><linearGradient id="linear-gradient" x1="3.18" y1="2.53" x2="65.19" y2="64.55" gradientUnits="userSpaceOnUse"><stop offset="0" stop-color="#375428"/><stop offset="1" stop-color="#2d342c"/></linearGradient><linearGradient id="linear-gradient-2" x2="68.22" y2="66.65" gradientUnits="userSpaceOnUse"><stop offset="0" stop-color="#8ef208"/><stop offset="1" stop-color="#83e605"/></linearGradient><linearGradient id="linear-gradient-3" x1="10.23" y1="32.69" x2="58.38" y2="32.69" xlink:href="#linear-gradient-2"/><linearGradient id="linear-gradient-4" x1="10.23" y1="36.56" x2="58.38" y2="36.56" xlink:href="#linear-gradient-2"/></defs><title>dreamweaver</title><rect class="cls-1" x="2.71" y="3" width="62.94" height="61.09"/><path class="cls-2" d="M0,0V66.65H68.22V0ZM62.8,61.37H5.57V5.42H62.8Z"/><path class="cls-3" d="M10.18,18.92a42.73,42.73,0,0,1,7.42-.59c4.77,0,8.07,1.09,10.41,3.26S32,27.17,32,32c0,5-1.55,8.79-4,11.21S21.43,47,16.47,47a46,46,0,0,1-6.29-.38Zm4.66,23.89a15.67,15.67,0,0,0,2.58.13c6.06,0,9.66-3.64,9.66-10.79,0-6.23-3.22-9.79-9.05-9.79a13.5,13.5,0,0,0-3.18.29Z"/><path class="cls-4" d="M37.14,26.37,39,35.62c.4,2.18.81,4.39,1.14,6.61h.07c.37-2.22,1-4.48,1.47-6.57L44,26.37h3.67l2.24,9c.55,2.38,1,4.6,1.43,6.82h.07c.29-2.22.7-4.43,1.17-6.82l2-9H59L53.4,46.75H49.21l-2.13-8.28c-.55-2.13-1-4.06-1.36-6.53h-.08a60.22,60.22,0,0,1-1.36,6.53L42,46.75H37.8L32.52,26.37Z"/><path class="cls-5" d="M.09,70.08A12.81,12.81,0,0,1,1.88,70a3.71,3.71,0,0,1,2.5.71,2.74,2.74,0,0,1,1,2.27,3.17,3.17,0,0,1-1,2.45,4.11,4.11,0,0,1-2.79.84,12.66,12.66,0,0,1-1.52-.08Zm1.12,5.23a4.2,4.2,0,0,0,.62,0A2.12,2.12,0,0,0,4.16,73,2,2,0,0,0,2,70.83a3.61,3.61,0,0,0-.77.06Z"/><path class="cls-5" d="M6.31,73.14c0-.6,0-1,0-1.43h1l0,.84h0a1.33,1.33,0,0,1,1.22-.94,1.22,1.22,0,0,1,.26,0v1.05a1.71,1.71,0,0,0-.34,0,1,1,0,0,0-1,.85,1.91,1.91,0,0,0,0,.34v2.31H6.31Z"/><path class="cls-5" d="M10.27,74.25a1.21,1.21,0,0,0,1.37,1.15,3.57,3.57,0,0,0,1.23-.2L13,76a4,4,0,0,1-1.55.28A2.11,2.11,0,0,1,9.2,74a2.2,2.2,0,0,1,2.17-2.39,1.94,1.94,0,0,1,1.92,2.17,2.7,2.7,0,0,1,0,.47Zm2-.79a1,1,0,0,0-.92-1.09,1.1,1.1,0,0,0-1,1.09Z"/><path class="cls-5" d="M17.65,75.09a6,6,0,0,0,.07,1.07h-1l-.08-.49h0a1.63,1.63,0,0,1-1.32.6,1.32,1.32,0,0,1-1.4-1.33c0-1.11,1-1.69,2.64-1.68v-.07c0-.29-.12-.78-.9-.78a2.36,2.36,0,0,0-1.2.33L14.2,72a3.2,3.2,0,0,1,1.61-.39,1.67,1.67,0,0,1,1.84,1.88ZM16.55,74c-.79,0-1.55.15-1.55.83a.59.59,0,0,0,.64.64.92.92,0,0,0,.89-.61.73.73,0,0,0,0-.25Z"/><path class="cls-5" d="M18.83,73c0-.51,0-.94,0-1.32h1l.05.66h0a1.51,1.51,0,0,1,1.37-.76,1.28,1.28,0,0,1,1.23.82h0a1.75,1.75,0,0,1,.54-.56,1.54,1.54,0,0,1,.91-.27c.73,0,1.48.5,1.48,1.93v2.62H24.3V73.7c0-.74-.26-1.18-.79-1.18a.86.86,0,0,0-.79.59,1.22,1.22,0,0,0-.05.38v2.67h-1.1V73.58c0-.62-.25-1.06-.77-1.06a.9.9,0,0,0-.81.63,1.26,1.26,0,0,0-.06.38v2.63h-1.1Z"/><path class="cls-5" d="M27.11,71.71l.46,2c.11.47.21,1,.29,1.44h0c.09-.48.24-1,.36-1.43l.58-2h.91l.56,2c.14.52.26,1,.36,1.49h0c.06-.48.17-1,.29-1.49l.49-2h1.11l-1.4,4.45h-1l-.53-1.81a13.79,13.79,0,0,1-.34-1.43h0a14,14,0,0,1-.34,1.43l-.57,1.81H27.27L26,71.71Z"/><path class="cls-5" d="M34,74.25a1.2,1.2,0,0,0,1.37,1.15,3.58,3.58,0,0,0,1.23-.2l.16.77a4,4,0,0,1-1.55.28A2.11,2.11,0,0,1,32.87,74,2.2,2.2,0,0,1,35,71.61,1.93,1.93,0,0,1,37,73.77a2.73,2.73,0,0,1,0,.47Zm2-.79A1,1,0,0,0,35,72.38a1.1,1.1,0,0,0-1,1.09Z"/><path class="cls-5" d="M41.32,75.09a5.9,5.9,0,0,0,.07,1.07h-1l-.08-.49h0a1.62,1.62,0,0,1-1.32.6,1.32,1.32,0,0,1-1.4-1.33c0-1.11,1-1.69,2.64-1.68v-.07c0-.29-.12-.78-.9-.78a2.36,2.36,0,0,0-1.2.33L37.88,72a3.2,3.2,0,0,1,1.61-.39,1.67,1.67,0,0,1,1.84,1.88ZM40.23,74c-.79,0-1.55.15-1.55.83a.59.59,0,0,0,.64.64.92.92,0,0,0,.89-.61.73.73,0,0,0,0-.25Z"/><path class="cls-5" d="M43.13,71.71,43.85,74c.13.39.22.75.3,1.12h0c.08-.37.18-.71.3-1.12l.71-2.26h1.18l-1.7,4.45H43.57l-1.65-4.45Z"/><path class="cls-5" d="M47.73,74.25a1.2,1.2,0,0,0,1.37,1.15,3.57,3.57,0,0,0,1.23-.2l.16.77a4,4,0,0,1-1.55.28A2.11,2.11,0,0,1,46.66,74a2.2,2.2,0,0,1,2.17-2.39,1.94,1.94,0,0,1,1.92,2.17,2.84,2.84,0,0,1,0,.47Zm2-.79a1,1,0,0,0-.92-1.09,1.1,1.1,0,0,0-1,1.09Z"/><path class="cls-5" d="M51.65,73.14c0-.6,0-1,0-1.43h1l0,.84h0a1.33,1.33,0,0,1,1.22-.94,1.21,1.21,0,0,1,.26,0v1.05a1.7,1.7,0,0,0-.34,0,1,1,0,0,0-1,.85,1.9,1.9,0,0,0,0,.34v2.31H51.65Z"/></svg>