<svg id="Layer_1" data-name="Layer 1" xmlns="http://www.w3.org/2000/svg" viewBox="0 0 185.35 45.97"><defs><style>.cls-1{fill:#807f83;}.cls-2{fill:#7ac143;}</style></defs><title>evernote</title><path class="cls-1" d="M3.84,8.9H8.16a.45.45,0,0,0,.45-.45s-.05-3.7-.05-4.73h0A4.87,4.87,0,0,1,9,1.52l.15-.28,0,0L.75,9.58a.1.1,0,0,0,0,0l.44-.22A6.45,6.45,0,0,1,3.84,8.9ZM37.41,8A3.82,3.82,0,0,0,35,4.9a32,32,0,0,0-5.93-1.1,46,46,0,0,0-6.29-.19A3.73,3.73,0,0,0,20.69.78,16.12,16.12,0,0,0,12.86.26a4.19,4.19,0,0,0-2.28,1.46,3.38,3.38,0,0,0-.57,2c0,.5,0,1.68,0,2.73s0,2,0,2a1.7,1.7,0,0,1-1.7,1.7H4a5.2,5.2,0,0,0-2.16.4,3,3,0,0,0-1.21,1A4.35,4.35,0,0,0,0,14.22a23,23,0,0,0,.2,2.34c.16,1.19,1.45,9.52,2.68,12.05a3.1,3.1,0,0,0,1.73,1.83,46.48,46.48,0,0,0,9.08,2.17c2.23.29,3.62.88,4.46-.86,0,0,.17-.43.39-1.07a17.32,17.32,0,0,0,.82-5.54.11.11,0,1,1,.21,0c0,1-.19,4.51,2.47,5.45a31.71,31.71,0,0,0,5.43,1c2,.23,3.45,1,3.45,6.14,0,3.12-.65,3.55-4.08,3.55-2.78,0-3.83.07-3.83-2.13,0-1.78,1.76-1.6,3.07-1.6.58,0,.16-.43.16-1.53s.68-1.73,0-1.74c-4.52-.12-7.18,0-7.18,5.65,0,5.13,2,6.08,8.38,6.08,5,0,6.8-.16,8.88-6.61a59.52,59.52,0,0,0,2-11.67C38.73,23.57,38,11.14,37.41,8ZM28.64,21.74a9.2,9.2,0,0,0-1.78.11c.16-1.27.68-2.82,2.53-2.76,2,.07,2.34,2,2.34,3.32A8.42,8.42,0,0,0,28.64,21.74Z"/><path class="cls-2" d="M183.91,14a1.44,1.44,0,1,1-1.44,1.44A1.44,1.44,0,0,1,183.91,14Zm0,2.62a1.19,1.19,0,1,0-1.17-1.19A1.17,1.17,0,0,0,183.91,16.65Zm-.61-2h.63c.41,0,.62.14.62.47a.45.45,0,0,1-.42.47l.44.7h-.31l-.43-.69h-.25v.69h-.27V14.64Zm.27.7h.36c.26,0,.34-.09.34-.24s-.13-.21-.34-.21h-.36Z"/><path class="cls-2" d="M44.33,28.75h1.93l.09-12.34h-2V14H57.13l.16,4.8H54.77l-.22-2.43H49.72l0,4.83h4.89V23.6H49.66l0,5.14h4.86L54.8,26h2.74l-.31,5.11H44.33Z"/><path class="cls-2" d="M77.67,16.41H76.05L70,31.11H66.48L60.38,16.41H58.66V14H66v2.37H64.24L68.45,28h.06l4.18-11.59H70.63V14h7Z"/><path class="cls-2" d="M79.35,28.75h1.93l.09-12.34h-2V14H92.16l.16,4.8H89.79l-.22-2.43H84.74l0,4.83H89.6V23.6H84.68l0,5.14h4.86L89.82,26h2.74l-.31,5.11H79.35V28.75Z"/><path class="cls-2" d="M95.78,28.75h1.93l.09-12.34h-2V14h7.88c4,0,5.23,2.27,5.23,4.49,0,2-1,3.74-4,4.52v.06c1.59.44,2,.84,3.58,3.58,1.06,1.78,1.43,2.06,2,2.06a5.13,5.13,0,0,0,.72-.09v2.46h-1.75c-2.31,0-2.58-.28-4.39-3.86-1.62-3.18-2-3.4-3.24-3.4h-.68l0,4.89h2v2.37H95.78V28.75Zm5.39-7.26h1.34c1.84,0,3.08-1,3.08-2.59a2.18,2.18,0,0,0-2.34-2.49H101.2Z"/><path class="cls-2" d="M126.88,16.41h-2V14h6.7v2.37h-1.93l-.09,14.71H127L117.84,19h-.06l-.09,9.79h2v2.37H113V28.75h1.93L115,16.41h-2V14h5l8.66,11.56h.06Z"/><path class="cls-2" d="M141.24,13.69c5.89,0,8.48,3.89,8.48,8.63,0,5.39-3.21,9.13-8.48,9.13-5.89,0-8.48-3.89-8.48-8.66C132.76,17.44,136,13.69,141.24,13.69Zm0,15c3.18,0,5-2.71,5-6.17,0-3.89-2.12-6.11-5-6.11-3.18,0-5,2.71-5,6.23C136.25,26.5,138.37,28.72,141.24,28.72Z"/><path class="cls-2" d="M155.07,28.75H157l.09-12.34h-3.43l-.13,2.43H151l.18-4.8h15.3l.19,4.8H164l-.12-2.43H160.5l-.09,12.34h2v2.37h-7.35V28.75Z"/><path class="cls-2" d="M168.53,28.75h1.93l.09-12.34h-2V14h12.81l.16,4.8H179l-.22-2.43h-4.83l0,4.83h4.89V23.6h-4.92l0,5.14h4.86L179,26h2.74l-.31,5.11h-12.9V28.75Z"/></svg>