<svg xmlns="http://www.w3.org/2000/svg" xmlns:xlink="http://www.w3.org/1999/xlink" viewBox="0 0 242.49 89.95"><defs><style>.cls-1{fill:url(#Dégradé_sans_nom_2);}.cls-2{fill:#fff;}.cls-3{fill:#bc1111;}</style><linearGradient id="Dégradé_sans_nom_2" x1="119.88" y1="1.62" x2="119.88" y2="-30.34" gradientTransform="matrix(2.17, 0, 0, -2.17, -215.68, 14.38)" gradientUnits="userSpaceOnUse"><stop offset="0" stop-color="#bf0000"/><stop offset="1" stop-color="#8f0000"/></linearGradient></defs><title>filezilla</title><g id="Calque_1" data-name="Calque 1"><g id="g2305"><path id="path2312" class="cls-1" d="M0,3V7a3,3,0,0,1,3,3,3,3,0,0,1-3,3v4a3,3,0,0,1,3,3,3,3,0,0,1-3,3v4a3,3,0,0,1,3,3,3,3,0,0,1-3,3v4a3,3,0,0,1,3,3,3,3,0,0,1-3,3v4a3,3,0,0,1,3,3,3,3,0,0,1-3,3v4a3,3,0,0,1,3,3,3,3,0,0,1-3,3v4a3,3,0,0,1,3,3,3,3,0,0,1-3,3v4a3,3,0,0,1,3,3,3,3,0,0,1-3,3v4a3,3,0,0,1,2.13.88A3,3,0,0,1,3,90H7a3,3,0,0,1,6,0h4a3,3,0,0,1,6,0h4a3,3,0,0,1,6,0h4a3,3,0,0,1,6,0h4a3,3,0,0,1,6,0h4a3,3,0,0,1,6,0h4a3,3,0,0,1,6,0h4a3,3,0,0,1,6,0h4a3,3,0,0,1,3-3V83a3,3,0,1,1,0-6V73a3,3,0,1,1,0-6V63a3,3,0,1,1,0-6V53a3,3,0,1,1,0-6V43a3,3,0,1,1,0-6V33a3,3,0,0,1,0-6V23a3,3,0,1,1,0-6V13a3,3,0,1,1,0-6V3a3,3,0,0,1-2.13-.88A3,3,0,0,1,86.94,0H83a3,3,0,0,1-3,3,3,3,0,0,1-3-3H73a3,3,0,0,1-3,3,3,3,0,0,1-3-3H63a3,3,0,0,1-3,3,3,3,0,0,1-3-3H53a3,3,0,0,1-3,3,3,3,0,0,1-3-3H43a3,3,0,0,1-3,3,3,3,0,0,1-3-3H33a3,3,0,0,1-3,3,3,3,0,0,1-3-3H23a3,3,0,0,1-3,3,3,3,0,0,1-3-3H13a3,3,0,0,1-3,3A3,3,0,0,1,7,0H3a3,3,0,0,1-.88,2.13A3,3,0,0,1,0,3Z"/><path id="path2314" class="cls-2" d="M76.63,36H31.74l2.34-11H61.44L64,13.24H24.63L12.25,71.63H24.13l5.44-25.52h28.5L33.3,70.63l4.35,7.7c2-1.34,5.27-1.51,7.53-1.51,4,0,7.95,1.34,12,1.34A28.45,28.45,0,0,0,71.11,74.9L73.3,64.61A45.94,45.94,0,0,1,57.23,68a42.2,42.2,0,0,1-6.52-.84l24-23.34Z"/></g></g><g id="Calque_2" data-name="Calque 2"><path class="cls-3" d="M95.33,29.26h17.59v3.54H99.55V43.65H111.9v3.49H99.55V61.91H95.33Z"/><path class="cls-3" d="M122.28,31.87a2.64,2.64,0,0,1-5.28,0,2.6,2.6,0,0,1,2.66-2.66A2.53,2.53,0,0,1,122.28,31.87Zm-4.75,30V38.46h4.26V61.91Z"/><path class="cls-3" d="M128.88,27.51h4.26v34.4h-4.26Z"/><path class="cls-3" d="M142.69,51c.1,5.77,3.78,8.14,8,8.14a15.43,15.43,0,0,0,6.49-1.21l.73,3.05a19,19,0,0,1-7.8,1.45c-7.22,0-11.53-4.75-11.53-11.82s4.17-12.64,11-12.64c7.65,0,9.69,6.73,9.69,11a16.28,16.28,0,0,1-.15,2Zm12.5-3.05c0-2.71-1.12-6.93-5.91-6.93-4.31,0-6.2,4-6.54,6.93Z"/><path class="cls-3" d="M162.52,59.44l18.12-26.5v-.15H164.07V29.26h22v2.57l-18,26.4v.15h18.26v3.54H162.52Z"/><path class="cls-3" d="M196.16,31.87a2.64,2.64,0,0,1-5.28,0,2.6,2.6,0,0,1,2.67-2.66A2.53,2.53,0,0,1,196.16,31.87Zm-4.75,30V38.46h4.26V61.91Z"/><path class="cls-3" d="M202.75,27.51H207v34.4h-4.26Z"/><path class="cls-3" d="M214.19,27.51h4.26v34.4h-4.26Z"/><path class="cls-3" d="M238.61,61.91l-.34-3h-.15A8.74,8.74,0,0,1,231,62.44c-4.75,0-7.17-3.34-7.17-6.73,0-5.67,5-8.77,14.1-8.72V46.5c0-1.94-.53-5.43-5.33-5.43a11.7,11.7,0,0,0-6.11,1.74l-1-2.81a14.53,14.53,0,0,1,7.7-2.08c7.17,0,8.92,4.89,8.92,9.59v8.77a33.31,33.31,0,0,0,.39,5.62Zm-.63-12c-4.65-.1-9.93.73-9.93,5.28a3.77,3.77,0,0,0,4,4.07,5.83,5.83,0,0,0,5.67-3.92A4.43,4.43,0,0,0,238,54Z"/></g></svg>