<?xml version="1.0" encoding="utf-8"?>
<!-- Generator: Adobe Illustrator 20.1.0, SVG Export Plug-In . SVG Version: 6.00 Build 0)  -->
<svg version="1.1" id="Calque_1" xmlns="http://www.w3.org/2000/svg" xmlns:xlink="http://www.w3.org/1999/xlink" x="0px" y="0px"
	 viewBox="0 0 1403.1 625" style="enable-background:new 0 0 1403.1 625;" xml:space="preserve">
<style type="text/css">
	.st0{fill:#3777E3;}
	.st1{fill:#FFCF63;}
	.st2{fill:#11A861;}
	.st3{fill:#5D5D5D;}
</style>
<g>
	<polygon class="st0" points="120.3,625 240.5,416.7 721.5,416.7 601.3,625 	"/>
	<polygon class="st1" points="481,416.7 721.5,416.7 481,0 240.5,0 	"/>
	<polygon class="st2" points="0,416.7 120.3,625 360.8,208.3 240.5,0 	"/>
</g>
<g>
	<path class="st3" d="M806.5,218.2c15.1-2.3,33.1-4,52.8-4c35.7,0,61.1,8.3,77.9,24c17.1,15.7,27.1,37.9,27.1,69
		c0,31.4-9.7,57.1-27.7,74.8c-18,18-47.6,27.7-85,27.7c-17.7,0-32.5-0.9-45.1-2.3V218.2z M831.3,388.3c6.3,1.1,15.4,1.4,25.1,1.4
		c53.1,0,81.9-29.7,81.9-81.6c0.3-45.4-25.4-74.2-77.9-74.2c-12.8,0-22.5,1.1-29.1,2.6V388.3z"/>
	<path class="st3" d="M995.6,312.9c0-16.3-0.3-30.2-1.1-43.1h22l0.9,27.1h1.1c6.3-18.5,21.4-30.2,38.2-30.2c2.9,0,4.8,0.3,7.1,0.9
		v23.7c-2.6-0.6-5.1-0.9-8.6-0.9c-17.7,0-30.2,13.4-33.7,32.2c-0.6,3.4-1.1,7.4-1.1,11.7v73.6h-24.8V312.9z"/>
	<path class="st3" d="M1118,231c0.3,8.6-6,15.4-16,15.4c-8.8,0-15.1-6.8-15.1-15.4c0-8.8,6.6-15.7,15.7-15.7
		C1112,215.3,1118,222.2,1118,231z M1090.1,407.9V269.8h25.1v138.1H1090.1z"/>
	<path class="st3" d="M1166.5,269.8l27.1,77.6c4.6,12.6,8.3,24,11.1,35.4h0.9c3.1-11.4,7.1-22.8,11.7-35.4l26.8-77.6h26.3
		l-54.2,138.1h-24l-52.5-138.1H1166.5z"/>
	<path class="st3" d="M1305.2,343.5c0.6,34,22.3,47.9,47.4,47.9c18,0,28.8-3.1,38.2-7.1l4.3,18c-8.8,4-24,8.6-45.9,8.6
		c-42.5,0-67.9-28-67.9-69.6c0-41.7,24.5-74.5,64.8-74.5c45.1,0,57.1,39.7,57.1,65.1c0,5.1-0.6,9.1-0.9,11.7H1305.2z M1378.8,325.5
		c0.3-16-6.6-40.8-34.8-40.8c-25.4,0-36.5,23.4-38.5,40.8H1378.8z"/>
</g>
</svg>
