<svg id="Calque_1" data-name="Calque 1" xmlns="http://www.w3.org/2000/svg" viewBox="0 0 206.73 106.96"><defs><style>.cls-1{fill:#fff;}.cls-2{fill:#d1d3d4;}.cls-3{fill:#fdb130;}.cls-4{fill:#ffdc91;}.cls-5{fill:#f9d094;}</style></defs><title>homebrew</title><path d="M5.25,47.33c-.57-.27-1.09-.49-1.57-.76a6.85,6.85,0,0,1-.24-12,3,3,0,0,0,1.7-2.72C5.83,23.19,10.79,17.64,18.9,16a70.25,70.25,0,0,1-3.84-7.42A11.35,11.35,0,0,1,15.58,0C21.14,2.08,25.7,5.08,27.82,11.06,29,9.45,30.2,8,31.28,6.48c1.26-1.74,2.46-1.45,3.7,0,.63.73,1.23,1.49,1.92,2.31-3.19,2.34-5.55,5-5.72,9.66,5.4-2.48,10.55-3.7,15.54.22,4.71,3.68,6.26,8.73,6.47,14.48,3.74.95,6.23,3.13,6.19,7.14,0,3.78-2.36,6-6.12,6.93l.25,2.88c1.76-.13,3.4-.34,5-.33a25,25,0,0,1,5.19.42,5.08,5.08,0,0,1,4.12,4.73c1,9.11,2,18.21,2.89,27.33.42,4.36-.84,6.38-5,7.85-2.86,1-5.91,1.5-9,2.26.16,2.07.22,4.31.54,6.51a2.48,2.48,0,0,1-1.7,3.05,57.36,57.36,0,0,1-19.87,4.85c-10.63.73-21.11-.14-31.26-3.65-3-1-3-1.08-2.76-4.25Q3.48,73.6,5.22,48.37A7.88,7.88,0,0,0,5.25,47.33Zm2,.72a2,2,0,0,0-.13.53Q5.36,73.81,3.61,99c-.1,1.41.42,1.94,1.68,2.36a73.16,73.16,0,0,0,18.9,3.52c10.08.61,20-.36,29.43-4.23a2.3,2.3,0,0,0,1.71-2.81c-.3-2.55-.42-5.11-.59-7.8A18.06,18.06,0,0,0,57,90a64.79,64.79,0,0,0,8.17-1.7c3.12-1,3.88-2.23,3.59-5.51C68,73.63,67,64.52,66.07,55.41a3.75,3.75,0,0,0-3.65-3.66,27.89,27.89,0,0,0-4.18-.13c-2.1.09-4.16.3-6.42.48l-.45-4.2c-3.43.49-4.2.86-4.78,2.31-2.44,6-9.06,6.94-13.26,2a3.6,3.6,0,0,0-2.26-1.09c-2.52-.22-5,0-7.53-.39C18.13,50,12.74,49,7.22,48ZM7.4,35.28c-.68.15-1.3.23-1.9.42a5,5,0,0,0-3.57,5,5.13,5.13,0,0,0,3.9,4.65A94.38,94.38,0,0,0,32.71,49a2.38,2.38,0,0,1,1.73,1.07,5.6,5.6,0,0,0,5.95,3c2.57-.37,4-2,4.74-4.45a2.18,2.18,0,0,1,1-1.36c2.37-.81,4.77-1.59,7.2-2.16a5.14,5.14,0,0,0,4.07-6.27,5.07,5.07,0,0,0-6.62-3.41l-2.28.77c-.21-.38-.31-.55-.42-.74-1.68-3.68-4.62-5.38-8-4.55s-5.28,3.73-5,7.88c.14,1.92.36,3.83.54,5.75A28.37,28.37,0,0,1,33.37,39c-.89-2.72-2.67-4.46-5.59-4.62a5.71,5.71,0,0,0-5.93,3.78c-.55,1.31-1.22,1.21-2.17.63,1.13-4.72-.38-8.06-4-9.12S8.91,30.66,7.4,35.28Zm22-14.75A12.6,12.6,0,0,1,33.16,9.28c.31-.32.26-1,.38-1.48-.45.2-1,.27-1.32.61-2.48,3-4.12,6.3-3.45,10.38a8.59,8.59,0,0,1-.07,1.57,46.65,46.65,0,0,1-5-1.55C16.58,15.7,8.26,22.09,7.51,30.36,10,28,12.72,26.9,16,27.76s5.13,3.33,6.22,6.47c4-2.73,7.59-2.4,11,.46a28.65,28.65,0,0,1,2.36-3.31c3.82-4,9.73-3.36,13.27,1.28a2.14,2.14,0,0,0,1.39.81c.29,0,.84-.71.87-1.1.25-9.42-8-17.52-16.56-13.2C33.07,19.91,31.28,20.05,29.42,20.53Zm-3.09-3.19C27.59,11.46,22.76,4.25,16.83,3,15.66,9.24,19.74,15.49,26.33,17.34Z"/><path class="cls-1" d="M7.22,48c5.52.93,10.92,1.94,16.35,2.7,2.48.35,5,.17,7.53.39a3.6,3.6,0,0,1,2.23,1.07c4.2,4.92,10.82,3.94,13.26-2,.59-1.44,1.35-1.82,4.78-2.31l.45,4.2c2.26-.18,4.33-.39,6.42-.48a27.89,27.89,0,0,1,4.18.13,3.75,3.75,0,0,1,3.65,3.66C67,64.5,68,73.61,68.77,82.73c.29,3.28-.46,4.49-3.59,5.51A68.72,68.72,0,0,1,57,89.94a18.06,18.06,0,0,1-2.28.12c.19,2.68.3,5.25.59,7.8a2.31,2.31,0,0,1-1.71,2.81c-9.47,3.87-19.32,4.84-29.43,4.23a73.16,73.16,0,0,1-18.9-3.52C4,101,3.51,100.42,3.6,99q1.79-25.2,3.48-50.45A2,2,0,0,1,7.22,48ZM54.37,85.68c2.76-.6,5.22-1,7.63-1.68a3.22,3.22,0,0,0,2.57-3.92c-.79-6.87-1.44-13.76-2.22-20.64A3.53,3.53,0,0,0,58.58,56c-1.52,0-3.05.3-4.58.35s-1.89.56-1.74,2.06c.46,4.87.74,9.76,1.11,14.64C53.66,77.09,54,81.12,54.37,85.68Zm-15.8-29.4A4.68,4.68,0,1,0,43.21,61,4.74,4.74,0,0,0,38.56,56.28Z"/><path class="cls-1" d="M7.4,35.28c1.51-4.62,4.6-6.66,8.27-5.59s5.17,4.4,4,9.12c.95.58,1.63.67,2.17-.63a5.67,5.67,0,0,1,5.93-3.78c2.91.16,4.7,1.91,5.59,4.62a28.38,28.38,0,0,0,2.31,5.54c-.18-1.92-.4-3.83-.54-5.75-.31-4.15,1.52-7,5-7.88s6.3.87,8,4.55a8.53,8.53,0,0,0,.42.74l2.28-.77a5.06,5.06,0,0,1,6.62,3.41,5.14,5.14,0,0,1-4.07,6.27c-2.44.58-4.83,1.35-7.2,2.16a2.15,2.15,0,0,0-1,1.36c-.72,2.43-2.16,4.08-4.74,4.45a5.6,5.6,0,0,1-5.95-3A2.38,2.38,0,0,0,32.77,49,93.57,93.57,0,0,1,5.89,45.4a5.13,5.13,0,0,1-4-4.66,5,5,0,0,1,3.57-5.07A18.36,18.36,0,0,1,7.4,35.28Z"/><path class="cls-2" d="M29.42,20.53c1.85-.47,3.65-.61,5.13-1.36,8.54-4.32,16.8,3.78,16.56,13.2,0,.42-.58,1.12-.87,1.1a2.14,2.14,0,0,1-1.39-.81c-3.54-4.62-9.45-5.25-13.27-1.28a27.21,27.21,0,0,0-2.36,3.31c-3.41-2.86-7-3.19-11-.46-1.09-3.15-2.86-5.59-6.22-6.47s-6,.21-8.5,2.6c.75-8.28,9.07-14.67,16.2-11.55a46.65,46.65,0,0,0,5,1.55,8.59,8.59,0,0,0,.07-1.57c-.67-4.09,1-7.38,3.45-10.39.28-.34.87-.42,1.32-.61-.12.5-.07,1.17-.38,1.48A12.63,12.63,0,0,0,29.42,20.53Z"/><path class="cls-2" d="M26.33,17.34C19.74,15.49,15.66,9.24,16.83,3,22.76,4.25,27.58,11.44,26.33,17.34Z"/><path class="cls-3" d="M13.6,50.67c-3.1-3.26-3.1,45.28-3.1,45.28s12.32,10.56,39.76,0L47.11,52.14C47.34,58.64,17.58,54.89,13.6,50.67Z"/><path d="M54.37,85.68c-.37-4.57-.71-8.6-1-12.64-.37-4.88-.66-9.77-1.11-14.64-.14-1.5.32-2,1.74-2.06S57,56,58.56,56a3.51,3.51,0,0,1,3.78,3.44c.78,6.88,1.42,13.76,2.22,20.64A3.22,3.22,0,0,1,62,84C59.6,84.65,57.12,85.09,54.37,85.68Zm-.24-27.37,2,25.16,4.62-1c1.52-.33,2.16-1.07,1.94-2.8-.71-5.75-1.26-11.52-1.84-17.29-.46-4.72-.74-5-5.38-4.32-.36.06-.69.14-1.3.26Z"/><path d="M38.56,56.28a4.68,4.68,0,1,1-4.74,4.62A4.73,4.73,0,0,1,38.56,56.28Zm-.12,2.1A2.41,2.41,0,0,0,36,61a2.38,2.38,0,0,0,2.49,2.55,2.56,2.56,0,1,0,0-5.12Z"/><path class="cls-1" d="M38.44,58.38a2.56,2.56,0,0,1,.33,5.11h-.3A2.39,2.39,0,0,1,36,61,2.43,2.43,0,0,1,38.44,58.38Z"/><path class="cls-4" d="M16.05,52.25l-4,37.51,5.2.13L20.8,53.47A17.85,17.85,0,0,1,16.05,52.25Z"/><path class="cls-5" d="M83.87,56.6v9.19h4.66V56.6H93V79.54H88.53v-9.6H83.87v9.6H79.41V56.6Z"/><path class="cls-5" d="M108.52,71.17c0,6.94-3.84,8.64-6.36,8.64-4,0-6.37-3.13-6.37-8.54,0-6,3.13-8.64,6.43-8.64C106.14,62.63,108.52,65.93,108.52,71.17Zm-8.3,0c0,2.86.44,5.24,2,5.24,1.43,0,1.8-2.79,1.8-5.24,0-2.28-.37-5.17-1.87-5.17S100.21,68.89,100.21,71.17Z"/><path class="cls-5" d="M111,67.9c0-1.84-.1-3.44-.14-5h3.88l.21,1.94h.07a4.8,4.8,0,0,1,4-2.21,3.61,3.61,0,0,1,3.64,2.25h.07a5.56,5.56,0,0,1,1.67-1.67,4.91,4.91,0,0,1,2.35-.58c3,0,4.29,2.35,4.29,6.37V79.54h-4.42v-9.8c0-1.91-.21-3.44-1.57-3.44-.78,0-1.36.54-1.67,1.53a4.81,4.81,0,0,0-.14,1.16V79.54h-4.43V69.09c0-1.19-.14-2.79-1.53-2.79a1.86,1.86,0,0,0-1.67,1.5,4.32,4.32,0,0,0-.17,1.26V79.54H111Z"/><path class="cls-5" d="M137.91,72.8c.07,2.59,1.57,3.54,3.54,3.54a9.8,9.8,0,0,0,3.16-.54l.61,3.2a13.82,13.82,0,0,1-4.59.75c-4.53,0-7-3-7-8.2,0-5.58,2.89-8.92,6.67-8.92,3.57,0,5.65,2.83,5.65,7.86a11.81,11.81,0,0,1-.14,2.32Zm4-3.13c0-2.14-.54-3.81-1.87-3.81s-2,2.14-2.08,3.81Z"/><path class="cls-5" d="M148.3,79.54c.07-1.46.14-3.34.14-4.94V56h4.46v8.58H153a4,4,0,0,1,3.47-1.94c3.23,0,4.7,3.64,4.7,8.13,0,5.82-2.32,9.05-5.41,9.05-1.4,0-2.38-.58-3.27-2.25h-.1l-.24,2Zm4.59-6a3,3,0,0,0,.17,1.05c.37,1.19,1,1.53,1.53,1.53,1.5,0,2.11-1.87,2.11-5.07,0-2.86-.65-4.73-2.14-4.73-.68,0-1.26.71-1.5,1.53a3.36,3.36,0,0,0-.17,1Z"/><path class="cls-5" d="M163.66,67.9c0-1.67-.07-3.47-.14-5h3.88l.24,2.42h.1a3.88,3.88,0,0,1,3.3-2.69,3.71,3.71,0,0,1,1,.07v4.42a4.06,4.06,0,0,0-1-.07,3,3,0,0,0-2.72,2.38,6.75,6.75,0,0,0-.17,1.67v8.44h-4.49Z"/><path class="cls-5" d="M177.28,72.8c.07,2.59,1.57,3.54,3.54,3.54A9.8,9.8,0,0,0,184,75.8l.61,3.2a13.82,13.82,0,0,1-4.59.75c-4.53,0-7-3-7-8.2,0-5.58,2.89-8.92,6.67-8.92,3.57,0,5.65,2.83,5.65,7.86a11.81,11.81,0,0,1-.14,2.32Zm4-3.13c0-2.14-.54-3.81-1.87-3.81s-2,2.14-2.08,3.81Z"/><path class="cls-5" d="M191,62.9l.88,7.18c.24,1.8.44,3.47.58,5h.1c.27-1.57.61-3.4.92-5l1.46-7.25h3.44L199.78,70c.34,1.87.65,3.51.85,5.14h.1c.1-1.57.31-3.3.58-5.1l1-7.11h4.39l-4.29,16.64h-3.78l-1.26-5.82a47.67,47.67,0,0,1-.85-5.21h-.07a39.53,39.53,0,0,1-1,5.24l-1.43,5.79h-3.81L186.2,62.9Z"/></svg>