<svg id="Calque_1" data-name="Calque 1" xmlns="http://www.w3.org/2000/svg" viewBox="0 0 113.62 36.56"><defs><style>.cls-1{fill:#d93726;}.cls-2{fill:#da3827;}</style></defs><title>office</title><polygon class="cls-1" points="19.36 5.46 19.36 31.44 0 28.6 19.23 36.56 29.41 32.98 29.41 2.91 19.34 0 0 7.16 0 28.32 6.37 25.94 6.39 8.52 19.36 5.46"/><path class="cls-2" d="M51,29.25a9.55,9.55,0,0,1-4.1-.85,9.11,9.11,0,0,1-3.09-2.33,10.45,10.45,0,0,1-2-3.48,13.18,13.18,0,0,1-.68-4.29,15,15,0,0,1,.68-4.64,10.21,10.21,0,0,1,2-3.6A9,9,0,0,1,47,7.73a10.58,10.58,0,0,1,4.32-.84,9.43,9.43,0,0,1,4,.82,8.8,8.8,0,0,1,3,2.28,10.23,10.23,0,0,1,1.92,3.45A13.53,13.53,0,0,1,61,17.76a15.31,15.31,0,0,1-.65,4.56A10.57,10.57,0,0,1,58.4,26a8.93,8.93,0,0,1-3.13,2.41A9.94,9.94,0,0,1,51,29.25Zm.16-20.54a7.24,7.24,0,0,0-5.87,2.77,8.92,8.92,0,0,0-1.53,3,12.77,12.77,0,0,0-.54,3.64,12.46,12.46,0,0,0,.46,3.52,9,9,0,0,0,1.44,3,7.09,7.09,0,0,0,2.43,2.06,7.3,7.3,0,0,0,3.43.77,8,8,0,0,0,3.46-.7,6.92,6.92,0,0,0,2.49-1.95,8.52,8.52,0,0,0,1.5-3,13.24,13.24,0,0,0,.51-3.75,14.13,14.13,0,0,0-.45-3.6,8.6,8.6,0,0,0-1.39-3,6.8,6.8,0,0,0-2.41-2A7.69,7.69,0,0,0,51.16,8.71Z"/><path class="cls-2" d="M71.67,7.84A2.88,2.88,0,0,0,70,7.42Q67.4,7.42,67.4,11v2.47h5.18v1.69H67.4V28.87H65.52V15.12H62.89V13.43h2.63V10.84a7.22,7.22,0,0,1,.29-2.1,4.56,4.56,0,0,1,.84-1.61,3.67,3.67,0,0,1,1.4-1A4.9,4.9,0,0,1,70,5.73,4,4,0,0,1,71.67,6Z"/><path class="cls-2" d="M80.31,7.84a2.88,2.88,0,0,0-1.63-.42Q76,7.42,76,11v2.47h3.74v1.69H76V28.87H74.16V15.12H71.53V13.43h2.63V10.84a7.22,7.22,0,0,1,.29-2.1,4.56,4.56,0,0,1,.84-1.61,3.67,3.67,0,0,1,1.4-1,4.9,4.9,0,0,1,1.94-.36A4,4,0,0,1,80.31,6Z"/><path class="cls-2" d="M82.88,9.53a1.29,1.29,0,0,1-.94-.39,1.34,1.34,0,0,1-.4-1,1.33,1.33,0,0,1,1.34-1.36,1.43,1.43,0,0,1,.53.1,1.27,1.27,0,0,1,.43.28,1.38,1.38,0,0,1,.29.43,1.35,1.35,0,0,1,.11.55,1.45,1.45,0,0,1-.1.54,1.3,1.3,0,0,1-.29.44,1.41,1.41,0,0,1-.43.29A1.32,1.32,0,0,1,82.88,9.53ZM82,28.87V13.43h1.88V28.87Z"/><path class="cls-2" d="M98.46,28.18a7.72,7.72,0,0,1-4.05,1.07,6.79,6.79,0,0,1-2.91-.57A6.37,6.37,0,0,1,89.3,27a7.31,7.31,0,0,1-1.39-2.47,9.57,9.57,0,0,1-.48-3.1,10.19,10.19,0,0,1,.51-3.26,7.86,7.86,0,0,1,1.5-2.67,7.1,7.1,0,0,1,2.41-1.8,7.63,7.63,0,0,1,3.26-.66,7.78,7.78,0,0,1,3.41.74v2.05A6.2,6.2,0,0,0,95,14.74a5.25,5.25,0,0,0-2.38.52,5.14,5.14,0,0,0-1.75,1.42,6.41,6.41,0,0,0-1.09,2.1,8.47,8.47,0,0,0-.37,2.54,8.76,8.76,0,0,0,.32,2.37,5.93,5.93,0,0,0,1,2,4.75,4.75,0,0,0,1.65,1.38,5.08,5.08,0,0,0,2.35.51,6.14,6.14,0,0,0,3.82-1.3Z"/><path class="cls-2" d="M102.76,21.5a8.86,8.86,0,0,0,.37,2.55,5.44,5.44,0,0,0,1,1.91,4.36,4.36,0,0,0,1.61,1.2,5.27,5.27,0,0,0,2.14.41,7.52,7.52,0,0,0,4.8-1.82v1.9a8.59,8.59,0,0,1-5.23,1.58,6.74,6.74,0,0,1-2.74-.54,5.7,5.7,0,0,1-2.1-1.58,7.26,7.26,0,0,1-1.34-2.54,11.55,11.55,0,0,1-.47-3.44,9.72,9.72,0,0,1,.51-3.21,8,8,0,0,1,1.42-2.56,6.59,6.59,0,0,1,2.16-1.69,6.13,6.13,0,0,1,2.73-.61,6,6,0,0,1,2.57.52,5.07,5.07,0,0,1,1.87,1.49,6.8,6.8,0,0,1,1.15,2.35,11.29,11.29,0,0,1,.4,3.11v1Zm8.92-1.69a6,6,0,0,0-1.12-3.74,3.62,3.62,0,0,0-3-1.33,4.47,4.47,0,0,0-1.77.35,4.21,4.21,0,0,0-1.43,1,5.43,5.43,0,0,0-1,1.6,8.18,8.18,0,0,0-.57,2.12Z"/></svg>