<svg id="Layer_1" data-name="Layer 1" xmlns="http://www.w3.org/2000/svg" viewBox="0 0 566.69 162.29"><defs><style>.cls-1{fill:#ebaa00;}.cls-2{fill:#44b38a;}.cls-3{fill:#dd005b;}.cls-4{fill:#4c2b47;}.cls-5{fill:#cb1517;}.cls-6{fill:#81ccdf;}.cls-7{fill:#149179;}.cls-8{fill:#69872c;}.cls-9{fill:#42464d;}</style></defs><title>slack</title><path class="cls-1" d="M102.13,14.51a14,14,0,1,0-26.68,8.67l36.27,111.6a14,14,0,0,0,17.06,8.7c7.45-2.14,12-10.05,9.61-17.36Z"/><path class="cls-2" d="M45.92,32.77a14,14,0,0,0-26.68,8.67L55.51,153a14,14,0,0,0,17.06,8.7c7.45-2.14,12-10.05,9.61-17.36Z"/><path class="cls-3" d="M147.78,106.94a14,14,0,0,0-8.67-26.68L27.51,116.53a14,14,0,0,0-8.7,17.06c2.14,7.45,10.05,12,17.36,9.61Z"/><path class="cls-4" d="M50.77,138.46l26.67-8.67-8.67-26.68L42.1,111.79Z"/><path class="cls-5" d="M107,120.2l26.67-8.67L125,84.85,98.31,93.52Z"/><path class="cls-6" d="M129.52,50.73A14,14,0,0,0,120.85,24L9.25,60.32A14,14,0,0,0,.55,77.39c2.14,7.45,10.05,12,17.36,9.61Z"/><path class="cls-7" d="M32.5,82.25l26.68-8.67L50.52,46.91,23.83,55.58Z"/><path class="cls-8" d="M88.71,64l26.68-8.67-8.67-26.68L80,37.31Z"/><path class="cls-9" d="M261,43.88c4.94,2.15,5.3,3.77,1.44,11.13-3.95,7.54-4.94,8-9.78,6-6.1-2.6-13.91-4.58-18.94-4.58-8.26,0-13.73,3-13.73,7.45,0,14.81,47.29,6.82,47.29,38.41,0,15.88-13.64,26.47-34.1,26.47-10.77,0-24.05-3.59-33.2-8.26-4.58-2.33-4.85-3.68-.9-11.22,3.41-6.64,4.49-7.36,9.42-5.3,7.81,3.41,17.68,6,24.32,6,7.54,0,12.56-3.05,12.56-7.54,0-14.36-48.1-7.54-48.1-38.14,0-16.24,13.55-27.1,33.83-27.1C240.62,37.24,252.65,40.11,261,43.88Z"/><path class="cls-9" d="M299.14,6.37V124.11c0,1.8-1.88,3.68-4.58,3.68H282.17c-2.69,0-4.58-1.88-4.58-3.68V6.37C277.6.54,279.21,0,288.37,0,298.78,0,299.14.72,299.14,6.37Z"/><path class="cls-9" d="M387.17,72.6v50.7a4.38,4.38,0,0,1-4.58,4.58H370.39a4.41,4.41,0,0,1-4.58-4.85l.18-5.47a34.61,34.61,0,0,1-25.67,11.22c-18.49,0-30.87-10.68-30.87-26.65,0-17,14-28.36,35-28.45a56.44,56.44,0,0,1,21.18,3.86V71.7c0-9.33-7.36-14.9-19.83-14.9-5.83,0-13,2.33-18.76,5.65-4.4,2.51-5.47,2.33-10.23-4.76s-4.49-8.44,0-11.31a59.85,59.85,0,0,1,31.05-9.15C372,37.24,387.17,50.34,387.17,72.6ZM330.1,101.95c0,6,5.12,10.05,12.83,10.05a26.73,26.73,0,0,0,22.7-12.11V92a47.84,47.84,0,0,0-16.33-3C337.81,89,330.1,94.5,330.1,101.95Z"/><path class="cls-9" d="M471.17,44.06c4.49,2.6,4.67,4-.27,11.67-4.67,7.18-5.47,7.63-10.41,5.12a35.27,35.27,0,0,0-14.72-3.68c-15.52,0-25.85,10.23-25.85,25.67,0,16.06,10.32,26.83,25.85,26.83a38.06,38.06,0,0,0,16.51-4.49c4.49-2.6,5.47-2.42,10.23,4.49,4.31,6.46,4.22,8,.36,10.68a52.49,52.49,0,0,1-27.46,8.44c-28.72,0-47.92-18.4-47.92-45.95,0-27.37,19.21-45.59,48.1-45.59C454.39,37.24,464.71,40.2,471.17,44.06Z"/><path class="cls-9" d="M564.87,116.66c3.59,4.58,2.15,6.19-6.82,9.42-9.15,3.32-10.41,3.14-13.64-1.08L518.74,90.73l-11.49,11.13v22.26c0,1.8-1.88,3.68-4.58,3.68H490.29c-2.69,0-4.58-1.88-4.58-3.68V6.37C485.71.54,487.33,0,496.48,0c10.41,0,10.77.72,10.77,6.37V73.32l35.18-33.74c3.86-3.68,6-3.41,12.92,1.17,7.63,4.94,8.17,6.28,4.49,9.87L533.64,76.1Z"/></svg>