<svg id="Calque_1" data-name="Calque 1" xmlns="http://www.w3.org/2000/svg" viewBox="0 0 335.96 101.11"><defs><style>.cls-1{fill:#5d5d5d;}.cls-2{fill:#e01b22;}.cls-3{fill:#fff;}</style></defs><title>Toggl</title><path class="cls-1" d="M242.36,74.28l.37.11c-.1,1.5-.12,3-.33,4.49a10,10,0,0,1-9.38,9,23,23,0,0,1-10.44-1.6c-1.72-.64-3.41-1.39-5.17-1.88a6,6,0,0,0-7.78,4.89,6.63,6.63,0,0,0,2,5.9,14.29,14.29,0,0,0,5.86,3.63,37,37,0,0,0,22.64.84c7.72-2.21,12.92-7.2,14.82-15.14a38.22,38.22,0,0,0,1.06-8.3c.16-11.59.2-23.19.16-34.79a22.53,22.53,0,0,0-.88-6.49A6.24,6.24,0,0,0,245,32.16a32.78,32.78,0,0,0-2.68,3,9.13,9.13,0,0,0-.81-1.09,13.1,13.1,0,0,0-8.63-4,20.49,20.49,0,0,0-18.66,8.33C207.95,46.5,207,55.63,210,65.2a21.78,21.78,0,0,0,11.08,13.54c6.39,3.28,15.85,2.94,21-4.17A2.13,2.13,0,0,1,242.36,74.28ZM297.66,74c-.1,1.71-.11,3.12-.27,4.52a10.11,10.11,0,0,1-9.48,9.35,22.87,22.87,0,0,1-10.33-1.58c-1.76-.64-3.48-1.42-5.28-1.92a6,6,0,0,0-7.7,4.72,6.08,6.08,0,0,0,1.95,6,18.76,18.76,0,0,0,5.27,3.43,35.81,35.81,0,0,0,24.08.87c7-2.2,11.87-6.9,13.76-14.11a41,41,0,0,0,1.29-9.7c.17-11.67.11-23.35.11-35a21.43,21.43,0,0,0-.32-3.81c-.51-2.81-1.66-5.22-4.74-6s-5.64.27-7.7,3.06c-.28.37-.54.76-.84,1.18-.26-.24-.47-.42-.66-.62a13.33,13.33,0,0,0-9.08-4.34,20.64,20.64,0,0,0-18.79,8.56c-5.5,7.21-6.65,15.42-4.72,24.11,1.44,6.45,4.73,11.74,10.46,15.3,6.56,4.08,16.94,4.09,22.39-3.56A4.73,4.73,0,0,1,297.66,74ZM180.37,81.5c9.42-.32,17-4.78,21.3-14.25a29.31,29.31,0,0,0,2.1-15.48c-1.38-12.91-11-21.82-23.83-22-10.11-.18-18.61,5.19-22.55,14.31a29.77,29.77,0,0,0-1.87,16.79C157.45,73,167.19,81.45,180.37,81.5ZM130.24,44.67c0,.47,0,1,0,1.57,0,8.68,0,17.35.14,26A13.33,13.33,0,0,0,131.47,77c1.13,2.73,3.43,3.7,6.3,3.62,2.71-.08,4.73-1.24,5.69-3.79a13.36,13.36,0,0,0,1-4.41c.12-8.76.1-17.51.14-26.27,0-.55,0-1.1.07-1.66,1.57-.13,3-.15,4.49-.4,2.59-.44,4.91-1.4,5.64-4.28.94-3.71-1.1-6.72-5.19-7.6-1.59-.34-3.23-.41-5-.62,0-1.91.09-3.87,0-5.81a30.54,30.54,0,0,0-.75-6.15c-1-3.81-4.23-5.49-8.11-4.6-3.27.75-4.65,3.17-5,6.14s-.31,5.9-.4,8.85c-.05,1.75,0,1.66-1.7,1.94a18.22,18.22,0,0,0-3.89,1.09,4.85,4.85,0,0,0-2.94,3.42,5.64,5.64,0,0,0,3.65,7.13A38.35,38.35,0,0,0,130.24,44.67Zm191.38.52h0c0,8.6-.06,17.19,0,25.78a19.14,19.14,0,0,0,1,5.62c.92,2.81,3.12,4.06,6.37,4,3,0,5.07-1.36,5.92-4.13a19.79,19.79,0,0,0,.95-5.63q.11-25.54,0-51.09a19.57,19.57,0,0,0-.91-5.52c-.89-2.94-3.07-4.35-6.15-4.36s-5.35,1.35-6.24,4.25a21.69,21.69,0,0,0-.94,6C321.57,28.48,321.63,36.83,321.63,45.19Z"/><path class="cls-2" d="M52.8,0c2.16.32,4.34.59,6.49,1,19,3.44,34.89,18.81,39.05,37.8A49.75,49.75,0,1,1,1,59.17c-.4-2.11-.65-4.25-1-6.37v-6c.32-2.16.59-4.34,1-6.49A49.73,49.73,0,0,1,40.32,1C42.47.59,44.64.32,46.8,0ZM43.44,27.61c-8.34,1.75-18.9,10.89-18,25,.88,13.42,12.15,23.28,25.75,22.74,12.67-.5,23-11.5,23-24.49,0-10.81-9.35-22.91-18-23.22,0,1.91,0,3.83,0,5.74a1.59,1.59,0,0,0,1.09,1.7c6.34,3.16,9.85,8.32,10.12,15.39A17.55,17.55,0,1,1,42.43,35c.4-.2,1-.64,1-1C43.49,31.95,43.44,29.83,43.44,27.61Zm9.78,26.45V19.46H46.36V54.06Z"/><path class="cls-3" d="M46.8,0c-2.16.32-4.33.59-6.48,1A49.73,49.73,0,0,0,1,40.31C.59,42.46.32,44.64,0,46.8V0Z"/><path class="cls-1" d="M242.36,74.28a2.13,2.13,0,0,0-.34.3c-5.11,7.1-14.56,7.45-21,4.17A21.78,21.78,0,0,1,210,65.2c-2.94-9.57-2-18.71,4.2-26.81a20.49,20.49,0,0,1,18.66-8.33,13.1,13.1,0,0,1,8.63,4,9.13,9.13,0,0,1,.81,1.09,32.78,32.78,0,0,1,2.68-3A6.24,6.24,0,0,1,255.28,35a22.53,22.53,0,0,1,.88,6.49c0,11.6,0,23.19-.16,34.79a38.22,38.22,0,0,1-1.06,8.3c-1.9,7.95-7.11,12.94-14.82,15.14a37,37,0,0,1-22.64-.84,14.29,14.29,0,0,1-5.86-3.63,6.63,6.63,0,0,1-2-5.9,6,6,0,0,1,7.78-4.89c1.76.49,3.45,1.24,5.17,1.88A23,23,0,0,0,233,87.91a10,10,0,0,0,9.38-9c.21-1.48.22-3,.33-4.49Zm-19-18.85a14.67,14.67,0,0,0,2.09,8.21,8.71,8.71,0,0,0,14.57.4c3.15-4.31,3.32-11.77.36-16.22a8.81,8.81,0,0,0-15.26.47A13.61,13.61,0,0,0,223.36,55.43Z"/><path class="cls-1" d="M297.66,74a4.73,4.73,0,0,0-.59.41c-5.45,7.65-15.83,7.64-22.39,3.56-5.73-3.56-9-8.85-10.46-15.3-1.94-8.69-.78-16.9,4.72-24.11a20.64,20.64,0,0,1,18.79-8.56,13.33,13.33,0,0,1,9.08,4.34c.19.2.4.38.66.62.3-.43.57-.81.84-1.18,2.06-2.79,4.63-3.85,7.7-3.06s4.23,3.19,4.74,6a21.43,21.43,0,0,1,.32,3.81c0,11.68.06,23.35-.11,35a41,41,0,0,1-1.29,9.7c-1.89,7.22-6.75,11.91-13.76,14.11a35.81,35.81,0,0,1-24.08-.87,18.76,18.76,0,0,1-5.27-3.43,6.08,6.08,0,0,1-1.95-6,6,6,0,0,1,7.7-4.72c1.8.5,3.52,1.28,5.28,1.92a22.87,22.87,0,0,0,10.33,1.58,10.11,10.11,0,0,0,9.48-9.35C297.54,77.17,297.56,75.76,297.66,74ZM278.29,55.63a14.16,14.16,0,0,0,2.15,8.09,8.69,8.69,0,0,0,14.43.44c3.28-4.36,3.44-12,.33-16.52a8.79,8.79,0,0,0-14.95.33A13.79,13.79,0,0,0,278.29,55.63Z"/><path class="cls-1" d="M180.37,81.5c-13.18-.05-22.91-8.46-24.84-20.68A29.77,29.77,0,0,1,157.39,44c3.93-9.12,12.44-14.49,22.55-14.31,12.86.23,22.45,9.13,23.83,22a29.31,29.31,0,0,1-2.1,15.48C197.39,76.72,189.79,81.18,180.37,81.5Zm8.82-26.25a13.65,13.65,0,0,0-2.22-8c-3.77-5.6-11.54-5.55-14.94.28a15.06,15.06,0,0,0,.08,16,8.67,8.67,0,0,0,14.82.25A14.59,14.59,0,0,0,189.19,55.25Z"/><path class="cls-1" d="M130.24,44.67a38.35,38.35,0,0,1-4.87-1.05,5.64,5.64,0,0,1-3.65-7.13,4.85,4.85,0,0,1,2.94-3.42A18.22,18.22,0,0,1,128.55,32c1.67-.28,1.65-.18,1.7-1.94.08-3,0-5.93.4-8.85s1.74-5.39,5-6.14c3.87-.89,7.06.79,8.11,4.6a30.54,30.54,0,0,1,.75,6.15c.12,1.94,0,3.9,0,5.81,1.78.21,3.43.28,5,.62,4.08.87,6.12,3.89,5.19,7.6-.73,2.89-3,3.84-5.64,4.28-1.44.24-2.93.27-4.49.4,0,.56-.07,1.11-.07,1.66,0,8.76,0,17.51-.14,26.27a13.36,13.36,0,0,1-1,4.41c-1,2.55-3,3.71-5.69,3.79-2.87.08-5.17-.88-6.3-3.62a13.33,13.33,0,0,1-1.08-4.74c-.13-8.67-.11-17.35-.14-26C130.24,45.69,130.24,45.13,130.24,44.67Z"/><path class="cls-1" d="M321.63,45.19c0-8.36-.06-16.71,0-25.06a21.69,21.69,0,0,1,.94-6c.88-2.9,3.12-4.26,6.24-4.25s5.26,1.42,6.15,4.36a19.57,19.57,0,0,1,.91,5.52q.1,25.54,0,51.09a19.79,19.79,0,0,1-.95,5.63c-.85,2.77-3,4.1-5.92,4.13-3.25,0-5.46-1.21-6.37-4a19.14,19.14,0,0,1-1-5.62c-.1-8.59,0-17.19,0-25.78Z"/><path class="cls-3" d="M43.44,27.61c0,2.22,0,4.34,0,6.45,0,.35-.57.79-1,1A17.57,17.57,0,1,0,67.35,50.5c-.27-7.07-3.78-12.23-10.12-15.39a1.59,1.59,0,0,1-1.09-1.7c.07-1.91,0-3.82,0-5.74,8.68.31,18,12.41,18,23.22,0,13-10.31,24-23,24.49-13.6.53-24.87-9.33-25.75-22.74C24.55,38.5,35.1,29.36,43.44,27.61Z"/><path class="cls-3" d="M53.23,54.06H46.36V19.46h6.87Z"/><path class="cls-3" d="M223.36,55.43a13.61,13.61,0,0,1,1.76-7.14,8.81,8.81,0,0,1,15.26-.47c3,4.46,2.79,11.91-.36,16.22a8.71,8.71,0,0,1-14.57-.4A14.67,14.67,0,0,1,223.36,55.43Z"/><path class="cls-3" d="M278.29,55.63a13.79,13.79,0,0,1,2-7.66,8.79,8.79,0,0,1,14.95-.33c3.11,4.49,3,12.16-.33,16.52a8.69,8.69,0,0,1-14.43-.44A14.16,14.16,0,0,1,278.29,55.63Z"/><path class="cls-3" d="M189.19,55.25a14.59,14.59,0,0,1-2.26,8.54,8.67,8.67,0,0,1-14.82-.25,15.06,15.06,0,0,1-.08-16c3.39-5.83,11.17-5.88,14.94-.28A13.65,13.65,0,0,1,189.19,55.25Z"/></svg>