<svg id="Layer_1" data-name="Layer 1" xmlns="http://www.w3.org/2000/svg" viewBox="0 0 100 28.42"><defs><style>.cls-1{fill:#246a86;}</style></defs><title>trello</title><path class="cls-1" d="M99.25,12.52a7.53,7.53,0,0,0-3.71-.41,5.61,5.61,0,0,1-2,0c-.74-.43-.79-1.39-1.24-2a3.78,3.78,0,0,0-4.41-.9,10.58,10.58,0,0,0-3.39,3.41,15,15,0,0,0-1.89,2.71,14.61,14.61,0,0,0-2.15,6c-1.86,1-2.83,3-4.64,4-.37.18-.46-.32-.47-.58A8.66,8.66,0,0,1,76.1,21c.62-1.42,1.14-2.89,1.84-4.28C80.12,12.22,83.1,8.18,85.79,4a5.58,5.58,0,0,0,.86-1.63A2.39,2.39,0,0,0,86.26.5a2.61,2.61,0,0,0-2-.49,3,3,0,0,0-1.87.37c-.86.69-1.07,1.83-1.5,2.78-3.18,5.52-6.42,11.05-8.63,17a4.09,4.09,0,0,1-.37.91c-1.6.61-2.52,2.13-3.74,3.24a4.17,4.17,0,0,1-1.42,1c-.27-.07-.26-.42-.3-.64A8.71,8.71,0,0,1,67.2,21c.63-1.43,1.15-2.91,1.85-4.3,2.32-4.77,5.53-9,8.34-13.5a2.33,2.33,0,0,0,.34-1.88c-.13-.39-.25-.85-.65-1A4.91,4.91,0,0,0,74.6,0a1.8,1.8,0,0,0-1.53.81,19.45,19.45,0,0,0-1.19,2.6C70.23,6.23,68.64,9,67.14,11.92a67.21,67.21,0,0,0-3.3,7.16.68.68,0,0,1-.28.39c-2,1.25-3.52,3.07-5.53,4.28a8.93,8.93,0,0,1-2.93,1.4,1.37,1.37,0,0,1-1.45-.54c-.16-.26-.38-.59-.24-.89.32-.26.69-.44,1-.66a33.44,33.44,0,0,0,7.22-6.69,10.65,10.65,0,0,0,2.48-4.45A3.35,3.35,0,0,0,63.61,9a3.63,3.63,0,0,0-2.1-.92,6.25,6.25,0,0,0-5.57,1.5c-.94,1-1.8,2-2.65,3a4.32,4.32,0,0,0-4.48-.57A27.92,27.92,0,0,0,45,14.37a4.34,4.34,0,0,0-.63-3.26,2.82,2.82,0,0,0-2.44-.41,1.67,1.67,0,0,0-1.08.72c-.15.38.18.69.29,1A8.54,8.54,0,0,1,40.9,14c-.66,2.57-1.5,5.09-2.37,7.59-.45,1.35-1.72,2.28-2,3.71a2.86,2.86,0,0,0,1.24,2.42,1.63,1.63,0,0,0,1.85.32,2.9,2.9,0,0,0,1.22-1.8,14.11,14.11,0,0,1,1.29-3.53,17,17,0,0,1,8-7.29,1.15,1.15,0,0,1,1.14.06,20.46,20.46,0,0,0-1.88,4.18,6.85,6.85,0,0,0,.19,4.49A4.74,4.74,0,0,0,51.83,27a8.75,8.75,0,0,0,4.32,1.31,3.31,3.31,0,0,0,1.66-.55,34.23,34.23,0,0,0,4.76-3.18,3.51,3.51,0,0,0,1.71,2.8,5.22,5.22,0,0,0,3.89,1,8.27,8.27,0,0,0,3.58-2.52,5.09,5.09,0,0,0,2.34,2,4.34,4.34,0,0,0,3.33.36,9.88,9.88,0,0,0,3.7-3A6.9,6.9,0,0,0,84,27.54a3,3,0,0,0,2.48.17,5.28,5.28,0,0,0,1.8-1.22,16.94,16.94,0,0,0,2.68-3.33,25.06,25.06,0,0,0,2.69-6.84,2.71,2.71,0,0,1,.31-.92A8.4,8.4,0,0,1,95,15.32a24.18,24.18,0,0,0,3.13-.67,5.24,5.24,0,0,0,1.26-.56c.25-.12.59-.27.58-.59S99.61,12.71,99.25,12.52ZM57.74,13a8.35,8.35,0,0,1,2.07-1.77h.26c.11.48-.21.9-.44,1.29s-.55,1.16-1,1.66a32.09,32.09,0,0,1-4.8,5l-.2-.15A18.14,18.14,0,0,1,57.74,13Zm30.59,6.62a46.78,46.78,0,0,1-2.67,4.29c-.23.29-.5.74-.93.67a2.64,2.64,0,0,1-.7-2.06A10.13,10.13,0,0,1,85,19a31.34,31.34,0,0,1,3.48-5.79,1.85,1.85,0,0,1,.88-.8c.17.31.52.53.54.91A11.72,11.72,0,0,1,88.33,19.61Z" transform="translate(0 0)"/><path class="cls-1" d="M34.87,4.74c3.23-.25,6.39-1.27,9.65-1a6.7,6.7,0,0,1,3,1.41c.31.26.69.61.59,1.06a2.1,2.1,0,0,1-2.18,1.68c-.4,0-.67-.35-1-.57a2.33,2.33,0,0,0-1.25-.33A23.76,23.76,0,0,0,39,7.49l.11.36c-.9,1.64-1.85,3.25-2.63,4.95A48.16,48.16,0,0,0,32.6,25a23.12,23.12,0,0,0-.16,2.37,1.12,1.12,0,0,1-1,1,4.7,4.7,0,0,1-2.61-.82,1.38,1.38,0,0,1-.72-1,5.22,5.22,0,0,1,.13-1.81A85.76,85.76,0,0,1,33.65,8.91c.07-.2.36-.6,0-.62-1.36,0-2.88.27-4.08-.53-.56-.34-.49-1.06-.44-1.61s0-1,.46-1.33A1.62,1.62,0,0,1,31,4.66a12.75,12.75,0,0,0,3.91.08Z" transform="translate(0 0)"/><path class="cls-1" d="M23.82,6a8.55,8.55,0,0,0,0-1,.61.61,0,0,0-.62-.4H.92a1.49,1.49,0,0,0-.6.07A.6.6,0,0,0,0,5.23Q0,16.49,0,27.76a.6.6,0,0,0,.64.65H23.17a.6.6,0,0,0,.65-.65Q23.82,16.89,23.82,6ZM10.73,23a1,1,0,0,1-.2.7,1.18,1.18,0,0,1-.85.21H3.15a1.18,1.18,0,0,1-.84-.21,1.18,1.18,0,0,1-.21-.85q0-7.65,0-15.3a.79.79,0,0,1,.44-.86,2.23,2.23,0,0,1,.61-.06H9.68a1.17,1.17,0,0,1,.85.21,1.17,1.17,0,0,1,.21.83Q10.73,15.39,10.73,23Zm11-7.07a1.18,1.18,0,0,1-.21.84,1.18,1.18,0,0,1-.85.21H14.14a1.19,1.19,0,0,1-.84-.2,1.16,1.16,0,0,1-.21-.84c0-2.79,0-5.58,0-8.37a.79.79,0,0,1,.44-.86,2.28,2.28,0,0,1,.6-.06h6.54a1.18,1.18,0,0,1,.84.21,1.16,1.16,0,0,1,.21.84Q21.73,11.85,21.73,16Z" transform="translate(0 0)"/></svg>