<svg id="Calque_1" data-name="Calque 1" xmlns="http://www.w3.org/2000/svg" viewBox="0 0 680.4 680.4"><defs><style>.cls-1{fill:#467ce6;}.cls-2{fill:#235ee1;}.cls-3,.cls-4{fill:#fff;}.cls-4{font-size:48px;font-family:ArialMT, Arial;}</style></defs><title>xcode</title><circle class="cls-1" cx="340.2" cy="340.2" r="340.2"/><path class="cls-2" d="M30.93,340.45C31.37,169.28,169.39,30.73,341.17,31A309.55,309.55,0,1,1,339,650.12C168.93,649.35,31.31,511.8,30.93,340.45ZM422.3,312.31c.69-2.23,1.31-4.08,1.83-6,6-21.64,12.08-43.21,20.38-64.14,3.73-9.42,10-14.66,19.84-15.77,6.52-.73,13.35-1.25,17.83,4.85,2.87,3.91,6.22,6.24,10.94,7a33.4,33.4,0,0,1,6.51,1.69c2.88,1.06,4-.09,4.79-2.78,2.48-8.76,5.12-17.47,7.72-26.19,2.93-9.88,2.9-9.77-6.66-13.18-4-1.43-7.59-2-11.81-.23-6.76,2.83-13,1.7-18.48-3.77a53.51,53.51,0,0,0-20.32-13.05c-22.74-7.88-46-11.4-69.93-7.64-11.54,1.81-22.71,4.86-32.42,11.77a44,44,0,0,0-3.78,3.38c13.25-1.12,25.93-1.27,38.59.42,8.6,1.15,16.32,4,22,11.32,6,7.74,7.36,16.76,8.15,26,1.1,12.87-1.27,25.32-4.88,37.63-3.83,13-7.38,26.16-11.1,39.23-.49,1.72-.85,3.18,1.42,3.83C409.24,308.49,415.55,310.35,422.3,312.31Zm-61.5,196.6c6.34.5,11.39-2.4,14.64-8a40.75,40.75,0,0,0,4.34-10.67q14.44-59.55,28.6-119.17c3.93-16.47,7.63-33,11.63-49.46.77-3.18,0-4.53-3.12-5.23-4.25-1-8.43-2.23-12.61-3.46-7.66-2.26-6.23-2-8.48,4.36Q367.3,398,339,478.85a24.43,24.43,0,0,0-1.62,6.87C336.76,499.37,346.3,508.86,360.8,508.91Zm-194-239.86c.45,3.34.77,6.06,1.18,8.77,2.9,19.21,5.86,38.41,8.72,57.63s5.67,38.69,8.54,58,5.84,38.92,8.75,58.38q2.76,18.48,5.46,37c.38,2.62,1.3,3.85,4.39,3.33,18.18-3,36.39-5.87,54.6-8.72,26-4.05,51.93-8,77.88-12.14,1-.16,1.82-1.43,2.73-2.18-1.13-.56-2.35-1.74-3.38-1.59-14.18,2-28.33,4.23-42.48,6.43-28.67,4.45-57.35,8.87-86,13.49-3,.49-4-.2-4.35-3.09q-2.55-18.69-5.39-37.35c-4.14-27.59-8.37-55.16-12.51-82.74-4.51-30-8.94-60.11-13.49-90.15-.5-3.33.58-4.77,3.86-5.21,5.8-.78,11.57-1.79,17.35-2.73l70.79-11.55,61.94-10.15q28.75-4.7,57.51-9.37c9-1.47,17.95-2.91,26.88-4.57,1.07-.2,1.89-1.76,2.82-2.68-1.19-.48-2.37-1-3.58-1.42-.3-.1-.72.14-1.09.21-11.18,1.87-22.35,3.77-33.54,5.6Q339,238,303.61,243.79q-33,5.43-66,10.94c-22.61,3.74-45.21,7.51-67.84,11.14C167.26,266.28,165.94,266.93,166.82,269.06Zm285-33.17-1.76-.07c-.34,2.53-1.25,5.13-.92,7.56,1.1,8.14,2.66,16.21,4,24.32q5.43,32.6,10.84,65.21t10.86,65.21q3.48,20.82,7,41.63c.36,2.11,0,3.61-2.59,4q-28.8,4.45-57.58,9c-9.1,1.44-18.2,2.91-27.27,4.52-.84.15-1.47,1.44-2.2,2.2,1,.49,1.93,1.44,2.85,1.39a85.52,85.52,0,0,0,8.52-1.1q31.91-5.06,63.82-10.16c6.35-1,12.7-2.07,19.56-3.19Zm-75.9,126c2.35-2.27,1.85-4,.28-5.88-6.25-7.47-12.45-15-18.67-22.49Q331.24,301.75,305,270a13.76,13.76,0,0,1-3-6.23c-.68-4.29,2.17-8.19,6.45-9.85,4.5-1.75,8.4-.49,12.17,4q25.86,30.89,51.7,61.8c4.13,4.94,8.32,9.84,12.6,14.9,2.25-2.3,1.87-4,.25-5.88-6.94-8.2-13.78-16.48-20.68-24.71-13.88-16.56-27.69-33.19-41.71-49.63-5.57-6.53-14.05-6.91-20.33-1.45s-6.38,12.75-.72,19.57q32.42,39.08,64.81,78.19C369.61,354.4,372.75,358.06,375.95,361.85Zm-69.08-42.1a12,12,0,0,0-2.39-1.58c-6.9-2.56-13.84-5-20.73-7.58-2.16-.81-3.17,0-4,1.94Q260.93,359,242,405.4c-1,2.32-.34,3.38,1.83,4.25,6.49,2.58,13,5.07,19.36,8,3.52,1.64,4.88.81,6.25-2.67,12-30.67,24.16-61.27,36.27-91.89C306,322.19,306.34,321.24,306.87,319.75Zm66,42.93c-5-6.35-9.6-11.48-13.38-17.14-3.45-5.16-7.19-7.88-13.46-5.34a23.48,23.48,0,0,1-4.77.84q-20,3.46-40.09,6.94c-2.1.37-3.91.92-4.78,3.43-2.57,7.42-5.44,14.73-8.14,22.1a17.84,17.84,0,0,0-.47,3.17Zm-112.4-9-48.07,7.82c1.1,7.54,2.26,14.63,3.12,21.76.37,3.09,1.74,3.51,4.5,3.07q12.35-2,24.77-3.44c2.53-.3,4.07-1.26,5.06-3.63,3-7.25,6.23-14.42,9.34-21.64C259.58,356.66,259.84,355.59,260.44,353.72Zm175.8,62.39-30.07-18.32c.39,1.89.2,4.08,1.21,5.21a25.77,25.77,0,0,0,6.7,5.23c3.36,1.88,7,3.18,10.52,4.88,5.12,2.51,8.79,6.11,8.82,12.34a12.6,12.6,0,0,0,.86,3.13,5.25,5.25,0,0,0,1-.52,5.55,5.55,0,0,0,.69-.88c6-8.94,6.45-18.71,3.82-28.72-2.93-11.19-8.11-20.88-19-26.46-3-1.5-4.86-.25-7.07,1.34s-3.59,3.49-3,6.95a25.66,25.66,0,0,0,4-2.69c2.54-2.57,4.84-2,7.56-.19C433.21,384.91,440.09,404.34,436.24,416.11Zm-201.07,42,1.16.54,30-37.47c-1.5-.82-2.42-1.44-3.43-1.85-6.36-2.58-12.77-5-19.09-7.71-3-1.28-3.87-.36-4.14,2.73-.75,8.43-1.85,16.84-2.74,25.26C236.3,445.72,235.76,451.89,235.17,458.06Zm64.43-172.45c-5.85.63-9.61,3-11.75,8.11-1.55,3.67-2.95,7.41-4.58,11-1,2.15-.74,3.39,1.68,4.24,6.7,2.34,13.37,4.77,20,7.35,2.37.93,3.42.14,4.26-2,1.53-3.81,3.24-7.56,4.79-11.36,2.09-5.12,1.21-9.43-3.37-12.42C307.28,288.44,303.3,287.25,299.61,285.61Zm117.33,69c8.45-1.15,16.69-2.2,24.89-3.49.66-.1,1.65-1.87,1.52-2.71-1-6.63-2.23-13.25-3.65-19.82a3.88,3.88,0,0,0-2.89-2.37c-4.21.26-8.4.93-12.58,1.57-2.07.32-3.56,1.26-2.44,4.32,3.82-.47,7.72-1.06,11.64-1.37.91-.07,2.59.68,2.73,1.31,1.12,5,1.95,10.15,2.91,15.48-6.54.89-12.57,1.72-18.59,2.51C418.18,350.35,416.18,350.82,416.93,354.62Z"/><path class="cls-3" d="M422.3,312.31c-6.74-2-13.06-3.82-19.39-5.64-2.27-.65-1.91-2.11-1.42-3.83,3.72-13.07,7.28-26.19,11.1-39.23,3.61-12.31,6-24.75,4.88-37.63-.79-9.23-2.11-18.25-8.15-26-5.69-7.3-13.41-10.17-22-11.32-12.65-1.69-25.34-1.54-38.59-.42a44,44,0,0,1,3.78-3.38c9.71-6.92,20.88-10,32.42-11.77,24-3.77,47.18-.24,69.93,7.64a53.51,53.51,0,0,1,20.32,13.05c5.49,5.47,11.72,6.6,18.48,3.77,4.22-1.77,7.8-1.2,11.81.23,9.55,3.41,9.59,3.3,6.66,13.18-2.59,8.73-5.24,17.44-7.72,26.19-.76,2.69-1.91,3.84-4.79,2.78a33.4,33.4,0,0,0-6.51-1.69c-4.72-.71-8.07-3-10.94-7-4.48-6.1-11.31-5.58-17.83-4.85-9.82,1.1-16.1,6.35-19.84,15.77-8.29,20.93-14.4,42.5-20.38,64.14C423.6,308.23,423,310.08,422.3,312.31Z"/><path class="cls-3" d="M360.8,508.91c-14.5-.05-24-9.54-23.46-23.2a24.43,24.43,0,0,1,1.62-6.87q28.37-80.8,56.84-161.56c2.25-6.37.82-6.62,8.48-4.36,4.18,1.23,8.36,2.51,12.61,3.46,3.13.7,3.89,2,3.12,5.23-4,16.46-7.7,33-11.63,49.46q-14.21,59.61-28.6,119.17a40.75,40.75,0,0,1-4.34,10.67C372.19,506.52,367.15,509.41,360.8,508.91Z"/><path class="cls-3" d="M166.82,269.06c-.88-2.13.44-2.77,3-3.18,22.63-3.63,45.23-7.4,67.84-11.14q33-5.46,66-10.94Q339,238,374.4,232.23c11.18-1.83,22.36-3.73,33.54-5.6.37-.06.79-.31,1.09-.21,1.21.42,2.39.94,3.58,1.42-.93.93-1.75,2.48-2.82,2.68-8.93,1.67-17.91,3.1-26.88,4.57q-28.75,4.7-57.51,9.37l-61.94,10.15-70.79,11.55c-5.78.94-11.55,2-17.35,2.73-3.28.44-4.37,1.88-3.86,5.21,4.56,30,9,60.1,13.49,90.15,4.14,27.59,8.37,55.16,12.51,82.74q2.8,18.66,5.39,37.35c.39,2.88,1.32,3.57,4.35,3.09,28.65-4.62,57.33-9,86-13.49,14.15-2.2,28.31-4.39,42.48-6.43,1-.15,2.25,1,3.38,1.59-.91.75-1.73,2-2.73,2.18-25.95,4.12-51.92,8.09-77.88,12.14-18.21,2.84-36.42,5.69-54.6,8.72-3.09.51-4-.71-4.39-3.33q-2.69-18.49-5.46-37-4.36-29.19-8.75-58.38c-2.87-19.34-5.66-38.7-8.54-58S170.9,297,168,277.83C167.59,275.12,167.27,272.39,166.82,269.06Z"/><path class="cls-3" d="M451.85,235.88,487,446.44c-6.86,1.12-13.2,2.17-19.56,3.19q-31.91,5.09-63.82,10.16a85.52,85.52,0,0,1-8.52,1.1c-.92.05-1.9-.9-2.85-1.39.73-.76,1.36-2,2.2-2.2,9.07-1.61,18.17-3.08,27.27-4.52q28.78-4.56,57.58-9c2.57-.4,2.94-1.89,2.59-4q-3.51-20.81-7-41.63-5.45-32.6-10.86-65.21T453.19,267.7c-1.35-8.11-2.91-16.18-4-24.32-.33-2.43.58-5,.92-7.56Z"/><path class="cls-3" d="M375.95,361.85c-3.2-3.79-6.34-7.45-9.42-11.16q-32.41-39.09-64.81-78.19c-5.65-6.82-5.41-14.24.72-19.57s14.77-5.07,20.33,1.45c14,16.44,27.83,33.07,41.71,49.63,6.9,8.23,13.74,16.52,20.68,24.71,1.62,1.92,2,3.58-.25,5.88-4.29-5.07-8.47-10-12.6-14.9q-25.86-30.89-51.7-61.8c-3.77-4.5-7.66-5.75-12.17-4-4.28,1.66-7.13,5.57-6.45,9.85a13.76,13.76,0,0,0,3,6.23q26.2,31.83,52.59,63.49c6.22,7.5,12.42,15,18.67,22.49C377.8,357.84,378.3,359.58,375.95,361.85Z"/><path class="cls-3" d="M306.87,319.75c-.53,1.49-.84,2.44-1.21,3.37-12.11,30.62-24.28,61.22-36.27,91.89-1.36,3.49-2.73,4.31-6.25,2.67-6.33-2.94-12.87-5.44-19.36-8-2.18-.87-2.79-1.93-1.83-4.25q19-46.4,37.83-92.88c.8-2,1.81-2.75,4-1.94,6.89,2.58,13.83,5,20.73,7.58A12,12,0,0,1,306.87,319.75Zm-23.58-5-4.82,11.85c-10.31,25.31-20.56,50.64-31,75.9-1.23,3-.62,4.19,2.2,5.21a111.91,111.91,0,0,1,11.77,4.83c3,1.48,4.23.87,5.44-2.24,7.77-20,15.75-39.93,23.65-59.88L302,321.59Z"/><path class="cls-3" d="M372.84,362.68l-85.1,14a17.84,17.84,0,0,1,.47-3.17c2.7-7.37,5.57-14.69,8.14-22.1.87-2.51,2.68-3.07,4.78-3.43q20-3.5,40.09-6.94a23.48,23.48,0,0,0,4.77-.84c6.28-2.53,10,.19,13.46,5.34C363.24,351.2,367.83,356.33,372.84,362.68Zm-79.64,9,72.27-12c-4.28-5.38-8-10.22-11.93-14.87a4.55,4.55,0,0,0-3.47-1.12c-3.46.35-6.88,1-10.31,1.63-11.89,2-23.78,4-35.64,6.23-1.54.28-3.69,1.17-4.21,2.37C297.5,359.55,295.56,365.33,293.2,371.7Z"/><path class="cls-3" d="M260.44,353.72c-.6,1.87-.85,2.94-1.28,3.94-3.1,7.22-6.3,14.39-9.34,21.64-1,2.38-2.53,3.33-5.06,3.63q-12.41,1.49-24.77,3.44c-2.76.44-4.13,0-4.5-3.07-.86-7.13-2-14.22-3.12-21.76Zm-6.21,5.14c-12,1.91-23.06,3.59-34,5.52-1.14.2-2.94,2-2.87,2.88a95.51,95.51,0,0,0,2,12.86,3.37,3.37,0,0,0,2.73,1.79c6.78-.76,13.55-1.7,20.29-2.77,1.35-.21,3.23-.91,3.73-1.94C248.88,371.4,251.34,365.45,254.23,358.85Z"/><path class="cls-3" d="M436.24,416.11c3.85-11.77-3-31.2-14-38.7-2.72-1.86-5-2.38-7.56.19a25.66,25.66,0,0,1-4,2.69c-.6-3.46.72-5.32,3-6.95s4.12-2.85,7.07-1.34c10.94,5.57,16.11,15.27,19,26.46,2.62,10,2.15,19.77-3.82,28.72a5.55,5.55,0,0,1-.69.88,5.25,5.25,0,0,1-1,.52,12.6,12.6,0,0,1-.86-3.13c0-6.23-3.7-9.83-8.82-12.34-3.47-1.7-7.15-3-10.52-4.88a25.77,25.77,0,0,1-6.7-5.23c-1-1.13-.82-3.32-1.21-5.21Z"/><path class="cls-3" d="M235.17,458.06c.59-6.17,1.13-12.34,1.78-18.51.89-8.42,2-16.82,2.74-25.26.28-3.09,1.11-4,4.14-2.73,6.32,2.67,12.73,5.12,19.09,7.71,1,.41,1.93,1,3.43,1.85l-30,37.47Zm5.09-11.6.83.19,19-24.18L243.64,416Z"/><path class="cls-3" d="M299.61,285.61c3.7,1.64,7.68,2.83,11,5,4.58,3,5.45,7.3,3.37,12.42-1.55,3.81-3.26,7.55-4.79,11.36-.84,2.1-1.89,2.88-4.26,2-6.61-2.59-13.28-5-20-7.35-2.43-.85-2.65-2.09-1.68-4.24,1.63-3.63,3-7.37,4.58-11C290,288.63,293.76,286.24,299.61,285.61Zm-12.21,19.92c5.84,2.17,11.25,4.26,16.75,6.12.58.2,2-.73,2.37-1.46,1.43-2.89,2.54-5.94,3.89-8.87s.72-5.47-1.67-6.94a31.14,31.14,0,0,0-9.11-3.66c-3.5-.82-6.35.77-7.85,4.19S289,301.54,287.39,305.53Z"/><path class="cls-3" d="M416.93,354.62c-.75-3.79,1.25-4.27,3.53-4.57,6-.79,12-1.62,18.59-2.51-1-5.33-1.79-10.44-2.91-15.48-.14-.63-1.82-1.38-2.73-1.31-3.92.3-7.82.89-11.64,1.37-1.12-3.06.38-4,2.44-4.32,4.18-.64,8.37-1.31,12.58-1.57a3.88,3.88,0,0,1,2.89,2.37c1.42,6.56,2.6,13.18,3.65,19.82.13.84-.85,2.61-1.52,2.71C433.62,352.42,425.38,353.47,416.93,354.62Z"/><path class="cls-2" d="M283.3,314.77,302,321.59l-11.42,28.86c-7.9,20-15.88,39.87-23.65,59.88-1.21,3.11-2.45,3.71-5.44,2.24a111.91,111.91,0,0,0-11.77-4.83c-2.83-1-3.44-2.23-2.2-5.21,10.44-25.25,20.69-50.59,31-75.9Z"/><path class="cls-2" d="M293.2,371.7c2.35-6.37,4.3-12.15,6.71-17.72.52-1.19,2.67-2.08,4.21-2.37,11.86-2.18,23.75-4.18,35.64-6.23,3.43-.59,6.85-1.28,10.31-1.63a4.55,4.55,0,0,1,3.47,1.12c3.94,4.65,7.66,9.49,11.93,14.87Z"/><path class="cls-2" d="M254.23,358.85c-2.89,6.6-5.34,12.55-8.15,18.34-.5,1-2.39,1.73-3.73,1.94-6.74,1.07-13.51,2-20.29,2.77a3.37,3.37,0,0,1-2.73-1.79,95.51,95.51,0,0,1-2-12.86c-.07-.92,1.73-2.68,2.87-2.88C231.17,362.44,242.2,360.76,254.23,358.85Z"/><path class="cls-2" d="M240.26,446.46,243.64,416l16.46,6.48-19,24.18Z"/><path class="cls-2" d="M287.39,305.53c1.63-4,2.93-7.33,4.37-10.62s4.35-5,7.85-4.19a31.14,31.14,0,0,1,9.11,3.66c2.4,1.47,3,4.13,1.67,6.94s-2.45,6-3.89,8.87c-.37.73-1.78,1.66-2.37,1.46C298.64,309.79,293.23,307.7,287.39,305.53Z"/><g id="Calque_2" data-name="Calque 2"><text class="cls-4" transform="translate(263.37 609.02)">XCODE</text></g></svg>