<?xml version="1.0" encoding="utf-8"?>
<!-- Generator: Adobe Illustrator 22.1.0, SVG Export Plug-In . SVG Version: 6.00 Build 0)  -->
<svg version="1.1" xmlns="http://www.w3.org/2000/svg" xmlns:xlink="http://www.w3.org/1999/xlink" x="0px" y="0px"
	 viewBox="0 0 300 300" style="enable-background:new 0 0 300 300;" xml:space="preserve">
<style type="text/css">
	.st0{fill:#BFCE01;}
	.st1{fill:#0086C5;}
</style>
<g id="green_x5F_part">
	<path class="st0" d="M39.5,154.4c0,0,71.4-72.6,256.8-72.6c0,0-89.3,3.3-170.8,54.7C125.5,136.6,80.8,161.1,39.5,154.4z"/>
</g>
<g id="blue_x5F_part">
	<path class="st1" d="M280.7,116.2c-2-0.2-3.9-0.3-5.9-0.5c-1.2-0.1-2.3-0.2-3.5-0.3c-4.1-0.2-8.1-0.4-12.2-0.4
		c-4.5,0-9,0.2-13.5,0.5c-5,0.4-9.9,1.1-14.7,2.1c-9.3,1.9-18.3,4.9-27.2,8.4c-9.1,3.6-18,7.8-26.8,12.1c-2.4,1.2-4.9,2.4-7.3,3.6
		c-0.1,0.1-0.3,0.1-0.5,0.2c0-0.3-0.1-0.5-0.1-0.7c0-0.9,0-1.9-0.1-2.8c-0.3-2.6-2.1-4.2-4.7-4.3c-1.4,0-2.7,0.1-4.1,0.3
		c-1.8,0.2-3.3,2-3.5,3.9c-0.1,1.6-0.1,3.3-0.1,4.9c0,1.5,0,3,0,4.5c0,0.4-0.1,0.6-0.5,0.8c-8.2,4.1-16.4,8.3-25,11.8
		c-7.1,2.9-14.2,5.4-21.6,7.4c-5.1,1.4-10.2,2.5-15.4,3.3c-3.3,0.5-6.6,0.9-9.9,1.1c-4.5,0.2-9.1,0.4-13.7,0.2
		c-3.6-0.1-7.2-0.6-10.7-1.1c-6.2-0.9-12.3-2.6-18.2-4.9c-9-3.6-17.2-8.5-24.5-15c-5.2-4.6-9.7-9.7-13.2-15.7
		c-0.4-0.7-0.7-1.4-1.1-2.1c-0.1-0.2-0.2-0.5-0.2-0.8c0.2,0.3,0.5,0.5,0.7,0.8c7.5,8.4,16.5,14.5,27.1,18.2c3,1,6.1,1.9,9.2,2.5
		c3,0.6,6.1,1,9.2,1.3c3.4,0.3,6.7,0.3,10.1,0.3c2.7,0,5.4-0.3,8.1-0.6c2.7-0.3,5.4-0.6,8.2-1c2.3-0.4,4.5-0.8,6.8-1.3
		c2-0.4,4-0.9,6-1.5c3.7-1.1,7.4-2.2,11.1-3.3c3-1,5.9-2,8.8-3.1c3.8-1.5,7.5-3,11.2-4.7c4.8-2.2,9.5-4.4,14.2-6.9
		c7.8-4.2,15.9-7.9,24.1-11.1c8.9-3.4,17.9-6.4,27.1-8.8c6-1.5,12-2.8,18.1-3.8c3.7-0.6,7.4-1.1,11.1-1.5c3.9-0.4,7.8-0.7,11.7-0.8
		c3.6-0.1,7.3-0.2,10.9-0.1c4.7,0.1,9.3,0.5,13.9,1.1c6.7,0.9,13.3,2.2,19.8,4.2c3.5,1.1,7,2.4,10.5,3.7
		C280.5,116.1,280.6,116.1,280.7,116.2C280.7,116.2,280.7,116.2,280.7,116.2z"/>
</g>
<g id="text">
	<path d="M185.7,153.3c0-4.5,0-9,0-13.5c0-0.3,0-0.7,0-1c0.1-1.3,0.8-2.1,2.2-2.1c1.1,0,2.3,0,3.5,0.1c1.2,0.1,1.8,1,1.8,2.1
		c0,0.2,0,0.4,0,0.7c0,8.5,0,17.1,0,25.6c0,2.7,1,4.3,3.6,5.3c1,0.4,2,0.6,3,0.7c1.7,0.2,3.4,0.3,5.1,0.3c5.1,0,10.3,0,15.4-0.1
		c1.7,0,3.3-0.3,4.9-0.9c2.6-1,3.7-2.6,3.7-5.3c0-8.6,0-17.2,0-25.9c0-1.9,0.7-2.7,2.6-2.8c0.9,0,1.9-0.1,2.8,0c1.2,0.1,1.9,0.8,2,2
		c0,0.4,0.1,0.8,0.1,1.2c0,8.6,0,17.1,0,25.7c0,4.6-2.1,7.7-6.1,9.6c-2.9,1.4-6,2.1-9.2,2.3c-3.4,0.2-6.8,0.3-10.2,0.3
		c-3.7,0-7.5-0.1-11.2-0.3c-2.6-0.1-5.2-0.6-7.7-1.6c-4.4-1.7-6.2-4.3-6.3-9c0-2.3,0-4.5,0-6.8C185.7,157.8,185.7,155.6,185.7,153.3
		z"/>
	<path d="M277.7,142.8c0,0.4,0,0.7,0,1c0,10.2,0,20.4,0,30.6c0,0.4,0,0.8,0,1.2c-0.1,1.3-0.9,2.2-2.2,2.2c-1.1,0-2.1,0-3.2-0.1
		c-1.2-0.1-1.9-0.9-2-2.1c0-0.3,0-0.7,0-1c0-10.3,0-20.5,0-30.8c0-0.3,0-0.6,0-0.9c-0.3,0-0.6,0-0.8,0c-5.2,0-10.3,0-15.5,0
		c-2,0-2.9-0.8-2.8-2.9c0-0.5,0-1,0.1-1.5c0.2-1.1,0.7-1.6,1.8-1.8c0.3,0,0.6,0,0.9,0c13.4,0,26.7,0,40.1,0c1.9,0,2.8,0.8,3,2.7
		c0,0.1,0,0.2,0,0.3c0.1,2.3-0.7,3.2-3,3.2c-5.1,0-10.3,0-15.4,0C278.3,142.8,278.1,142.8,277.7,142.8z"/>
	<path d="M166.4,157.2c0,5.9,0,11.9,0,17.8c0,2-0.8,2.8-2.8,2.8c-0.8,0-1.7,0-2.5-0.1c-1.3-0.1-2-0.9-2.1-2.2c0-0.3,0-0.7,0-1
		c0-11.6,0-23.1,0-34.7c0-0.2,0-0.3,0-0.5c0-1.8,0.7-2.6,2.6-2.7c0.8,0,1.6-0.1,2.4-0.1c1.7,0,2.5,0.9,2.5,2.5c0,4.9,0,9.8,0,14.7
		C166.4,155,166.4,156.1,166.4,157.2z"/>
	<path d="M21.6,209c-0.1,0.2-0.3,0.3-0.4,0.5c-1.9,2.7-3.9,5.4-5.8,8.1c-1.3,1.8-2.6,1.8-3.9,0c-2-2.7-4-5.4-6-8.2
		c-0.1-0.2-0.3-0.3-0.5-0.5c0,0.2,0,0.5,0,0.7c0,2.7,0,5.4,0,8.1c0,1.1-1,1.7-1.9,1.1c-0.2-0.1-0.4-0.6-0.4-0.9c0-1.1,0-2.2,0-3.3
		c0-2.7,0-5.5,0-8.2c0-0.9,0.3-1.4,0.9-1.6c0.6-0.2,1.3,0,1.8,0.7c2.5,3.3,4.9,6.5,7.4,9.8c0.6,0.8,0.8,0.8,1.4,0
		c2.3-3.1,4.6-6.3,6.9-9.4c0.1-0.2,0.2-0.3,0.4-0.5c0.5-0.6,1.2-0.8,1.9-0.6c0.7,0.3,0.8,0.9,0.8,1.5c0,3.1,0,6.2,0,9.3
		c0,0.8,0,1.5,0,2.3c0,0.9-0.2,1.1-1.3,1.1c-0.9,0-1.1-0.2-1.1-1.1c0-2.7,0-5.4,0-8.1c0-0.2,0-0.5,0-0.7C21.7,209,21.6,209,21.6,209
		z"/>
	<path d="M196.9,213.6c0.5,0.3,1,0.6,1.5,0.8c1.6,0.9,3.2,1.8,4.9,2.7c0.5,0.3,0.8,0.6,0.7,1.1c-0.1,0.6-0.6,0.7-1.1,0.7
		c-0.7,0-1.3-0.1-1.8-0.5c-2.2-1.4-4.5-2.6-6.6-4.1c-1.3-0.9-2.6-0.9-4.1-0.9c0,0.2,0,0.5,0,0.7c0,1.3,0,2.5,0,3.8
		c0,0.8-0.2,1-1.1,1c-1,0-1.2-0.2-1.2-1c0-4.1,0-8.2,0-12.4c0-0.7,0.2-1,1-1c3.2,0,6.4-0.1,9.6,0c1.1,0,2.2,0.3,3.3,0.7
		c1.3,0.5,1.9,1.5,1.9,2.9c0,0.6,0,1.2,0,1.8c0,1.1-0.5,1.9-1.4,2.5c-1,0.7-2.2,0.9-3.4,0.9c-0.6,0-1.3,0-1.9,0
		C196.9,213.5,196.9,213.5,196.9,213.6z M190.3,211.3c0.2,0,0.3,0,0.4,0c2.7,0,5.4,0,8,0c0.6,0,1.1-0.1,1.7-0.3c0.7-0.2,1-0.6,1-1.3
		c0-0.4,0-0.8,0-1.2c0-0.8-0.3-1.2-1.1-1.4c-0.6-0.2-1.3-0.3-2-0.3c-2.5,0-5,0-7.5,0c-0.2,0-0.4,0-0.6,0
		C190.3,208.3,190.3,209.7,190.3,211.3z"/>
	<path d="M28.8,211.7c0-1.1,0-2.2,0-3.3c0-1.5,0.7-2.6,2.2-3.2c0.7-0.3,1.4-0.5,2.1-0.5c2.6,0,5.1,0,7.7,0.1c0.5,0,1,0.2,1.5,0.4
		c1.1,0.4,1.8,1.3,1.9,2.5c0.1,2.7,0.1,5.3,0,8c0,1.3-0.8,2.2-2,2.6c-0.8,0.3-1.8,0.6-2.7,0.6c-2.2,0.1-4.4,0-6.7-0.1
		c-0.6,0-1.2-0.2-1.8-0.5c-1.5-0.6-2.2-1.7-2.2-3.3C28.8,213.9,28.8,212.8,28.8,211.7z M31.1,211.8c0,1,0,1.9,0,2.9c0,0,0,0,0,0.1
		c0,1.1,0.4,1.6,1.5,1.9c0.4,0.1,0.7,0.2,1.1,0.2c1.7,0,3.4,0.1,5,0c0.6,0,1.1-0.1,1.7-0.2c1.1-0.3,1.5-0.8,1.5-1.9
		c0-1.9,0-3.8,0-5.6c0-1.4-0.5-2.1-1.9-2.2c-2.2-0.1-4.4-0.1-6.7-0.1c-0.3,0-0.6,0.1-0.9,0.2c-0.9,0.3-1.3,0.8-1.3,1.8
		C31.1,209.7,31.1,210.8,31.1,211.8z"/>
	<path d="M51.3,208c0,0.4,0,0.6,0,0.8c0,3,0,5.9,0,8.9c0,1.1-0.9,1.7-1.9,1.1c-0.2-0.1-0.4-0.5-0.4-0.7c0-4.2,0-8.3,0-12.5
		c0-0.8,0.8-1.3,1.6-1c0.5,0.2,1,0.5,1.3,0.9c3.3,3.2,6.7,6.3,10,9.5c0.1,0.1,0.3,0.2,0.5,0.4c0-0.4,0-0.6,0-0.8c0-2.9,0-5.9,0-8.8
		c0-1.1,1-1.6,1.9-1.1c0.2,0.1,0.4,0.6,0.4,0.9c0,1.6,0,3.1,0,4.7c0,2.4,0,4.7,0,7.1c0,1.2-0.4,1.7-1.4,1.6c-0.4,0-0.8-0.3-1.1-0.6
		c-2.6-2.5-5.3-5-7.9-7.5C53.4,209.9,52.4,209,51.3,208z"/>
	<path d="M171.1,210.7c0.3,0,0.5,0,0.8,0c2.3,0,4.6,0,6.9,0c0.9,0,1.2,0.3,1.2,1c0,0.9-0.2,1.1-1.2,1.1c-2.3,0-4.6,0-6.9,0
		c-0.2,0-0.5,0-0.8,0c0,0.9-0.1,1.7,0,2.5c0.1,0.4,0.4,0.8,0.8,0.9c0.7,0.3,1.4,0.4,2.1,0.4c2.7,0,5.3,0,8,0c0.9,0,1.2,0.3,1.1,1.2
		c0,0.7-0.3,0.9-1,0.9c-1.9,0-3.7,0-5.6,0c-1.4,0-2.8-0.1-4.2-0.2c-0.5,0-1.1-0.3-1.6-0.5c-1.2-0.6-1.9-1.6-1.9-2.9
		c0-2.3,0-4.6,0-6.9c0-1.5,0.7-2.5,2.1-3c1-0.4,2.2-0.6,3.3-0.7c2.6-0.1,5.3,0,7.9,0c0.9,0,1.1,0.2,1.1,1.2c0,0.8-0.2,1-1.1,1
		c-2.8,0-5.6,0-8.4,0c-0.4,0-0.8,0.1-1.2,0.2c-1.1,0.3-1.4,0.7-1.4,1.8C171.1,209.3,171.1,210,171.1,210.7z"/>
	<path d="M234.5,204.5c1.6,0,3.1,0,4.7,0c0.8,0,1.1,0.3,1.1,1.1c0,0.7-0.3,1-1.1,1c-2.6,0-5.1,0-7.7,0c-0.6,0-1.3,0.1-1.9,0.2
		c-0.5,0.1-0.9,0.4-0.8,1c0,0.2,0,0.4,0,0.7c0,1.3,0.3,1.7,1.5,1.8c1.4,0.1,2.9,0.1,4.3,0.1c0.9,0,1.8,0.1,2.7,0.2
		c2.2,0.5,3.1,1.6,3.1,3.9c0,0.5,0,1-0.1,1.5c-0.1,1.1-0.7,1.9-1.8,2.2c-1.2,0.3-2.4,0.5-3.6,0.5c-2.4,0.1-4.9,0-7.3,0
		c-0.3,0-0.9-0.1-0.9-0.3c-0.1-0.4-0.1-1,0-1.4c0.1-0.2,0.6-0.3,0.9-0.3c2.5,0,5,0,7.5,0c0.7,0,1.4-0.1,2-0.2
		c0.8-0.2,1.1-0.6,1.1-1.3c0.1-1.4-0.1-1.9-1-2.1c-1.1-0.2-2.3-0.3-3.4-0.4c-1.3-0.1-2.6-0.1-3.9-0.2c-2.1-0.1-3.3-1.4-3.3-3.5
		c0-0.4,0-0.9,0-1.3c0.1-1.6,1.5-2.9,3.1-3C231.3,204.5,232.9,204.5,234.5,204.5C234.5,204.5,234.5,204.5,234.5,204.5z"/>
	<path d="M108.8,210.7c0.3,0,0.5,0,0.8,0c2.3,0,4.6,0,6.9,0c0.9,0,1.1,0.2,1.1,1c0,0.9-0.2,1.1-1.1,1.1c-2.3,0-4.6,0-6.9,0
		c-0.2,0-0.5,0-0.8,0c0,0.9-0.1,1.8,0,2.6c0,0.3,0.5,0.7,0.8,0.8c0.6,0.2,1.3,0.4,2,0.4c2.6,0,5.3,0.1,7.9,0c1.3,0,1.3,0.7,1.1,1.7
		c0,0.2-0.4,0.5-0.7,0.5c-3.1,0-6.2,0-9.4-0.1c-0.9,0-1.9-0.4-2.8-0.9c-1-0.5-1.4-1.4-1.4-2.5c0-2.4,0-4.8,0-7.1
		c0-1.3,0.7-2.2,1.8-2.8c1.1-0.6,2.3-0.8,3.5-0.8c2.7,0,5.3,0,8,0c0.8,0,1.1,0.3,1.1,1.1c0,0.8-0.2,1-1.1,1c-2.8,0-5.6,0-8.4,0
		c-0.4,0-0.9,0.1-1.3,0.2c-1.1,0.3-1.4,0.7-1.4,1.8C108.8,209.3,108.8,209.9,108.8,210.7z"/>
	<path d="M88.4,213.8c0,0.3,0,0.5,0,0.7c0,1,0,2.1,0,3.1c0,1.1-0.9,1.7-1.9,1.2c-0.3-0.1-0.4-0.6-0.4-1c0-4.1,0-8.1,0-12.2
		c0,0,0-0.1,0-0.1c0-0.7,0.2-0.9,0.9-0.9c3.3,0,6.6,0,9.9,0c1.2,0,2.4,0.2,3.5,0.8c1,0.6,1.6,1.4,1.6,2.6c0,0.7,0,1.3,0,2
		c0,1.5-0.6,2.6-2,3.1c-1,0.4-2.2,0.6-3.3,0.7c-2.5,0.1-5,0-7.5,0C88.9,213.8,88.7,213.8,88.4,213.8z M88.4,211.7c3,0,6,0,8.9,0
		c0.4,0,0.8-0.1,1.2-0.2c0.8-0.2,1.1-0.7,1.1-1.5c0-0.6,0.1-1.2,0-1.8c-0.1-0.4-0.3-0.7-0.6-1c-0.2-0.2-0.6-0.3-1-0.3
		c-3.2,0-6.3-0.1-9.5-0.1c0,0,0,0-0.1,0.1C88.4,208.4,88.4,210,88.4,211.7z"/>
	<path d="M247,210.6c2.6,0,5.2,0,7.7,0c1,0,1.2,0.3,1.2,1.2c0,0.7-0.2,0.9-1,0.9c-2.3,0-4.7,0-7,0c-0.2,0-0.5,0-0.7,0
		c0,0.9-0.1,1.7,0,2.5c0.1,0.4,0.4,0.8,0.8,0.9c0.7,0.3,1.5,0.4,2.2,0.4c2.6,0,5.2,0,7.9,0c0.9,0,1.1,0.2,1.1,1.1c0,0.8-0.2,1-1.1,1
		c-2.7,0-5.4,0.1-8,0c-1.1,0-2.2-0.3-3.2-0.7c-1.3-0.5-1.9-1.5-1.9-3c0-2.3,0-4.6,0-6.9c0-1.4,0.6-2.4,1.9-3c1-0.4,2.1-0.7,3.1-0.7
		c2.8-0.1,5.6,0,8.4,0c0.8,0,1,0.2,1,1c0,0.8-0.2,1.1-1,1.1c-2.8,0-5.5,0-8.3,0c-0.7,0-1.4,0.2-2,0.4c-0.5,0.2-0.8,0.7-0.8,1.2
		C247,209,247,209.8,247,210.6z"/>
	<path d="M284,210.6c1.6,0,3.1,0,4.6,0c1,0,2.1,0,3.1,0c0.9,0,1.1,0.2,1.1,1c0,0.9-0.2,1.2-1.2,1.2c-2.3,0-4.6,0-6.9,0
		c-0.2,0-0.5,0-0.8,0c0,0.9-0.1,1.7,0,2.5c0.1,0.4,0.5,0.8,0.9,0.9c0.7,0.2,1.4,0.4,2.2,0.4c2.6,0,5.2,0,7.8,0c1,0,1.5,0.9,1,1.7
		c-0.1,0.2-0.4,0.3-0.6,0.3c-3.3,0-6.7-0.1-10-0.1c-0.6,0-1.2-0.3-1.7-0.5c-1.3-0.6-2-1.6-1.9-3.1c0-2.3,0-4.5,0-6.8
		c0-1.3,0.6-2.3,1.7-2.9c1-0.6,2.2-0.8,3.3-0.8c2.8,0,5.6,0,8.4,0c0.8,0,1,0.2,1,1c0,0.8-0.2,1.1-1,1.1c-2.8,0-5.5,0-8.3,0
		c-0.7,0-1.4,0.2-2,0.5c-0.4,0.2-0.7,0.7-0.8,1.1C283.9,208.9,284,209.7,284,210.6z"/>
	<path class="st1" d="M248.7,173.7c0,0.7,0,1.4,0,2.1c0,1.1-0.7,1.9-1.9,1.9c-1.4,0-2.9,0-4.3,0c-1.1,0-1.8-0.9-1.8-1.9
		c0-1.4,0-2.8,0-4.2c0-1,0.7-1.8,1.7-1.8c1.6-0.1,3.1-0.1,4.7,0c0.9,0,1.6,0.8,1.6,1.7C248.8,172.2,248.7,173,248.7,173.7
		C248.7,173.7,248.7,173.7,248.7,173.7z"/>
	<path class="st0" d="M180.6,173.4c0,0.7,0,1.4,0,2.1c0,1.1-0.7,1.9-1.9,1.9c-1.4,0-2.9,0-4.3,0c-1.1,0-1.8-0.9-1.8-1.9
		c0-1.4,0-2.8,0-4.2c0-1,0.7-1.8,1.7-1.8c1.6-0.1,3.1-0.1,4.7,0c0.9,0,1.6,0.8,1.6,1.7C180.7,171.9,180.6,172.7,180.6,173.4
		C180.6,173.4,180.6,173.4,180.6,173.4z"/>
	<path d="M271.6,206.7c0,0.3,0,0.5,0,0.7c0,3.4,0,6.8,0,10.1c0,1.1-0.9,1.7-1.9,1.1c-0.3-0.2-0.4-0.7-0.4-1c0-3.4,0-6.8,0-10.1
		c0-0.3,0-0.5,0-0.9c-0.7,0-1.4,0-2.1,0c-0.9,0-1.8,0-2.7,0c-0.8,0-1.1-0.2-1.1-1.1c0-0.8,0.2-1,1.1-1c3.3,0,6.5,0,9.8,0
		c0.7,0,1.4,0,2.2,0c1,0,1.3,0.2,1.3,1.1c0,0.9-0.3,1.1-1.3,1.1c-1.3,0-2.7,0-4,0C272,206.7,271.8,206.7,271.6,206.7z"/>
	<path d="M76.6,206.7c0,0.4,0,0.6,0,0.9c0,3.3,0,6.7,0,10c0,1.2-0.1,1.3-1.2,1.3c-1,0-1.1-0.1-1.1-1.3c0-3.3,0-6.7,0-10
		c0-0.3,0-0.5,0-0.8c-0.6,0-1.1,0-1.6,0c-1.1,0-2.2,0-3.3,0c-1,0-1.5-0.7-1.1-1.7c0.2-0.5,0.6-0.4,1-0.4c3.6,0,7.3,0,10.9,0
		c0.4,0,0.8,0,1.2,0c0.8,0,1,0.2,1,1c0,0.8-0.2,1.1-1,1.1C80,206.7,78.4,206.7,76.6,206.7z"/>
	<path d="M125.3,210.4c0-1.6,0-3.2,0-4.8c0-0.9,0.2-1.1,1.2-1.1c0.9,0,1.1,0.2,1.1,1.1c0,3.1,0,6.1,0,9.2c0,1.1,0.3,1.5,1.4,1.7
		c0.9,0.1,1.7,0.2,2.6,0.2c2.4,0,4.7,0,7.1,0c0.8,0,1.1,0.2,1.1,1c0,0.8-0.3,1.1-1.1,1.1c-2.8,0-5.6,0-8.4,0c-0.9,0-1.9-0.2-2.8-0.5
		c-1.4-0.5-2.1-1.6-2.2-3.1C125.3,213.6,125.3,212,125.3,210.4C125.3,210.4,125.3,210.4,125.3,210.4z"/>
	<path d="M143.7,210.4c0-1.6,0-3.2,0-4.8c0-0.9,0.2-1,1.1-1c1,0,1.2,0.2,1.2,1c0,3.1,0,6.2,0,9.2c0,1,0.3,1.5,1.3,1.7
		c0.9,0.2,1.7,0.2,2.6,0.2c2.4,0,4.7,0,7.1,0c0.9,0,1.1,0.2,1.1,1c0,0.8-0.2,1.1-1.1,1.1c-2.8,0-5.6,0-8.4,0c-0.9,0-1.9-0.2-2.7-0.5
		c-1.5-0.5-2.2-1.6-2.2-3.2C143.7,213.6,143.7,212,143.7,210.4z"/>
	<path d="M164.4,211.8c0,2,0,4,0,6c0,1.1-1,1.7-1.9,1c-0.2-0.2-0.4-0.6-0.4-1c0-2.2,0-4.4,0-6.5c0-1.9,0-3.7,0-5.6c0-0.9,0.2-1,1-1
		c1.1,0,1.3,0.1,1.3,1C164.4,207.7,164.4,209.7,164.4,211.8z"/>
	<path d="M215.5,213.5c-1,0-1.9,0-2.9,0c-0.8,0-1-0.2-1-1c0-0.2,0-0.4,0-0.6c0-0.6,0.3-0.9,0.8-0.9c2,0,4,0,6.1,0
		c0.6,0,0.8,0.3,0.9,0.8c0,0.3,0,0.5,0,0.8c0,0.5-0.3,0.8-0.8,0.8C217.6,213.5,216.6,213.5,215.5,213.5z"/>
</g>
</svg>
