<svg xmlns="http://www.w3.org/2000/svg" viewBox="0 0 239.57 129.13"><defs><style>.cls-1{fill:#0091f6;}</style></defs><title>lf</title><g id="Calque_1" data-name="Calque 1"><path d="M167.91,73.58l23.82-2.4-2.17-27.08-24.07,1.66c-1.19-8.72-2.2-17.12,3.75-24.12,6.09-7.18,14.71-5.53,23-5.09V5.42c6.12-.38,12.21-.65,18.28-1.15S222.67,3,229.36,2.35l10.22,116.36H171.93Zm42.61-48c4.56-.44,8.4-.6,12.13-1.3a4.82,4.82,0,0,0,3.25-2.86c1.7-8.31-1.31-11.72-9.47-11.16-1,.07-2,.09-3,.15-8.92.5-9.15.87-8.38,9.66C205.42,24.09,206.77,26.49,210.52,25.59Zm7.88,87.93c2-.27,4-.58,5.94-.8,10.07-1.11,10-1.09,8.83-11.27-.33-2.93-1.57-4.23-4.48-3.95s-6,.63-9,.82c-7.42.47-7.42.44-6.85,8,.06.83.12,1.66.13,2.5C213.09,112.37,214.69,114.12,218.4,113.53Zm12.65-36c-.5-9.56-.78-9.79-9.73-8.79-2.47.28-5,.32-7.41.83-1.32.28-3.53,1.31-3.54,2,0,3.76,0,7.72,1.17,11.19.36,1,4.61.9,7.08,1,2.14.09,4.31-.36,6.46-.34C229.59,83.53,232.24,82,231,77.57ZM215.5,54.62c14-.81,14-.8,12.57-11.73-.34-2.66-1.41-3.92-4.16-3.67-4.47.41-9,.59-13.4,1.23-1.15.16-3,1.63-3,2.54a38,38,0,0,0,.94,9.85c.24,1,2.45,1.82,3.88,2.1A7.78,7.78,0,0,0,215.5,54.62Z"/><path d="M52.3,86.42,56,1.94,104.16,0c-.43,6.2-.77,11.93-1.22,17.66-1.54,19.73-3.19,39.45-4.62,59.18-.24,3.32-1.38,4.35-4.72,4.69C80.07,82.92,66.57,84.69,52.3,86.42ZM81.39,7.08c-4,3.83-5,7.95-3.16,12.53a10.14,10.14,0,0,0,10,6.9c4.71,0,8.18-2,10.21-6.94C89.77,19.48,84.08,15.53,81.39,7.08Z"/></g><g id="Calque_2" data-name="Calque 2"><polygon class="cls-1" points="4 2.47 0 129.13 76.67 121.13 76.67 111.8 19.67 117.13 26 2.47 4 2.47"/><path class="cls-1" d="M106.5,6.8h29s-9,9-7,41.67H112.83l2.33,28.33,15.67-1.33,3.33,41.67H114.5Z"/></g></svg>