<svg id="Calque_1" data-name="Calque 1" xmlns="http://www.w3.org/2000/svg" viewBox="0 0 400 188.15"><defs><style>.cls-1{fill:#fff;}.cls-2{fill:#000001;}.cls-3{fill:#010002;}.cls-4{fill:#ef4224;}</style></defs><title>nng</title><path class="cls-1" d="M349.4,106.21c-11.21,0-17.43-6.25-17.49-17.7-.07-11.92,6-18.44,17.29-18.43s16.54,5.6,16.7,17.6S360.27,106.17,349.4,106.21Z"/><path class="cls-2" d="M0,17.58c7.49,0,15,.31,22.47,0,4-.14,6.1,1,7.81,4.89C40,44.59,50,66.51,60,88.48a13.11,13.11,0,0,0,3.22,4.73V18.05H86.73V150.84c-7.55,0-14.84.19-22.11-.17-1.35-.07-3.11-2.13-3.82-3.67Q43.35,109.18,26.14,71.25a9.46,9.46,0,0,0-2.76-3.84v83.17H0Z"/><path class="cls-3" d="M400,67.58a25.43,25.43,0,0,1-20.55,4.83c4.49,7.65,5.56,15,3.54,22.75-3.19,12.33-13.18,20.14-25.77,21.58-5.72.65-11.29,3.43-16.66,5.86-1.66.75-2.4,3.53-3.56,5.37,1.92,1.09,3.78,3,5.76,3.12,7.47.48,15,.21,22.47.53,13.8.59,24.19,9.14,25.59,20.79,1.78,14.87-5.2,26.26-19.27,30.28A66.33,66.33,0,0,1,328,180.59c-11-4.36-15.4-13.65-12.85-25,.55-2.47,1.41-4.18,4.44-4.21,3.79,0,7.58-.56,11.77-.91-.69,2.39-1.35,4.24-1.74,6.14-1.24,6.13,1.35,11.49,7.11,13.85a40.41,40.41,0,0,0,27.85,1.52c7.24-2.23,10.92-7.84,10.4-15.12s-4.19-11.65-12.44-12.41c-8.93-.82-17.95-.56-26.93-.85-10.2-.33-16.48-6.74-14.6-15.75.67-3.21,3.32-6.34,5.82-8.72,2.06-2,5.23-2.76,8.23-4.23a12.81,12.81,0,0,0-1.8-1.44c-13.09-7-18.38-17.16-16.23-31.12,1.91-12.38,11.85-22.1,25.12-24.49a43.22,43.22,0,0,1,22.63,1.63c8.89,3.19,17.76,4.69,26.31-1.19L400,66.58Zm-49.51,38.13c10.88,0,16.65-6.52,16.49-18.53s-5.46-17.59-16.7-17.6S332.94,76.09,333,88C333.07,99.46,339.29,105.75,350.49,105.71Z"/><path class="cls-3" d="M312.63,3.46c-.77,2.68-1.21,4.45-1.78,6.19q-28.18,86.29-56.37,172.58c-.31.95-.34,2.28-1,2.76-1.8,1.32-4,3.38-5.78,3.15-3.1-.41-3.79-3.24-2.81-6.25,2.48-7.59,4.89-15.19,7.37-22.78Q277.2,82.78,302.16,6.47c.46-1.42.61-3.27,1.6-4.12C305.2,1.11,307.34-.16,309,0,310.43.16,311.6,2.39,312.63,3.46Z"/><path class="cls-4" d="M130.9,17.58c7.49,0,15,.31,22.47,0,4-.14,6.1,1,7.81,4.89,9.69,22.08,19.74,44,29.68,66a13.11,13.11,0,0,0,3.22,4.73V18.05h23.55V150.84c-7.55,0-14.84.19-22.11-.17-1.35-.07-3.11-2.13-3.82-3.67Q174.25,109.18,157,71.25a9.46,9.46,0,0,0-2.76-3.84v83.17H130.9Z"/></svg>