<svg id="Calque_1" data-name="Calque 1" xmlns="http://www.w3.org/2000/svg" viewBox="0 0 188.83 88.65"><defs><style>.cls-1,.cls-2{fill:none;stroke-linecap:round;stroke-miterlimit:10;stroke-width:0.41px;}.cls-1{stroke:#cecdcd;}.cls-2{stroke:#9c9c9b;}.cls-3{fill:#0662a9;}.cls-4{fill:#0e87c9;}.cls-5{fill:#9b1c71;}.cls-6{fill:#666b72;}.cls-7{fill:#dd9304;}.cls-8{fill:#bec500;}.cls-9{fill:#12100b;}</style></defs><title>ubfc</title><path class="cls-1" d="M100.55,32.54c41.08-64.47,54.08,55.36,88,0"/><path class="cls-1" d="M100.55,32.54"/><path class="cls-1" d="M102.13,33.73c9.33-6,58.33,83,86.45-1.2"/><path class="cls-1" d="M100.55,32.54c31.91-19.3,31.91,47.53,88,0"/><path class="cls-1" d="M100.48,32.47c-9.37-67.92,41,43.93,88.09.06"/><path class="cls-1" d="M100.55,32.54c-3.67-68.05,85.08,24.83,88,0"/><path class="cls-1" d="M100.55,32.54c50.25-48.14,72.75,81.36,88,0"/><path class="cls-2" d="M100.55,32.54c16.75-19.14,52.91,73,88,0"/><path class="cls-1" d="M100.55,32.54c38-76.09,62.11,24.71,88,0"/><path class="cls-1" d="M100.55,32.54c35.41-87.47,79.75,34,88,0"/><path class="cls-3" d="M122.73,44.66c-7.21-5.43-13.69-10.6-20.81-10.89h0a1.53,1.53,0,0,1-1.45-1.6h0a1.52,1.52,0,0,1,1.59-1.45h0c8.53.44,15.35,6.19,22.49,11.5h0c7.15,5.36,14.53,10.35,23.86,10.34h0c9.47,0,21.48-5.13,37.77-21.34h0a1.52,1.52,0,0,1,2.15,0h0a1.52,1.52,0,0,1,0,2.15h0c-16.55,16.47-29.25,22.22-39.92,22.22h0c-10.49,0-18.5-5.57-25.69-10.95Z"/><path class="cls-4" d="M179,36.33c-9-.09-16.47-7.48-24-14.42h0c-7.51-7-15.08-13.68-23.15-13.61h0c-7.68,0-17,5.84-28.54,24.75h0a1.52,1.52,0,0,1-2.09.5h0a1.52,1.52,0,0,1-.51-2.09h0C112.39,12.3,122.4,5.3,131.82,5.26h0c9.78.06,17.68,7.45,25.21,14.42h0c7.52,7.07,14.74,13.7,21.92,13.61h0A14.21,14.21,0,0,0,186.49,31h0a1.52,1.52,0,0,1,2.09.5h0a1.52,1.52,0,0,1-.5,2.09h0A17.19,17.19,0,0,1,179,36.33h0Z"/><path class="cls-5" d="M169.16,61.67c-4.46,0-8.4-3.09-12.29-7.19h0c-3.9-4.14-7.79-9.54-11.78-14.9h0c-7.92-10.79-16.49-21-24.6-20.86h0c-5,0-10.73,3.58-17.2,14.32h0a1.52,1.52,0,0,1-2.09.52h0a1.52,1.52,0,0,1-.52-2.09h0c6.64-11.06,13.18-15.77,19.81-15.79h0c7.94.08,14.62,6.55,20.9,14.15h0c6.26,7.64,12.14,16.69,17.68,22.57h0c3.69,3.94,7.19,6.28,10.08,6.23h0c2.36,0,4.9-1.36,7.79-5.56h0c2.86-4.16,5.85-11,8.86-21.21h0a1.51,1.51,0,0,1,1.89-1h0a1.52,1.52,0,0,1,1,1.89h0c-3.07,10.37-6.11,17.45-9.26,22.07h0c-3.12,4.59-6.6,6.88-10.29,6.88h0Z"/><path class="cls-6" d="M156.74,46.84c-10.38,0-18.33-5-25.07-9.84h0c-6.75-4.86-12.45-9.34-17.85-9.27h0c-3.2,0-6.6,1.41-10.72,5.58h0a1.52,1.52,0,0,1-2.15,0h0a1.53,1.53,0,0,1,0-2.15h0c4.43-4.54,8.71-6.51,12.89-6.5h0c7.05.07,12.95,5.14,19.62,9.84h0c6.67,4.75,14,9.27,23.31,9.27h0c7.88,0,17.44-3.2,29.59-12.7h0a1.52,1.52,0,0,1,2.13.26h0a1.52,1.52,0,0,1-.26,2.13h0c-12.46,9.77-22.71,13.35-31.45,13.35h0Z"/><path class="cls-7" d="M131.12,53.53c-4.85-6.48-8.89-14.11-13-19h0c-2.73-3.29-5.34-5.13-7.89-5.1h0c-1.94,0-4.28,1-7.19,3.9h0a1.52,1.52,0,0,1-2.15,0h0a1.53,1.53,0,0,1,0-2.16h0c3.2-3.21,6.29-4.78,9.34-4.78h0c4.07,0,7.3,2.7,10.22,6.19h0c2.94,3.53,5.67,8.08,8.58,12.57h0c5.81,9.07,12.23,17.47,20.79,17.37h0C158,62.62,169.64,55,186,31.42h0a1.52,1.52,0,0,1,2.12-.38h0a1.53,1.53,0,0,1,.38,2.12h0c-16.6,23.79-28.6,32.32-38.68,32.41h0c-8,0-13.89-5.59-18.73-12Z"/><path class="cls-8" d="M173.37,40.13c-11.27-.09-21.54-9.54-31-18.62h0C133,12.32,124.09,3.53,118,3.73h0c-2.69,0-5.17,1.4-7.76,5.86h0c-2.55,4.44-4.88,11.81-6.78,22.9h0a1.52,1.52,0,0,1-1.76,1.24h0A1.52,1.52,0,0,1,100.5,32h0c2-11.27,4.3-18.91,7.14-23.89h0c2.79-5,6.41-7.42,10.4-7.39h0c8.5.21,16.94,9.61,26.43,18.62h0c9.38,9.12,19.5,17.86,28.9,17.77h0c4.22,0,8.44-1.62,12.88-5.88h0a1.52,1.52,0,0,1,2.15,0h0a1.52,1.52,0,0,1,0,2.15h0c-4.82,4.68-9.92,6.73-15,6.73h0Z"/><path class="cls-9" d="M24.82,23.75v13.1a7.89,7.89,0,0,1-15.77,0V23.75h2.58v13.1a5.29,5.29,0,1,0,10.57,0V23.75Z"/><path class="cls-9" d="M28.74,23.75h7.43a5,5,0,0,1,4.91,4.92,4.74,4.74,0,0,1-.87,2.79l0,0,0,0A6.21,6.21,0,0,1,42.39,33a6.59,6.59,0,0,1,2,4.74,6.8,6.8,0,0,1-6.68,6.74H28.74V23.75ZM36.18,31a2.37,2.37,0,0,0,0-4.73H31.33V31Zm1.51,10.9a4.26,4.26,0,0,0,4.09-4.22,4.16,4.16,0,0,0-4.09-4.15H31.33v8.37h6.36Z"/><path class="cls-9" d="M47.19,23.75H60.26v2.53H49.8v4.84h5.75v2.56H49.8V44.44H47.19Z"/><path class="cls-9" d="M78.2,38.92l2,1.51a10.69,10.69,0,0,1-8.63,4.33,10.82,10.82,0,1,1,8.66-17.29L78.2,29a8.12,8.12,0,0,0-6.59-3.31A8.26,8.26,0,1,0,78.2,38.92Z"/><rect class="cls-9" y="55.48" width="90.84" height="0.25"/><path class="cls-9" d="M14.06,67.62v5.22a3.14,3.14,0,0,1-6.28,0V67.62h1v5.22a2.11,2.11,0,1,0,4.21,0V67.62Z"/><path class="cls-9" d="M17.77,69.34v6.52h-1V67.62h1.13l4.4,6.52V67.62h1v8.24H22.18Z"/><path class="cls-9" d="M25.8,67.62h1v8.24h-1Z"/><path class="cls-9" d="M29.74,67.62l2.59,6.75,2.61-6.75H36l-3.17,8.24H31.79l-3.18-8.24Z"/><path class="cls-9" d="M37.33,67.62h5.21v1H38.38v1.93H42v1H38.38v3.26h4.06v1h-5.1V67.62Z"/><path class="cls-9" d="M50.81,75.86H49.62l-3.15-4.33H45.29v4.33h-1V67.62h2.86a2,2,0,0,1,2,2,2,2,0,0,1-1.48,1.9Zm-5.52-5.33h1.86a1,1,0,1,0,0-1.92H45.29Z"/><path class="cls-9" d="M53.93,75.85a5.5,5.5,0,0,1-2.45-1.25l.68-.78a4.41,4.41,0,0,0,2,1,2.51,2.51,0,0,0,1.6-.13,1.3,1.3,0,0,0,.82-1.19c0-.86-.93-1.18-1.83-1.35a8.69,8.69,0,0,1-1.9-.58,2,2,0,0,1-1.06-1.81,2.12,2.12,0,0,1,.38-1.19,2.55,2.55,0,0,1,1-.78,3.26,3.26,0,0,1,2-.25,4.74,4.74,0,0,1,2.19,1l-.66.8a2.93,2.93,0,0,0-3-.68,1.2,1.2,0,0,0-.75,1c0,.79.67,1.09,1.74,1.32a7.65,7.65,0,0,1,1.9.57,2,2,0,0,1,1.14,1.86,2.23,2.23,0,0,1-.39,1.3,2.72,2.72,0,0,1-1,.82,3,3,0,0,1-1.4.29A4.15,4.15,0,0,1,53.93,75.85Z"/><path class="cls-9" d="M59.64,67.62h1v8.24h-1Z"/><path class="cls-9" d="M64.78,68.64H62.6v-1H68v1H65.82v7.22h-1Z"/><path class="cls-9" d="M69.48,67.62h5.21v1H70.51v1.93h3.64v1H70.51v3.26h4.06v1h-5.1V67.62Zm3.12-2h.79l-1,1.24H72Z"/><path class="cls-9" d="M7.72,80.28h3a2,2,0,0,1,1.61,3.07h0a2.43,2.43,0,0,1,.86.58,2.62,2.62,0,0,1,.79,1.89,2.71,2.71,0,0,1-2.66,2.68H7.72V80.28Zm3,2.9a1,1,0,0,0,.92-.94,1,1,0,0,0-.92-1H8.75v1.89Zm.6,4.34a1.69,1.69,0,0,0,1.63-1.68,1.65,1.65,0,0,0-1.63-1.65H8.75v3.33Z"/><path class="cls-9" d="M23.68,84.34A4.31,4.31,0,1,1,19.36,80,4.31,4.31,0,0,1,23.68,84.34Zm-1.05,0a3.26,3.26,0,1,0-3.26,3.27A3.29,3.29,0,0,0,22.62,84.34Z"/><path class="cls-9" d="M31.37,80.28V85.5a3.14,3.14,0,0,1-6.28,0V80.28h1V85.5a2.11,2.11,0,1,0,4.21,0V80.28Z"/><path class="cls-9" d="M39.79,88.52H38.6l-3.15-4.33H34.27v4.33h-1V80.28h2.86a2,2,0,0,1,2,2,2,2,0,0,1-1.48,1.9ZM34.27,83.2h1.86a1,1,0,1,0,0-1.92H34.27Z"/><path class="cls-9" d="M47.62,83.22v3.64a4.38,4.38,0,0,1-3.48,1.78A4.31,4.31,0,1,1,47.2,81.3l-.76.67A3.21,3.21,0,0,0,44.14,81a3.29,3.29,0,1,0,2.48,5.48V84.24H44.2v-1Z"/><path class="cls-9" d="M57.68,84.34A4.31,4.31,0,1,1,53.36,80,4.31,4.31,0,0,1,57.68,84.34Zm-1.05,0a3.26,3.26,0,1,0-3.26,3.27A3.29,3.29,0,0,0,56.62,84.34Z"/><path class="cls-9" d="M66.6,83.22v3.64a4.38,4.38,0,0,1-3.48,1.78,4.31,4.31,0,1,1,3.05-7.35l-.76.67A3.22,3.22,0,0,0,63.12,81a3.29,3.29,0,0,0,0,6.59,3.32,3.32,0,0,0,2.48-1.11V84.24H63.18v-1Z"/><path class="cls-9" d="M69.72,82v6.51h-1V80.28h1.14l4.39,6.52V80.28h1v8.24H74.13Z"/><path class="cls-9" d="M77.68,80.28h5.21v1H78.72v1.93h3.63v1H78.72V87.5h4.06v1h-5.1V80.28Z"/><path class="cls-9" d="M87.63,80.28h5.21v1H88.67v1.93H91v1h-2.3v4.28h-1Z"/><path class="cls-9" d="M100.69,88.52H99.5l-3.15-4.33H95.17v4.33h-1V80.28H97a2,2,0,0,1,2,2,2,2,0,0,1-1.48,1.9ZM95.17,83.2H97a1,1,0,1,0,0-1.92H95.17Z"/><path class="cls-9" d="M106.64,86.13h-3.37l-.91,2.39h-1.11l3.17-8.24h1.08l3.19,8.24h-1.13ZM105,81.78l-1.29,3.33h2.56Z"/><path class="cls-9" d="M111.34,82v6.51h-1V80.28h1.13l4.4,6.52V80.28h1v8.24h-1.12Z"/><path class="cls-9" d="M125.59,86.33l.81.6A4.26,4.26,0,0,1,123,88.65a4.31,4.31,0,1,1,3.45-6.89l-.82.6A3.24,3.24,0,0,0,123,81a3.29,3.29,0,1,0,2.63,5.28Z"/><path class="cls-9" d="M133.32,84.23h-4.23v4.29h-1V80.28h1v2.94h4.23V80.28h1v8.24h-1Z"/><path class="cls-9" d="M136.5,80.28h5.21v1h-4.17v1.93h3.63v1h-3.63V87.5h4.06v1h-5.1V80.28Z"/><path class="cls-9" d="M146.48,86.36H143v-1h3.48Z"/><path class="cls-9" d="M154.75,86.33l.81.6a4.26,4.26,0,0,1-3.44,1.72,4.31,4.31,0,1,1,3.45-6.89l-.82.6A3.23,3.23,0,0,0,152.12,81a3.29,3.29,0,1,0,2.63,5.28Z"/><path class="cls-9" d="M165.36,84.34A4.31,4.31,0,1,1,161,80,4.31,4.31,0,0,1,165.36,84.34Zm-1.06,0A3.26,3.26,0,1,0,161,87.62,3.29,3.29,0,0,0,164.3,84.34Z"/><path class="cls-9" d="M173.09,88.52V82l-2.63,3.58L167.85,82v6.57h-1V80.28h1.09l2.56,3.52L173,80.28h1.1v8.24Z"/><path class="cls-9" d="M178,81.3h-2.18v-1h5.39v1H179v7.22h-1V81.3Z"/><path class="cls-9" d="M182.59,80.28h5.21v1h-4.16v1.93h3.63v1h-3.63V87.5h4.06v1h-5.1V80.28Zm3.13-2h.79l-1,1.24h-.42Z"/></svg>