<svg id="Calque_1" data-name="Calque 1" xmlns="http://www.w3.org/2000/svg" viewBox="0 0 255 341.68"><defs><style>.cls-1{fill:#e23237;}.cls-2{fill:#b52e31;}.cls-3{fill:#fff;}</style></defs><title>angular</title><path class="cls-1" d="M0,116.07,125.81,71.24l129.2,44L234.09,281.72l-108.28,60L19.22,282.52Z"/><path class="cls-2" d="M255,115.27l-129.2-44V341.68l108.28-59.87L255,115.27Z"/><path class="cls-3" d="M126,102.82h0L47.61,277.24l29.29-.5,15.74-39.35H163l17.23,39.84,28,.5L126,102.82Zm.2,55.88,26.5,55.38H102.9l23.31-55.38Z"/><path class="cls-2" d="M61,44.41,56.35,32h-18L33.82,44.41H29.49l16-42h3.93l15.91,42ZM48.18,9.76Q48,9.2,47.75,8.47a12.63,12.63,0,0,1-.37-1.67h-.12a16.32,16.32,0,0,1-.4,1.67q-.22.73-.42,1.29l-6.8,18.69H55Z"/><path class="cls-2" d="M91.57,44.41V27.13Q91.57,17,84.18,17a8.51,8.51,0,0,0-3.63.78,8.7,8.7,0,0,0-2.89,2.15,10.1,10.1,0,0,0-1.9,3.27,11.85,11.85,0,0,0-.69,4.09V44.41H71.32v-30h3.75v5.21h.12a10.84,10.84,0,0,1,10-5.92q4.92,0,7.5,3.19t2.58,9.23V44.41Z"/><path class="cls-2" d="M129.12,42.1q0,8.35-3.79,12.38t-11.7,4a20.56,20.56,0,0,1-9.32-2.2V52.5a19.21,19.21,0,0,0,9.32,2.72q11.75,0,11.75-12.42V39.2h-.12a11.41,11.41,0,0,1-10.55,5.92,12.34,12.34,0,0,1-5.08-1,11,11,0,0,1-3.94-3,13.84,13.84,0,0,1-2.55-4.7,20,20,0,0,1-.91-6.25,22.06,22.06,0,0,1,1-6.72,15.45,15.45,0,0,1,2.75-5.2,12.29,12.29,0,0,1,4.32-3.35,13.28,13.28,0,0,1,5.7-1.19q6.36,0,9.29,5.16h.12V14.41h3.75Zm-3.75-15.91a9.38,9.38,0,0,0-.67-3.54,9.18,9.18,0,0,0-1.87-2.93,9,9,0,0,0-2.86-2,8.76,8.76,0,0,0-3.65-.75,9.65,9.65,0,0,0-4.23.91,9.15,9.15,0,0,0-3.22,2.58,11.93,11.93,0,0,0-2.05,4.06,18.66,18.66,0,0,0-.72,5.38,17.16,17.16,0,0,0,.67,5,11.27,11.27,0,0,0,1.9,3.78,8.52,8.52,0,0,0,3,2.4,8.74,8.74,0,0,0,3.88.85,9.86,9.86,0,0,0,4-.81,9.14,9.14,0,0,0,3.11-2.23,10.06,10.06,0,0,0,2-3.34,12,12,0,0,0,.7-4.15Z"/><path class="cls-1" d="M158.42,44.41v-5.1h-.12a10,10,0,0,1-9.46,5.8q-10.69,0-10.69-13.07V14.41h3.75V31.35q0,5.39,1.92,8a6.85,6.85,0,0,0,5.87,2.58,8.23,8.23,0,0,0,3.53-.75A8.06,8.06,0,0,0,156,39a9.87,9.87,0,0,0,1.8-3.27,13.1,13.1,0,0,0,.64-4.22V14.41h3.75v30Z"/><path class="cls-1" d="M171.84,44.41V0h3.75V44.41Z"/><path class="cls-1" d="M202.54,44.41V39.08h-.12a11,11,0,0,1-4,4.45,10.59,10.59,0,0,1-5.73,1.58,11.7,11.7,0,0,1-3.91-.62,8.39,8.39,0,0,1-3-1.74A7.67,7.67,0,0,1,184,40a9,9,0,0,1-.66-3.49,8.57,8.57,0,0,1,2.52-6.49q2.52-2.42,7.62-3.15l9.11-1.32q0-8.64-6.71-8.64a14.67,14.67,0,0,0-9.73,3.84V16.7a12.59,12.59,0,0,1,2.12-1.22,19.52,19.52,0,0,1,2.5-.94,20.6,20.6,0,0,1,2.71-.62,17.37,17.37,0,0,1,2.71-.22q5,0,7.57,2.81t2.56,8.38V44.41Zm-7.73-14.56a23.48,23.48,0,0,0-3.46.73A7.11,7.11,0,0,0,189,31.77a4.43,4.43,0,0,0-1.38,1.85,7.32,7.32,0,0,0-.44,2.71,5.76,5.76,0,0,0,.42,2.23,5,5,0,0,0,1.23,1.77,5.59,5.59,0,0,0,2,1.16,7.82,7.82,0,0,0,2.62.41A8.65,8.65,0,0,0,200,39a9.78,9.78,0,0,0,1.9-3.22,11.73,11.73,0,0,0,.69-4.07v-3Z"/><path class="cls-1" d="M230.2,18.25a5.6,5.6,0,0,0-3.4-1,5.82,5.82,0,0,0-2.64.57,6.68,6.68,0,0,0-2,1.54,9.26,9.26,0,0,0-1.46,2.24,15.63,15.63,0,0,0-1,2.65,19.41,19.41,0,0,0-.53,2.78,23.46,23.46,0,0,0-.16,2.67V44.41h-3.72v-30H219v6.42h.12a13.34,13.34,0,0,1,1.33-2.94,9.16,9.16,0,0,1,1.86-2.2,7.78,7.78,0,0,1,2.3-1.36,7.38,7.38,0,0,1,2.62-.47,10.16,10.16,0,0,1,1.63.12,6.19,6.19,0,0,1,1.3.35Z"/></svg>