<?xml version="1.0" encoding="utf-8"?>
<!-- Generator: Adobe Illustrator 22.1.0, SVG Export Plug-In . SVG Version: 6.00 Build 0)  -->
<svg version="1.1" xmlns="http://www.w3.org/2000/svg" xmlns:xlink="http://www.w3.org/1999/xlink" x="0px" y="0px"
	 viewBox="0 0 50 50" style="enable-background:new 0 0 50 50;" xml:space="preserve">
<style type="text/css">
	.st0{fill:#8FC941;}
	.st1{fill:#009CD9;}
	.st2{fill:#EA2084;}
	.st3{opacity:0.3;fill:#FFFFFF;}
	.st4{fill:#575858;}
	.st5{fill:#777777;}
</style>
<g id="Calque_1">
</g>
<g id="Calque_2">
	<rect x="1" y="1" class="st0" width="37" height="7.5"/>
	<rect x="1" y="12" class="st1" width="11.4" height="26"/>
	<rect x="16" y="12" class="st2" width="22" height="26"/>
	<polygon class="st3" points="1,24.2 12.4,21.3 12.4,12 1,12 	"/>
	<polygon class="st3" points="16,20.4 16,12 38,12 38,15 	"/>
	<g>
		<path class="st4" d="M8.3,42.5v6.4H7.5v-1.1c-0.3,0.4-0.7,0.7-1.2,0.9S5.4,49,4.9,49c-0.9,0-1.7-0.3-2.3-1s-1-1.5-1-2.4
			c0-0.9,0.3-1.7,1-2.4s1.4-1,2.3-1c0.5,0,1,0.1,1.4,0.3s0.8,0.6,1.1,1v-1.2H8.3z M5,43.1c-0.5,0-0.9,0.1-1.3,0.3
			C3.3,43.6,3,44,2.8,44.4c-0.2,0.4-0.3,0.8-0.3,1.3c0,0.4,0.1,0.9,0.3,1.3c0.2,0.4,0.5,0.7,0.9,1c0.4,0.2,0.8,0.3,1.2,0.3
			c0.4,0,0.9-0.1,1.3-0.3C6.7,47.7,7,47.4,7.2,47c0.2-0.4,0.3-0.8,0.3-1.3c0-0.7-0.2-1.4-0.7-1.8C6.3,43.3,5.7,43.1,5,43.1z"/>
		<path class="st4" d="M9.4,42.5h1l1.7,2.3l1.7-2.3h1l-2.2,3l2.4,3.4h-1l-1.9-2.7l-1.9,2.7h-1l2.4-3.4L9.4,42.5z"/>
		<path class="st4" d="M15.8,42.5h0.8v3c0,0.7,0,1.2,0.1,1.5c0.1,0.4,0.3,0.7,0.7,0.9s0.7,0.3,1.2,0.3c0.5,0,0.8-0.1,1.2-0.3
			c0.3-0.2,0.5-0.5,0.7-0.9c0.1-0.2,0.1-0.8,0.1-1.6v-3h0.8v3.1c0,0.9-0.1,1.5-0.3,2s-0.5,0.8-0.9,1S19.2,49,18.6,49
			s-1.1-0.1-1.6-0.4s-0.7-0.6-0.9-1.1s-0.3-1.1-0.3-2V42.5z"/>
		<path class="st4" d="M22.9,42.5h0.8v0.9c0.2-0.4,0.5-0.6,0.8-0.8s0.6-0.3,0.9-0.3c0.2,0,0.5,0.1,0.7,0.2l-0.4,0.7
			c-0.2-0.1-0.3-0.1-0.4-0.1c-0.3,0-0.5,0.1-0.8,0.3s-0.4,0.6-0.6,1c-0.1,0.4-0.2,1.1-0.2,2.2v2.2h-0.8V42.5z"/>
		<path class="st4" d="M32.1,46.7l0.7,0.4c-0.2,0.4-0.5,0.8-0.8,1.1c-0.3,0.3-0.6,0.5-1,0.6c-0.4,0.1-0.8,0.2-1.3,0.2
			c-1,0-1.9-0.3-2.4-1c-0.6-0.7-0.9-1.5-0.9-2.3c0-0.8,0.2-1.5,0.7-2.2c0.6-0.8,1.5-1.2,2.5-1.2c1.1,0,2,0.4,2.6,1.2
			c0.5,0.6,0.7,1.3,0.7,2.2h-5.7c0,0.7,0.3,1.3,0.7,1.8c0.5,0.5,1,0.7,1.7,0.7c0.3,0,0.6-0.1,0.9-0.2c0.3-0.1,0.6-0.3,0.8-0.5
			C31.7,47.4,31.9,47.1,32.1,46.7z M32.1,45c-0.1-0.4-0.3-0.8-0.5-1c-0.2-0.3-0.5-0.5-0.8-0.6c-0.3-0.2-0.7-0.2-1.1-0.2
			c-0.6,0-1.2,0.2-1.6,0.6c-0.3,0.3-0.6,0.7-0.7,1.3H32.1z"/>
		<path class="st5" d="M34.8,40.2h1.7c1,0,1.6,0,1.9,0.1c0.5,0.1,0.9,0.4,1.2,0.8c0.3,0.4,0.5,0.9,0.5,1.4c0,0.5-0.1,0.9-0.3,1.2
			c-0.2,0.4-0.5,0.6-0.9,0.8c-0.4,0.2-1,0.3-1.7,0.3l3.1,4h-1.1l-3.1-4h-0.5v4h-0.9V40.2z M35.6,41.1V44l1.5,0c0.6,0,1-0.1,1.3-0.2
			c0.3-0.1,0.5-0.3,0.6-0.5s0.2-0.5,0.2-0.8c0-0.3-0.1-0.6-0.2-0.8s-0.4-0.4-0.6-0.5c-0.3-0.1-0.7-0.2-1.3-0.2H35.6z"/>
		<path class="st5" d="M42,40.2h1.7c1,0,1.6,0,2,0.1c0.5,0.1,0.9,0.4,1.2,0.7s0.5,0.9,0.5,1.4c0,0.6-0.2,1-0.5,1.4s-0.7,0.6-1.3,0.8
			c-0.4,0.1-1.1,0.1-2.2,0.1h-0.6v4H42V40.2z M42.8,41.1V44l1.5,0c0.6,0,1-0.1,1.3-0.2c0.3-0.1,0.5-0.3,0.6-0.5
			c0.2-0.2,0.2-0.5,0.2-0.8c0-0.3-0.1-0.6-0.2-0.8c-0.2-0.2-0.4-0.4-0.6-0.5s-0.7-0.2-1.3-0.2H42.8z"/>
	</g>
</g>
</svg>
