<svg id="Layer_1" data-name="Layer 1" xmlns="http://www.w3.org/2000/svg" viewBox="0 0 903.89 228.85"><defs><style>.cls-1{fill:#563d7c;}.cls-2{isolation:isolate;}.cls-3{fill:#fff;}</style></defs><title>bootstrap</title><g id="solid"><path id="bg" class="cls-1" d="M228.85,190.71a38.25,38.25,0,0,1-38.14,38.14H38.14A38.25,38.25,0,0,1,0,190.71V38.14A38.25,38.25,0,0,1,38.14,0H190.71a38.25,38.25,0,0,1,38.14,38.14Z"/><g id="B" class="cls-2"><path class="cls-3" d="M62.19,49.73h64.88q17.95,0,28.79,8.23c7.22,5.5,10.84,13.76,10.84,24.87a29.75,29.75,0,0,1-4.94,17.28,31.8,31.8,0,0,1-14.14,11.14v.37q12.34,2.64,18.7,11.67c4.23,6.06,6.36,13.61,6.36,22.74a38,38,0,0,1-2.8,14.66,29.62,29.62,0,0,1-8.79,11.78,44.79,44.79,0,0,1-15.33,7.85,75.19,75.19,0,0,1-22.25,2.92H62.19V49.73Zm23.37,55.9H123.7c5.61,0,10.28-1.57,14-4.79s5.61-7.78,5.61-13.76c0-6.73-1.68-11.48-5-14.21s-8.23-4.11-14.58-4.11H85.56v36.87Zm0,58.52h41.32c7.1,0,12.64-1.83,16.53-5.53s5.91-8.9,5.91-15.63-1.94-11.67-5.91-15.26-9.42-5.31-16.53-5.31H85.56Z"/></g></g><path class="cls-1" d="M278.84,164.93V57.56h40.28q12.3,0,19.74,3.26a25.4,25.4,0,0,1,11.65,10A26.46,26.46,0,0,1,354.72,85,24.35,24.35,0,0,1,351,98a26.67,26.67,0,0,1-11.28,9.81q9.74,2.86,15,9.74a26.09,26.09,0,0,1,5.24,16.26,31.36,31.36,0,0,1-3.19,14,27.16,27.16,0,0,1-7.87,10,32.85,32.85,0,0,1-11.76,5.31,71.44,71.44,0,0,1-17.32,1.79ZM293,102.68h23.22q9.45,0,13.55-1.25A15.05,15.05,0,0,0,338,96.09a15.39,15.39,0,0,0,2.75-9.37,17.27,17.27,0,0,0-2.56-9.41,13,13,0,0,0-7.32-5.57q-4.76-1.5-16.33-1.5H293Zm0,49.58h26.73a61.55,61.55,0,0,0,9.67-.51,23.17,23.17,0,0,0,8.2-2.93,15.55,15.55,0,0,0,5.42-6,18.69,18.69,0,0,0,2.12-9,17.85,17.85,0,0,0-3.08-10.44,16.24,16.24,0,0,0-8.53-6.23q-5.46-1.79-15.71-1.79H293Z"/><path class="cls-1" d="M372.88,126q0-21.6,12-32,10-8.64,24.46-8.64,16,0,26.22,10.51t10.18,29q0,15-4.5,23.62a31.88,31.88,0,0,1-13.11,13.37,38.18,38.18,0,0,1-18.79,4.76q-16.33,0-26.4-10.47T372.88,126Zm13.55,0q0,14.94,6.52,22.38a21.71,21.71,0,0,0,32.74,0q6.52-7.47,6.52-22.78,0-14.43-6.55-21.86a21.74,21.74,0,0,0-32.7,0Q386.43,111.1,386.43,126Z"/><path class="cls-1" d="M456.31,126q0-21.6,12-32,10-8.64,24.46-8.64,16,0,26.22,10.51t10.18,29q0,15-4.5,23.62a31.88,31.88,0,0,1-13.11,13.37,38.18,38.18,0,0,1-18.79,4.76q-16.33,0-26.4-10.47T456.31,126Zm13.55,0q0,14.94,6.52,22.38a21.7,21.7,0,0,0,32.74,0q6.52-7.47,6.52-22.78,0-14.43-6.55-21.86a21.73,21.73,0,0,0-32.7,0Q469.85,111.1,469.86,126Z"/><path class="cls-1" d="M573.42,153.14l1.9,11.65a49,49,0,0,1-10,1.17q-7.18,0-11.13-2.27a12.7,12.7,0,0,1-5.57-6q-1.61-3.7-1.61-15.56V97.41h-9.67V87.15h9.67V67.89L560.16,60V87.15h13.26V97.41H560.16v45.48q0,5.64.7,7.25a5.48,5.48,0,0,0,2.27,2.56,8.77,8.77,0,0,0,4.5,1A42.89,42.89,0,0,0,573.42,153.14Z"/><path class="cls-1" d="M581,141.72l13-2.05q1.1,7.84,6.12,12t14,4.17q9.08,0,13.48-3.7a11.06,11.06,0,0,0,4.39-8.68,8,8,0,0,0-3.88-7q-2.71-1.76-13.48-4.47-14.5-3.66-20.1-6.34a19.19,19.19,0,0,1-11.39-17.83,20,20,0,0,1,2.38-9.63,21.34,21.34,0,0,1,6.48-7.36A27.21,27.21,0,0,1,600.48,87a39.9,39.9,0,0,1,11.39-1.57A45,45,0,0,1,627.95,88q6.92,2.64,10.22,7.14t4.54,12L629.82,109a14.1,14.1,0,0,0-5.09-9.38q-4.21-3.37-11.9-3.37-9.08,0-13,3t-3.88,7a7.27,7.27,0,0,0,1.61,4.61,11.6,11.6,0,0,0,5.05,3.52q2,.73,11.65,3.37,14,3.74,19.52,6.12a19.81,19.81,0,0,1,8.68,6.92,19.33,19.33,0,0,1,3.15,11.28,22.14,22.14,0,0,1-3.84,12.41,24.86,24.86,0,0,1-11.1,9,40.41,40.41,0,0,1-16.41,3.19q-15.16,0-23.11-6.3T581,141.72Z"/><path class="cls-1" d="M690.09,153.14l1.9,11.65A49,49,0,0,1,682,166q-7.18,0-11.13-2.27a12.7,12.7,0,0,1-5.57-6q-1.61-3.7-1.61-15.56V97.41h-9.67V87.15h9.67V67.89L676.84,60V87.15h13.26V97.41H676.84v45.48q0,5.64.7,7.25a5.48,5.48,0,0,0,2.27,2.56,8.77,8.77,0,0,0,4.5,1A42.89,42.89,0,0,0,690.09,153.14Z"/><path class="cls-1" d="M702.84,164.93V87.15H714.7V98.94q4.54-8.28,8.39-10.91a14.64,14.64,0,0,1,8.46-2.64,25.73,25.73,0,0,1,13.55,4.25l-4.54,12.23A18.86,18.86,0,0,0,730.89,99a12.56,12.56,0,0,0-7.76,2.6,14.08,14.08,0,0,0-4.91,7.21,51.35,51.35,0,0,0-2.2,15.38v40.72Z"/><path class="cls-1" d="M803.69,155.34a49.09,49.09,0,0,1-14.1,8.79,40.74,40.74,0,0,1-14.54,2.56q-12.82,0-19.7-6.26a20.67,20.67,0,0,1-6.88-16,21.29,21.29,0,0,1,2.6-10.44,21.52,21.52,0,0,1,6.81-7.58,32,32,0,0,1,9.48-4.32,94.17,94.17,0,0,1,11.72-2q16-1.9,23.51-4.54.07-2.71.07-3.44,0-8.06-3.74-11.35-5.05-4.47-15-4.47-9.3,0-13.73,3.26t-6.56,11.54l-12.89-1.76A32,32,0,0,1,756.53,96a25.36,25.36,0,0,1,11.65-7.84,51.94,51.94,0,0,1,17.65-2.75q10,0,16.19,2.34t9.16,5.9a20.75,20.75,0,0,1,4.1,9,74.23,74.23,0,0,1,.66,12.16v17.58q0,18.39.84,23.25a29.3,29.3,0,0,0,3.33,9.34H806.33A28,28,0,0,1,803.69,155.34Zm-1.1-29.44q-7.18,2.93-21.53,5-8.13,1.17-11.5,2.64a11.47,11.47,0,0,0-5.2,4.28,11.65,11.65,0,0,0,2.16,15.05q4,3.52,11.68,3.52A27.18,27.18,0,0,0,791.75,153a20.52,20.52,0,0,0,8.72-9.12q2.12-4.47,2.12-13.18Z"/><path class="cls-1" d="M836.36,194.74V87.15h12V97.26a29.6,29.6,0,0,1,9.59-8.9,26.36,26.36,0,0,1,13-3,30.75,30.75,0,0,1,17.58,5.13A31.47,31.47,0,0,1,900,105a52.82,52.82,0,0,1,3.88,20.47A52,52,0,0,1,899.6,147a32.32,32.32,0,0,1-12.45,14.65A32,32,0,0,1,870,166.69a24.81,24.81,0,0,1-11.83-2.78,26.92,26.92,0,0,1-8.61-7v37.87Zm11.94-68.26q0,15,6.08,22.19t14.72,7.18q8.79,0,15.05-7.43t6.26-23q0-14.87-6.12-22.27t-14.61-7.4q-8.42,0-14.9,7.87T848.3,126.48Z"/></svg>