<svg id="Calque_1" data-name="Calque 1" xmlns="http://www.w3.org/2000/svg" viewBox="0 0 98.98 79.46"><defs><style>.cls-1{fill:#e41708;}.cls-2{isolation:isolate;}.cls-3{fill:#fff;}</style></defs><title>compass</title><g id="Calque_2" data-name="Calque 2"><path class="cls-1" d="M75.64,0c-2,42.4-16.2,53.1-29.3,53.1a23.71,23.71,0,0,1-23.7-23.8C22.64,16.1,29.24,2.6,75.64,0Z"/></g><g id="Calque_4" data-name="Calque 4"><g class="cls-2"><path d="M10.27,74a9.63,9.63,0,0,1-3.54.57c-4.11,0-6.73-2.5-6.73-6.5,0-3.72,2.55-6.76,7.28-6.76a9.18,9.18,0,0,1,3,.49l-.62,2.94a5.41,5.41,0,0,0-2.21-.39,3.56,3.56,0,0,0,.08,7.12,6.08,6.08,0,0,0,2.26-.39Z"/><path d="M24.73,67.81A6.38,6.38,0,0,1,18,74.6,6.23,6.23,0,0,1,11.44,68c0-4.11,2.7-6.73,6.79-6.73A6.18,6.18,0,0,1,24.73,67.81Zm-9.2.13c0,2.18.91,3.82,2.6,3.82,1.53,0,2.52-1.53,2.52-3.82,0-1.9-.73-3.82-2.52-3.82S15.52,66.07,15.52,67.94Z"/><path d="M27.17,65.65c0-1.59-.05-2.94-.1-4.06H30.4l.18,1.72h.08a4.41,4.41,0,0,1,3.85-2A3.6,3.6,0,0,1,38,63.47H38a5.71,5.71,0,0,1,1.64-1.53,4.59,4.59,0,0,1,2.42-.62c2.44,0,4.29,1.72,4.29,5.51v7.49H42.54V67.39c0-1.85-.6-2.91-1.87-2.91a1.93,1.93,0,0,0-1.82,1.38,3.29,3.29,0,0,0-.16,1v7.44H34.84V67.19c0-1.61-.57-2.7-1.82-2.7a2,2,0,0,0-1.85,1.43,2.62,2.62,0,0,0-.16,1v7.41H27.17Z"/><path d="M49.53,65.86c0-1.66-.05-3.09-.1-4.26h3.43L53,63.36h.05a4.88,4.88,0,0,1,4.24-2.05c2.78,0,5.28,2.42,5.28,6.47,0,4.63-2.94,6.81-5.77,6.81a4,4,0,0,1-3.3-1.46h-.05v6.32h-4Zm4,3a4,4,0,0,0,.08.83,2.39,2.39,0,0,0,2.31,1.87c1.72,0,2.73-1.43,2.73-3.59s-.91-3.56-2.68-3.56a2.48,2.48,0,0,0-2.37,2,3.07,3.07,0,0,0-.08.7Z"/><path d="M72.31,74.31,72.07,73H72a4.58,4.58,0,0,1-3.64,1.56,3.9,3.9,0,0,1-4.11-3.9c0-3.3,3-4.89,7.46-4.86v-.18c0-.68-.36-1.64-2.31-1.64a7.15,7.15,0,0,0-3.51,1l-.73-2.55a10.49,10.49,0,0,1,4.94-1.12c4.24,0,5.59,2.5,5.59,5.49v4.42a19.58,19.58,0,0,0,.18,3.09Zm-.47-6c-2.08,0-3.69.47-3.69,2a1.42,1.42,0,0,0,1.56,1.51,2.16,2.16,0,0,0,2.05-1.46,2.85,2.85,0,0,0,.08-.68Z"/><path d="M78.78,70.85a7.72,7.72,0,0,0,3.41,1c1.2,0,1.69-.42,1.69-1.07s-.39-1-1.87-1.46c-2.63-.88-3.64-2.31-3.61-3.82,0-2.37,2-4.16,5.17-4.16a8.54,8.54,0,0,1,3.59.73l-.7,2.73A6.23,6.23,0,0,0,83.69,64c-1,0-1.51.39-1.51,1s.49.91,2.05,1.46c2.42.83,3.43,2.05,3.46,3.93,0,2.37-1.87,4.11-5.51,4.11a9,9,0,0,1-4.11-.88Z"/><path d="M90.06,70.85a7.72,7.72,0,0,0,3.41,1c1.2,0,1.69-.42,1.69-1.07s-.39-1-1.87-1.46c-2.63-.88-3.64-2.31-3.61-3.82,0-2.37,2-4.16,5.17-4.16a8.54,8.54,0,0,1,3.59.73l-.7,2.73A6.23,6.23,0,0,0,95,64c-1,0-1.51.39-1.51,1s.49.91,2.05,1.46c2.42.83,3.43,2.05,3.46,3.93,0,2.37-1.87,4.11-5.51,4.11a9,9,0,0,1-4.11-.88Z"/></g></g><g id="Calque_3" data-name="Calque 3"><path class="cls-3" d="M57.64,28h-10l5.7-5.7a.67.67,0,0,0,0-1l-.1-.1a.67.67,0,0,0-1,0l-5.7,5.7v-10a1,1,0,1,0-2,0v10l-5.7-5.7a.67.67,0,0,0-1,0v.1a.67.67,0,0,0,0,1l5.7,5.7h-10a1,1,0,0,0,0,2h10l-5.7,5.7a.67.67,0,0,0,0,1l.1.1a.67.67,0,0,0,1,0l5.7-5.7v10a1,1,0,0,0,2,0v-10l5.7,5.7a.67.67,0,0,0,1,0l.1-.1a.67.67,0,0,0,0-1L47.74,30h10a1,1,0,0,0,1-1A1.09,1.09,0,0,0,57.64,28Z"/></g></svg>