<svg id="Calque_1" data-name="Calque 1" xmlns="http://www.w3.org/2000/svg" viewBox="0 0 172.42 245"><defs><style>.cls-1{fill:#4872b7;}.cls-1,.cls-2,.cls-3,.cls-4{fill-rule:evenodd;}.cls-2{fill:#5590cc;}.cls-3{fill:#fff;}</style></defs><title>css3</title><path class="cls-1" d="M156.52,62.5,143.68,213.75,85.87,230.23,85.64,62.5Zm15.9-14.08s-10.51,118.91-16.24,176.44C133.25,231.58,87.4,245,86,245c-.95,0-46.8-13.42-70.21-20.14C10.51,167.33,0,48.42,0,48.42Z"/><polygon class="cls-2" points="156.66 62.33 143.86 214.41 85.4 230.71 85.4 62.33 156.66 62.33"/><polygon class="cls-3" points="140.23 84.83 137.93 105.22 90.51 128.43 136.22 128.43 130.67 195.32 85.06 207.62 41.67 194.96 38.58 161.14 60.76 161.26 61.73 178.23 85.06 184.61 110.82 178.03 112.96 149.83 37.65 149.95 35.97 129.42 86.97 106.6 33.91 105.82 32.47 84.83 140.23 84.83"/><path class="cls-4" d="M137.65,0V11.4h-8.83l8.59,11.88v9.5H111.65V22.33H120a.84.84,0,0,0,.24-.48l-9.3-13.06V0ZM100,0V11.4H91.39L100,23v9.74H74.22V22.09H82.8L73.5,8.55V0ZM62.06,0V10.93H46.56v11.4h15.5V32.78H35.35V0Z"/></svg>