<svg id="Calque_1" data-name="Calque 1" xmlns="http://www.w3.org/2000/svg" viewBox="0 0 324.1 140"><defs><style>.cls-1{fill:#ff8e13;}.cls-2{fill:#fff;}</style></defs><title>drawio</title><path class="cls-1" d="M0,122Q0,70,0,18a22.2,22.2,0,0,0,1.62-3.47C3.49,7.76,7.47,3.14,14.48,1.4A11,11,0,0,0,17,0H123a32.17,32.17,0,0,0,3.56,1.61C133.17,3.7,137.29,8,138.68,14.86A16.76,16.76,0,0,0,140,18V122c-.72,2.16-1.37,4.34-2.16,6.48-2.4,6.48-7.78,9.42-13.84,11.52H16a13.48,13.48,0,0,0-2.5-1.38c-6.39-2-10.13-6.34-11.9-12.64A38.86,38.86,0,0,0,0,122ZM59.3,78c2.47-4.74,4.42-9.12,7-13.13,1.81-2.85,8.71-2.37,10.46.61,2.32,4,4.27,8.14,6.54,12.53-1.22.25-1.83.45-2.46.5-6.82.58-8.12,1.89-8.18,8.54-.05,5.83-.09,11.66,0,17.49.11,5.6,2.07,7.71,7.47,7.76q16.49.17,33,0c5.31-.05,7.26-2,7.34-7.26.1-6.33.09-12.66,0-19-.07-5.53-2-7.38-7.59-7.49-5-.1-10,.13-15-.13-1.6-.09-3.81-.87-4.58-2.08-2.48-3.86-4.41-8.07-6.89-12.8,7.54-.33,8.46-4.71,8.18-10.4-.33-6.81-.22-13.66,0-20.49.13-4.71-2.18-6.84-6.56-6.87q-16.74-.13-33.48,0c-4.6,0-7,2.45-6.94,7.24.08,6.5,0,13,0,19.49,0,8.52.14,8.7,8.38,11.51C54,67.8,52.38,71.67,50,75a9,9,0,0,1-5.74,3.43c-5.29.49-10.65.11-16,.23-4.17.09-6.55,2.35-6.62,6.55q-.17,10.24,0,20.49c.08,4.13,2.34,6.61,6.54,6.64q17.49.14,35,0c3.93,0,6.19-2.24,6.21-6.29,0-7.16,0-14.33,0-21.49,0-3.67-2.14-5.38-5.54-5.87C62.64,78.48,61.38,78.32,59.3,78Z"/><path class="cls-2" d="M59.3,78c2.08.28,3.34.43,4.6.62,3.4.49,5.53,2.2,5.54,5.87,0,7.16,0,14.33,0,21.49,0,4-2.28,6.26-6.21,6.29q-17.49.17-35,0c-4.2,0-6.47-2.51-6.54-6.64q-.19-10.24,0-20.49c.07-4.2,2.44-6.46,6.62-6.55,5.33-.11,10.69.26,16-.23A9,9,0,0,0,50,75c2.36-3.32,4-7.19,5.92-10.88-8.25-2.81-8.37-3-8.38-11.51,0-6.5.07-13,0-19.49-.06-4.79,2.34-7.19,6.94-7.24q16.74-.16,33.48,0c4.38,0,6.69,2.17,6.56,6.87-.18,6.83-.3,13.67,0,20.49.28,5.68-.64,10.06-8.18,10.4,2.48,4.73,4.42,8.94,6.89,12.8.77,1.21,3,2,4.58,2.08,5,.27,10,0,15,.13,5.64.11,7.52,2,7.59,7.49.08,6.33.09,12.66,0,19-.08,5.22-2,7.21-7.34,7.26q-16.49.16-33,0c-5.4-.05-7.36-2.17-7.47-7.76-.11-5.83-.07-11.66,0-17.49.06-6.65,1.36-8,8.18-8.54.63-.05,1.24-.25,2.46-.5C81,73.67,79,69.49,76.72,65.53c-1.75-3-8.65-3.47-10.46-.61C63.72,68.92,61.77,73.31,59.3,78Z"/><path class="cls-1" d="M164.68,85.17V51h8.13q6,0,9.28,3.74t3.3,10.51V71q0,6.77-3.35,10.46t-9.73,3.69ZM169,54.73V81.49h3.45q4.52,0,6.61-2.59t2.13-7.68V65.17q0-5.4-2.07-7.92t-6.27-2.52Z"/><path class="cls-1" d="M202.39,71.37h-6v13.8h-4.31V51h9.56q5,0,7.59,2.61t2.58,7.65a10.63,10.63,0,0,1-1.39,5.52,8.81,8.81,0,0,1-3.95,3.55l6.61,14.51v.28h-4.62Zm-6-3.68h5.2a5.57,5.57,0,0,0,4.3-1.74,6.58,6.58,0,0,0,1.61-4.65q0-6.57-6-6.57h-5.16Z"/><path class="cls-1" d="M233.47,76.24H221.94l-2.65,8.93h-4.41l11-34.13h3.68l11,34.13h-4.41Zm-10.41-3.68h9.3L227.7,57Z"/><path class="cls-1" d="M250.11,74.41l.45,3.82.68-3.37L256.7,51h3.59l5.3,23.81.68,3.47.49-3.94L270.92,51h4.29l-6.8,34.13h-3.87l-5.7-24.87-.35-2-.35,2-5.91,24.87h-3.89L241.58,51h4.29Z"/><path class="cls-1" d="M277,82.9a2.72,2.72,0,0,1,.67-1.87,2.55,2.55,0,0,1,2-.75,2.62,2.62,0,0,1,2,.75,2.66,2.66,0,0,1,.69,1.88,2.52,2.52,0,0,1-.69,1.8,2.67,2.67,0,0,1-2,.73A2.41,2.41,0,0,1,277,82.9Z"/><path class="cls-1" d="M294.38,85.17h-4.29V51h4.29Z"/><path class="cls-1" d="M324.1,71.11q0,7-3,10.76a10.15,10.15,0,0,1-8.46,3.77A10.27,10.27,0,0,1,304.33,82q-3.06-3.67-3.18-10.37V65.18q0-6.84,3-10.72a10.09,10.09,0,0,1,8.44-3.88,10.21,10.21,0,0,1,8.4,3.71Q324,58,324.1,64.9Zm-4.29-6q0-5.41-1.77-8.05a6.8,6.8,0,0,0-10.78,0q-1.82,2.67-1.84,7.88v6.12q0,5.23,1.82,8a6.82,6.82,0,0,0,10.77.21q1.73-2.53,1.8-7.76Z"/></svg>