<svg id="Calque_1" data-name="Calque 1" xmlns="http://www.w3.org/2000/svg" viewBox="0 0 68.34 77.3"><defs><style>.cls-1,.cls-3{fill:#a48aff;}.cls-2{fill:#080d4c;}.cls-3,.cls-4{fill-rule:evenodd;}.cls-4{fill:#a48cfd;}</style></defs><title>edgeanimate</title><path class="cls-1" d="M3.61,72.86H1.38V74.3H3.87v1.13H0V69.35H3.75v1.13H1.38v1.26H3.61Z"/><path class="cls-1" d="M9,69v5.08c0,.5,0,1,0,1.31H7.81l-.06-.65h0a1.53,1.53,0,0,1-1.38.75,2,2,0,0,1-1.88-2.26,2.08,2.08,0,0,1,2-2.34,1.34,1.34,0,0,1,1.16.5h0V69ZM7.62,72.88a2.05,2.05,0,0,0,0-.24A.82.82,0,0,0,6.8,72c-.62,0-.95.56-.95,1.25s.37,1.22.94,1.22a.8.8,0,0,0,.79-.66,1.15,1.15,0,0,0,0-.32Z"/><path class="cls-1" d="M14.29,71c0,.28,0,.65,0,1.31v2.46a2.53,2.53,0,0,1-.67,2,2.71,2.71,0,0,1-1.79.54A3.43,3.43,0,0,1,10.21,77l.27-1a2.71,2.71,0,0,0,1.28.33,1.05,1.05,0,0,0,1.14-1.16v-.29h0a1.41,1.41,0,0,1-1.19.58,1.94,1.94,0,0,1-1.86-2.15,2.11,2.11,0,0,1,2-2.31,1.33,1.33,0,0,1,1.21.62h0l0-.52Zm-1.4,1.79a1.11,1.11,0,0,0,0-.25.75.75,0,0,0-.74-.6c-.5,0-.9.45-.9,1.25s.32,1.17.9,1.17a.74.74,0,0,0,.72-.56,1.16,1.16,0,0,0,0-.36Z"/><path class="cls-1" d="M16.41,73.66c0,.57.6.84,1.24.84a3.88,3.88,0,0,0,1.22-.18l.18.93a4.35,4.35,0,0,1-1.59.27,2.11,2.11,0,0,1-2.35-2.24,2.21,2.21,0,0,1,2.22-2.35,2,2,0,0,1,2,2.2,3.29,3.29,0,0,1,0,.54ZM18,72.72a.79.79,0,0,0-.77-.89.9.9,0,0,0-.85.89Z"/><path class="cls-1" d="M23.38,73.86,23,75.42H21.53l1.85-6.07h1.8l1.88,6.07H25.59l-.47-1.56Zm1.54-1-.38-1.29c-.11-.36-.22-.81-.31-1.17h0c-.09.36-.18.82-.28,1.17l-.36,1.29Z"/><path class="cls-1" d="M27.77,72.42c0-.55,0-1,0-1.4h1.19l.06.6h0a1.61,1.61,0,0,1,1.36-.7c.9,0,1.58.59,1.58,1.89v2.61H30.58V73c0-.57-.2-1-.69-1a.73.73,0,0,0-.69.51.94.94,0,0,0-.05.34v2.54H27.77Z"/><path class="cls-1" d="M34.46,69.79a.69.69,0,0,1-.74.68.69.69,0,1,1,0-1.38A.69.69,0,0,1,34.46,69.79ZM33,75.42V71h1.37v4.4Z"/><path class="cls-1" d="M35.51,72.42c0-.55,0-1,0-1.4h1.15l.06.59h0a1.53,1.53,0,0,1,1.33-.69,1.25,1.25,0,0,1,1.21.75h0a2,2,0,0,1,.57-.53,1.58,1.58,0,0,1,.84-.22c.85,0,1.49.59,1.49,1.91v2.59H40.83V73c0-.64-.21-1-.65-1a.67.67,0,0,0-.63.48,1.14,1.14,0,0,0-.05.35v2.58H38.17V73c0-.56-.2-.94-.63-.94a.7.7,0,0,0-.64.5.91.91,0,0,0-.05.34v2.57H35.51Z"/><path class="cls-1" d="M45.76,75.42,45.68,75h0a1.58,1.58,0,0,1-1.26.54A1.35,1.35,0,0,1,43,74.17c0-1.14,1-1.69,2.58-1.68v-.06c0-.23-.13-.57-.8-.57a2.48,2.48,0,0,0-1.22.33l-.25-.88A3.64,3.64,0,0,1,45,70.92a1.71,1.71,0,0,1,1.94,1.9v1.53A6.84,6.84,0,0,0,47,75.42Zm-.16-2.08c-.72,0-1.28.16-1.28.69a.49.49,0,0,0,.54.52.75.75,0,0,0,.71-.5,1,1,0,0,0,0-.23Z"/><path class="cls-1" d="M49.46,69.76V71h1v1h-1v1.59c0,.53.13.77.54.77a2.19,2.19,0,0,0,.41,0v1a2.68,2.68,0,0,1-.89.12,1.42,1.42,0,0,1-1-.38,1.82,1.82,0,0,1-.38-1.31V72h-.58V71h.58v-1Z"/><path class="cls-1" d="M52.25,73.66c0,.57.6.84,1.24.84a3.88,3.88,0,0,0,1.22-.18l.18.93a4.35,4.35,0,0,1-1.59.27,2.11,2.11,0,0,1-2.35-2.24,2.21,2.21,0,0,1,2.22-2.35,2,2,0,0,1,2,2.2,3.29,3.29,0,0,1,0,.54Zm1.61-.94a.79.79,0,0,0-.77-.89.9.9,0,0,0-.85.89Z"/><rect class="cls-1" x="0.12" width="68.22" height="66.65"/><rect class="cls-2" x="5.45" y="5.35" width="57.23" height="55.95"/><path class="cls-3" d="M41.81,37.23c0,1.69,0,3.38,0,5.07q0,1.36,0,2.72c0,.41-.14.59-.58.58-1.11,0-2.22,0-3.33,0-.51,0-.66-.21-.64-.68,0-1.11,0-2.22,0-3.33q0-5.14,0-10.28c0-1.56-.06-3.12,0-4.68a.82.82,0,0,1,.34-.65c3.17-1.3,6.43-2.13,9.88-1.46a5.66,5.66,0,0,1,4.89,4.91,36.4,36.4,0,0,1,.28,5.35c0,3.31,0,6.61,0,9.92,0,.66-.14,1-.88.91-1-.06-2,0-3,0-.47,0-.68-.11-.68-.63q0-5.48,0-11a27.12,27.12,0,0,0-.08-2.72,2.81,2.81,0,0,0-3-2.83,13.94,13.94,0,0,0-2.69.29.87.87,0,0,0-.55.62c0,2.62,0,5.25,0,7.87Z"/><path class="cls-4" d="M35.61,45.6c-1.54,0-2.92,0-4.3,0-.21,0-.5-.38-.57-.63-.62-2.21-1.23-4.42-1.79-6.65a.8.8,0,0,0-.94-.71q-3.29,0-6.59,0c-.57,0-.79.21-.92.74-.54,2.18-1.13,4.34-1.67,6.53-.14.56-.37.79-1,.77-1.13,0-2.26,0-3.51,0,.09-.4.13-.71.22-1l5.11-18.37c.58-2.09,1.19-4.17,1.74-6.27a12.66,12.66,0,0,0,.3-2.09c0-.39.13-.61.57-.6,1.59,0,3.18,0,4.77,0a.84.84,0,0,1,.6.5c.78,2.66,1.51,5.33,2.27,8,.49,1.72,1,3.43,1.54,5.14.44,1.53.84,3.06,1.28,4.59.87,3,1.76,6,2.63,9C35.48,44.82,35.52,45.14,35.61,45.6ZM21.81,33.38h5.9l-3-11.9Z"/></svg>