<svg xmlns="http://www.w3.org/2000/svg" xmlns:xlink="http://www.w3.org/1999/xlink" viewBox="0 0 68.22 76.26"><defs><style>.cls-1{isolation:isolate;}.cls-2{opacity:0.95;fill:url(#linear-gradient);}.cls-3{fill:url(#linear-gradient-2);}.cls-4{fill:url(#linear-gradient-3);}.cls-5{opacity:0.1;mix-blend-mode:multiply;}.cls-6{fill:url(#linear-gradient-4);}.cls-7{fill:#d10a00;}</style><linearGradient id="linear-gradient" x1="3.18" y1="2.53" x2="65.19" y2="64.55" gradientUnits="userSpaceOnUse"><stop offset="0" stop-color="#5c2c2c"/><stop offset="1" stop-color="#401522"/></linearGradient><linearGradient id="linear-gradient-2" x2="68.22" y2="66.65" gradientUnits="userSpaceOnUse"><stop offset="0" stop-color="#cf3430"/><stop offset="1" stop-color="#d10a00"/></linearGradient><linearGradient id="linear-gradient-3" x1="22.12" y1="32.78" x2="46.24" y2="32.78" xlink:href="#linear-gradient-2"/><linearGradient id="linear-gradient-4" x1="22.13" y1="32.03" x2="46.24" y2="32.03" xlink:href="#linear-gradient-2"/></defs><title>flash</title><g class="cls-1"><g id="Calque_1" data-name="Calque 1"><rect class="cls-2" x="2.71" y="3" width="62.94" height="61.09"/><path class="cls-3" d="M0,0V66.65H68.22V0ZM62.8,61.37H5.57V5.42H62.8Z"/><path class="cls-4" d="M22.17,18.68H38.45v4.23H27.32v7.78H37.7v4.23H27.32v12H22.17Z"/><g class="cls-5"><path d="M41.08,18.5h5.19V48.21H41.08Z"/></g><path class="cls-6" d="M41.08,17.18h5.19V46.88H41.08Z"/><path class="cls-7" d="M.09,70H3.65v.92H1.21v1.7H3.48v.91H1.21v2.62H.09Z"/><path class="cls-7" d="M4.55,69.67H5.67v6.49H4.55Z"/><path class="cls-7" d="M10.35,75.09a6,6,0,0,0,.07,1.07h-1l-.08-.49h0A1.63,1.63,0,0,1,8,76.26a1.32,1.32,0,0,1-1.4-1.33c0-1.11,1-1.69,2.64-1.68v-.07c0-.29-.12-.78-.9-.78a2.35,2.35,0,0,0-1.2.33L6.9,72a3.2,3.2,0,0,1,1.61-.39,1.67,1.67,0,0,1,1.84,1.88ZM9.25,74c-.79,0-1.55.15-1.55.83a.59.59,0,0,0,.64.64.92.92,0,0,0,.89-.61.76.76,0,0,0,0-.25Z"/><path class="cls-7" d="M11.49,75.12a2.45,2.45,0,0,0,1.13.33c.49,0,.71-.21.71-.5s-.18-.45-.73-.65c-.87-.29-1.22-.77-1.22-1.3,0-.79.65-1.39,1.68-1.39a2.56,2.56,0,0,1,1.19.27l-.23.79a2,2,0,0,0-.94-.25c-.4,0-.62.2-.62.47s.21.41.78.62c.81.28,1.18.69,1.19,1.35,0,.81-.63,1.4-1.81,1.4a2.89,2.89,0,0,1-1.35-.31Z"/><path class="cls-7" d="M15.34,69.67h1.12v2.64h0a1.48,1.48,0,0,1,.56-.5,1.6,1.6,0,0,1,.78-.2c.76,0,1.55.5,1.55,1.93v2.62H18.25v-2.5c0-.64-.24-1.13-.86-1.13a.94.94,0,0,0-.88.63,1,1,0,0,0,0,.34v2.67H15.34Z"/></g></g></svg>