<svg id="Calque_1" data-name="Calque 1" xmlns="http://www.w3.org/2000/svg" viewBox="0 0 43.68 11.89"><defs><style>.cls-1{fill:#028cb9;}.cls-2{fill:#4e535d;}</style></defs><title>foundation</title><path class="cls-1" d="M0,6.44V0H4.35V.76H.85v2h3v.76h-3V6.44Z"/><path class="cls-1" d="M5.06,4.11a2.41,2.41,0,0,1,.72-1.92,2.17,2.17,0,0,1,1.47-.52,2.09,2.09,0,0,1,1.57.63A2.4,2.4,0,0,1,9.43,4a3.09,3.09,0,0,1-.27,1.42,1.91,1.91,0,0,1-.79.8,2.3,2.3,0,0,1-1.13.29,2.09,2.09,0,0,1-1.58-.63A2.5,2.5,0,0,1,5.06,4.11Zm.81,0a2,2,0,0,0,.39,1.34,1.3,1.3,0,0,0,2,0,2,2,0,0,0,.39-1.37,1.93,1.93,0,0,0-.39-1.31,1.3,1.3,0,0,0-2,0A2,2,0,0,0,5.87,4.11Z"/><path class="cls-1" d="M13.42,6.44V5.76a1.71,1.71,0,0,1-1.48.79,1.89,1.89,0,0,1-.77-.16,1.27,1.27,0,0,1-.53-.4,1.49,1.49,0,0,1-.24-.59,4,4,0,0,1,0-.74V1.78h.79V4.36a4.61,4.61,0,0,0,0,.83.82.82,0,0,0,.32.49,1,1,0,0,0,.6.18,1.31,1.31,0,0,0,.67-.18,1,1,0,0,0,.44-.5,2.47,2.47,0,0,0,.13-.91V1.78h.79V6.44Z"/><path class="cls-1" d="M15.37,6.44V1.78h.71v.66a1.68,1.68,0,0,1,1.49-.77,2,2,0,0,1,.78.15,1.23,1.23,0,0,1,.53.4,1.52,1.52,0,0,1,.25.58,4.54,4.54,0,0,1,0,.77V6.44h-.79V3.6a2.1,2.1,0,0,0-.09-.72.75.75,0,0,0-.33-.38,1,1,0,0,0-.55-.14,1.28,1.28,0,0,0-.87.32,1.58,1.58,0,0,0-.37,1.22V6.44Z"/><path class="cls-1" d="M23.4,6.44V5.85a1.45,1.45,0,0,1-1.31.69,1.83,1.83,0,0,1-1-.31,2,2,0,0,1-.73-.86,3,3,0,0,1-.26-1.27,3.3,3.3,0,0,1,.23-1.27A1.82,1.82,0,0,1,21,2a1.86,1.86,0,0,1,1-.3,1.55,1.55,0,0,1,1.29.64V0h.79V6.44ZM20.9,4.11a2,2,0,0,0,.38,1.34,1.14,1.14,0,0,0,.89.44A1.12,1.12,0,0,0,23,5.47a2,2,0,0,0,.36-1.29A2.2,2.2,0,0,0,23,2.77a1.14,1.14,0,0,0-.91-.45,1.1,1.1,0,0,0-.88.43A2.13,2.13,0,0,0,20.9,4.11Z"/><path class="cls-1" d="M28.42,5.87a2.91,2.91,0,0,1-.85.53,2.45,2.45,0,0,1-.87.15,1.69,1.69,0,0,1-1.18-.38,1.24,1.24,0,0,1-.41-1,1.27,1.27,0,0,1,.16-.63,1.29,1.29,0,0,1,.41-.46,1.93,1.93,0,0,1,.57-.26,5.63,5.63,0,0,1,.7-.12,7.22,7.22,0,0,0,1.41-.27c0-.11,0-.18,0-.21a.88.88,0,0,0-.22-.68,1.33,1.33,0,0,0-.9-.27,1.4,1.4,0,0,0-.82.2,1.2,1.2,0,0,0-.39.69l-.77-.11a1.92,1.92,0,0,1,.35-.8,1.52,1.52,0,0,1,.7-.47,3.1,3.1,0,0,1,1.06-.17,2.8,2.8,0,0,1,1,.14,1.29,1.29,0,0,1,.55.35,1.25,1.25,0,0,1,.25.54,4.46,4.46,0,0,1,0,.73V4.49a11.34,11.34,0,0,0,0,1.39,1.77,1.77,0,0,0,.2.56h-.83A1.67,1.67,0,0,1,28.42,5.87ZM28.36,4.1a5.81,5.81,0,0,1-1.29.3,3,3,0,0,0-.69.16.68.68,0,0,0-.31.26.67.67,0,0,0-.11.38.67.67,0,0,0,.24.53,1,1,0,0,0,.7.21,1.63,1.63,0,0,0,.81-.2,1.23,1.23,0,0,0,.52-.55,1.91,1.91,0,0,0,.13-.79Z"/><path class="cls-1" d="M32.11,5.74l.11.7a2.93,2.93,0,0,1-.6.07A1.36,1.36,0,0,1,31,6.37.77.77,0,0,1,30.62,6a2.84,2.84,0,0,1-.1-.93V2.39h-.58V1.78h.58V.62l.79-.47V1.78h.79v.62h-.79V5.12a1.4,1.4,0,0,0,0,.43.32.32,0,0,0,.14.15.51.51,0,0,0,.27.06Z"/><path class="cls-1" d="M32.89.91V0h.79V.91Zm0,5.53V1.78h.79V6.44Z"/><path class="cls-1" d="M34.59,4.11a2.41,2.41,0,0,1,.72-1.92,2.17,2.17,0,0,1,1.47-.52,2.09,2.09,0,0,1,1.57.63A2.4,2.4,0,0,1,39,4a3.09,3.09,0,0,1-.27,1.42,1.91,1.91,0,0,1-.79.8,2.3,2.3,0,0,1-1.13.29,2.09,2.09,0,0,1-1.58-.63A2.5,2.5,0,0,1,34.59,4.11Zm.81,0a2,2,0,0,0,.39,1.34,1.3,1.3,0,0,0,2,0,2,2,0,0,0,.39-1.37,1.93,1.93,0,0,0-.39-1.31,1.3,1.3,0,0,0-2,0A2,2,0,0,0,35.4,4.11Z"/><path class="cls-1" d="M39.89,6.44V1.78h.71v.66a1.68,1.68,0,0,1,1.49-.77,2,2,0,0,1,.78.15,1.23,1.23,0,0,1,.53.4,1.52,1.52,0,0,1,.25.58,4.54,4.54,0,0,1,0,.77V6.44h-.79V3.6a2.1,2.1,0,0,0-.09-.72.75.75,0,0,0-.33-.38,1,1,0,0,0-.55-.14,1.28,1.28,0,0,0-.87.32,1.58,1.58,0,0,0-.37,1.22V6.44Z"/><path class="cls-2" d="M38.51,11.84c0-1.06,0-2,0-2.95a.81.81,0,0,1,.54-.58,20,20,0,0,1,2.86,0c.27,0,.54.37.75.62s.37.63.59.91a1.14,1.14,0,0,1-.65,1.95C41.3,11.9,40,11.84,38.51,11.84Zm1-1.25v.28h3.06v-.28Zm0-1.38v.3h2.29v-.3Z"/><path class="cls-2" d="M22.24,11.06h3.45l.16.34c-.23.15-.46.43-.7.44a23.1,23.1,0,0,1-3.3,0A1.63,1.63,0,0,1,20.78,11c0-.42.53-.76.89-.9.88-.34,1.82-.55,2.73-.81V9H23.25c-.68,0-1.35,0-2,0-.15,0-.28-.23-.42-.36.12-.11.23-.31.35-.31,1.31,0,2.63,0,3.94,0,.24,0,.69.5.65.67a1.44,1.44,0,0,1-.7.9c-.91.35-1.88.56-2.83.83Z"/><path class="cls-2" d="M33.66,10.52l-.08.1c-.26.38.29,1.25-.61,1.15-.17,0-.37-.86-.37-1.32,0-2.49-.41-2.15,2.19-2.18.53,0,1.06,0,1.59,0,1,0,1.32.41,1.22,1.4-.05.5,0,1,0,1.52,0,.22-.25.43-.38.64-.15-.19-.42-.38-.42-.57,0-.75-.43-.88-1-.85s-1.2,0-1.81,0A1,1,0,0,0,33.66,10.52Zm3-1a2.57,2.57,0,0,0-3.1,0Z"/><path class="cls-2" d="M29.17,11.84c-2.47,0-3-.64-2.44-3,0-.18.29-.31.44-.46a3.41,3.41,0,0,1,.37.43c0,.08,0,.21,0,.32.07.62,0,1.65.26,1.76a5.77,5.77,0,0,0,2.4.17c.21,0,.52-.42.56-.68.09-.52,0-1.07.06-1.6,0-.15.28-.41.36-.39s.46.25.47.39a10.9,10.9,0,0,1-.05,2.34,1.29,1.29,0,0,1-.86.74A6.69,6.69,0,0,1,29.17,11.84Z"/></svg>