<?xml version="1.0" encoding="utf-8"?>
<!-- Generator: Adobe Illustrator 22.1.0, SVG Export Plug-In . SVG Version: 6.00 Build 0)  -->
<svg version="1.1" id="Layer_1" xmlns="http://www.w3.org/2000/svg" xmlns:xlink="http://www.w3.org/1999/xlink" x="0px" y="0px"
	 viewBox="0 0 300 300" style="enable-background:new 0 0 300 300;" xml:space="preserve">
<style type="text/css">
	.st0{fill:#D43F36;}
	.st1{fill:#0F9D56;}
	.st2{fill:#557EBE;}
	.st3{fill:#F6C540;}
	.st4{fill:url(#path18-5_1_);}
	.st5{fill:url(#path12-7_1_);}
</style>
<g id="_x23_d43f36ff" transform="translate(0,-3.3300938e-6)">
	<path id="path6" class="st0" d="M79.5,36.1
		c-9.1-0.1-17,6.4-20.9,14.3C51,63.1,43.4,75.8,35.8,88.5c9.1,24.1,23.8,45.8,38.3,66.9c0.6-5.9,1.5-12.4,5.2-17.3
		c18.8-30.7,37.5-61.3,56.3-92c4.1-5-0.4-11.1-6.3-10.2C112.7,35.9,96.1,36,79.5,36.1z"/>
</g>
<path id="path9" class="st1" d="M162.8,39.3
	c1.7-3.8,6.4-3,9.8-3.3l47.5,0.1c7.6,0,15,4.3,18.8,10.8l56.9,92.7c4.4,6.7,4.5,15.9,0,22.6c-10.9,17.4-21.2,35.1-32.3,52.2
	c-1.2-6.5-3.1-13-6.8-18.5c-10.9-16.9-20.8-34.4-31.8-51.3l-59.8-96.5C163.5,45.6,161.6,42.5,162.8,39.3z"/>
<g id="_x23_4585f4ff" transform="translate(0,-3.3300938e-6)">
	<path id="path15" class="st2" d="M35.8,88.5
		C49,112,61.2,136.1,76.3,158.5c19.6,32,39.1,64.1,58.7,96c5.8,8-1.9,11.5-9.5,11.5c-15.7-0.1-31.5,0.1-47.2-0.1
		c-8.5-0.5-15.5-6.3-19.2-13.8C40.4,221.7,21.6,191.4,3,161c-4.1-7.1-3.1-16.1,1.9-22.5C15.2,121.8,25.5,105.2,35.8,88.5z"/>
</g>
<g id="_x23_e9b641ff" transform="translate(0,-3.3300938e-6)">
	<path id="path18" class="st3" d="M224.8,144.8
		c0.5,6.7-0.5,13.7-4.6,19.1c-18.7,30.6-37.5,61.1-56.1,91.7c-3.3,5,0.5,10.1,6,9.9l51,0.2c8.9-0.3,16.6-6.4,20.3-14.3
		c7.1-12.5,14.8-24.6,22.1-37c-1.2-8.1-4.6-15.6-9.2-22.3C244.5,176.5,234.7,160.7,224.8,144.8z"/>
</g>
<g id="_x23_e9b641ff-0">

		<radialGradient id="path18-5_1_" cx="17.3864" cy="253.1417" r="29.2727" gradientTransform="matrix(1.2423 -0.9096 -1.3977 -1.9089 596.4706 719.9103)" gradientUnits="userSpaceOnUse">
		<stop  offset="0" style="stop-color:#DAAC3A"/>
		<stop  offset="1" style="stop-color:#F6C540"/>
	</radialGradient>
	<path id="path18-5" class="st4" d="M224.8,144.8
		c11,16.9,20.9,34.4,31.8,51.3c3.7,5.5,5.6,12,6.8,18.5l-2.8,4.7l-48.8-38.4c2.6-4.5,7.7-15.3,10.2-19.8
		C224.9,156.2,225,150.3,224.8,144.8L224.8,144.8z"/>
</g>
<radialGradient id="path12-7_1_" cx="9.4843" cy="458.8282" r="26.8449" gradientTransform="matrix(1.584 1.919 1.0498 -0.8666 -463.9091 464.1967)" gradientUnits="userSpaceOnUse">
	<stop  offset="0" style="stop-color:#B63A33"/>
	<stop  offset="1" style="stop-color:#D43F36"/>
</radialGradient>
<path id="path12-7" class="st5" d="M40.7,80.5
	c16.3,12.9,32.5,25.9,48.8,38.8c-5.1,10.9-12.8,20.9-14.9,33.1c-0.1,2.3-0.7,2.5-1.8,0.3c-10.6-16.6-20.9-32.6-31.5-49.3
	c-2.6-4.6-4.2-9.8-5.5-14.9C37.4,85.9,39,83.2,40.7,80.5z"/>
</svg>
