<?xml version="1.0" encoding="utf-8"?>
<!-- Generator: Adobe Illustrator 22.1.0, SVG Export Plug-In . SVG Version: 6.00 Build 0)  -->
<svg version="1.1" id="Layer_1" xmlns="http://www.w3.org/2000/svg" xmlns:xlink="http://www.w3.org/1999/xlink" x="0px" y="0px"
	 viewBox="0 0 501 501" style="enable-background:new 0 0 501 501;" xml:space="preserve">
<style type="text/css">
	.st0{fill:#D34A47;}
	.st1{fill:#FFFFFF;}
</style>
<path class="st0" d="M309.4,476.8l4.6-77.1l12.8-21.8c0,0-29.1,11.9-77.7,11.9c-48.7,0-77.3-11.7-77.3-11.7l14.3,23.8l5.1,74.9
	c0,8,26.5,14.5,59.1,14.5C283,491.3,309.4,484.8,309.4,476.8 M294.8,116.9l9.7-38.4L358.3,22L344.1,9.9l-56.9,60.3L276,116
	c-8.5-0.3-17-0.4-25.5-0.4c-59.9,0-108.5,6.8-108.5,15.3c0,8.4,48.6,15.3,108.5,15.3c59.9,0,108.5-6.8,108.5-15.3
	C359,124.6,332.7,119.3,294.8,116.9"/>
<path class="st1" d="M289.2,138.4c0,0-2.1,0.5-8.3,0.5c-6.2,0-10.6,0-12.3-1.6c-0.5-0.4-0.7-1.3-0.7-1.9c0-1.1,0.8-1.7,1.8-2.1
	l0.9,1.5c-0.4,0.1-0.6,0.3-0.6,0.5c0,0.8,6.3,1.4,11.2,1.3c4.8-0.1,10.7-0.5,10.7-1.3c0-0.2-0.4-0.5-1.2-0.7l0.9-1.5
	c1.3,0.4,2.3,1.1,2.3,2.4C293.8,137.8,291,138.2,289.2,138.4"/>
<path class="st0" d="M358.2,22.1c1.4-1.6-0.7-5.6-4.6-8.9c-3.9-3.4-8.1-4.8-9.5-3.3c-1.4,1.6,0.7,5.6,4.6,8.9
	C352.6,22.2,356.8,23.7,358.2,22.1 M306.8,288.6c-1.3-12.3,26.8-30,19.6-30.6c-15.5,0.9-23.2,18.2-31,36.3
	c-2.9,6.6-12.6,34.9-19.1,31.5c-6.4-3.5,8.3-26.8,12.5-40.6c-4.8,3.5-22.2,17.1-26.8,4.4c-7.2,6.2-22.7,9.5-21-6.7
	c-3.9,6.8-12.5,16.4-22.9,12.4c-13.6-5.2,7.9-48.6,13.3-46.4c5.4,2.2-1.1,12.1-2.8,15.9c-3.7,8.5-8,19.1-5.1,21.3
	c4.9,3.7,18.2-14.1,18.5-14.5c2.5-3.3,9.6-24.9,15.3-22.4c5.7,2.5-14.3,30.9-6.8,36.6c1.5,1.1,7.7-0.7,11.4-4.8
	c2.4-2.6,1.6-8.5,9.7-27.8c8.1-19.3,15.3-43.4,20.9-41.5c5.6,1.8,1,14.2-1,18.8c-9.4,21.6-25.5,57.3-17.9,54.6
	c7.6-2.7,11.6-2.9,19.1-11.6s7.1-23.1,12.1-22.8c5,0.3,4.1,4.9,2.9,8.4c4.9-5.6,23.2-17.4,27.6-5.7c5.2,13.8-26.2,33.8-18.4,32.8
	c7.6-1,20-8.8,25.3-16L357,139.2c0,0-14.7,12.1-107.9,12.1c-93.2,0-106.4-11.9-106.4-11.9L155.1,259c6.6-18.7,22.2-56.5,46.8-55.3
	c11.2,0.6,26.2,22.2,13.3,22.9c-5.4,0.3-6-10.8-12.4-12.4c-4.6-1.2-11.1,2.6-15.3,6.7c-8.3,8.1-26.2,40.2-23.8,56.3
	c3,20.4,28.2-7.1,32.4-15.3c3-5.8,5-22.8,11.6-21c6.6,1.8-0.6,19.4-5.3,34.9c-5.3,17.5-8.1,35.9-14.8,33.8
	c-6.7-2.1,4.2-24.7,3.8-28.6c-6.3,5.8-17.9,20.5-32.7,13.2l7.7,74.2c0,0,20.5,16.2,82.1,16.2s82.9-15.9,82.9-15.9l9.6-85.9
	C333.2,290.3,308.4,303.8,306.8,288.6"/>
</svg>
