<svg id="Calque_1" data-name="Calque 1" xmlns="http://www.w3.org/2000/svg" viewBox="0 0 172.41 245"><defs><style>.cls-1{fill:#e54f26;}.cls-1,.cls-2,.cls-3,.cls-4{fill-rule:evenodd;}.cls-2{fill:#f16529;}.cls-3{fill:#fff;}</style></defs><title>html</title><path class="cls-1" d="M156.51,62.5,143.68,213.75,85.87,230.23,85.63,62.5Zm15.9-14.08s-10.5,118.91-16.23,176.44C133.25,231.58,87.4,245,86,245c-1,0-46.81-13.42-70.21-20.14C10.51,167.33,0,48.42,0,48.42Z"/><polygon class="cls-2" points="156.65 62.33 143.85 214.41 85.39 230.71 85.39 62.33 156.65 62.33"/><path class="cls-3" d="M139.94,84.86,138,105.48H55.4l2.15,22.77,78.57.24-5.74,66.65L86,207.12,42,195.14l-2.87-33.56h21l1.43,16.78L86,185.07s16.24-4.32,24.36-6.71c.47,0,2.86-28.77,2.86-28.77H37.73L32.48,84.86Z"/><path class="cls-4" d="M141.37,0V22h15.28V32.6H130.86V0Zm-42,0c2.39,3.84,4.3,7.67,7.16,11.51L113.67,0h11V32.6h-10.5V16.3c-2.87,3.84-5.26,7.67-7.65,11.51L98.39,16.3V32.6h-10V0ZM82.62,0V10.55H73.07V32.6H62.57V10.55H53V0ZM26.27,0V11h11V0h10V32.6h-10v-11h-11v11h-10V0Z"/></svg>