<svg id="Calque_1" data-name="Calque 1" xmlns="http://www.w3.org/2000/svg" xmlns:xlink="http://www.w3.org/1999/xlink" viewBox="0 0 68.22 76.26"><defs><style>.cls-1{opacity:0.95;fill:url(#linear-gradient);}.cls-2{fill:url(#linear-gradient-2);}.cls-3{fill:url(#linear-gradient-3);}.cls-4{fill:url(#linear-gradient-4);}.cls-5{fill:#fc9c0d;}</style><linearGradient id="linear-gradient" x1="3.17" y1="2.53" x2="65.19" y2="64.55" gradientUnits="userSpaceOnUse"><stop offset="0" stop-color="#5e4421"/><stop offset="1" stop-color="#373100"/></linearGradient><linearGradient id="linear-gradient-2" x2="68.22" y2="66.65" gradientUnits="userSpaceOnUse"><stop offset="0" stop-color="#fdc45e"/><stop offset="1" stop-color="#fc9c0d"/></linearGradient><linearGradient id="linear-gradient-3" x1="16.63" y1="32.87" x2="48.95" y2="32.87" xlink:href="#linear-gradient-2"/><linearGradient id="linear-gradient-4" x1="16.63" y1="32.54" x2="48.95" y2="32.54" xlink:href="#linear-gradient-2"/></defs><title>illustrator</title><rect class="cls-1" x="2.71" y="3" width="62.94" height="61.09"/><path class="cls-2" d="M0,0V66.65H68.22V0ZM62.8,61.37H5.57V5.42H62.8Z"/><path class="cls-3" d="M24.86,39l-2.43,8H17.12l9-28.2h6.57L41.89,47H36.36l-2.55-8Zm8.08-3.89-2.22-6.95c-.54-1.71-1-3.64-1.42-5.27h-.08c-.42,1.63-.84,3.6-1.34,5.27l-2.18,6.95Z"/><path class="cls-4" d="M49.37,20.91a2.89,2.89,0,1,1-2.89-2.8A2.73,2.73,0,0,1,49.37,20.91ZM43.89,47V26.6h5.19V47Z"/><path class="cls-5" d="M1.21,70v6.16H.09V70Z"/><path class="cls-5" d="M2.51,69.67H3.63v6.49H2.51Z"/><path class="cls-5" d="M4.86,69.67H6v6.49H4.86Z"/><path class="cls-5" d="M11.19,74.82c0,.53,0,1,0,1.33h-1l-.06-.67h0a1.63,1.63,0,0,1-1.43.77c-.8,0-1.54-.48-1.54-1.94V71.71H8.31v2.42c0,.74.24,1.22.83,1.22a.91.91,0,0,0,.86-.6.81.81,0,0,0,.06-.35V71.71h1.12Z"/><path class="cls-5" d="M12.35,75.12a2.45,2.45,0,0,0,1.13.33c.49,0,.71-.21.71-.5s-.18-.45-.73-.65c-.87-.29-1.22-.77-1.22-1.3,0-.79.65-1.39,1.68-1.39a2.57,2.57,0,0,1,1.19.27l-.23.79a2,2,0,0,0-.94-.25c-.4,0-.62.2-.62.47s.21.41.78.62c.81.28,1.18.69,1.19,1.35,0,.81-.63,1.4-1.81,1.4a2.89,2.89,0,0,1-1.35-.31Z"/><path class="cls-5" d="M17.5,70.57v1.14h1.07v.84H17.5v2c0,.55.15.82.58.82a1.51,1.51,0,0,0,.44,0l0,.85a2.48,2.48,0,0,1-.81.12,1.29,1.29,0,0,1-1-.37,1.75,1.75,0,0,1-.36-1.25V72.55h-.63v-.84h.63v-.83Z"/><path class="cls-5" d="M19.42,73.14c0-.6,0-1,0-1.43h1l0,.84h0a1.33,1.33,0,0,1,1.22-.94,1.22,1.22,0,0,1,.26,0v1.05a1.87,1.87,0,0,0-.34,0,1,1,0,0,0-1,.85,2,2,0,0,0,0,.34v2.31H19.42Z"/><path class="cls-5" d="M26,75.09a6,6,0,0,0,.07,1.07h-1L25,75.66h0a1.63,1.63,0,0,1-1.32.59,1.32,1.32,0,0,1-1.4-1.33c0-1.11,1-1.69,2.64-1.68v-.07c0-.29-.12-.78-.9-.78a2.35,2.35,0,0,0-1.2.33L22.59,72a3.2,3.2,0,0,1,1.61-.39A1.67,1.67,0,0,1,26,73.49ZM24.94,74c-.79,0-1.55.15-1.55.83a.59.59,0,0,0,.64.64.92.92,0,0,0,.89-.61.76.76,0,0,0,0-.25Z"/><path class="cls-5" d="M28.46,70.57v1.14h1.07v.84H28.46v2c0,.55.15.82.58.82a1.51,1.51,0,0,0,.44,0l0,.85a2.49,2.49,0,0,1-.81.12,1.29,1.29,0,0,1-1-.37,1.75,1.75,0,0,1-.36-1.25V72.55h-.63v-.84h.63v-.83Z"/><path class="cls-5" d="M34.55,73.89a2.2,2.2,0,0,1-2.28,2.37A2.15,2.15,0,0,1,30,74a2.2,2.2,0,0,1,2.3-2.36A2.14,2.14,0,0,1,34.55,73.89Zm-3.35,0c0,.86.43,1.51,1.11,1.51s1.09-.62,1.09-1.53c0-.7-.31-1.5-1.08-1.5S31.2,73.2,31.2,73.94Z"/><path class="cls-5" d="M35.47,73.14c0-.6,0-1,0-1.43h1l0,.84h0a1.33,1.33,0,0,1,1.22-.94,1.23,1.23,0,0,1,.27,0v1.05a1.87,1.87,0,0,0-.34,0,1,1,0,0,0-1,.85,2,2,0,0,0,0,.34v2.31H35.47Z"/></svg>