<svg id="Calque_1" data-name="Calque 1" xmlns="http://www.w3.org/2000/svg" xmlns:xlink="http://www.w3.org/1999/xlink" viewBox="0 0 68.22 78.07"><defs><style>.cls-1{opacity:0.95;fill:url(#linear-gradient);}.cls-2{fill:url(#linear-gradient-2);}.cls-3{fill:url(#linear-gradient-3);}.cls-4{fill:url(#linear-gradient-4);}.cls-5{fill:#e33594;}</style><linearGradient id="linear-gradient" x1="3.18" y1="2.53" x2="65.19" y2="64.55" gradientUnits="userSpaceOnUse"><stop offset="0" stop-color="#58223a"/><stop offset="1" stop-color="#412734"/></linearGradient><linearGradient id="linear-gradient-2" x2="68.22" y2="66.65" gradientUnits="userSpaceOnUse"><stop offset="0" stop-color="#e955ab"/><stop offset="1" stop-color="#e33594"/></linearGradient><linearGradient id="linear-gradient-3" x1="20.14" y1="32.78" x2="47.97" y2="32.78" xlink:href="#linear-gradient-2"/><linearGradient id="linear-gradient-4" x1="20.14" y1="32.26" x2="47.97" y2="32.26" xlink:href="#linear-gradient-2"/></defs><title>indesign</title><rect class="cls-1" x="2.71" y="3" width="62.94" height="61.09"/><path class="cls-2" d="M0,0V66.65H68.22V0ZM62.8,61.37H5.57V5.42H62.8Z"/><path class="cls-3" d="M25.33,18.68v28.2H20.18V18.68Z"/><path class="cls-4" d="M47.74,17.18v24c0,2.09.08,4.35.15,5.73H43.68l-.19-3.22h-.08a6.62,6.62,0,0,1-6.09,3.68c-4.44,0-8-4.14-8-10.42,0-6.82,3.87-10.88,8.35-10.88A5.78,5.78,0,0,1,43,28.73H43V17.18ZM43,35a8,8,0,0,0-.11-1.34A4.24,4.24,0,0,0,38.86,30c-3,0-4.71,2.93-4.71,6.74s1.69,6.44,4.67,6.44a4.26,4.26,0,0,0,4.06-3.64A6.28,6.28,0,0,0,43,38.06Z"/><path class="cls-5" d="M1.21,70v6.16H.09V70Z"/><path class="cls-5" d="M2.51,73c0-.51,0-.94,0-1.32h1l.06.67h0A1.63,1.63,0,0,1,5,71.61c.78,0,1.58.5,1.58,1.91v2.64H5.41V73.65c0-.64-.24-1.12-.85-1.12a.94.94,0,0,0-.88.66,1,1,0,0,0-.05.36v2.62H2.51Z"/><path class="cls-5" d="M7.78,70.08A12.76,12.76,0,0,1,9.57,70a3.72,3.72,0,0,1,2.5.71,2.75,2.75,0,0,1,1,2.27,3.17,3.17,0,0,1-1,2.45,4.12,4.12,0,0,1-2.79.84,12.41,12.41,0,0,1-1.52-.08ZM8.9,75.31a4.21,4.21,0,0,0,.62,0A2.12,2.12,0,0,0,11.85,73a2,2,0,0,0-2.18-2.14,3.71,3.71,0,0,0-.77.06Z"/><path class="cls-5" d="M14.77,74.25a1.21,1.21,0,0,0,1.37,1.15,3.6,3.6,0,0,0,1.23-.2l.16.77a4,4,0,0,1-1.55.28A2.11,2.11,0,0,1,13.69,74a2.2,2.2,0,0,1,2.17-2.39,1.94,1.94,0,0,1,1.92,2.17,2.72,2.72,0,0,1,0,.47Zm2-.79a1,1,0,0,0-.92-1.09,1.1,1.1,0,0,0-1,1.09Z"/><path class="cls-5" d="M18.64,75.12a2.44,2.44,0,0,0,1.13.33c.49,0,.71-.21.71-.5s-.18-.45-.73-.65c-.87-.29-1.22-.77-1.22-1.3,0-.79.65-1.39,1.68-1.39a2.57,2.57,0,0,1,1.19.27l-.23.79a2,2,0,0,0-.94-.26c-.4,0-.62.2-.62.48s.21.41.78.62c.81.28,1.18.69,1.19,1.35,0,.81-.63,1.4-1.81,1.4a2.87,2.87,0,0,1-1.35-.31Z"/><path class="cls-5" d="M23.69,70.47a.63.63,0,1,1-.63-.61A.6.6,0,0,1,23.69,70.47Zm-1.2,5.69V71.71h1.12v4.45Z"/><path class="cls-5" d="M28.86,75.51a2.58,2.58,0,0,1-.66,2,2.55,2.55,0,0,1-1.72.54,3.25,3.25,0,0,1-1.55-.36l.25-.85a2.69,2.69,0,0,0,1.3.34,1.18,1.18,0,0,0,1.28-1.34v-.38h0a1.49,1.49,0,0,1-1.3.66A2,2,0,0,1,24.55,74a2.13,2.13,0,0,1,2-2.35,1.39,1.39,0,0,1,1.29.7h0l0-.59h1c0,.3,0,.67,0,1.28Zm-1.12-2a1,1,0,0,0,0-.3.93.93,0,0,0-.91-.72c-.63,0-1.1.55-1.1,1.45s.38,1.37,1.09,1.37a1,1,0,0,0,.91-.68,1.39,1.39,0,0,0,0-.39Z"/><path class="cls-5" d="M30,73c0-.51,0-.94,0-1.32h1l.06.67h0a1.64,1.64,0,0,1,1.42-.77c.78,0,1.58.5,1.58,1.91v2.64H32.94V73.65c0-.64-.24-1.12-.85-1.12a.94.94,0,0,0-.88.66,1,1,0,0,0-.05.36v2.62H30Z"/></svg>