<svg id="Calque_1" data-name="Calque 1" xmlns="http://www.w3.org/2000/svg" xmlns:xlink="http://www.w3.org/1999/xlink" viewBox="0 0 709.9 225"><defs><style>.cls-1{fill:url(#Dégradé_sans_nom_13);}.cls-2{fill:url(#Dégradé_sans_nom_13-2);}.cls-3{fill:#55b2f3;}.cls-4{fill:#454649;}</style><linearGradient id="Dégradé_sans_nom_13" y1="112.5" x2="225" y2="112.5" gradientUnits="userSpaceOnUse"><stop offset="0" stop-color="#4488f8"/><stop offset="1" stop-color="#55b2f3"/></linearGradient><linearGradient id="Dégradé_sans_nom_13-2" x1="53.63" x2="155.4" xlink:href="#Dégradé_sans_nom_13"/></defs><title>ioniccreator</title><path class="cls-1" d="M112.5,225A112.5,112.5,0,1,1,225,112.5,112.63,112.63,0,0,1,112.5,225Zm0-217A104.5,104.5,0,1,0,217,112.5,104.62,104.62,0,0,0,112.5,8Z"/><path class="cls-2" d="M113,171.83a59.4,59.4,0,0,1-59.33-58.37c-.52-32.77,26.55-60.3,59.33-60.3a58.89,58.89,0,0,1,38.8,14.44,4,4,0,0,1,.22,5.87h0a4,4,0,0,1-5.49.15,51,51,0,0,0-35.63-12.42,51.33,51.33,0,1,0,37.82,88.16,4,4,0,0,1,5.4-.06h0a4,4,0,0,1,.06,5.9A59.43,59.43,0,0,1,113,171.83Z"/><circle class="cls-3" cx="160.46" cy="85" r="4.25"/><circle class="cls-3" cx="167.12" cy="103.5" r="4.25"/><circle class="cls-3" cx="167.12" cy="122.25" r="4.25"/><circle class="cls-3" cx="161.12" cy="140.58" r="4.25"/><path class="cls-4" d="M336.33,156.6c-4.76,2.24-14.28,4.48-26.47,4.48-28.26,0-49.52-16.8-49.52-47.74,0-29.54,21.27-49.56,52.35-49.56,12.49,0,20.37,2.52,23.79,4.2l-3.12,9.94A49.61,49.61,0,0,0,313.13,74C289.63,74,274,88.14,274,112.92c0,23.1,14.13,37.94,38.52,37.94,7.88,0,15.91-1.54,21.12-3.92Z"/><path class="cls-4" d="M351.65,113.06c0-8-.15-14.84-.59-21.14H362.5l.45,13.3h.59c3.27-9.1,11.15-14.84,19.93-14.84a15,15,0,0,1,3.72.42v11.62a20.82,20.82,0,0,0-4.46-.42c-9.22,0-15.76,6.58-17.55,15.82a32.68,32.68,0,0,0-.59,5.74v36.12H351.65Z"/><path class="cls-4" d="M406.08,128c.3,16.66,11.6,23.52,24.69,23.52,9.37,0,15-1.54,19.93-3.5l2.23,8.82c-4.61,2-12.49,4.2-23.94,4.2-22.16,0-35.39-13.72-35.39-34.16s12.79-36.54,33.76-36.54c23.5,0,29.74,19.46,29.74,31.92a43.86,43.86,0,0,1-.45,5.74Zm38.37-8.82c.15-7.84-3.42-20-18.14-20-13.24,0-19,11.48-20.08,20Z"/><path class="cls-4" d="M513.15,159.68l-1-8.54h-.45c-4,5.32-11.75,10.08-22,10.08-14.57,0-22-9.66-22-19.46,0-16.38,15.47-25.34,43.28-25.2v-1.4c0-5.6-1.64-15.68-16.36-15.68a37.53,37.53,0,0,0-18.74,5l-3-8.12c5.95-3.64,14.57-6,23.65-6,22,0,27.36,14.14,27.36,27.72v25.34A89.94,89.94,0,0,0,525,159.68Zm-1.93-34.58c-14.28-.28-30.49,2.1-30.49,15.26,0,8,5.65,11.76,12.34,11.76,9.37,0,15.32-5.6,17.4-11.34a12.18,12.18,0,0,0,.74-3.92Z"/><path class="cls-4" d="M560.14,72.46V91.92h18.74v9.38H560.14v36.54c0,8.4,2.53,13.16,9.82,13.16a30.83,30.83,0,0,0,7.58-.84l.6,9.24a33.83,33.83,0,0,1-11.6,1.68c-6.1,0-11-1.82-14.13-5.18-3.72-3.64-5.06-9.66-5.06-17.64v-37H536.2V91.92h11.15V75.68Z"/><path class="cls-4" d="M657.85,125.24c0,25.06-18.44,36-35.84,36-19.48,0-34.5-13.44-34.5-34.86,0-22.68,15.76-36,35.69-36C643.87,90.38,657.85,104.52,657.85,125.24Zm-57.11.7c0,14.84,9.07,26,21.86,26,12.49,0,21.86-11.06,21.86-26.32,0-11.48-6.1-26-21.56-26S600.74,113.06,600.74,125.94Z"/><path class="cls-4" d="M674.35,113.06c0-8-.15-14.84-.59-21.14h11.45l.45,13.3h.59c3.27-9.1,11.15-14.84,19.93-14.84a15,15,0,0,1,3.72.42v11.62a20.82,20.82,0,0,0-4.46-.42c-9.22,0-15.76,6.58-17.55,15.82a32.67,32.67,0,0,0-.6,5.74v36.12H674.35Z"/></svg>