<svg id="Calque_1" data-name="Calque 1" xmlns="http://www.w3.org/2000/svg" viewBox="0 0 607.53 224.93"><defs><style>.cls-1{fill:#ffc644;}.cls-2{fill:#2cd8a5;}.cls-3{fill:#2ec2ed;}.cls-4{fill:#8d5ce3;}.cls-5{fill:#ff5770;}.cls-6{fill:#4e8ef7;}</style></defs><title>ioniccloud</title><path class="cls-1" d="M329.6,154.26c-4.77,2.24-14.31,4.48-26.54,4.48-28.33,0-49.65-16.8-49.65-47.74,0-29.54,21.32-49.56,52.48-49.56,12.53,0,20.43,2.52,23.86,4.2l-3.13,9.94a49.85,49.85,0,0,0-20.28-3.92c-23.56,0-39.21,14.14-39.21,38.92,0,23.1,14.16,37.94,38.62,37.94,7.9,0,16-1.54,21.17-3.92Z"/><path class="cls-2" d="M345.4,57.94h13.12v99.4H345.4Z"/><path class="cls-3" d="M445.9,122.9c0,25.06-18.49,36-35.93,36-19.53,0-34.59-13.44-34.59-34.86,0-22.68,15.8-36,35.78-36C431.88,88,445.9,102.18,445.9,122.9Zm-57.26.7c0,14.84,9.1,26,21.92,26,12.53,0,21.92-11.06,21.92-26.32,0-11.48-6.11-26-21.62-26S388.64,110.72,388.64,123.6Z"/><path class="cls-4" d="M522.83,138.86c0,7,.15,13.16.6,18.48H511.8l-.75-11.06h-.3c-3.43,5.46-11,12.6-23.86,12.6-11.33,0-24.9-5.88-24.9-29.68V89.58h13.12V127.1c0,12.88,4.17,21.56,16.1,21.56a18.94,18.94,0,0,0,17.3-11.2,17,17,0,0,0,1.19-6.3V89.58h13.12Z"/><path class="cls-5" d="M606.93,57.94v81.9c0,6,.15,12.88.6,17.5H595.75l-.6-11.76h-.3c-4,7.56-12.82,13.3-24.6,13.3-17.45,0-30.86-13.86-30.86-34.44C539.24,101.9,554.15,88,571.74,88c11,0,18.49,4.9,21.77,10.36h.3V57.94Zm-13.12,59.22a20.48,20.48,0,0,0-.6-5.18A19,19,0,0,0,574.28,97.7c-13.57,0-21.62,11.2-21.62,26.18,0,13.72,7.16,25.06,21.32,25.06a19.49,19.49,0,0,0,19.23-14.7,20.16,20.16,0,0,0,.6-5.32Z"/><circle class="cls-6" cx="112.47" cy="112.47" r="45.92"/><path class="cls-6" d="M206.17,34.55A15.78,15.78,0,0,0,180,22.63,112.57,112.57,0,1,0,202.3,44.88,15.7,15.7,0,0,0,206.17,34.55Zm-93.71,186.6a108.68,108.68,0,1,1,65-195.71,15.78,15.78,0,0,0,22,22,108.63,108.63,0,0,1-87,173.72Z"/></svg>