<svg id="Layer_1" data-name="Layer 1" xmlns="http://www.w3.org/2000/svg" viewBox="0 0 80.55 113.39"><defs><style>.cls-1{fill:#e6a329;}.cls-2{fill:#f1bf22;}.cls-3{fill:#fff;}.cls-4{fill:#ebebeb;}</style></defs><title>javascript</title><polygon class="cls-1" points="80.55 22.22 40.27 22.22 40.27 22.22 0 22.22 7.55 104.11 40.27 113.39 40.27 113.39 40.27 113.39 40.27 113.39 40.27 113.39 72.99 104.11 80.55 22.22"/><polygon class="cls-2" points="40.27 28.89 40.27 106.45 40.27 106.45 66.78 98.94 73.23 28.89 40.27 28.89"/><polygon class="cls-3" points="61.36 38.94 20.6 38.94 17.76 69.6 17.82 69.41 52.45 69.41 51.32 82.38 40.27 85.56 29.06 82.33 28.39 74.48 18.21 74.48 19.66 90.17 40.27 96.02 60.89 90.17 63.73 59.38 26.98 59.38 27.45 49.12 52.95 49.12 53.33 55 63.6 55 61.36 38.94"/><path class="cls-4" d="M40.28,38.94H20.6L17.76,69.6l.06-.19H40.28v-10H28.4l.47-10.26H40.28ZM28.39,74.48H18.21l1.45,15.68L40.28,96V85.56L29.06,82.33Z"/><polygon points="32.44 10.14 25.27 10.14 25.27 15.29 32.44 15.29 36.27 15.29 37.57 15.29 37.57 0 32.44 0 32.44 10.14"/><path d="M55.28.08H42.78V5.43c1.67,1.67,2.54,2.47,5,4.89h-5v4.88H55.28V10.32l-5-4.89h5Z"/></svg>