<svg id="Layer_1" data-name="Layer 1" xmlns="http://www.w3.org/2000/svg" viewBox="0 0 520.12 118.2"><defs><style>.cls-1{fill:#1664ab;}</style></defs><title>JQuery</title><path d="M498.53,9l21.84.12-43.92,59.5c-1.08,1.45-2.71,3-3.54,5-2.1,4.88-4.25,15.58-4.25,15.58l-20,.1s3.11-11.16,3-17.1c-.11-5.19-2.76-10.38-4.25-15.58S443.87,41,443.87,41h20.54l2.83,11.33Z" transform="translate(-0.25 -0.25)"/><path d="M457.18,20.59c4,2.43,6.5,15.83,6.5,15.83s-21.09.31-32.56.31H421.2l-12,52.42H390.74s11.46-57,14.17-67.29c.88-3.34,6-2.77,14.67-2.77h13.83C442.35,19.09,452.79,17.95,457.18,20.59Z" transform="translate(-0.25 -0.25)"/><path d="M388.79,32.54c2.34,8.46-2.12,28.33-2.12,28.33s-23.34-.39-36.13,0c-4,.12-8.73-.43-9.92,1.42-1.67,2.59.61,6.58,2.54,8.27,2.22,1.94,6.54,2.16,8.09,2.36,10.38,1.32,32.1.34,32.1.34l-3.76,16.66s-30.69,1.54-46-2.12a15.63,15.63,0,0,1-7.79-4.25c-.52-.57-1-1.34-1.47-2a18.53,18.53,0,0,1-2.07-3.66c-3.51-9.34.41-27.24,4.25-36.83.45-1.11,1-2.52,1.59-3.72.74-1.49,1.36-3.18,1.95-4.07.4-.62.89-1,1.3-1.59a24,24,0,0,1,1.54-1.95,29.22,29.22,0,0,1,5-4.25c6.4-4.79,18-8.51,31.88-7.08,5.24.54,13.14,2.41,17,7.79C387.7,27.6,388.21,30.46,388.79,32.54ZM371.44,46.12a11,11,0,0,0-1.95-7.26c-2.15-3.32-4.14-4.09-9.81-4.27-16-.5-15.69,11.36-15.69,11.36Z" transform="translate(-0.25 -0.25)"/><path d="M304.32,19l17.86-.11s-10,47.21-15,70.23H286.61c-14.36,0-27.14,1.78-32.58-8.5-5.28-10-.24-26.39,2.12-37.54,1.67-7.89,5.19-24,5.19-24l18.5-.17s-5.23,25.11-7.4,37.65c-.78,4.49-2.39,8.72-.71,12,1.59,3.16,3.83,3.39,10.62,3.54,2.15,0,9.21,0,9.21,0Z" transform="translate(-0.25 -0.25)"/><path d="M245.53,26.82c2,14.83-5.79,31.2-11.18,45.44,5.5.5,10.31-.08,10.66.33s-3.68,17-5.09,17c-4.36.11-18.82.23-24.85.23-19.67,0-38.07,1.28-47.46-8.5-3.81-4-6.45-10.79-7.08-15.58-1.06-8,.27-16.82,2.13-24.08a72.91,72.91,0,0,1,7.08-18.42C178,8.84,192.38-1.87,216.49.61a44.91,44.91,0,0,1,15.58,5c.29.17,1.3,1,1.54,1.12C239.27,10.29,244.44,18.9,245.53,26.82ZM220.74,53c1.87-6.64,4.6-13.85,4.25-19.83-.38-6.4-5.74-12.23-9.21-13.46-10.43-3.68-20.2,1.47-24.08,5.67-5,5.44-6.72,11.79-8.5,20.54-1.32,6.5-2.41,13.35,0,18.42,4.26,9,17.56,7,31.88,7.08C217.2,65.75,219,59.35,220.74,53Z" transform="translate(-0.25 -0.25)"/><path d="M158.49,19.11c-1.19,5.42-2.38,11.56-3.63,16.92H135c1.54-5.94,2.71-11.84,4.25-17C145.62,19,151.52,19.11,158.49,19.11Z" transform="translate(-0.25 -0.25)"/><path d="M134.32,41h19.13c-2.5,13.84-7.45,36.17-11.33,51.71-2.43,9.73-4.05,16.82-10.63,22-.59.46-.93.24-1.42.71-1.21,1.15-6.81,2.49-9.92,2.83-5,.55-10.75.07-16.94-.06,1.62-5.93,3.46-13,4.9-18.36,15.11,1.83,15.49-12.45,18.42-26.21C128.22,65.62,133.35,44.17,134.32,41Z" transform="translate(-0.25 -0.25)"/><path class="cls-1" d="M89.69,77.11l-.41,1.06c-7,13.6-19.36,21.94-37,22.31A51.75,51.75,0,0,1,31,96.23,54.9,54.9,0,0,1,5.52,72.15C-1.79,58-3.1,38.33,12.08,23.63c.23,0-1.84,3.19-1.61,3.19l-.42,1.36C-.89,62.44,32.83,91.8,65.61,88.44,73.48,87.63,83.53,83.32,89.69,77.11Z" transform="translate(-0.25 -0.25)"/><path class="cls-1" d="M91,34.34c-1.28,2.94-8.66,8.49-11.92,9.19-12.91,2.75-21.17-3.37-25.5-10.33a31.81,31.81,0,0,1-2-4.6c-1.68-5.71-.91-14.34,4.1-18.81a23.53,23.53,0,0,0-.94,12.4,27.56,27.56,0,0,0,3.41,7.46c2.67,3.88,4.36,4.82,7.79,6.89a20.77,20.77,0,0,0,3.92,1.88C73.06,39.35,79.92,41.87,91,34.34Z" transform="translate(-0.25 -0.25)"/><path class="cls-1" d="M69.86,62.94a31.35,31.35,0,0,0,22-9.21C87.35,65.06,74.43,72.34,57.11,70,42.6,68.08,28.78,53.48,27.36,38.86c-1-10.65,2.67-17,8.78-24.71A25.86,25.86,0,0,0,33,23.27C30.7,46.3,51.42,62.82,69.86,62.94Z" transform="translate(-0.25 -0.25)"/></svg>