<?xml version="1.0" encoding="utf-8"?>
<!-- Generator: Adobe Illustrator 20.0.0, SVG Export Plug-In . SVG Version: 6.00 Build 0)  -->
<svg version="1.1"
	 id="svg3059" xmlns:cc="http://creativecommons.org/ns#" xmlns:dc="http://purl.org/dc/elements/1.1/" xmlns:rdf="http://www.w3.org/1999/02/22-rdf-syntax-ns#" xmlns:svg="http://www.w3.org/2000/svg"
	 xmlns="http://www.w3.org/2000/svg" xmlns:xlink="http://www.w3.org/1999/xlink" x="0px" y="0px" viewBox="0 0 961.1 429"
	 style="enable-background:new 0 0 961.1 429;" xml:space="preserve">
<style type="text/css">
	.st0{fill:url(#path19_1_);}
	.st1{fill:#F6F6F6;}
	.st2{fill:#404040;}
</style>
<g id="layer1" transform="translate(130.53125,-317.84375)">
	
		<linearGradient id="path19_1_" gradientUnits="userSpaceOnUse" x1="333.7838" y1="627.4667" x2="333.7838" y2="1051.2748" gradientTransform="matrix(1 0 0 1 19.7117 -306.999)">
		<stop  offset="0.1497" style="stop-color:#2A4F84"/>
		<stop  offset="0.3884" style="stop-color:#294E82"/>
		<stop  offset="1" style="stop-color:#172E4E"/>
	</linearGradient>
	<path id="path19" class="st0" d="M778.8,662.5c0,45-36.8,81.7-81.7,81.7H10c-45,0-81.7-36.8-81.7-81.7V402.2
		c0-45,36.8-81.7,81.7-81.7h687c45,0,81.7,36.8,81.7,81.7V662.5z"/>
	<path id="path21" class="st1" d="M635,526.8c35.9,12.6,53.9,34.1,53.9,64.5c0,20-7.4,36-22.3,47.7c-14.8,11.8-36,19.1-63.6,19.1
		s-53-8-76.5-21.1c0.3-7,2.1-14.6,5.5-22.9s7.4-14.9,11.9-19.7c21.6,11.2,40.3,16.8,56.3,16.8c7.5,0,13.4-1.3,17.4-3.8
		c4.1-2.5,6.1-5.9,6.1-10.2c0-8-6.2-14.1-18.6-18.1l-22.3-8.4c-33.7-12.3-50.6-32.3-50.6-60.1c0-20.3,7.1-36.4,21.3-48.3
		c14.2-11.9,33.3-22.1,57.3-22.1c11.9,0,25,1.7,39.3,5c14.3,3.3,26,11.6,35.2,16.1c0.5,7.5-1,15.7-4.5,24.7c-3.5,9-7.8,15.3-13,19.1
		c-22.7-10.2-41.6-15.2-56.7-15.2c-5.4,0-9.5,1.2-12.4,3.6c-2.8,2.4-4.2,5.5-4.2,9.2c0,6.4,5.1,11.5,15.4,15.2L635,526.8L635,526.8z
		"/>
	<path id="path23" class="st1" d="M455.7,526.8c35.9,12.6,53.8,34.1,53.8,64.5c0,20-7.4,36-22.3,47.7c-14.9,11.8-36,19.1-63.6,19.1
		c-27.5,0-53-8-76.5-21.1c0.3-7,2.1-14.6,5.5-22.9c3.4-8.3,7.3-14.9,11.9-19.7c21.6,11.2,40.4,16.8,56.3,16.8
		c7.5,0,13.4-1.3,17.4-3.8c4-2.5,6.1-5.9,6.1-10.2c0-8-6.2-14.1-18.6-18.1l-22.3-8.4c-33.7-12.3-50.6-32.3-50.6-60.1
		c0-20.3,7.1-36.4,21.3-48.3c14.2-11.9,33.3-22.1,57.3-22.1c11.9,0,25,1.7,39.3,5c14.3,3.3,26,11.6,35.2,16.1
		c0.5,7.5-1,15.7-4.5,24.7c-3.5,9-7.8,15.3-13,19.1c-22.7-10.2-41.6-15.2-56.7-15.2c-5.4,0-9.5,1.2-12.3,3.6
		c-2.8,2.4-4.2,5.5-4.2,9.2c0,6.4,5.1,11.5,15.4,15.2L455.7,526.8L455.7,526.8z"/>
	<path id="path25" class="st1" d="M324.9,529.6c0-12.3-2-23.7-5.9-34.1c-3.9-10.4-9.5-19.4-16.8-26.9c-7.3-7.5-16.1-13.4-26.5-17.6
		c-10.4-4.3-22.1-10.7-35-10.7c-15.4,0-28.8,7-40.3,12.3c-11.5,5.3-20.9,12.7-28.3,22c-7.4,9.4-13,20.4-16.6,33.1
		c-3.6,12.7-5.5,26.5-5.5,41.5c0,15.5,1.5,29.8,4.5,42.9c3,13.1,8,24.4,15.2,34.1c7.2,9.6,16.5,17.1,27.9,22.4
		c11.5,5.3,25.7,9.4,42.7,9.4c31.3,0,57.8-9.1,79.3-24.3c-2.1-15.5-7.7-27.8-16.5-36.9c-11,4.1-20.8,7.1-29.2,8.9
		c-8.5,1.8-15.9,2.7-22.4,2.7c-12.9,0-22.2-3.3-27.8-9.9c-5.6-6.6-8.7-14.4-9.3-26.3h105.3C323.1,561.1,324.9,545.9,324.9,529.6z
		 M214,532.4c0.8-13.6,3.3-28.2,7.4-34.3c4.2-6,10.5-9,19.1-9c8.8,0,15.5,3.2,19.9,9.6c4.4,6.4,6.6,19.3,6.6,29.2l0,4.4H214
		L214,532.4L214,532.4z"/>
	<g>
		<path id="path27_1_" class="st1" d="M800,559.1c-11.4,10-18.1,24.4-18.1,43.2v70c0,23.3-7.2,41-23.3,53.2
			c-16.2,12.2-35,18.2-56.5,18.8l-12.7-0.1v-34.9c11.2-3.3,15.8-7.1,20.3-11.4c8.1-7.3,14.3-19.2,14.3-35.8v-56.5
			c0.3-19.2,1.8-34.3,8.8-45.2c7-10.9,20.7-20.4,41-28.6c-22.4-10.3-37.5-23.7-45.2-40.2c-4.5-9.8-4.6-23.1-4.6-39.8v-51.9
			c0-17.1-5.6-29.1-12.5-36c-4.5-4.5-9.7-8-22.1-10.7v-32.8c15.2,0.2,22.8,0,31.7,0c13.6-0.1,25,7.3,34.9,15.1
			c10.8,8.5,18.5,20,23,34.5c2.6,8.4,2.9,16.3,2.9,23.9v60c0,21.2,6.3,36.9,17,47.2c6,6,14.5,11.4,29.1,16.3v27.1
			C815,548.1,806.9,553,800,559.1L800,559.1z"/>
		<path class="st2" d="M702.1,746.8l-15.4-0.1v-39.4l1.9-0.5c10.7-3.1,15.1-6.7,19.2-10.8c8.7-7.9,13.5-19.9,13.5-33.9v-56.5
			c0.3-20.4,2-35.3,9.2-46.5c6.7-10.4,18.8-19.4,36.9-27.4c-20.1-10.2-34-23.3-41.3-39c-4.8-10.5-4.8-24.6-4.8-40.9v-51.9
			c0-19.6-7.4-29.8-11.7-34.1c-4.4-4.4-9.4-7.6-20.8-10l-2-0.4v-37.4l2.6,0c10,0.1,16.7,0.1,22.6,0c3.1,0,6,0,9,0c0.1,0,0.2,0,0.3,0
			c14.3,0,26.3,7.9,36.2,15.6c11.2,8.8,19.2,20.8,23.9,35.7c2.7,8.7,3,17,3,24.7v60c0,19.5,5.6,35.2,16.2,45.4
			c6.6,6.5,15.5,11.5,28.2,15.8l1.8,0.6v30.9l-1.9,0.5c-11.4,3.1-19.4,7.3-27,14l0,0c-11.4,10-17.2,23.8-17.2,41.2v70
			c0,24.8-8,42.9-24.3,55.2C743.9,739.7,724.4,746.2,702.1,746.8z M691.9,741.6l10.2,0.1c21.4-0.6,39.4-6.5,54.9-18.2
			c15-11.3,22.3-28,22.3-51.1v-70c0-18.9,6.4-34.1,19-45.1c7.6-6.7,16.1-11.3,27.1-14.6v-23.3c-12.5-4.4-21.6-9.6-28.4-16.3
			c-11.6-11.1-17.7-28.1-17.7-49v-60c0-7.3-0.3-15.1-2.8-23.2c-4.3-13.9-11.8-25-22.1-33.2c-9.7-7.6-20.4-14.5-33-14.5
			c-0.5,0-0.9,0-1.4,0c-2.6,0-5.2,0-7.9,0c-5.4,0-11.5,0.1-20.1,0v28.1c11.3,2.7,16.6,6.2,21.4,11c4.9,4.9,13.3,16.4,13.3,37.8v51.9
			c0,15.7,0,29.2,4.4,38.7c7.4,15.9,22.2,29,43.9,39l5.4,2.5l-5.5,2.2c-19.7,8-33.1,17.3-39.8,27.6c-6.6,10.2-8.1,24.3-8.4,43.8
			v56.5c0,15.5-5.4,28.8-15.1,37.7c-4.2,4.1-8.9,8.1-19.5,11.4V741.6z"/>
	</g>
	<g>
		<path id="path29_1_" class="st1" d="M-5.2,320.5L-5.2,320.5c-4.3,0-8.3,0-11.4,0c-13.6-0.1-25,7.3-34.9,15.1
			c-10.8,8.5-20.1,19.6-23,34.5c-1.7,8.7-1.3,16.3-1.3,23.9v60c0,21.2-7.9,36.9-18.6,47.2c-6,6-18.9,11.4-33.5,16.3v27.1
			c13,3.6,25.4,8.4,32.3,14.5c11.4,10,19.7,24.4,19.7,43.2v70c0,23.3,5.6,41,21.7,53.1c16.1,12.2,35,18.2,56.5,18.8l14.4-0.1v-34.9
			C5.4,706-0.8,702.2-5.3,697.9c-8.1-7.3-12.7-19.2-12.7-35.7v-56.6c-0.3-19.2-3.4-34.3-10.4-45.2c-7-10.9-20.7-20.4-41-28.6
			c22.4-10.3,37.5-23.7,45.2-40.2c4.5-9.8,6.2-23.1,6.2-39.8v-51.9c0-17.1,4-29.1,10.9-36c3.7-3.7,10.4-6.8,19.6-9.3l14.6,0.1
			c0-12.6,0-20.4,0-34.3L-5.2,320.5L-5.2,320.5L-5.2,320.5L-5.2,320.5z"/>
		<path class="st2" d="M2.3,746.8c-22.3-0.6-41.8-7.1-58-19.3c-15.7-11.8-22.7-28.9-22.7-55.2v-70c0-20.5-10.2-33.8-18.8-41.3
			c-5.7-5.1-16.6-9.9-31.3-14l-1.9-0.5v-30.9l1.8-0.6c16.9-5.7,27.6-10.9,32.5-15.7c8.1-7.8,17.8-22.1,17.8-45.4v-60
			c0-1.1,0-2.2,0-3.4c0-6.6-0.1-13.4,1.4-21.1c2.7-13.7,10.5-25.5,23.9-36c10-7.8,22.1-15.7,36.6-15.6c2.8,0,6.2,0,10,0l0,0h36.3
			v39.5l-16.8-0.1c-8.8,2.4-14.9,5.2-18.1,8.5c-6.6,6.6-10.1,18.4-10.1,34.2v51.9c0,18.3-2.1,31.3-6.5,40.9
			c-7.3,15.7-21.2,28.8-41.3,39c17.9,7.9,30.3,17.1,36.9,27.4c7,10.8,10.5,26,10.8,46.5v56.6c0,15.3,4,26.7,11.8,33.8
			c4.9,4.7,11.3,8,20.9,10.8l1.9,0.5v39.4L2.3,746.8z M-125.4,542.6c14.7,4.2,25.3,9.1,31.5,14.6c9.4,8.2,20.6,22.7,20.6,45.1v70
			c0,24.6,6.4,40.3,20.7,51.1c15.6,11.7,33.5,17.7,55,18.3l11.7-0.1v-30.5c-9.4-2.9-16-6.5-21.2-11.5c-8.9-8.1-13.5-20.7-13.5-37.6
			v-56.6c-0.3-19.5-3.6-33.8-10-43.8c-6.7-10.3-20.1-19.6-39.8-27.6l-5.5-2.2l5.4-2.5c21.8-10,36.5-23.1,43.9-39
			c4.1-8.9,6-21.2,6-38.7v-51.9c0-17.2,4-30.2,11.6-37.8c4-4,10.8-7.3,20.8-9.9l0.3-0.1l12.4,0.1V323H-2.7v0.1l-2.6,0
			c-4.3,0-8.3,0-11.4,0c-0.1,0-0.2,0-0.3,0c-12.7,0-23.4,7-33.1,14.5c-12.4,9.7-19.6,20.5-22,32.9c-1.4,7.2-1.3,13.7-1.3,20
			c0,1.1,0,2.3,0,3.4v60c0,25.1-10.5,40.6-19.4,49.1c-5.4,5.3-15.8,10.5-32.7,16.3V542.6z"/>
	</g>
	<path id="path31" class="st1" d="M129.4,604.6h-10.9c-11.9,0-16.4-6.3-16.4-18.8V355.1c0-13.9-4-23.6-9.1-29.2
		c-5.1-5.6-14-5.5-26.7-5.5H41.5l-2.9-0.1v0.2l0,34.3V597c0,19.3,4.3,33.3,12,42.3c7.7,9,20.7,13.4,39.1,13.4
		c12.7,0,27.1-1.3,43.3-4c0.8-2.7,1.2-8.5,1.2-17.4C134.2,622.4,132.6,613.5,129.4,604.6L129.4,604.6z"/>
</g>
</svg>
