<svg id="Calque_1" data-name="Calque 1" xmlns="http://www.w3.org/2000/svg" xmlns:xlink="http://www.w3.org/1999/xlink" viewBox="0 0 68.22 77.97"><defs><style>.cls-1{opacity:0.95;fill:url(#linear-gradient);}.cls-2{fill:url(#linear-gradient-2);}.cls-3{fill:url(#linear-gradient-3);}.cls-4{fill:url(#linear-gradient-4);}.cls-5{fill:#73b4f4;}</style><linearGradient id="linear-gradient" x1="3.18" y1="2.53" x2="65.19" y2="64.55" gradientUnits="userSpaceOnUse"><stop offset="0" stop-color="#32297c"/><stop offset="1" stop-color="#282761"/></linearGradient><linearGradient id="linear-gradient-2" x2="68.22" y2="66.65" gradientUnits="userSpaceOnUse"><stop offset="0" stop-color="#95c8fd"/><stop offset="1" stop-color="#73b4f4"/></linearGradient><linearGradient id="linear-gradient-3" x1="17.75" y1="32.69" x2="51.72" y2="32.69" xlink:href="#linear-gradient-2"/><linearGradient id="linear-gradient-4" x1="17.75" y1="36.71" x2="51.72" y2="36.71" xlink:href="#linear-gradient-2"/></defs><title>photoshop</title><rect class="cls-1" x="2.71" y="3" width="62.94" height="61.09"/><path class="cls-2" d="M0,0V66.65H68.22V0ZM62.8,61.37H5.57V5.42H62.8Z" transform="translate(0)"/><path class="cls-3" d="M17.93,19.08a44.6,44.6,0,0,1,7.87-.59c3.77,0,6.53.79,8.33,2.3A8,8,0,0,1,36.89,27a8.55,8.55,0,0,1-2.43,6.4c-2,2.05-5.27,3-8.91,3A14.49,14.49,0,0,1,23,36.27V46.9H17.93ZM23,32.21a10.37,10.37,0,0,0,2.51.21c3.85,0,6.19-1.88,6.19-5.19,0-3.14-2.18-4.81-5.73-4.81a14.17,14.17,0,0,0-3,.25Z" transform="translate(0)"/><path class="cls-4" d="M38.47,42.17a11.48,11.48,0,0,0,5.23,1.46c2.26,0,3.26-.92,3.26-2.26s-.84-2.09-3.35-3C39.65,37,38,34.85,38,32.46c0-3.6,3-6.4,7.7-6.4a12,12,0,0,1,5.4,1.21l-1,3.64a9.15,9.15,0,0,0-4.31-1.17c-1.84,0-2.84.88-2.84,2.13s1,1.92,3.56,2.85c3.68,1.34,5.4,3.22,5.44,6.23,0,3.68-2.89,6.4-8.29,6.4a13.12,13.12,0,0,1-6.19-1.46Z" transform="translate(0)"/><path class="cls-5" d="M.09,70.08A10,10,0,0,1,1.81,70a2.76,2.76,0,0,1,1.81.5,1.73,1.73,0,0,1,.6,1.36,1.88,1.88,0,0,1-.52,1.39,2.74,2.74,0,0,1-1.95.67,2.42,2.42,0,0,1-.55,0v2.33H.09ZM1.2,72.94a1.83,1.83,0,0,0,.55.05c.84,0,1.35-.42,1.35-1.13s-.47-1-1.25-1a3.12,3.12,0,0,0-.65.05Z" transform="translate(0)"/><path class="cls-5" d="M5.12,69.67H6.25v2.64h0a1.49,1.49,0,0,1,.56-.5,1.59,1.59,0,0,1,.78-.2c.76,0,1.55.5,1.55,1.93v2.62H8v-2.5c0-.64-.24-1.13-.86-1.13a.94.94,0,0,0-.88.63,1,1,0,0,0,0,.34v2.67H5.12Z" transform="translate(0)"/><path class="cls-5" d="M14.58,73.89a2.21,2.21,0,0,1-2.29,2.37A2.15,2.15,0,0,1,10.06,74a2.2,2.2,0,0,1,2.3-2.36A2.14,2.14,0,0,1,14.58,73.89Zm-3.35,0c0,.86.43,1.51,1.11,1.51s1.09-.62,1.09-1.53c0-.7-.31-1.5-1.08-1.5S11.22,73.2,11.22,73.94Z" transform="translate(0)"/><path class="cls-5" d="M16.79,70.57v1.14h1.07v.84H16.79v2c0,.55.15.82.58.82a1.48,1.48,0,0,0,.44,0l0,.85a2.49,2.49,0,0,1-.81.12,1.28,1.28,0,0,1-1-.37,1.75,1.75,0,0,1-.36-1.25V72.55h-.63v-.84h.63v-.83Z" transform="translate(0)"/><path class="cls-5" d="M22.88,73.89a2.2,2.2,0,0,1-2.28,2.37A2.15,2.15,0,0,1,18.37,74a2.2,2.2,0,0,1,2.3-2.36A2.14,2.14,0,0,1,22.88,73.89Zm-3.35,0c0,.86.43,1.51,1.11,1.51s1.09-.62,1.09-1.53c0-.7-.31-1.5-1.08-1.5S19.53,73.2,19.53,73.94Z" transform="translate(0)"/><path class="cls-5" d="M23.76,75.12a2.44,2.44,0,0,0,1.13.33c.49,0,.71-.21.71-.5s-.18-.45-.73-.65C24,74,23.65,73.53,23.65,73c0-.79.65-1.39,1.68-1.39a2.55,2.55,0,0,1,1.19.27l-.23.79a2,2,0,0,0-.94-.26c-.4,0-.62.2-.62.48s.21.41.78.62c.81.28,1.18.69,1.19,1.35,0,.81-.63,1.4-1.81,1.4a2.87,2.87,0,0,1-1.35-.31Z" transform="translate(0)"/><path class="cls-5" d="M27.61,69.67h1.12v2.64h0a1.48,1.48,0,0,1,.56-.5,1.6,1.6,0,0,1,.78-.2c.76,0,1.55.5,1.55,1.93v2.62H30.52v-2.5c0-.64-.24-1.13-.86-1.13a.94.94,0,0,0-.88.63,1,1,0,0,0,0,.34v2.67H27.61Z" transform="translate(0)"/><path class="cls-5" d="M37.07,73.89a2.2,2.2,0,0,1-2.28,2.37A2.15,2.15,0,0,1,32.55,74a2.2,2.2,0,0,1,2.3-2.36A2.14,2.14,0,0,1,37.07,73.89Zm-3.35,0c0,.86.43,1.51,1.11,1.51s1.09-.62,1.09-1.53c0-.7-.31-1.5-1.08-1.5S33.71,73.2,33.71,73.94Z" transform="translate(0)"/><path class="cls-5" d="M38,73.19c0-.58,0-1.06,0-1.48h1l.06.68h0a1.73,1.73,0,0,1,1.53-.79,2,2,0,0,1,1.87,2.27,2.12,2.12,0,0,1-2,2.38,1.46,1.46,0,0,1-1.25-.59h0V78H38Zm1.12,1.11a1.7,1.7,0,0,0,0,.31,1,1,0,0,0,1,.79c.71,0,1.13-.59,1.13-1.47s-.38-1.43-1.11-1.43a1.07,1.07,0,0,0-1,.83,1.56,1.56,0,0,0,0,.28Z" transform="translate(0)"/></svg>