<svg id="Capa_1" data-name="Capa 1" xmlns="http://www.w3.org/2000/svg" viewBox="0 0 380.85 368.06"><defs><style>.cls-1,.cls-5{fill:#71bf45;}.cls-1,.cls-2,.cls-3{fill-rule:evenodd;}.cls-2{fill:#fff;}.cls-3{fill:#c8588a;}.cls-4{fill:#84868a;}</style></defs><title>prestashop</title><path class="cls-1" d="M78.32,51l33.92-3.34s.5-42,39.7-47c47.46-6.08,51.2,37.68,51.2,37.68l41-4.17L263,206.65l-166.9,17Z"/><path class="cls-2" d="M158.42,137.33s12.21-1.74,14,10.17l4.51,26.59s9.59-8.72,19.18,1c0,0,10.61-10,20.78,2,0,0,12.93-10.61,22.09,8s3.05,49,3.05,49-2.76,15.26-2.47,25-8.14,9.88-8.14,9.88L186,275.68s-5.23,2.18-9.74-4.51c0,0-29.36-42.29-52.9-61.33,0,0-5.38-6.1,3.63-13.66S145.19,195,145.19,195l8.57,7.12-6.47-45.29S143.49,140.42,158.42,137.33Z"/><path class="cls-3" d="M156.18,212.95l-14.74-12.51s-6.92-4.24-12.29,3.13l-.67,1.56s17.47,17,32,34.12A328.72,328.72,0,0,1,183,269.46l49.81-7.15a152,152,0,0,1,3.35-32.84,78.63,78.63,0,0,0,1.18-22.12c-.93-11.71-4.53-23.28-8.78-24.79-6.92-2.46-8.94.45-7.82,6l.45,6.7h-6.25s-.45-17.65-9.38-17.42-5.81,15.64-5.81,15.64h-5.58S195,177,185.89,177s-7.15,19-7.15,19h-5.36l-7.51-47.19s-.44-5.32-6.65-4.65-5.54,10.19-5.54,10.19l10.41,69.77-7.31-.22Z"/><path class="cls-2" d="M193.3,38.13l6.82-.66S193.3,2.06,163.39,1.84C163.39,1.84,184.5,6.9,193.3,38.13Z"/><path class="cls-2" d="M115,46.49S117.86,13.94,139.85,6c0,0-18.26,16.5-16.94,39.59Z"/><path class="cls-2" d="M125.34,45.17S127.33,7,152.61,4C177,1.18,189.56,34.39,189.56,39.23Z"/><path class="cls-4" d="M0,301.54a43.48,43.48,0,0,1,11-1.29c6.14,0,11.38,1.49,14.85,4.85,3.17,3.17,4.85,8,4.85,13.86,0,6.14-1.48,10.3-4.06,13.66-3.56,4.95-9.8,7.42-15.74,7.42-1.29,0-2.28,0-3.37-.1v27.32H0Zm7.52,32.08a25.12,25.12,0,0,0,3.07.2c7.42,0,12.47-4.85,12.47-14.35,0-6.83-2.77-13-11.29-13a15.64,15.64,0,0,0-4.26.49Z"/><path class="cls-4" d="M39.5,301.54a42.12,42.12,0,0,1,10.89-1.29c6.63,0,11.58,1.39,15,4.75,3.27,3.37,4.65,7.82,4.65,13.07,0,8.51-4,14.06-10.69,17.23v.2c5,1.48,7.52,6.24,8.91,14.95,1.58,9.11,2.87,14.75,3.86,16.83H64.45c-1-2-2.28-8.32-3.56-16.43-1.49-9.21-4.36-12.57-10.89-12.57H47v29H39.5ZM47,332.33h3.27c7.23,0,12.08-5.35,12.08-13.36,0-7.72-3.17-12.47-11.29-12.57a15.6,15.6,0,0,0-4.06.4Z"/><path class="cls-4" d="M104.24,335.59H87.51v25h19v6.63H79.89V300.55h25.44v6.63H87.51v22h16.73Z"/><path class="cls-4" d="M113.45,358.46a19.12,19.12,0,0,0,9.5,2.67c7,0,11.19-4.55,11.19-11.29,0-6.14-3.56-9.9-8.81-13.86-5.35-3.66-12.57-9.9-12.57-18.51,0-10.1,7-17.52,17.62-17.52,4.16,0,7.72,1.29,9.31,2.48L137.9,309a14,14,0,0,0-7.92-2.28,9.23,9.23,0,0,0-9.7,9.5c0,6.63,3.47,9.21,9.8,13.76,8,5.64,11.58,11.78,11.58,19.21,0,11.48-8,18.71-18.71,18.71-4.55,0-9.31-1.48-11.19-2.87Z"/><path class="cls-4" d="M158.5,307.38H146.32v-6.83h32v6.83H166.12v59.89H158.5Z"/><path class="cls-4" d="M189.28,347.27l-4.36,20H177.5l15.25-66.73h8.42L216,367.27h-7.52l-4.36-20ZM203,341.14l-3.46-16.93c-1-4.75-1.88-10.3-2.67-15.25h-.3c-.79,5-1.78,10.79-2.77,15.25l-3.46,16.93Z"/><path class="cls-5" d="M222.84,358.46a19.12,19.12,0,0,0,9.5,2.67c7,0,11.19-4.55,11.19-11.29,0-6.14-3.56-9.9-8.81-13.86-5.35-3.66-12.57-9.9-12.57-18.51,0-10.1,7-17.52,17.62-17.52,4.16,0,7.72,1.29,9.31,2.48L247.3,309a14,14,0,0,0-7.92-2.28,9.23,9.23,0,0,0-9.7,9.5c0,6.63,3.46,9.21,9.8,13.76,8,5.64,11.58,11.78,11.58,19.21,0,11.48-8,18.71-18.71,18.71-4.55,0-9.31-1.48-11.19-2.87Z"/><path class="cls-5" d="M267.69,300.55v28.61H286.4V300.55H294v66.73H286.4V336.09H267.69v31.18h-7.62V300.55Z"/><path class="cls-5" d="M340.95,333.41c0,25-8.51,34.65-19.3,34.65-11.09,0-18.51-11.78-18.51-34.25,0-22.08,8-34.06,19.6-34.06C334.12,299.75,340.95,312.13,340.95,333.41Zm-29.9.49c0,13.76,2.67,27.42,11.19,27.42S333,346.78,333,333.71c0-12.47-2.28-27.22-10.89-27.22C313.73,306.49,311.05,320.35,311.05,333.91Z"/><path class="cls-5" d="M350.16,301.54a43.48,43.48,0,0,1,11-1.29c6.14,0,11.38,1.49,14.85,4.85,3.17,3.17,4.85,8,4.85,13.86,0,6.14-1.48,10.3-4.06,13.66C373.22,337.57,367,340,361,340c-1.29,0-2.28,0-3.37-.1v27.32h-7.52Zm7.52,32.08a25.11,25.11,0,0,0,3.07.2c7.42,0,12.47-4.85,12.47-14.35,0-6.83-2.77-13-11.29-13a15.64,15.64,0,0,0-4.26.49Z"/></svg>