<svg id="Calque_1" data-name="Calque 1" xmlns="http://www.w3.org/2000/svg" viewBox="0 0 33.42 17.35"><defs><style>.cls-1{fill:#006189;}.cls-1,.cls-2{fill-rule:evenodd;}.cls-2{fill:#e48f00;}</style></defs><title>sql</title><path class="cls-1" d="M0,15.81H1.1V11.44l1.72,3.81a.94.94,0,0,0,1,.63.94.94,0,0,0,1-.63l1.71-3.81v4.37H7.68V11.44a.67.67,0,0,0-.53-.74c-.84-.25-1.4,0-1.65.53L3.81,15,2.18,11.24c-.25-.57-.81-.79-1.66-.53a.67.67,0,0,0-.52.74v4.37Z"/><path class="cls-1" d="M8.6,12.26H9.71v2.4c0,.14,0,.44.64.45h2.41V12.24h1.11v3.93c0,1-1.2,1.18-1.76,1.19H8.62v-.74h3.5c.71-.08.63-.43.63-.55v-.29H10.4c-1.09,0-1.8-.49-1.81-1,0-.05,0-2.46,0-2.48Z"/><path class="cls-1" d="M32.44,9.47a3.93,3.93,0,0,0-1.65.24c-.13.05-.33.05-.35.21s.08.18.14.27a2,2,0,0,0,.44.52c.18.14.36.27.54.39s.7.32,1,.53.37.27.56.4.15.18.27.22v0c-.06-.08-.08-.19-.14-.27L33,11.7a4,4,0,0,0-.88-.86c-.27-.19-.87-.44-1-.76l0,0a3.45,3.45,0,0,0,.59-.14c.29-.08.55-.06.85-.14L33,9.68V9.61c-.15-.15-.26-.36-.42-.5a11.32,11.32,0,0,0-1.4-1c-.26-.17-.6-.28-.88-.42-.1-.05-.27-.08-.33-.16a3.43,3.43,0,0,1-.35-.65c-.25-.47-.48-1-.7-1.48a9,9,0,0,0-.43-1A8.55,8.55,0,0,0,25.2,1.21,4.08,4.08,0,0,0,24.12.86l-.64,0a3.38,3.38,0,0,1-.39-.3C22.6.22,21.36-.44,21,.44c-.23.55.34,1.09.53,1.37a4,4,0,0,1,.43.64c.06.14.08.3.14.45A10.17,10.17,0,0,0,22.55,4a4.1,4.1,0,0,0,.31.53c.07.09.19.14.21.29a2.43,2.43,0,0,0-.2.64,3.74,3.74,0,0,0,.25,2.85c.14.21.46.68.89.5s.3-.64.41-1.06c0-.1,0-.17.06-.24v0c.12.24.24.47.35.7a4.85,4.85,0,0,0,1.1,1.14c.2.15.36.42.62.51v0h0a.94.94,0,0,0-.2-.17,4.12,4.12,0,0,1-.44-.51,10.91,10.91,0,0,1-1-1.54c-.14-.26-.25-.55-.36-.81-.05-.1-.05-.25-.14-.31a3.19,3.19,0,0,0-.41.58,4.78,4.78,0,0,0-.24,1.28l0,0c-.27-.07-.36-.35-.47-.59a3.67,3.67,0,0,1-.08-2.27c.06-.18.31-.74.21-.91s-.22-.25-.31-.38a3.42,3.42,0,0,1-.31-.54c-.2-.48-.31-1-.53-1.48a4.52,4.52,0,0,0-.42-.65A4.2,4.2,0,0,1,21.4.94c0-.09-.1-.25,0-.35a.14.14,0,0,1,.12-.11c.11-.09.42,0,.53.08a4.33,4.33,0,0,1,.84.42c.12.08.25.25.4.29h.18c.27.06.58,0,.83.09a5.43,5.43,0,0,1,1.22.59,7.53,7.53,0,0,1,2.65,2.9c.1.2.14.37.24.58.18.42.4.84.58,1.25a5.58,5.58,0,0,0,.6,1.14c.13.18.64.27.87.36a6,6,0,0,1,.59.24c.29.18.58.38.85.58s.56.31.59.48Z"/><path class="cls-2" d="M14.72,15.81h3.19a2.42,2.42,0,0,0,1-.21c.48-.22.71-.52.71-.91v-.81c0-.31-.26-.61-.79-.81a2.78,2.78,0,0,0-.94-.16H16.57c-.45,0-.66-.14-.72-.43a.41.41,0,0,1,0-.1v-.5a.38.38,0,0,1,0-.09c.06-.23.18-.29.57-.33h3.27V10.7H16.58a2.87,2.87,0,0,0-.9.09c-.65.2-.94.53-.94,1.09v.64c0,.5.56.92,1.51,1h1.59c.35,0,.5.09.6.22a.26.26,0,0,1,.08.2v.64a.38.38,0,0,1-.15.26.79.79,0,0,1-.48.15H14.72v.74Z"/><path class="cls-2" d="M26.55,14.53c0,.76.57,1.18,1.71,1.26l.32,0h2.89v-.74H28.55c-.64,0-.89-.16-.89-.55V10.7H26.55v3.83Z"/><path class="cls-2" d="M20.35,14.56V11.93c0-.67.48-1.08,1.4-1.2l.3,0h2.1l.31,0c.92.13,1.39.53,1.39,1.2v2.63a1,1,0,0,1-.65,1l1.09,1H25l-.88-.8-.89.05H22a2.59,2.59,0,0,1-.64-.08c-.7-.2-1.05-.57-1.05-1.18Zm1.2-.06a.67.67,0,0,0,0,.11c.06.31.35.48.79.48h1l-.92-.83h1.28l.81.73a.53.53,0,0,0,.28-.36.49.49,0,0,0,0-.11V12a.41.41,0,0,0,0-.1c-.06-.29-.35-.45-.78-.45H22.36c-.49,0-.81.21-.81.55v2.5Z"/></svg>