<svg id="Calque_1" data-name="Calque 1" xmlns="http://www.w3.org/2000/svg" viewBox="0 0 135.07 162.7"><defs><style>.cls-1{fill:#fff;}</style></defs><title>symfony</title><g id="carré"><path d="M122.25,56.08A56.08,56.08,0,1,1,66.16,0,56.09,56.09,0,0,1,122.25,56.08Z"/><path class="cls-1" d="M90.69,20.75C85,20.94,80,24.09,76.31,28.43a48.46,48.46,0,0,0-8.79,16.18C64,41.73,61.3,38,55.66,36.38a14.5,14.5,0,0,0-13.15,2.4,11.78,11.78,0,0,0-4,5.86c-1.69,5.5,1.78,10.4,3.35,12.15l3.45,3.69a5.23,5.23,0,0,1,1.58,5.32c-.9,2.95-4.45,4.85-8.09,3.73-1.63-.5-4-1.71-3.44-3.41a14.81,14.81,0,0,1,1-1.82,8.77,8.77,0,0,0,.44-1.14c.67-2.17-.25-5-2.57-5.71-2.17-.67-4.39-.14-5.25,2.65-1,3.17.54,8.93,8.68,11.44,9.53,2.93,17.6-2.26,18.74-9,.72-4.24-1.19-7.39-4.7-11.44l-2.86-3.16A5.21,5.21,0,0,1,48.28,41c1.51-1.91,3.66-2.73,7.19-1.77,5.15,1.4,7.44,5,11.27,7.85-1.58,5.19-2.61,10.39-3.55,15.06l-.57,3.48c-2.74,14.35-4.83,22.24-10.26,26.76a8.8,8.8,0,0,1-5,2,1.44,1.44,0,0,1-1.65-1.19c0-.86.7-1.26,1.19-1.65a3,3,0,0,0,1.75-3.16,4.76,4.76,0,0,0-5.11-4.54,5.92,5.92,0,0,0-5.5,6c.13,4,3.83,6.94,9.4,6.75,3-.1,9.63-1.31,16.19-9.11C71.24,78.56,73.38,68.32,75,60.82l1.79-9.9c1,.12,2.06.2,3.22.23,9.5.2,14.26-4.72,14.33-8.3,0-2.17-1.42-4.3-3.48-4.25a4,4,0,0,0-3.76,3.06c-.44,2,3,3.8.32,5.55-1.92,1.24-5.36,2.12-10.21,1.41l.88-4.87c1.8-9.24,4-20.6,12.44-20.88.61,0,2.86,0,2.91,1.51,0,.49-.11.62-.69,1.76a4,4,0,0,0-.79,2.5c.08,2.36,1.87,3.91,4.47,3.82,3.47-.12,4.47-3.5,4.41-5.23C100.68,23.14,96.38,20.56,90.69,20.75Z"/><path d="M87,135.52c5.66,0,9.47,4.09,9.47,9.76a9.49,9.49,0,1,1-19,0C77.49,139.61,81.28,135.52,87,135.52Zm0,16.74c4,0,5.81-3.65,5.81-7,0-3.54-2.15-7-5.81-7s-5.85,3.44-5.85,7C81.14,148.6,82.93,152.25,87,152.25Z"/><path d="M77,137.25V136H72.08v-1.77c0-2.52.36-4.42,3.32-4.42h.18a1.48,1.48,0,0,0,1.55-1.43l.06-1.12a14,14,0,0,0-2.3-.22c-5.08,0-6.25,3-6.25,7.49V136H64.26v1.45a1.55,1.55,0,0,0,1.54,1.33h2.85v15.86h1.9a1.56,1.56,0,0,0,1.54-1.35V138.73h3.44A1.55,1.55,0,0,0,77,137.25Z"/><path d="M31.26,136h0a2,2,0,0,0-1.73,1.17l-4.73,14.25h-.07l-4.62-14.24A2,2,0,0,0,18.35,136H15.94l6.32,17.4a10.23,10.23,0,0,1,.66,2c0,.37-1,4.6-4.1,4.6h-.23a1.45,1.45,0,0,0-1.51,1.35L17,162.45a11.33,11.33,0,0,0,2.34.26c4.53,0,5.88-4.13,7.16-7.71l6.87-19H31.26Z"/><path d="M9.42,139.74c-2.84-1.45-5.94-2.44-6-5.36,0-3.1,2.86-3.92,5.06-3.91h0a11,11,0,0,1,2.46.26h0a1.48,1.48,0,0,0,1.54-1.33l.06-1.13a18.19,18.19,0,0,0-4.25-.54c-4.78,0-8.32,2.43-8.33,7,0,4,2.71,5.56,5.61,7s6,2.5,6,5.81S8.26,152.24,6,152.24a14.12,14.12,0,0,1-4-.73c-.77-.13-1.4.55-1.5,1.45l-.1,1a17,17,0,0,0,5.16,1h0c5.35,0,9.51-2.17,9.52-7.71C15,143,12.31,141.21,9.42,139.74Z"/><path d="M61.38,154.59h0a1.56,1.56,0,0,0,1.52-1.21V142.64c0-4.06-1.72-7.13-6.47-7.13a6.64,6.64,0,0,0-5.77,3.62,5.51,5.51,0,0,0-5.3-3.62,6.29,6.29,0,0,0-5.92,3.14h-.07V137.5A1.56,1.56,0,0,0,37.81,136H36.15v18.64H38A1.56,1.56,0,0,0,39.57,153a.13.13,0,0,1,0,0V145.2c0-3.47,1.39-6.91,4.89-6.91,2.78,0,3.33,2.89,3.33,5.19v11.11H49.7a1.55,1.55,0,0,0,1.54-1.42v-8c0-3.47,1.39-6.91,4.9-6.91,2.78,0,3.33,2.89,3.33,5.19v11.11h1.91Z"/><path d="M114.46,154.59h0A1.56,1.56,0,0,0,116,153.1v-9.58c0-5-2.16-8-7-8a6.7,6.7,0,0,0-6.1,3.4h-.07v-1.39h0A1.56,1.56,0,0,0,101.3,136H99.53v18.64h1.89a1.55,1.55,0,0,0,1.54-1.43V146c0-4.53,1.76-7.67,5.66-7.67,3,.18,3.95,2.3,3.95,6.65v9.65h1.88Z"/><path d="M133,136h0a2,2,0,0,0-1.73,1.17l-4.73,14.25h-.08l-4.62-14.24A2,2,0,0,0,120,136h-2.41l6.32,17.4a10.38,10.38,0,0,1,.66,2c0,.37-1,4.6-4.1,4.6h-.23a1.45,1.45,0,0,0-1.51,1.35l-.09,1.19a11.32,11.32,0,0,0,2.34.26c4.53,0,5.88-4.13,7.16-7.71l6.87-19H133Z"/></g></svg>