<svg id="Calque_1" data-name="Calque 1" xmlns="http://www.w3.org/2000/svg" viewBox="0 0 799.48 256"><defs><style>.cls-1{fill:#007acc;}.cls-2{fill:#fff;}</style></defs><title>typescript</title><path class="cls-1" d="M351.29,141.56H324.73v82.28H313.88V141.56h-26.4v-9.72h63.82Zm50,16.52-30.29,76.29c-5.35,13.61-13,20.41-22.68,20.41a26,26,0,0,1-6.8-.81v-9.39a18.46,18.46,0,0,0,6.16,1.13c5.35,0,9.23-3.24,12-9.56l5.18-12.47-25.59-65.6H351l17.82,50.54c.16.65.65,2.27,1.3,5h.32c.16-1,.65-2.59,1.3-4.86l18.63-50.7Zm17.17,56.2h-.32V254H407.66V158.08h10.53v11.5h.32c5.18-8.75,12.8-13.12,22.68-13.12,8.42,0,15.06,2.92,19.76,8.75s7.13,13.77,7.13,23.65c0,11-2.75,19.76-8.1,26.4s-12.63,9.88-21.87,9.88c-8.26.32-14.9-3.4-19.6-10.85Zm-.16-26.4v9.23a19.07,19.07,0,0,0,5.35,13.77,17.72,17.72,0,0,0,13.44,5.67,18,18,0,0,0,15.06-7.29q5.35-7.29,5.35-20.41c0-7.29-1.62-13.12-5-17.17-3.4-4.21-7.94-6.16-13.77-6.16-6.16,0-11,2.11-14.74,6.32-3.89,4.21-5.67,9.56-5.67,16Zm114.19,5.67H486.22q.24,10.93,5.83,17c3.73,4,8.91,6,15.55,6A32.17,32.17,0,0,0,528,209.26v9.88q-8.75,6.32-22.84,6.32c-9.23,0-16.52-2.92-21.87-8.91s-7.94-14.42-7.94-25.11c0-10.2,2.92-18.63,8.75-24.94a27.77,27.77,0,0,1,21.54-9.72c8.58,0,15.23,2.75,19.92,8.42,4.7,5.51,7.13,13.28,7.13,23.16l-.16,5.18Zm-10.85-8.91c0-6.16-1.46-10.85-4.37-14.25s-7-5-12-5a16.76,16.76,0,0,0-12.63,5.35,24.87,24.87,0,0,0-6.48,13.93Zm16,36v-7.29c6.64,4.21,13.28,6.32,20.08,6.32,7.13,0,12.63-1.46,16.36-4.54s5.51-7.13,5.51-12.47A17.06,17.06,0,0,0,576,191.29c-2.43-2.75-7.94-6.64-16.2-11.5-9.39-5.51-15.23-10-17.66-13.61a22.68,22.68,0,0,1-3.73-12.63A21.53,21.53,0,0,1,546,137c5-4.54,11.82-6.8,20.25-6.8A51.76,51.76,0,0,1,582.59,133v6.64a41.62,41.62,0,0,0-17.33-3.73c-6.32,0-11.18,1.62-14.9,4.7a15,15,0,0,0-5.51,12c0,4.7,1.3,8.42,3.73,11.18s7.94,6.64,16.2,11.34c8.58,4.86,14.25,9.23,17.17,13a20.54,20.54,0,0,1,4.21,13.12,22.51,22.51,0,0,1-7.29,17.33C574,223,567,225.14,558.14,225.14a49.11,49.11,0,0,1-11-1.46c-4.21-1-7.29-1.78-9.39-3.08Zm103.18.32a33.44,33.44,0,0,1-17.49,4.54c-8.91,0-16.2-3.08-21.7-9.23s-8.26-14.09-8.26-24.13c0-10.37,3.08-19,9.23-25.59s14.09-10,23.81-10a35.18,35.18,0,0,1,14.58,3.08v6.64a28.76,28.76,0,0,0-15.39-4.37c-7.77,0-13.93,2.75-18.79,8.26s-7.13,12.8-7.13,21.54c0,8.58,2.27,15.39,6.64,20.57s10.2,7.77,17.33,7.77a29.11,29.11,0,0,0,17.17-5.18v6.16Zm39.2-56.69a11.12,11.12,0,0,0-7-2.11c-5.18,0-9.56,2.75-13,8.1-3.56,5.35-5.18,13-5.18,22.84V224h-5.83V158.08H655v14.58h.32A23.48,23.48,0,0,1,662.45,161a16.94,16.94,0,0,1,11.34-4.21,16,16,0,0,1,6.48,1.13v6.32Zm9.39-22.68a4.66,4.66,0,0,1-3.4-1.46,4.76,4.76,0,0,1-1.46-3.56,4.18,4.18,0,0,1,1.46-3.4,5.23,5.23,0,0,1,3.4-1.3,6,6,0,0,1,3.56,1.3,4.18,4.18,0,0,1,1.46,3.4,5,5,0,0,1-1.46,3.56A5.31,5.31,0,0,1,689.5,141.56Zm-2.92,82.28V158.08h5.83v65.76Zm26.08-11.66h-.32v42H706.5V158.08h5.83v13.61h.32a26,26,0,0,1,10-11.18,27.9,27.9,0,0,1,14.42-3.89c8.42,0,14.9,2.92,19.6,8.58,4.7,5.83,7,13.61,7,23.49,0,11-2.75,19.92-8.1,26.73a25.72,25.72,0,0,1-21.22,10.2C724.64,225.46,717.36,221.09,712.66,212.18Zm-.32-24.46V196a25.23,25.23,0,0,0,6.15,17,20.86,20.86,0,0,0,16.36,7.13c6.64,0,12.15-2.92,16.36-8.58,4.21-5.83,6.32-13.28,6.32-22.68,0-8.26-1.94-14.74-5.83-19.6A18.6,18.6,0,0,0,736.31,162c-7.61,0-13.61,2.59-17.82,7.77A27.24,27.24,0,0,0,712.33,187.72Zm87.14,35.15a20.18,20.18,0,0,1-8.58,2.11q-14.58,0-14.58-17.49V163.59H764.49v-5.35h11.82V141.07l2.92-1,2.92-1v19.11h17.33v5.35H782.15V207c0,4.54.65,7.77,2.11,9.88s3.89,3.08,7.29,3.08a16.48,16.48,0,0,0,7.94-2.43v5.35Z"/><polygon class="cls-1" points="0 128 0 256 128 256 256 256 256 128 256 0 128 0 0 0 0 128"/><path class="cls-2" d="M56.61,128.85l-.08,10.48H89.85V234h23.57V139.33h33.32V129.05a100.74,100.74,0,0,0-.28-10.57c-.12-.16-20.4-.24-45-.2l-44.74.12Z"/><path class="cls-2" d="M206.57,118.11a31.87,31.87,0,0,1,16,9.22c2.36,2.52,5.85,7.11,6.14,8.21.08.33-11.05,7.8-17.8,12-.24.16-1.22-.89-2.32-2.52-3.29-4.79-6.75-6.87-12-7.23-7.76-.53-12.76,3.54-12.72,10.32a9.39,9.39,0,0,0,1.1,4.79c1.71,3.54,4.88,5.65,14.83,10,18.33,7.88,26.17,13.08,31,20.48,5.45,8.25,6.66,21.41,3,31.21-4.06,10.65-14.14,17.88-28.32,20.28-4.39.77-14.79.65-19.5-.2-10.28-1.83-20-6.91-26-13.57-2.36-2.6-6.95-9.39-6.66-9.87a19.12,19.12,0,0,1,2.36-1.5c1.14-.65,5.45-3.13,9.51-5.49l7.35-4.27,1.54,2.28c2.15,3.29,6.87,7.8,9.71,9.31,8.17,4.31,19.38,3.7,24.91-1.26A11.13,11.13,0,0,0,210.06,196c-2-2.84-6.05-5.24-17.59-10.24-13.21-5.69-18.9-9.22-24.1-14.83a33.76,33.76,0,0,1-7-12.8c-1-3.62-1.22-12.68-.45-16.34,2.72-12.76,12.35-21.66,26.25-24.3C191.65,116.69,202.14,117,206.57,118.11Z"/></svg>