<svg xmlns="http://www.w3.org/2000/svg" viewBox="0 0 425 456.34"><defs><style>.cls-1{fill:#ff2bc2;}.cls-2{fill:#2e001e;}</style></defs><title>xd</title><g id="Layer_1" data-name="Layer 1"><path class="cls-1" d="M16.63,438.56H7.7v5.76h10v4.5H2.2V424.56h15v4.5H7.7v5h8.93Z"/><path class="cls-1" d="M25.41,431.21l1.73,2.92c.5.9,1,1.8,1.44,2.63h.07c.47-.94.9-1.84,1.37-2.7l1.55-2.84h5.94l-5.79,8.39,5.87,9.21H31.39l-1.76-3.17c-.5-.86-.94-1.76-1.37-2.66h-.11c-.43.94-.9,1.8-1.33,2.66l-1.66,3.17h-6l6-9-5.83-8.64Z"/><path class="cls-1" d="M39.92,437.12c0-2.3-.07-4.28-.14-5.9h4.75l.25,2.45h.07a6.76,6.76,0,0,1,5.87-2.84c3.85,0,7.31,3.35,7.31,9,0,6.41-4.07,9.43-8,9.43a5.47,5.47,0,0,1-4.57-2h-.07v8.75H39.92Zm5.47,4.14a5.43,5.43,0,0,0,.11,1.15,3.31,3.31,0,0,0,3.2,2.59c2.38,0,3.78-2,3.78-5,0-2.81-1.26-4.93-3.71-4.93a3.44,3.44,0,0,0-3.28,2.77,4.21,4.21,0,0,0-.11,1Z"/><path class="cls-1" d="M65.77,441.76c.18,2.27,2.41,3.35,5,3.35a15.51,15.51,0,0,0,4.86-.72l.72,3.71a17.38,17.38,0,0,1-6.37,1.08c-6,0-9.4-3.46-9.4-9,0-4.46,2.77-9.4,8.89-9.4,5.69,0,7.85,4.43,7.85,8.78a13.1,13.1,0,0,1-.18,2.16ZM72.21,438c0-1.33-.58-3.56-3.1-3.56-2.3,0-3.24,2.09-3.38,3.56Z"/><path class="cls-1" d="M80.57,437c0-2.59-.07-4.28-.14-5.79h4.72l.18,3.24h.14a5.17,5.17,0,0,1,4.75-3.64,5.61,5.61,0,0,1,1.15.07V436a7.8,7.8,0,0,0-1.48-.14,3.52,3.52,0,0,0-3.74,2.77,6.42,6.42,0,0,0-.11,1.22v8.93H80.57Z"/><path class="cls-1" d="M99.9,426.32a2.75,2.75,0,0,1-3,2.74,2.76,2.76,0,1,1,0-5.51A2.74,2.74,0,0,1,99.9,426.32Zm-5.65,22.5v-17.6h5.47v17.6Z"/><path class="cls-1" d="M108.32,441.76c.18,2.27,2.41,3.35,5,3.35a15.51,15.51,0,0,0,4.86-.72l.72,3.71a17.38,17.38,0,0,1-6.37,1.08c-6,0-9.4-3.46-9.4-9,0-4.46,2.77-9.4,8.89-9.4,5.69,0,7.85,4.43,7.85,8.78a13.1,13.1,0,0,1-.18,2.16Zm6.44-3.74c0-1.33-.58-3.56-3.1-3.56-2.3,0-3.24,2.09-3.38,3.56Z"/><path class="cls-1" d="M123.12,436.83c0-2.2-.07-4.07-.14-5.62h4.75l.25,2.41h.11a6.44,6.44,0,0,1,5.44-2.81c3.6,0,6.3,2.38,6.3,7.56v10.44h-5.47v-9.75c0-2.27-.79-3.82-2.77-3.82a2.92,2.92,0,0,0-2.77,2.05,3.77,3.77,0,0,0-.22,1.37v10.15h-5.47Z"/><path class="cls-1" d="M157.42,448.38a13.35,13.35,0,0,1-4.9.79c-5.69,0-9.32-3.46-9.32-9,0-5.15,3.53-9.36,10.08-9.36a12.68,12.68,0,0,1,4.18.68l-.86,4.07a7.48,7.48,0,0,0-3.06-.54,4.93,4.93,0,0,0,.11,9.86,8.43,8.43,0,0,0,3.13-.54Z"/><path class="cls-1" d="M164.26,441.76c.18,2.27,2.41,3.35,5,3.35a15.51,15.51,0,0,0,4.86-.72l.72,3.71a17.38,17.38,0,0,1-6.37,1.08c-6,0-9.4-3.46-9.4-9,0-4.46,2.77-9.4,8.89-9.4,5.69,0,7.85,4.43,7.85,8.78a13.1,13.1,0,0,1-.18,2.16Zm6.44-3.74c0-1.33-.58-3.56-3.1-3.56-2.3,0-3.24,2.09-3.38,3.56Z"/><path class="cls-1" d="M186.51,424.88a48.93,48.93,0,0,1,7.42-.5c4.61,0,7.59.83,9.93,2.59,2.52,1.87,4.1,4.86,4.1,9.14,0,4.64-1.69,7.85-4,9.83-2.56,2.12-6.44,3.13-11.2,3.13a47.36,47.36,0,0,1-6.23-.36Zm5.51,19.8a10.06,10.06,0,0,0,1.91.11c5,0,8.21-2.7,8.21-8.5,0-5-2.92-7.7-7.63-7.7a11.45,11.45,0,0,0-2.48.22Z"/><path class="cls-1" d="M215.6,441.76c.18,2.27,2.41,3.35,5,3.35a15.51,15.51,0,0,0,4.86-.72l.72,3.71a17.38,17.38,0,0,1-6.37,1.08c-6,0-9.4-3.46-9.4-9,0-4.46,2.77-9.4,8.89-9.4,5.69,0,7.85,4.43,7.85,8.78a13.1,13.1,0,0,1-.18,2.16ZM222,438c0-1.33-.58-3.56-3.1-3.56-2.3,0-3.24,2.09-3.38,3.56Z"/><path class="cls-1" d="M230.36,444a10.7,10.7,0,0,0,4.71,1.33c1.66,0,2.34-.58,2.34-1.48s-.54-1.33-2.59-2c-3.64-1.22-5-3.2-5-5.29,0-3.28,2.81-5.76,7.16-5.76a11.8,11.8,0,0,1,5,1l-1,3.78a8.63,8.63,0,0,0-3.82-1c-1.33,0-2.09.54-2.09,1.44s.68,1.26,2.84,2c3.35,1.15,4.75,2.84,4.79,5.44,0,3.28-2.59,5.69-7.63,5.69a12.45,12.45,0,0,1-5.69-1.22Z"/><path class="cls-1" d="M251.67,426.32a2.75,2.75,0,0,1-3,2.74,2.76,2.76,0,1,1,0-5.51A2.74,2.74,0,0,1,251.67,426.32ZM246,448.82v-17.6h5.47v17.6Z"/><path class="cls-1" d="M272.69,431.21c-.07,1.12-.14,2.59-.14,5.22v9.83c0,3.38-.68,6.16-2.66,7.92a10.86,10.86,0,0,1-7.16,2.16,13.73,13.73,0,0,1-6.34-1.37l1.08-4.14a10.82,10.82,0,0,0,5.11,1.33c2.59,0,4.57-1.4,4.57-4.64v-1.15h-.07a5.63,5.63,0,0,1-4.75,2.3c-4.36,0-7.45-3.53-7.45-8.6,0-5.65,3.67-9.25,8-9.25a5.3,5.3,0,0,1,4.82,2.48h.07l.18-2.09Zm-5.62,7.16a4.31,4.31,0,0,0-.11-1,3,3,0,0,0-3-2.41c-2,0-3.6,1.8-3.6,5,0,2.63,1.3,4.68,3.6,4.68a3,3,0,0,0,2.88-2.23,4.63,4.63,0,0,0,.18-1.44Z"/><path class="cls-1" d="M276.94,436.83c0-2.2-.07-4.07-.14-5.62h4.75l.25,2.41h.11a6.44,6.44,0,0,1,5.44-2.81c3.6,0,6.3,2.38,6.3,7.56v10.44h-5.47v-9.75c0-2.27-.79-3.82-2.77-3.82a2.92,2.92,0,0,0-2.77,2.05,3.77,3.77,0,0,0-.22,1.37v10.15h-5.47Z"/></g><g id="Layer_2" data-name="Layer 2"><rect class="cls-2" x="17.71" y="17.71" width="389.58" height="378.96"/><path class="cls-1" d="M0,0V414.38H425V0ZM17.71,17.71H407.29v379H17.71Z"/><path class="cls-1" d="M308.66,174.07c-2.66-1.24-6-1.77-10.27-1.77-22.31,0-37.19,17.18-37.19,45.69,0,32.58,15.23,45.69,35.06,45.69,4.25,0,8.85-.53,12.22-1.95V174.07Zm-79.33,45.33c0-41.26,26.56-73.49,70.13-73.49a78.53,78.53,0,0,1,9.21.35v-46a1.77,1.77,0,0,1,1.77-1.77h28.51c1.42,0,1.77.53,1.77,1.42V261.73a126.13,126.13,0,0,0,.89,17.35c0,1.24,0,1.42-1.06,1.95A105.48,105.48,0,0,1,295.2,291.3C256.77,291.3,229.32,267.57,229.32,219.41Zm-60.39-28.69,49.58,96.16c.89,1.42.35,2.83-1.06,2.83H186.65a3.47,3.47,0,0,1-3.72-2.3q-17-35.06-34.71-72.78h-.35c-10.62,23.73-22.31,49.58-33.65,73a3.4,3.4,0,0,1-3.19,1.95H81.64c-1.77,0-1.95-1.42-1.06-2.48l48.52-93.32L82.17,100.94a1.57,1.57,0,0,1,1.24-2.66h30.46c1.77,0,2.66.35,3.19,1.95,11.16,23.55,22.49,46.75,33.11,70.48h.35c10.27-23.37,21.6-46.93,32.41-70.12.89-1.42,1.42-2.3,3.19-2.3h28.51c1.42,0,1.95,1.06,1.06,2.66Z"/></g></svg>