<svg xmlns="http://www.w3.org/2000/svg" viewBox="0 0 91 95"><defs><style>.cls-1{fill:#69c;}.cls-2{fill:#6c9;}.cls-3{fill:#62b2b0;}.cls-4{fill:#d8746a;}.cls-5{fill:none;stroke:#d8746a;stroke-miterlimit:10;}</style></defs><title>design</title><g id="prototype"><rect class="cls-1" y="2" width="38" height="58"/><rect class="cls-1" x="53" y="2" width="38" height="58"/><rect class="cls-2" x="5" y="11" width="28" height="5"/><rect class="cls-2" x="58" y="11" width="28" height="5"/><rect class="cls-2" x="5" y="18" width="28" height="20"/><rect class="cls-2" x="58" y="18" width="12" height="12"/><polygon class="cls-2" points="58 33 58 51 86 51 86 18 73 18 73 33 58 33"/><rect class="cls-2" x="5" y="40" width="8.13" height="8"/><rect class="cls-2" x="14.94" y="40" width="8.13" height="8"/><rect class="cls-2" x="24.87" y="40" width="8.13" height="8"/><rect class="cls-2" x="5" y="50" width="8.13" height="8"/><rect class="cls-2" x="14.94" y="50" width="8.13" height="8"/><rect class="cls-2" x="24.87" y="50" width="8.13" height="8"/><rect class="cls-3" y="2" width="38" height="7"/><rect class="cls-3" x="53" y="2" width="38" height="7"/></g><g id="link"><circle class="cls-4" cx="29" cy="44" r="2"/><circle class="cls-4" cx="53" cy="2" r="2"/><path class="cls-5" d="M33,46c8.94-1.3,12.73-4.6,14.5-7.5,4-6.52-.72-13.48,3-24A30,30,0,0,1,57,4" transform="translate(-4 -2)"/></g><g id="rgb"><path class="cls-4" d="M8.59,88.73A15,15,0,0,1,22,67V82Z" transform="translate(-4 -2)"/><path class="cls-1" d="M8.59,88.73a15,15,0,0,0,26.82,0L22,82Z" transform="translate(-4 -2)"/><path class="cls-2" d="M35.41,88.73A15,15,0,0,0,22,67V82Z" transform="translate(-4 -2)"/></g><g id="bands"><rect class="cls-1" x="43" y="72" width="16" height="16"/><rect class="cls-3" x="59" y="72" width="16" height="16"/><rect class="cls-2" x="75" y="72" width="16" height="16"/></g></svg>