<?xml version="1.0" encoding="utf-8"?>
<!-- Generator: Adobe Illustrator 22.1.0, SVG Export Plug-In . SVG Version: 6.00 Build 0)  -->
<svg version="1.1" xmlns="http://www.w3.org/2000/svg" xmlns:xlink="http://www.w3.org/1999/xlink" x="0px" y="0px"
	 viewBox="0 0 300 300" style="enable-background:new 0 0 300 300;" xml:space="preserve">
<style type="text/css">
	.st0{fill-rule:evenodd;clip-rule:evenodd;fill:#EAEAEA;}
	.st1{fill:#66CC99;}
	.st2{fill:#EAEAEA;}
	.st3{fill:#62B2B0;}
	.st4{fill:#D8746A;}
	.st5{fill:#CC9D14;}
</style>
<g id="Layer_1">
	<g>
		<path class="st0" d="M77.8,277.3c100.2-34,127.8-61.9,127.2-83.5c-0.8-34.1-71.1-47.8-72-82.8c-0.8-30.7,52.1-58.5,112-80.6h-23.3
			c-59.9,22.1-112.9,49.9-112,80.6c0.9,35,71.2,48.8,72,82.8c0.5,21.7-27,49.5-127.2,83.5H77.8z"/>
	</g>
</g>
<g id="Layer_3">
	<path class="st1" d="M60.7,259.5c-9.8,0-17.7,7.9-17.7,17.7c0,9.8,7.9,17.7,17.7,17.7s17.7-7.9,17.7-17.7
		C78.5,267.5,70.5,259.5,60.7,259.5z M62.5,290.5c-8.7,1.1-16-6.2-14.9-14.9c0.7-5.9,5.5-10.7,11.5-11.5c8.7-1.1,16,6.2,14.9,14.9
		C73.2,284.9,68.4,289.7,62.5,290.5z"/>
	<path class="st2" d="M59.9,264c-8.7,0.6-14.5,9.2-11.7,17.6c1.9,5.7,7.5,9.4,13.5,9c8.7-0.6,14.5-9.2,11.7-17.6
		C71.4,267.3,65.8,263.6,59.9,264z"/>
	<path class="st3" d="M191.5,177.5c-9.8,0-17.7,7.9-17.7,17.7s7.9,17.7,17.7,17.7c9.8,0,17.7-7.9,17.7-17.7S201.3,177.5,191.5,177.5
		z M193.3,208.4c-8.7,1.1-16-6.2-14.9-14.9c0.7-5.9,5.5-10.7,11.5-11.5c8.7-1.1,16,6.2,14.9,14.9C204,202.9,199.2,207.7,193.3,208.4
		z"/>
	<path class="st2" d="M193.3,182c-8.7-1.1-16,6.2-14.9,14.9c0.7,5.9,5.5,10.7,11.5,11.5c8.7,1.1,16-6.2,14.9-14.9
		C204,187.6,199.2,182.8,193.3,182z"/>
	<path class="st4" d="M121.7,89.9c-9.8,0-17.7,7.9-17.7,17.7s7.9,17.7,17.7,17.7s17.7-7.9,17.7-17.7S131.5,89.9,121.7,89.9z
		 M123.4,120.9c-8.7,1.1-16-6.2-14.9-14.9c0.7-5.9,5.5-10.7,11.5-11.5c8.7-1.1,16,6.2,14.9,14.9
		C134.2,115.3,129.4,120.1,123.4,120.9z"/>
	<path class="st2" d="M123.4,94.5c-8.7-1.1-16,6.2-14.9,14.9c0.7,5.9,5.5,10.7,11.5,11.5c8.7,1.1,16-6.2,14.9-14.9
		C134.2,100,129.4,95.2,123.4,94.5z"/>
	<polygon class="st5" points="191.7,189.2 193.7,193.2 198.2,193.9 195,197.1 195.7,201.5 191.7,199.4 187.7,201.5 188.5,197.1 
		185.2,193.9 189.7,193.2 	"/>
	<path class="st1" d="M239.2,9c-9.8,0-17.7,7.9-17.7,17.7s7.9,17.7,17.7,17.7c9.8,0,17.7-7.9,17.7-17.7S249,9,239.2,9z M240.9,39.9
		c-8.7,1.1-16-6.2-14.9-14.9c0.7-5.9,5.5-10.7,11.5-11.5c8.7-1.1,16,6.2,14.9,14.9C251.7,34.4,246.9,39.2,240.9,39.9z"/>
	<path class="st2" d="M240.9,13.5c-8.7-1.1-16,6.2-14.9,14.9c0.7,5.9,5.5,10.7,11.5,11.5c8.7,1.1,16-6.2,14.9-14.9
		C251.7,19.1,246.9,14.3,240.9,13.5z"/>
	<g>
		<path class="st5" d="M231.6,26.7c0-1.1,0.7-1.8,1.7-1.8s1.7,0.7,1.7,1.8c0,1-0.7,1.8-1.7,1.8C232.2,28.5,231.6,27.8,231.6,26.7z"
			/>
		<path class="st5" d="M237.5,26.7c0-1.1,0.7-1.8,1.7-1.8s1.7,0.7,1.7,1.8c0,1-0.7,1.8-1.7,1.8C238.2,28.5,237.5,27.8,237.5,26.7z"
			/>
		<path class="st5" d="M243.4,26.7c0-1.1,0.7-1.8,1.7-1.8s1.7,0.7,1.7,1.8c0,1-0.7,1.8-1.7,1.8C244.1,28.5,243.4,27.8,243.4,26.7z"
			/>
	</g>
	<g>
		<path class="st4" d="M120.8,113.1c0-0.7,0.5-1.2,1.1-1.2c0.7,0,1.1,0.5,1.1,1.2c0,0.7-0.4,1.2-1.1,1.2
			C121.3,114.3,120.8,113.8,120.8,113.1z M121.3,110.4l-0.3-9.1h1.8l-0.3,9.1H121.3z"/>
	</g>
</g>
<g id="Layer_2">
</g>
</svg>
