<svg xmlns="http://www.w3.org/2000/svg" viewBox="0 0 96.3 99"><defs><style>.cls-1{fill:#69c;}.cls-2{fill:#6c9;}.cls-3{fill:#62b2b0;}.cls-4{fill:none;stroke:#69c;stroke-miterlimit:10;}</style></defs><title>london</title><g id="tower_br_r"><path class="cls-1" d="M100,88.5c-9.65,0-17.5-9.2-17.5-20.5h1c0,10.75,7.4,19.5,16.5,19.5Z" transform="translate(-3.7 -1)"/><rect class="cls-2" x="65.15" y="62.92" width="15.15" height="35.84"/><polygon class="cls-1" points="77.22 62.92 68.19 62.92 72.8 45 72.8 45 77.22 62.92"/><rect class="cls-2" x="65.15" y="56.4" width="3.97" height="6.74"/><polygon class="cls-1" points="69.11 56.4 65.15 56.4 67.21 49.34 67.21 49.34 69.11 56.4"/><rect class="cls-2" x="76.33" y="56.4" width="3.97" height="6.74"/><polygon class="cls-1" points="80.3 56.4 76.34 56.4 78.4 49.34 78.4 49.34 80.3 56.4"/><rect class="cls-1" x="41.3" y="65" width="24" height="5"/></g><g id="tower_br_l"><rect class="cls-2" x="26.15" y="62.92" width="15.15" height="35.84"/><polygon class="cls-1" points="38.22 62.92 29.19 62.92 33.8 45 33.8 45 38.22 62.92"/><rect class="cls-2" x="26.15" y="56.4" width="3.97" height="6.74"/><polygon class="cls-1" points="30.11 56.4 26.15 56.4 28.21 49.34 28.21 49.34 30.11 56.4"/><rect class="cls-2" x="37.33" y="56.4" width="3.97" height="6.74"/><polygon class="cls-1" points="41.3 56.4 37.34 56.4 39.4 49.34 39.4 49.34 41.3 56.4"/></g><g id="bigben"><rect class="cls-3" x="2.15" y="74.64" width="27.9" height="24.36"/><rect class="cls-3" y="50.42" width="32.2" height="24.22"/><rect class="cls-3" x="4.29" y="42.34" width="23.61" height="8.07"/><polygon class="cls-1" points="27.91 42.34 4.29 42.34 6.44 32.25 25.76 32.25 27.91 42.34"/><rect class="cls-3" x="8.59" y="22.16" width="15.03" height="10.09"/><polygon class="cls-1" points="24.37 22.16 7.75 22.16 16.25 0 16.25 0 24.37 22.16"/></g><g id="clock"><circle class="cls-2" cx="16.25" cy="62.78" r="9.6"/><rect class="cls-1" x="17.23" y="59.05" width="1" height="5.77" transform="translate(-44.9 34.91) rotate(-50.2)"/><rect class="cls-1" x="15.38" y="54.28" width="1" height="8.12"/><circle class="cls-4" cx="15.88" cy="62.41" r="0.74"/></g><g id="Layer_5" data-name="Layer 5"><path class="cls-1" d="M71,45H67.31A37.4,37.4,0,0,0,30,7.64V4A41,41,0,0,1,71,45Z" transform="translate(-3.7 -1)"/><ellipse class="cls-3" cx="32.63" cy="13.93" rx="6.83" ry="5.01"/><ellipse class="cls-3" cx="47.67" cy="22.59" rx="6.83" ry="5.01"/><ellipse class="cls-3" cx="54.96" cy="37.17" rx="6.83" ry="5.01"/></g></svg>