<svg id="Layer_1" data-name="Layer 1" xmlns="http://www.w3.org/2000/svg" viewBox="0 0 142.44 176.16"><defs><style>.cls-1{fill:#346767;}.cls-2{fill:#6fbe95;}.cls-3{fill:#f0d6bb;}.cls-4{fill:#1d1d1b;}.cls-5{fill:#fff;}.cls-6{fill:#3e3121;}.cls-7{fill:#c59780;opacity:0.5;}.cls-8{fill:#2c0d0f;stroke:#1d1d1b;stroke-miterlimit:10;}.cls-9{fill:#333;opacity:0.32;}</style></defs><title>photo</title><path class="cls-1" d="M63.73,149.29c-1.48-3.83-4-19.55-3-23.64,1.16-4.64,1.25-3,3.65-7.84.53-1.06-3.44-4.66-6.17-7.48l1.71-1c2.53-2.25,5.28-6,6.8-12.4h0a78.47,78.47,0,0,1,7.85-1.18l.36,0,.35-.09c5.67-1.42,9.1-3.73,10.48-7.07a7.64,7.64,0,0,0,0-6c-.07-.2-.11-.38-.15-.53a7.74,7.74,0,0,0,2-5.36c0-.09-.49-1-.5-1.05h0c.43-.78,1.19-.8,1.36-1.55a1.88,1.88,0,0,0-.19-1.53,2.78,2.78,0,0,1,2-3.83.66.66,0,0,0,.26-.11,7.58,7.58,0,0,0,3.36-7.39l0-.53-.23-.46c-2.73-1.73-3.09-5.17-4.52-6.51a42.1,42.1,0,0,0-4-4.87h0a14.59,14.59,0,0,0-.71-3.56h0a15.09,15.09,0,0,0,.78-7l0-.06.06-.1,3.21,4.28h0l-.17-2.54a2.1,2.1,0,0,1,2.86-2.1l4,1.55h0L90.53,23.69h0A19.27,19.27,0,0,0,79,11.8h0c-.62-1.11-1.95-2.47-5.52-3.86l.4-.76A23.3,23.3,0,0,0,61.38,3.69a27.25,27.25,0,0,0-5.75.62l-1.19-.09-1.9-.71h0l.4-1.92h0A34.92,34.92,0,0,0,43.06,0C33.51,0,28.3,5.3,26.11,9.53h0a20.91,20.91,0,0,0-10,8.82h0C.87,26.25.48,45,.51,47.58-.4,62.12,6.22,74.45,11,81.34h0C8.76,81,6.44,83.18,5.72,84.9c-3.06,7.28-1.48,9.32-4,12.71-3,4-1.12,10.43-.94,11Z"/><path class="cls-2" d="M105.32,176.16c-1.75-4.53-4.71-23.07-3.5-27.9,1.37-5.48,1.47-3.56,4.31-9.25.63-1.25-4.06-5.5-7.28-8.83l2-1.18c3-2.66,6.23-7.14,8-14.63h0a92.6,92.6,0,0,1,9.26-1.39l.43,0,.42-.11c6.69-1.67,10.74-4.4,12.37-8.34a9,9,0,0,0,0-7.06c-.08-.24-.14-.45-.18-.62a9.13,9.13,0,0,0,2.36-6.33c0-.11-.58-1.13-.59-1.24h0c.5-.92,1.41-.94,1.6-1.83a2.21,2.21,0,0,0-.22-1.81,3.28,3.28,0,0,1,2.32-4.52.77.77,0,0,0,.31-.13c2.73-1.61,4.28-4.89,4-8.72l-.05-.63-.27-.54c-3.23-2-3.64-6.1-5.34-7.68a49.67,49.67,0,0,0-4.71-5.75h0a17.21,17.21,0,0,0-.84-4.21h0c1-3.48,1.34-6.13.92-8.28l0-.07.07-.11L134.53,50h0l-.2-3a2.48,2.48,0,0,1,3.37-2.48l4.74,1.83h0L136.94,28h0a22.74,22.74,0,0,0-13.55-14h0c-.73-1.31-2.3-2.91-6.51-4.55l.47-.89a27.49,27.49,0,0,0-14.81-4.12,32.15,32.15,0,0,0-6.78.73L94.35,5l-2.25-.84h0l.47-2.26h0A41.21,41.21,0,0,0,80.92,0c-11.26,0-17.41,6.25-20,11.24h0C54,14.37,50.64,18.76,49.07,21.65h0C31.14,31,30.68,53,30.71,56.14,29.64,73.3,37.45,87.85,43.1,96h0c-2.65-.4-5.39,2.17-6.24,4.19-3.61,8.59-1.75,11-4.75,15-3.56,4.75-1.32,12.3-1.11,13Z"/><path class="cls-3" d="M129.72,67.53l-.1-.12c-1.55-2.65-5.84-7-5.88-7l-.15-.15V60c0-4.91-1-5.22-1-5.22l-1.06.46.46-1.1c2.27-6.24,1.75-8,1.43-8.46a.46.46,0,0,0-.38-.23l-.64.14,0-.65c.21-4.56-4.64-11.24-4.69-11.31l-.08-.16c-1.11-4-3.75-10.29-6.07-10h-.15a123.65,123.65,0,0,0-19.3-1.57c-10.86,0-25.19,1.71-31.84,9.84-3.52,4.31-4.59,10.07-3.16,17.12.34,5.8,3,54.71-.43,61,11.75,8.83,29.68,21.58,33.22,22.26a5.32,5.32,0,0,1-.2-3.65,4.09,4.09,0,0,1,2.53-2.36c.15,0,8-2.09,10.35-16.23.31-1.91,9.12-3.08,14.35-3.61,5.51-1.38,7.32-3.21,7.85-4.5a2.45,2.45,0,0,0,0-2l0-.09c-1.77-5.1-.06-6.46.41-6.73a4.21,4.21,0,0,0,1.2-1.72,2.22,2.22,0,0,1-.79-.69l-.78,0c-1,0-1.91-.09-2.87-.11-1.69,0-2.57.06-3.87-1.15-.38-.36-1.16-1.31-.42-1.72,1.31-.72,2.21-.61,3.71-.66l2.48-.1c.33,0,.67,0,1,0,.73,0,.8-.33,1.22-.77a1.2,1.2,0,0,1,1.54,0,3,3,0,0,0,.1-.63v-.16l.1-.13c1-1.3,0-4.18-.51-5.19l-.22-.46.47-.21a27.1,27.1,0,0,0,5.11-3.79l.09-.08.12,0c1.07-.3,1-2.28,1-2.62C133.17,70.56,129.75,67.56,129.72,67.53ZM91,76.9l-.69.29a3.82,3.82,0,0,0-4.94-2.08,3,3,0,0,1-2.25-.23c-1.15-.59-2-1.88-2.56-3.82l.72-.2a5.11,5.11,0,0,0,2.17,3.35,2.24,2.24,0,0,0,1.67.2A4.6,4.6,0,0,1,91,76.9ZM83,62.76h0a1,1,0,0,0-.69.44l-.56-.67A1.83,1.83,0,0,1,83,61.76h0a3,3,0,0,1,1.75.77,3.51,3.51,0,0,0-.25-.72c-.57-1.14-1.78-1.82-3.6-2L81,59c2.09.24,3.5,1.06,4.18,2.44,1.56,3.13-1.23,7.95-1.35,8.15l-.65-.38a13.63,13.63,0,0,0,1.71-5.39A3.4,3.4,0,0,0,83,62.76ZM74.56,60.9c.48-1.58,2.49-6,4.6-5.78,6,.63,9.51,4.83,9.12,10.82,0,.64-1,.64-1,0,.35-5.33-2.82-9.5-8.27-9.83-.87-.05-2.68,2.92-2.95,3.55a8.73,8.73,0,0,0-.58,5.42,19.48,19.48,0,0,0,3.14,6.83,29,29,0,0,0,8.77,8.48c1.81,1.05,5.2,2.6,5.44-.74a8.39,8.39,0,0,0-.06-2c-.11-.63.86-.9,1-.27.43,2.49-.32,6.3-3.74,5.3C84.43,81,79.09,75.3,76.42,70.26,75,67.51,73.6,64,74.56,60.9Zm14,65a29,29,0,0,0-2-3.16A27.49,27.49,0,0,1,84.17,119c-.65-1.36-1.29-2.73-1.93-4.1s-1.37-2.94-2.08-4.4c-.42-.87-.89-1.77-1.37-2.7-2-3.82-4.24-8.16-4.13-12.34l1,0c-.11,3.92,2.08,8.13,4,11.85.49.94,1,1.85,1.39,2.73.71,1.46,1.4,2.94,2.08,4.42s1.27,2.73,1.93,4.09a26.75,26.75,0,0,0,2.25,3.61,30.12,30.12,0,0,1,2.08,3.27Zm17.84-21a5.89,5.89,0,0,1-2.43-.74c-.33-.15-.65-.31-1-.42l-1.45-.5c-.87-.3-1.75-.59-2.61-.92a16,16,0,0,1-7.09-4.64,19.55,19.55,0,0,1-3.35-7.55c-.1-.39-.19-.82-.28-1.27A12.79,12.79,0,0,0,87,85.16l.86-.52a13.44,13.44,0,0,1,1.27,4c.09.44.18.86.27,1.24a18.59,18.59,0,0,0,3.16,7.16,15.07,15.07,0,0,0,6.67,4.33c.85.32,1.71.62,2.57.91l1.46.5c.34.12.69.29,1.05.45a4.66,4.66,0,0,0,2.12.64l.07,1Zm13.82-46.73a.9.9,0,0,1-1,.61h-.28a1.38,1.38,0,0,1-.58.38l1,.57-.26.43-7.59-4.5.21-.35-.21-.12.91-.23c-1-.37-2.16-1.51-1.51-1.73,2.6-.86,5.19-1.65,8-1.21a2.74,2.74,0,0,1,1.82,1.09.53.53,0,0,1,0,.75C121,54.66,121,56.08,120.17,58.17Zm-10-11.76c4.59-3.32,12.17-.79,12.17-.79,2.14,2.13-.87,2.45-.87,2.45A14.22,14.22,0,0,0,110.17,46.41Zm18.35,30.76c-.94-1.53,2.24-3.53,3.1-2.35S128.52,77.17,128.52,77.17Z"/><path d="M90,82.65c3.41,1,4.17-2.8,3.74-5.3-.11-.63-1.07-.36-1,.27a8.39,8.39,0,0,1,.06,2c-.24,3.34-3.63,1.79-5.44.74a29,29,0,0,1-8.77-8.48,19.48,19.48,0,0,1-3.14-6.83,8.73,8.73,0,0,1,.58-5.42c.27-.63,2.08-3.6,2.95-3.55,5.44.33,8.61,4.51,8.27,9.83,0,.64,1,.64,1,0,.39-6-3.15-10.19-9.12-10.82C77,54.9,75,59.32,74.56,60.9c-1,3.14.41,6.61,1.86,9.36C79.09,75.3,84.43,81,90,82.65Z"/><path d="M83.81,69.62c.12-.2,2.91-5,1.35-8.15-.69-1.38-2.09-2.2-4.18-2.44l-.09.75c1.82.21,3,.89,3.6,2a3.51,3.51,0,0,1,.25.72A3,3,0,0,0,83,61.76h0a1.83,1.83,0,0,0-1.24.76l.56.67a1,1,0,0,1,.69-.44h0a3.4,3.4,0,0,1,1.88,1.09,13.63,13.63,0,0,1-1.71,5.39Z"/><path d="M85.14,74.4a2.24,2.24,0,0,1-1.67-.2,5.11,5.11,0,0,1-2.17-3.35l-.72.2c.55,1.94,1.41,3.23,2.56,3.82a3,3,0,0,0,2.25.23,3.82,3.82,0,0,1,4.94,2.08L91,76.9A4.6,4.6,0,0,0,85.14,74.4Z"/><path d="M104.35,103.25c-.36-.17-.71-.33-1.05-.45l-1.46-.5c-.86-.29-1.72-.59-2.57-.91a15.07,15.07,0,0,1-6.67-4.33,18.59,18.59,0,0,1-3.16-7.16c-.09-.38-.18-.8-.27-1.24a13.44,13.44,0,0,0-1.27-4l-.86.52a12.79,12.79,0,0,1,1.15,3.71c.09.45.18.88.28,1.27a19.55,19.55,0,0,0,3.35,7.55,16,16,0,0,0,7.09,4.64c.86.33,1.74.62,2.61.92l1.45.5c.31.11.63.26,1,.42a5.89,5.89,0,0,0,2.43.74h.19l-.07-1A4.66,4.66,0,0,1,104.35,103.25Z"/><path d="M85.07,118.59c-.65-1.36-1.29-2.72-1.93-4.09s-1.38-3-2.08-4.42c-.42-.88-.9-1.79-1.39-2.73-1.93-3.72-4.12-7.93-4-11.85l-1,0c-.12,4.18,2.14,8.51,4.13,12.34.48.93,1,1.83,1.37,2.7.71,1.46,1.39,2.93,2.08,4.4s1.28,2.74,1.93,4.1a27.49,27.49,0,0,0,2.33,3.75,29,29,0,0,1,2,3.16l.89-.46a30.12,30.12,0,0,0-2.08-3.27A26.75,26.75,0,0,1,85.07,118.59Z"/><path d="M128.52,77.17s4-1.18,3.1-2.35S127.58,75.65,128.52,77.17Z"/><path class="cls-4" d="M122.35,45.62s-7.59-2.53-12.17.79a14.22,14.22,0,0,1,11.3,1.66S124.48,47.75,122.35,45.62Z"/><path class="cls-5" d="M118.4,58.65c-1-.71-1.08-2.91-1-3.16a3.35,3.35,0,0,1,.61-1.61A20.5,20.5,0,0,0,113.14,55a1.25,1.25,0,0,1-.78-.08l-.91.23.21.12,0-.08,6.62,3.93a1.38,1.38,0,0,0,.58-.38l-.37-.05Z"/><polygon points="111.66 55.3 111.45 55.65 119.04 60.15 119.3 59.72 118.33 59.15 111.71 55.22 111.66 55.3"/><path class="cls-6" d="M120.22,54l-.07-.06h0l-.18,0a1,1,0,0,1,.26.33,1,1,0,0,1,.19.13A.89.89,0,0,0,120.22,54Z"/><path class="cls-6" d="M118.58,56.34a1.74,1.74,0,0,1-.1-.51,3.24,3.24,0,0,0,.3,2.17c.41.07.85,0,.89-.09.13-.35.24-.68.33-1a.93.93,0,0,1-.2.1A1,1,0,0,1,118.58,56.34Z"/><path d="M120.62,53.1A2.74,2.74,0,0,0,118.8,52c-2.77-.44-5.35.35-8,1.21-.66.22.51,1.37,1.51,1.73a1.25,1.25,0,0,0,.78.08A20.5,20.5,0,0,1,118,53.88a3.35,3.35,0,0,0-.61,1.61c0,.25,0,2.46,1,3.16l.14.06.37.05h.28a.9.9,0,0,0,1-.61c.78-2.09.82-3.51.41-4.32A.53.53,0,0,0,120.62,53.1Zm-.94,4.81c0,.12-.48.16-.89.09a3.24,3.24,0,0,1-.3-2.17,1.74,1.74,0,0,0,.1.51,1,1,0,0,0,1.23.7.93.93,0,0,0,.2-.1C119.92,57.23,119.81,57.55,119.68,57.91Zm-.34-2.22h0a1,1,0,0,1-.58-1.83,8.91,8.91,0,0,1,1.22.08l.18,0h0l.07.06a.89.89,0,0,1,.16.38,1,1,0,0,0-.19-.13A.94.94,0,0,1,119.34,55.69Z"/><path class="cls-5" d="M118.71,53.86a1,1,0,0,0,.58,1.83h0a.94.94,0,0,0,.84-1.42,1,1,0,0,0-.26-.33A8.91,8.91,0,0,0,118.71,53.86Z"/><path class="cls-3" d="M126,85.93c-.42.44-.49.78-1.22.77-.33,0-.67,0-1,0l-2.48.1c-1.5.05-2.39-.07-3.71.66-.74.41,0,1.37.42,1.72,1.3,1.21,2.18,1.11,3.87,1.15,1,0,1.91.07,2.87.11l.78,0a2.22,2.22,0,0,0,.79.69,2.06,2.06,0,0,0,.11-.68,2,2,0,0,0-.59-1.31c-2.29-.2-4.66,0-7,0a.5.5,0,0,1,0-1c2.34,0,4.75-.24,7.09,0A4,4,0,0,0,127.59,86,1.2,1.2,0,0,0,126,85.93Z"/><path class="cls-7" d="M126,85.93c-.42.44-.49.78-1.22.77-.33,0-.67,0-1,0l-2.48.1c-1.5.05-2.39-.07-3.71.66-.74.41,0,1.37.42,1.72,1.3,1.21,2.18,1.11,3.87,1.15,1,0,1.91.07,2.87.11l.78,0a2.22,2.22,0,0,0,.79.69,2.06,2.06,0,0,0,.11-.68,2,2,0,0,0-.59-1.31c-2.29-.2-4.66,0-7,0a.5.5,0,0,1,0-1c2.34,0,4.75-.24,7.09,0A4,4,0,0,0,127.59,86,1.2,1.2,0,0,0,126,85.93Z"/><path d="M134.84,72.54l0-.1c-.68-2.25-3.88-5.16-4.39-5.6a49.15,49.15,0,0,0-5.85-7c0-3.39-.5-5.36-1.43-5.88,1.62-4.59,2-7.56,1.11-8.82a1.51,1.51,0,0,0-.81-.6c-.08-4.64-4.28-10.62-4.84-11.39-.41-1.44-3.18-10.66-6.85-10.66h-.21a125.31,125.31,0,0,0-19.41-1.57c-11.07,0-25.72,1.77-32.62,10.21C55.81,35.69,54.68,41.73,56.16,49c1.32,23.08,2.29,58.25-.45,60.57l-.48.4.5.38c3.1,2.33,30.4,22.79,34.48,22.79h0a.86.86,0,0,0,.89-.56l.07-.21-.1-.19a4.75,4.75,0,0,1-.39-3.37,3.1,3.1,0,0,1,1.89-1.76c.35-.08,8.6-2.17,11-17,.43-.93,7.33-2.17,13.54-2.81,4.81-1.2,7.7-2.92,8.61-5.1a3.44,3.44,0,0,0-.06-2.89c-1.59-4.61,0-5.49,0-5.5l.14-.09a4.31,4.31,0,0,0,1.68-3.22,2.92,2.92,0,0,0-.6-1.65,4.91,4.91,0,0,0,1.8-3.31c1.1-1.68.14-4.52-.3-5.63a29.54,29.54,0,0,0,4.86-3.67C135.07,75.56,134.85,72.66,134.84,72.54Zm-2,2.75-.12,0-.09.08a27.1,27.1,0,0,1-5.11,3.79l-.47.21.22.46c.47,1,1.48,3.89.51,5.19l-.1.13v.16a3,3,0,0,1-.1.63A4,4,0,0,1,126,88.21l.36,0c.63.07.64,1.07,0,1l-.5,0a2,2,0,0,1,.59,1.31,2.06,2.06,0,0,1-.11.68,4.21,4.21,0,0,1-1.2,1.72c-.47.27-2.18,1.63-.41,6.73l0,.09a2.45,2.45,0,0,1,0,2c-.53,1.29-2.34,3.11-7.85,4.5-5.22.53-14,1.7-14.35,3.61-2.32,14.14-10.2,16.19-10.35,16.23a4.09,4.09,0,0,0-2.53,2.36,5.32,5.32,0,0,0,.2,3.65c-3.54-.68-21.47-13.44-33.22-22.26,3.45-6.26.76-55.17.43-61-1.43-7.05-.37-12.81,3.16-17.12,6.65-8.14,21-9.84,31.84-9.84a123.65,123.65,0,0,1,19.3,1.57h.15c2.32-.29,5,6,6.07,10l.08.16c0,.07,4.91,6.75,4.69,11.31l0,.65.64-.14a.46.46,0,0,1,.38.23c.33.47.84,2.22-1.43,8.46l-.46,1.1,1.06-.46s1,.31,1,5.22v.21l.15.15s4.34,4.37,5.88,7l.1.13s3.45,3,4.13,5.14C133.86,73,133.91,75,132.84,75.29Z"/><path d="M118.94,88.24a.5.5,0,0,0,0,1c2.29,0,4.66-.23,7,0l.5,0c.64.07.63-.93,0-1l-.36,0C123.69,88,121.28,88.23,118.94,88.24Z"/><path class="cls-8" d="M52.53,98.57S34.75,79.87,36.35,56.16c0,0-.68-22.57,16.87-30.09,0,0,1.82-6.61,11.85-10.26,0,0,3.88-14.59,25.31-8.21,0,0-11.63-1.37-14.59,1.82,0,0,6.84-2.28,10.49-.91,0,0-3.65,1.82-1.37,2.05a16.91,16.91,0,0,1,9.57.91s10-3.65,19.15,2.05c0,0-4.79-2.05-6.61-.68,0,0,10,2.28,10.71,4.33,0,0-4.56-2.51-5.47-1.37a10.48,10.48,0,0,0,3.19,2.74s10.94-.46,15.27,11.4c0,0-6.16-7.75-8.21-5.93,0,0,3.88,2.74,4.1,6.16,0,0-3.42-4.56-4.1-2.05,0,0,6.38,7.52,2.51,13.68,0,0-4.1-13.45-7.07-10.94,0,0-6.33-6.71-11-5.19,0,0,3,1.22,3,2.13,0,0-1.67-.91-2.13.61,0,0,2.89,9.12.76,11.55l.61,3.5s-4.1,2.74-4.87,4.71a8.25,8.25,0,0,1-3.19,6.23s3.08,7,2,9.42c0,0-5.19-4.71-5.49-.61,0,0,4.56,7.14.46,9.27,0,0-7.75-9.42-9.73-7.6,0,0,2.58-3.5.76-4.26,0,0-12.77-9-13.37,4.71,0,0-.4,13.86,6.29,14.62,0,0-5.37,1.64-7.5-3.68,0,0-.15,5.32,1.37,8.21,0,0-3.19-1.06-4-.3,0,0,4.26,7.75-4.26,6.23,0,0-7,3.5-4.79,7.45l4.79,3.42s-5.17-1.91-6.53.83a5.92,5.92,0,0,0,.46,4.71c1.37,2.13-6.46-3-8.51-2.13Z"/><path d="M96.2,159.24l.71,4.44L42.83,127.29a7.42,7.42,0,0,1-2.95-8.53c1.39-3.87,3.23-8,3.48-11.41.17-2.24,1.77-5.11,3-5.78,2.14-1.16,4.57.13,8.67,2.67,13,8,40,26.93,44.13,34.43l-3.68,7.41C94.54,148.6,95.43,154,96.2,159.24Z"/><path class="cls-9" d="M43.18,108.95c0,.45-1.23,3.3.53,4,6.46,2.48,44.69,29.35,51.33,33C95,145.89,43.39,105.56,43.18,108.95Z"/></svg>