<?xml version="1.0" encoding="utf-8"?>
<!-- Generator: Adobe Illustrator 22.1.0, SVG Export Plug-In . SVG Version: 6.00 Build 0)  -->
<svg version="1.1" id="Layer_1" xmlns="http://www.w3.org/2000/svg" xmlns:xlink="http://www.w3.org/1999/xlink" x="0px" y="0px"
	 viewBox="0 0 300 300" style="enable-background:new 0 0 300 300;" xml:space="preserve">
<style type="text/css">
	.st0{fill:#62B2B0;}
	.st1{fill:#66CC99;}
	.st2{fill:none;}
	.st3{fill:#6699CC;}
	.st4{fill:#FF8500;}
</style>
<path class="st0" d="M298.7,172.9c0.2-2.8,0.3-5.6,0.3-8.4c0-4.1-0.2-8.2-0.6-12.3l0-0.2l-9.3,1c-0.7-6.4-1.9-12.7-3.6-18.7l9-2.6
	c-1.9-6.6-4.4-13.1-7.4-19.3l-8.4,4.1c-2.8-5.7-6.1-11.2-9.8-16.3l7.6-5.5c-4-5.6-8.6-10.8-13.6-15.6l-6.5,6.8
	c-4.6-4.4-9.5-8.4-14.8-12l5.3-7.8c-5.7-3.9-11.8-7.2-18.1-10l-3.8,8.6c-5.8-2.6-11.8-4.7-18-6.2l2.3-9.1
	c-6.7-1.7-13.5-2.8-20.4-3.2l-0.6,9.4c-6.2-0.4-12.5-0.3-18.9,0.3c-0.1,0-0.1,0-0.2,0l-1-9.3c-6.9,0.7-13.7,2-20.3,3.9l2.6,9
	c-6.2,1.8-12.1,4-17.8,6.8l-4.1-8.4c-6.2,3-12.1,6.6-17.7,10.6l5.5,7.6c-5.2,3.7-10,7.9-14.4,12.5L95.3,82c-4.8,4.9-9.2,10.3-13,16
	l7.8,5.3c-3.5,5.2-6.7,10.8-9.3,16.6l-8.6-3.8c-2.8,6.3-5.1,12.9-6.8,19.5l9.1,2.3c-1.5,6.1-2.5,12.4-3,18.8l-9.4-0.7
	c-0.2,2.7-0.3,5.5-0.3,8.3c0,4.1,0.2,8.2,0.6,12.3l0,0.1l9.3-1c0.7,6.4,1.9,12.7,3.6,18.7l-9,2.6c1.9,6.6,4.4,13.1,7.4,19.3l8.4-4.1
	c2.8,5.7,6.1,11.2,9.8,16.3l-7.6,5.5c4,5.6,8.6,10.8,13.5,15.6l6.5-6.7c4.6,4.4,9.5,8.4,14.8,12l-5.3,7.8c5.7,3.9,11.8,7.2,18,10.1
	l3.8-8.6c5.8,2.6,11.8,4.7,18,6.2l-2.3,9.1c6.7,1.7,13.5,2.8,20.4,3.3l0.7-9.4c6.2,0.4,12.6,0.4,19-0.3c0,0,0,0,0.1,0l1,9.3
	c6.9-0.7,13.7-2,20.3-3.9l-2.6-9c6.2-1.8,12.1-4,17.8-6.8l4.1,8.4c6.2-3,12.1-6.6,17.7-10.6l-5.5-7.6c5.2-3.7,10-7.9,14.4-12.5
	l6.7,6.5c4.8-4.9,9.2-10.3,13-16l-7.8-5.3c3.6-5.2,6.7-10.8,9.3-16.6l8.6,3.8c2.8-6.3,5.1-12.9,6.8-19.5l-9.1-2.3
	c1.5-6.1,2.5-12.4,3-18.8L298.7,172.9z M100.6,180.8c-8.6,0-15.6-7-15.6-15.6c0-8.6,7-15.6,15.6-15.6s15.6,7,15.6,15.6
	C116.2,173.8,109.2,180.8,100.6,180.8z M122.6,228.5c-6,0-10.9-4.9-10.9-10.9c0-6,4.9-10.9,10.9-10.9s10.9,4.9,10.9,10.9
	C133.5,223.6,128.6,228.5,122.6,228.5z M122.6,122.1c-6,0-10.9-4.9-10.9-10.9c0-6,4.9-10.9,10.9-10.9s10.9,4.9,10.9,10.9
	C133.5,117.2,128.6,122.1,122.6,122.1z M179.9,259.8c-8.6,0-15.6-7-15.6-15.6s7-15.6,15.6-15.6c8.6,0,15.6,7,15.6,15.6
	S188.6,259.8,179.9,259.8z M179.9,100.4c-8.6,0-15.6-7-15.6-15.6c0-8.6,7-15.6,15.6-15.6c8.6,0,15.6,7,15.6,15.6
	C195.6,93.4,188.6,100.4,179.9,100.4z M239.9,100.4c6,0,10.9,4.9,10.9,10.9c0,6-4.9,10.9-10.9,10.9s-10.9-4.9-10.9-10.9
	C229.1,105.2,233.9,100.4,239.9,100.4z M239.9,228.5c-6,0-10.9-4.9-10.9-10.9c0-6,4.9-10.9,10.9-10.9s10.9,4.9,10.9,10.9
	C250.8,223.6,245.9,228.5,239.9,228.5z M260.4,180.8c-8.6,0-15.6-7-15.6-15.6c0-8.6,7-15.6,15.6-15.6c8.6,0,15.6,7,15.6,15.6
	C276,173.8,269,180.8,260.4,180.8z"/>
<g>
	<path class="st1" d="M222.8,164.3c0-3.8-0.5-7.5-1.5-10.9l5.2-1.4c-1.1-4-2.7-7.9-4.8-11.5l-4.7,2.7c-1.9-3.2-4.1-6.1-6.7-8.7
		l3.8-3.8c-3-2.9-6.3-5.5-9.9-7.6l-2.7,4.7c-3.2-1.8-6.6-3.2-10.2-4.2l1.4-5.2c-4-1.1-8.1-1.6-12.3-1.6h-0.1v5.4
		c-3.8,0-7.5,0.5-10.9,1.5l-1.4-5.2c-4,1.1-7.9,2.7-11.5,4.8l2.7,4.7c-3.2,1.9-6.1,4.1-8.7,6.7l-3.8-3.8c-2.9,3-5.5,6.3-7.6,9.9
		l4.7,2.7c-1.8,3.2-3.3,6.6-4.2,10.2l-5.2-1.4c-1.1,4-1.6,8.1-1.6,12.3v0h5.4c0,3.8,0.5,7.5,1.4,10.9l-5.2,1.4
		c1.1,4,2.7,7.9,4.8,11.5l4.7-2.7c1.9,3.2,4.1,6.1,6.7,8.8l-3.8,3.8c3,2.9,6.3,5.5,9.9,7.6l2.7-4.7c3.2,1.8,6.6,3.3,10.2,4.2
		l-1.4,5.2c4,1.1,8.1,1.6,12.3,1.6h0l0-5.4c3.8,0,7.5-0.5,11-1.4l1.4,5.2c4-1.1,7.9-2.7,11.5-4.8l-2.7-4.7c3.2-1.9,6.2-4.1,8.8-6.7
		l3.8,3.8c2.9-3,5.5-6.3,7.6-9.9l-4.7-2.7c1.8-3.2,3.3-6.6,4.2-10.2l5.2,1.4c1.1-4,1.6-8.2,1.6-12.4v-0.1H222.8z M180.5,185.4
		c-11.6,0-21-9.4-21-21s9.4-21,21-21s21,9.4,21,21S192.1,185.4,180.5,185.4z"/>
	<path class="st0" d="M180.5,143.4c-11.6,0-21,9.4-21,21s9.4,21,21,21s21-9.4,21-21S192.1,143.4,180.5,143.4z M180.5,175.3
		c-6,0-10.9-4.9-10.9-10.9c0-6,4.9-10.9,10.9-10.9s10.9,4.9,10.9,10.9C191.4,170.4,186.5,175.3,180.5,175.3z"/>
	<circle class="st1" cx="180.5" cy="164.4" r="10.9"/>
</g>
<g>
	<path class="st2" d="M65.5,147.8L49.4,169c10.4,5.6,22.8,7.2,34.7,3.8l-10.8-24.2C70.7,148.8,68,148.5,65.5,147.8z"/>
	<path class="st2" d="M52.4,136.2c-0.5-1.2-0.9-2.4-1.2-3.6l-26.4-3.3c0.2,5.9,1.5,11.8,4,17.5c2.4,5.5,5.8,10.3,9.9,14.3l16-21
		C53.7,138.9,53,137.6,52.4,136.2z"/>
	<path class="st2" d="M77.3,107.8l15.6-21.5c-10.3-5.3-22.4-6.8-34-3.5L70.2,107C72.6,106.8,75,107.1,77.3,107.8z"/>
	<path class="st2" d="M57.8,112L46.7,88.2c-10.4,6.5-17.5,16.6-20.4,27.9l26.2,3.3C53.6,116.5,55.5,114,57.8,112z"/>
	<path class="st2" d="M85.6,143.1l10.8,24.2c10.3-6.5,17.4-16.5,20.3-27.8l-26.2-3.3C89.3,138.8,87.7,141.2,85.6,143.1z"/>
	<path class="st2" d="M103.8,94.1l-15.6,21.4c0.9,1.2,1.6,2.5,2.3,3.9c0.5,1.2,0.9,2.4,1.2,3.6l26.4,3.3c-0.2-5.9-1.5-11.8-4-17.5
		C111.6,103.1,108.1,98.1,103.8,94.1z"/>
	<path class="st1" d="M143.2,126.2C143.2,126.2,143.2,126.2,143.2,126.2l-0.5-6.8c0,0,0,0,0,0l-11.8-2.8c-0.4-2.3-1-4.6-1.7-6.8
		l9.2-8c0,0,0,0,0,0l-2.8-6.2c0,0,0,0,0,0l-12.1,1.5c-1.2-2-2.5-4-3.9-5.8l5.9-10.6c0,0,0,0,0,0l-4.7-4.9c0,0,0,0,0,0L110,81.2
		c-1.8-1.5-3.7-2.9-5.7-4.2l1.9-11.9c0,0,0,0,0,0l-6.1-3c0,0,0,0,0,0l-8.2,8.8c-2.3-0.8-4.5-1.5-6.8-2l-2.3-11.8c0,0,0,0,0,0
		l-6.8-0.7c0,0,0,0,0,0l-4.7,10.9c-2.4,0-4.9,0.2-7.3,0.5l-6.1-10.1c0,0,0,0,0,0l-6.6,1.6c0,0,0,0,0,0L50.6,71
		c-1.3,0.5-2.5,1-3.7,1.5c-1,0.5-2,0.9-3,1.5l-9.1-7.4c0,0,0,0,0,0l-5.6,3.8c0,0,0,0,0,0l3.4,11.1c-1.9,1.6-3.7,3.3-5.4,5.2
		l-10.9-3.8c0,0,0,0,0,0l-4,5.5c0,0,0,0,0,0l6.9,9.2c-1.2,2.2-2.4,4.5-3.3,6.8l-11.5,0.2c0,0,0,0,0,0l-1.9,6.5c0,0,0,0,0,0l9.6,6.3
		c-0.4,2.5-0.7,5.1-0.8,7.6l-10.7,4.1c0,0,0,0,0,0l0.5,6.8c0,0,0,0,0,0l11.1,2.6c0.5,2.5,1.1,5,1.9,7.5l-8.6,7.5c0,0,0,0,0,0
		l2.8,6.2c0,0,0,0,0,0l11.4-1.4c1.3,2.2,2.7,4.3,4.3,6.4l-5.5,10c0,0,0,0,0,0l4.7,4.9c0,0,0,0,0,0l10.2-5.2c2,1.6,4,3.1,6.2,4.5
		l-1.8,11.4c0,0,0,0,0,0l6.1,3c0,0,0,0,0,0l7.9-8.5c2.4,0.8,4.8,1.5,7.2,2.1l2.2,11.4c0,0,0,0,0,0l6.8,0.7c0,0,0,0,0,0l4.6-10.7
		c2.5,0,4.9-0.2,7.4-0.6l6,10.1c0,0,0,0,0,0l6.6-1.6c0,0,0,0,0,0l0.6-11.8c1-0.4,2-0.8,3.1-1.3c1.2-0.5,2.4-1.1,3.6-1.7l9.2,7.5
		c0,0,0,0,0,0l5.6-3.8c0,0,0,0,0,0l-3.5-11.4c1.8-1.6,3.5-3.2,5.2-5l11.3,3.9c0,0,0,0,0,0l4-5.5c0,0,0,0,0,0l-7.2-9.6
		c1.1-2.1,2.2-4.2,3.1-6.4l12.1-0.2c0,0,0,0,0,0l1.9-6.5c0,0,0,0,0,0l-10.2-6.6c0.4-2.3,0.6-4.7,0.7-7L143.2,126.2z M92.9,86.3
		l-15.6,21.5c-2.3-0.7-4.7-0.9-7.1-0.8L58.9,82.8C70.5,79.5,82.7,81,92.9,86.3z M83.2,128.9c-0.7,6.3-6.3,10.9-12.6,10.2
		s-10.9-6.3-10.2-12.6c0.7-6.3,6.3-10.9,12.6-10.2C79.3,116.9,83.9,122.6,83.2,128.9z M46.7,88.2L57.8,112c-2.4,2-4.2,4.5-5.4,7.3
		L26.2,116C29.2,104.7,36.3,94.6,46.7,88.2z M38.6,161.1c-4.1-4-7.4-8.8-9.9-14.3c-2.5-5.7-3.8-11.6-4-17.5l26.4,3.3
		c0.3,1.2,0.7,2.4,1.2,3.6c0.6,1.4,1.3,2.6,2.2,3.8L38.6,161.1z M49.4,169l16.1-21.2c2.5,0.8,5.2,1,7.9,0.8l10.8,24.2
		C72.2,176.1,59.8,174.5,49.4,169z M96.3,167.3l-10.8-24.2c2.1-2,3.8-4.3,4.9-6.9l26.2,3.3C113.7,150.8,106.6,160.9,96.3,167.3z
		 M91.7,122.9c-0.3-1.2-0.7-2.4-1.2-3.6c-0.6-1.4-1.4-2.7-2.3-3.9l15.6-21.4c4.3,4.1,7.8,9,10.4,14.8c2.5,5.7,3.8,11.6,4,17.5
		L91.7,122.9z"/>
	<path class="st0" d="M60.3,126.5c-0.7,6.3,3.9,12,10.2,12.6s12-3.9,12.6-10.2c0.7-6.3-3.9-12-10.2-12.6
		C66.7,115.6,61,120.2,60.3,126.5z M77.7,128.3c-0.3,3.3-3.3,5.6-6.6,5.3c-3.3-0.3-5.6-3.3-5.3-6.6c0.3-3.3,3.3-5.6,6.6-5.3
		C75.7,122.1,78,125.1,77.7,128.3z"/>
	<ellipse transform="matrix(0.7778 -0.6285 0.6285 0.7778 -64.3061 73.4695)" class="st1" cx="71.8" cy="127.7" rx="6" ry="6"/>
</g>
<rect x="93.8" y="0.8" class="st3" width="3" height="277.6"/>
<g>
	<path class="st4" d="M83.3,278.4c0,0.2,0,0.5,0,0.7v-1.3C83.3,278,83.3,278.2,83.3,278.4z"/>
	<path class="st4" d="M107.3,278.4c0-0.2,0-0.5,0-0.7v1.4C107.3,278.9,107.3,278.7,107.3,278.4z"/>
	<path class="st1" d="M95.3,257.1c-6.5,0-11.8,9.2-12,20.6h24.1C107.1,266.3,101.8,257.1,95.3,257.1z"/>
	<path class="st1" d="M95.3,299.8c6.5,0,11.8-9.2,12-20.6H83.3C83.5,290.6,88.8,299.8,95.3,299.8z"/>
	<polygon class="st3" points="107.3,279.1 107.3,277.8 107.3,277.7 107.3,277.7 83.3,277.7 83.3,277.7 83.3,277.8 83.3,279.1 
		83.3,279.2 83.3,279.2 107.3,279.2 107.3,279.2 	"/>
</g>
<rect x="130.5" y="0" class="st3" width="3" height="240.8"/>
<g>
	<path class="st4" d="M119.9,227.2c0,0.2,0,0.5,0,0.7v-1.4C120,226.8,119.9,227,119.9,227.2z"/>
	<path class="st1" d="M132,205.9c-6.5,0-11.8,9.2-12,20.6H144C143.8,215.1,138.5,205.9,132,205.9z"/>
	<path class="st1" d="M132,248.6c6.5,0,11.8-9.2,12-20.6H120C120.2,239.4,125.5,248.6,132,248.6z"/>
	<path class="st4" d="M144,227.2c0-0.2,0-0.5,0-0.7v1.4C144,227.7,144,227.5,144,227.2z"/>
	<polygon class="st3" points="144,227.9 144,226.6 144,226.5 144,226.5 120,226.5 120,226.5 120,226.6 120,227.9 120,228 120,228 
		144,228 144,228 	"/>
</g>
</svg>
