<svg xmlns="http://www.w3.org/2000/svg" viewBox="0 0 92 97.26"><defs><style>.cls-1{fill:#eaeaea;}.cls-2{fill:#6c9;}.cls-3{fill:#69c;}.cls-4{fill:#62b2b0;}.cls-5{fill:#cc9d14;}.cls-6{fill:#d8746a;}</style></defs><title>collect</title><g id="stamp1"><path class="cls-1" d="M28.69,32.47V31.18a1.21,1.21,0,0,1,0-2.42V27.47a1.21,1.21,0,0,1,0-2.42V23.76a1.21,1.21,0,0,1,0-2.42V20.05a1.21,1.21,0,0,1,0-2.42V16.34a1.22,1.22,0,0,1,0-2.43V12.63a1.22,1.22,0,0,1,0-2.43V8.91a1.21,1.21,0,0,1,0-2.42V5.2A1.21,1.21,0,0,1,27.48,4H26.24a1.22,1.22,0,0,1-2.43,0H22.56a1.21,1.21,0,0,1-2.42,0H18.89a1.21,1.21,0,0,1-2.42,0H15.22A1.21,1.21,0,0,1,12.8,4H11.55A1.21,1.21,0,0,1,9.13,4H7.88A1.21,1.21,0,0,1,5.46,4H4.21a1.25,1.25,0,0,1-.35.86A1.25,1.25,0,0,1,3,5.2V6.49A1.21,1.21,0,1,1,3,8.91V10.2a1.22,1.22,0,0,1,0,2.43v1.28a1.22,1.22,0,0,1,0,2.43v1.28a1.22,1.22,0,0,1,0,2.43v1.29a1.21,1.21,0,0,1,0,2.42v1.29a1.21,1.21,0,0,1,0,2.42v1.29a1.21,1.21,0,0,1,0,2.42v1.29a1.21,1.21,0,0,1,1.21,1.21H5.46a1.21,1.21,0,0,1,2.42,0H9.13a1.21,1.21,0,0,1,2.42,0H12.8a1.21,1.21,0,0,1,2.42,0h1.25a1.21,1.21,0,0,1,2.42,0h1.25a1.22,1.22,0,0,1,2.43,0h1.24a1.22,1.22,0,0,1,2.43,0h1.24a1.23,1.23,0,0,1,1.21-1.21Z" transform="translate(-3 -0.99)"/><rect class="cls-2" x="3.39" y="6.91" width="18.91" height="21.85"/></g><g id="stamp2"><path class="cls-1" d="M44.9,35.94l.43-1.22a1.21,1.21,0,1,1,.8-2.29l.42-1.21a1.21,1.21,0,1,1,.8-2.29l.42-1.22a1.21,1.21,0,1,1,.8-2.29L49,24.21a1.21,1.21,0,0,1,.8-2.29l.42-1.22a1.21,1.21,0,0,1,.8-2.28l.42-1.22a1.21,1.21,0,0,1,.8-2.29l.43-1.21a1.21,1.21,0,1,1,.79-2.29l.43-1.22a1.22,1.22,0,0,1-.7-.62,1.27,1.27,0,0,1,0-.92L52,8.24a1.21,1.21,0,0,1-2.29-.8L48.49,7a1.21,1.21,0,0,1-2.29-.8L45,5.82A1.21,1.21,0,1,1,42.73,5l-1.17-.41a1.21,1.21,0,1,1-2.29-.79l-1.18-.41a1.21,1.21,0,0,1-2.29-.8L34.62,2.2a1.21,1.21,0,0,1-2.29-.8L31.16,1a1.24,1.24,0,0,1-.62.69,1.25,1.25,0,0,1-.93.06L29.19,3a1.21,1.21,0,1,1-.8,2.29L28,6.46a1.21,1.21,0,0,1-.8,2.28L26.75,10a1.21,1.21,0,0,1-.8,2.29l-.42,1.21A1.22,1.22,0,0,1,26.27,15a1.21,1.21,0,0,1-1.54.74L24.3,17a1.21,1.21,0,1,1-.79,2.29l-.43,1.21a1.21,1.21,0,1,1-.79,2.29L21.86,24a1.21,1.21,0,1,1-.8,2.29l-.42,1.21a1.24,1.24,0,0,1,.69.62,1.25,1.25,0,0,1,.06.93l1.17.41a1.21,1.21,0,1,1,2.29.79l1.18.41a1.21,1.21,0,0,1,2.29.8l1.18.41a1.21,1.21,0,1,1,2.28.8l1.18.41a1.21,1.21,0,1,1,2.29.8l1.18.41a1.21,1.21,0,1,1,2.29.8l1.17.41a1.21,1.21,0,1,1,2.29.79l1.18.41A1.24,1.24,0,0,1,44,36,1.18,1.18,0,0,1,44.9,35.94Z" transform="translate(-3 -0.99)"/><rect class="cls-3" x="27.81" y="7.9" width="18.91" height="21.85" transform="translate(5.27 -12.2) rotate(19.21)"/></g><g id="card1"><rect class="cls-2" x="17.99" y="59.66" width="24.62" height="34.76" transform="translate(-37.46 24.48) rotate(-30)"/><rect class="cls-1" x="20.36" y="62.21" width="19.88" height="29.67" transform="translate(-37.46 24.48) rotate(-30)"/><rect class="cls-4" x="15.3" y="64.69" width="17.83" height="3.62" transform="translate(-33.01 20.03) rotate(-30)"/><rect class="cls-4" x="26.37" y="81.61" width="17.83" height="8.13" transform="translate(-41.11 28.13) rotate(-30)"/><rect class="cls-3" x="20.28" y="68.45" width="17.83" height="13.37" transform="translate(-36.65 23.67) rotate(-30)"/></g><g id="card3"><rect class="cls-5" x="32.12" y="55.46" width="24.62" height="34.76"/><rect class="cls-3" x="34.49" y="58.01" width="19.88" height="29.67"/><path class="cls-5" d="M47.43,83.22a8,8,0,0,1-8-8h2.14a5.89,5.89,0,0,0,11.78,0h2.14A8,8,0,0,1,47.43,83.22Z" transform="translate(-3 -0.99)"/><path class="cls-5" d="M55.46,73H53.32a5.89,5.89,0,0,0-11.78,0H39.4a8,8,0,0,1,16.06,0Z" transform="translate(-3 -0.99)"/></g><g id="card2"><rect class="cls-2" x="54.39" y="59.66" width="24.62" height="34.76" transform="translate(44.46 -24.02) rotate(30)"/><rect class="cls-1" x="56.76" y="62.21" width="19.88" height="29.67" transform="translate(44.46 -24.02) rotate(30)"/><rect class="cls-4" x="63.87" y="64.69" width="17.83" height="3.62" transform="translate(40 -28.47) rotate(30)"/><rect class="cls-4" x="52.8" y="81.61" width="17.83" height="8.13" transform="translate(48.11 -20.37) rotate(30)"/><rect class="cls-6" x="58.89" y="68.45" width="17.83" height="13.37" transform="translate(43.65 -24.83) rotate(30)"/></g><g id="coin2"><circle class="cls-1" cx="66.69" cy="26.53" r="12.31"/><path class="cls-5" d="M69.4,33.54V32.06a4.3,4.3,0,0,1-2.25-.65l.35-1a3.88,3.88,0,0,0,2.12.64c1,0,1.75-.61,1.75-1.45s-.57-1.31-1.66-1.75c-1.5-.59-2.43-1.27-2.43-2.55a2.42,2.42,0,0,1,2.22-2.37V21.46h.92v1.42a3.94,3.94,0,0,1,1.91.52l-.37,1a3.52,3.52,0,0,0-1.85-.5c-1.14,0-1.56.68-1.56,1.27,0,.76.54,1.15,1.82,1.68,1.52.61,2.28,1.38,2.28,2.69A2.56,2.56,0,0,1,70.33,32v1.53Z" transform="translate(-3 -0.99)"/></g><g id="coin"><circle class="cls-5" cx="79.69" cy="14.53" r="12.31"/><circle class="cls-1" cx="79.69" cy="14.53" r="10.14"/><path class="cls-5" d="M79,20.58v-.76a3,3,0,0,0,1.74-2.67,6.55,6.55,0,0,0-.07-1.07H79.09v-1h1.43a9.86,9.86,0,0,1-.17-1.65,2.81,2.81,0,0,1,2.93-3,3.25,3.25,0,0,1,1.67.38l-.31,1a2.72,2.72,0,0,0-1.36-.31c-1.19,0-1.68.83-1.68,1.91a8.38,8.38,0,0,0,.18,1.64H84v1H81.91a5.43,5.43,0,0,1-.07,1.71,3.1,3.1,0,0,1-1,1.65v0h4.55v1.11Z" transform="translate(-3 -0.99)"/></g></svg>