<svg xmlns="http://www.w3.org/2000/svg" viewBox="0 0 200 200.26"><defs><style>.cls-1{fill:#69c;}.cls-2{fill:#eaeaea;}.cls-3{fill:#62b2b0;}.cls-4{fill:#6c9;}</style></defs><title>history</title><g id="sky"><circle class="cls-1" cx="100" cy="100" r="100"/><ellipse class="cls-2" cx="65.77" cy="33.89" rx="35.8" ry="10.43"/><ellipse class="cls-2" cx="91.55" cy="26.73" rx="27.62" ry="10.23"/><ellipse class="cls-2" cx="140.33" cy="55.01" rx="27.02" ry="7.88"/><polygon class="cls-2" points="38.31 116.3 56.28 103.22 72.59 118.34 38.31 116.3"/></g><g id="jonic"><g id="_Groupe_" data-name="&lt;Groupe&gt;"><path id="_Tracé_" data-name="&lt;Tracé&gt;" class="cls-2" d="M155.69,98.56l28.48,15.85a2.61,2.61,0,0,0,2.53-4.55L158.22,94a2.61,2.61,0,0,0-2.53,4.55Z"/><path id="_Tracé_2" data-name="&lt;Tracé&gt;" class="cls-2" d="M151.83,105.48a1.44,1.44,0,1,0,.56,2A1.44,1.44,0,0,0,151.83,105.48Z"/><path id="_Tracé_transparent_" data-name="&lt;Tracé transparent&gt;" class="cls-2" d="M182.89,116.68l-28.48-15.85a6.76,6.76,0,1,0-2,12.51l-35,62.94a2.82,2.82,0,0,0,1.09,3.83l16,8.9a2.82,2.82,0,0,0,3.83-1.09l35-62.94a6.74,6.74,0,1,0,9.57-8.3Zm-58.33,60.58a1.3,1.3,0,0,1-2.28-1.27l33.17-59.6a1.3,1.3,0,0,1,2.28,1.27Zm5.69,3.17a1.3,1.3,0,0,1-2.28-1.27l33.17-59.6a1.3,1.3,0,0,1,2.28,1.27Zm5.69,3.17a1.3,1.3,0,0,1-2.28-1.27l33.17-59.6a1.3,1.3,0,0,1,2.28,1.27Zm41.7-57.48a4,4,0,0,1-1.57-5.5,4,4,0,0,1,.94-1.12l-21.89-12.19a4,4,0,0,1-.46,1.39,4,4,0,1,1-1.57-5.5l28.48,15.85a4,4,0,1,1-3.93,7.07Z"/><path id="_Tracé_3" data-name="&lt;Tracé&gt;" class="cls-2" d="M180.31,121.33a1.44,1.44,0,1,0,.56,2A1.44,1.44,0,0,0,180.31,121.33Z"/></g></g><g id="ground"><path class="cls-3" d="M47.32,143.39c-13,0-24.89,2.6-33.65,6.82A100.38,100.38,0,0,0,61,191.83c20.3-3,35.15-12.48,35.15-23.72C96.14,154.46,74.28,143.39,47.32,143.39Z"/><path class="cls-4" d="M30,171.38l.05.3a100,100,0,0,0,137.26,2.55l.07-.32C87.21,152.08,30,171.38,30,171.38Z"/></g><g id="temple"><path class="cls-2" d="M33.35,144.43a167.83,167.83,0,0,1,41,3.1l.31-2.23a167.83,167.83,0,0,0-41-3.1Z"/><path class="cls-2" d="M36.85,142.9a119.59,119.59,0,0,1,34.61,2.19l.31-2.23a119.59,119.59,0,0,0-34.61-2.19Z"/><path class="cls-2" d="M38,118a119.59,119.59,0,0,1,34.61,2.19l.31-2.23a119.59,119.59,0,0,0-34.61-2.19Z"/><rect class="cls-2" x="40.77" y="117.06" width="3.5" height="23.65" transform="translate(6.11 -1.86) rotate(2.7)"/><rect class="cls-2" x="47.46" y="117.39" width="3.5" height="23.65" transform="translate(6.13 -2.17) rotate(2.7)"/><rect class="cls-2" x="53.87" y="117.69" width="3.5" height="23.65" transform="translate(6.15 -2.47) rotate(2.7)"/><rect class="cls-2" x="59.99" y="117.98" width="3.5" height="23.65" transform="translate(6.17 -2.76) rotate(2.7)"/><rect class="cls-2" x="66.09" y="118.6" width="3.5" height="23.65" transform="translate(6.21 -3.05) rotate(2.7)"/></g></svg>