<?xml version="1.0" encoding="utf-8"?>
<!-- Generator: Adobe Illustrator 21.1.0, SVG Export Plug-In . SVG Version: 6.00 Build 0)  -->
<svg version="1.1" xmlns="http://www.w3.org/2000/svg" xmlns:xlink="http://www.w3.org/1999/xlink" x="0px" y="0px"
	 viewBox="0 0 192 192" style="enable-background:new 0 0 192 192;" xml:space="preserve">
<style type="text/css">
	.st0{fill:#4C4C4C;}
	.st1{fill:#346767;}
	.st2{fill:#6699CC;}
	.st3{fill:#66CC99;}
</style>
<g id="background">
	<path class="st0" d="M56,192c-2.3,0-4.7,0-7,0c-12.1-4.1-22.1-11.5-31.6-19.9c-6.1-5.4-9.3-11.7-8.2-19.8
		c0.9-6.9,2.5-13.6,3.6-20.5c0.4-2.7,0.9-5.6,0.1-8.1c-3.7-12.4-5.6-24.9-3.9-37.8c0.4-3.2,1.1-6.8,0-9.6C6.5,69.6,3,63.4,0,57
		c0-2,0-4,0-6c4.3-13.8,12.7-25.2,23.1-34.9c2.9-2.7,7.5-5,11.4-5c7.9,0,15.7,1.6,23.6,2.5c2.1,0.2,4.4,0.6,6.2-0.1
		c15.8-6,32-7.1,48.6-4.4c1.5,0.2,3.3,0.2,4.7-0.4c6.2-2.8,12.3-5.8,18.4-8.7c2.3,0,4.7,0,7,0c8.5,5,17.3,9.6,25.5,15.1
		c9.3,6.2,15.9,14.4,14.2,26.6c-0.8,5.6-2.4,11-3.2,16.6c-0.4,3.1-0.8,6.6,0.1,9.5c4.4,14.3,5.5,28.7,2.9,43.4
		c-0.3,1.6-0.4,3.4,0.2,4.8c2.9,6.4,6.2,12.7,9.3,19c0,2.3,0,4.7,0,7c-3.7,11.4-10.7,20.8-18.2,29.9c-6,7.2-13.1,11.3-22.5,10
		c-6.2-0.8-12.3-2.4-18.5-3.3c-2.5-0.4-5.3-0.9-7.7-0.1c-14,4.5-28.2,6-42.8,3.6c-2.2-0.4-4.8-0.6-6.7,0.3
		C68.9,185.3,62.5,188.7,56,192z M104.3,100.3c4.2,10.8,8.2,20.9,12.5,32.1c2.2-3.8,3.8-6.4,5.7-9.7c16.2,10.6,32,20.7,36.1,42
		c5.6-7.1,10.8-14.3,15.4-21.9c1.1-1.9,1.1-5.3,0.2-7.5c-4.6-12-12.5-21.3-23.9-27.6c-5-2.8-10.1-5.5-15.2-8.3c1-2.5,2-4.8,3.4-8.3
		C126.6,94.4,115.8,97.2,104.3,100.3z M99.8,138.4c-3.1-11.8-6-22.7-9-34.3c-10.7,4.2-20.8,8.1-32.2,12.5c3.8,2.3,6.5,3.9,9.7,5.8
		c-10.5,16.2-20.7,31.9-42.1,35.4c7.2,7,14.5,12.9,23.3,16.7c1.3,0.6,3.1,0.8,4.3,0.4c8.7-2.9,16.6-7.6,22.1-14.7
		c6-7.7,10.7-16.5,16.1-25.1C94,136,96.3,137,99.8,138.4z M165.4,34.1c-7.5-7.1-14.8-13.4-24.1-16.9c-1.5-0.6-3.6-0.1-5.2,0.5
		c-15,5.6-24.7,16.8-31.6,30.8c-3.9,7.8-3.9,7.8-12.6,5.5c3.1,11.4,6,22.4,9.1,33.9c10.8-4.2,20.8-8.1,31.8-12.4
		c-3.5-2.3-6.2-4-9.4-6.1C133.7,53.2,143.9,37.7,165.4,34.1z M34,27.8c-7.1,7.3-13.3,14.8-16.9,24.1c-0.6,1.5-0.1,3.6,0.6,5.2
		c4,10.4,10.5,18.9,19.8,25c6.2,4,12.8,7.4,19.3,11.2c-1.1,2.5-2.2,4.8-3.7,8.3c12.3-3.3,23.2-6.3,34.6-9.4
		c-4.2-10.8-8.1-20.6-12.5-31.8c-2.4,3.7-4,6.3-6,9.3C53,59.7,38,49.2,34,27.8z"/>
</g>
<g id="back_x5F_arrows">
	<path class="st1" d="M48.3,56.8c0,0-21.4-10.2-14.2-29c0,0,15.3-5,31,4.1v21.3L48.3,56.8z"/>
	<path class="st1" d="M136.2,47.9c0,0,10.5-21.2,29.2-13.7c0,0,4.8,15.3-4.6,31l-21.3-0.4L136.2,47.9z"/>
	<path class="st1" d="M144.3,135.7c0,0,21.4,10.1,14.3,29c0,0-15.2,5.1-31-4l-0.1-21.3L144.3,135.7z"/>
	<path class="st1" d="M55.5,144.1c0,0-10.5,21.2-29.2,13.8c0,0-4.8-15.3,4.6-31l21.3,0.3L55.5,144.1z"/>
</g>
<g id="sphere">
	<circle class="st2" cx="96" cy="96" r="71.8"/>
</g>
<g id="arrows">
	<path class="st3" d="M104.3,100.3c11.6-3.1,22.3-6,34.2-9.1c-1.4,3.4-2.3,5.7-3.4,8.3c5.1,2.8,10.2,5.5,15.2,8.3
		c11.4,6.2,19.3,15.6,23.9,27.6c0.8,2.2,0.9,5.6-0.2,7.5c-4.6,7.6-9.8,14.8-15.4,21.9c-4.1-21.3-19.9-31.5-36.1-42
		c-1.9,3.2-3.5,5.9-5.7,9.7C112.5,121.2,108.5,111.1,104.3,100.3z"/>
	<path class="st3" d="M99.8,138.4c-3.4-1.5-5.8-2.5-7.6-3.2c-5.4,8.6-10.1,17.3-16.1,25.1c-5.5,7.2-13.5,11.8-22.1,14.7
		c-1.3,0.4-3.1,0.2-4.3-0.4c-8.8-3.8-16.1-9.7-23.3-16.7c21.4-3.5,31.5-19.2,42.1-35.4c-3.2-1.9-5.9-3.5-9.7-5.8
		c11.4-4.4,21.5-8.4,32.2-12.5C93.8,115.8,96.7,126.7,99.8,138.4z"/>
	<path class="st3" d="M165.4,34.1c-21.5,3.6-31.7,19.1-42.1,35.2c3.2,2.1,5.9,3.8,9.4,6.1c-11,4.3-21.1,8.2-31.8,12.4
		c-3.1-11.5-6-22.5-9.1-33.9c8.7,2.3,8.7,2.3,12.6-5.5c6.9-14,16.6-25.2,31.6-30.8c1.6-0.6,3.8-1,5.2-0.5
		C150.6,20.7,157.9,27,165.4,34.1z"/>
	<path class="st3" d="M34,27.8c4,21.4,19,31.8,35.3,41.8c2-3,3.6-5.6,6-9.3c4.4,11.2,8.3,21.1,12.5,31.8
		c-11.4,3.1-22.4,6.1-34.6,9.4c1.5-3.4,2.5-5.7,3.7-8.3c-6.5-3.8-13.1-7.2-19.3-11.2c-9.4-6-15.8-14.6-19.8-25
		c-0.6-1.6-1.1-3.8-0.6-5.2C20.7,42.6,26.9,35.2,34,27.8z"/>
</g>
</svg>
