<svg xmlns="http://www.w3.org/2000/svg" viewBox="0 0 200.07 200.07"><defs><style>.cls-1{fill:#69c;}.cls-2{fill:#346767;}.cls-3{fill:#4c4c4c;}.cls-4{fill:#707070;}.cls-5{fill:#6c9;}.cls-6{fill:#eaeaea;}</style></defs><title>scubadiving</title><g id="Calque_2" data-name="Calque 2"><circle class="cls-1" cx="100.03" cy="100.03" r="100.03"/></g><g id="Calque_1" data-name="Calque 1"><path class="cls-2" d="M86.93,87.43s8.73,10.9,37.11,31.31c0,0,13.91,6.15,7.5,14,0,0-9.68,10.56-11.24,16.95,0,0,3.26,12.17,8.53,15.17,0,0,4.91,5.47,3.61,7.65,0,0-2.34,3.91-7.27-.19a89.37,89.37,0,0,1-11.9-21.14s-.41-2.39-.34-17.31A129.44,129.44,0,0,1,80.17,101s-10.27-21-5.74-44.51l6.7-.14S81.05,77.38,86.93,87.43Z" transform="translate(0.03)"/><path class="cls-3" d="M135.79,123.37a6.2,6.2,0,0,0-1-8.71l-26-20.36a6.2,6.2,0,0,0-7.68,9.74l26,20.37A6.21,6.21,0,0,0,135.79,123.37Z" transform="translate(0.03)"/><path class="cls-4" d="M135.79,123.37l-14.4-11.31c-2.45,2.36-23-10.15-20.28-8l26,20.37A6.21,6.21,0,0,0,135.79,123.37Z" transform="translate(0.03)"/><path class="cls-2" d="M96.2,98.35,82.44,87.68S85.3,71.35,97.25,58.29l6.45,3.51S90.86,81.73,96.2,98.35Z" transform="translate(0.03)"/><path class="cls-5" d="M99.68,25.85S92.88,42,97.25,58.29c0,0,7.53,5.68,9.08,3.6s-6.29-22.4-4.48-32Z" transform="translate(0.03)"/><path class="cls-5" d="M80.78,56.74s3.64.15,2.77-3.34C83,51.14,80.73,50,76.79,49.66c-3.21-.3-23.05,1.58-32.2-7.89l-3.94-.37S53.76,58.59,74.08,56.88Z" transform="translate(0.03)"/><circle class="cls-2" cx="136.23" cy="138.27" r="10.68" transform="translate(-54.56 102.72) rotate(-34.87)"/><ellipse class="cls-3" cx="135.09" cy="147.75" rx="3.64" ry="3.02" transform="translate(-60.18 103.77) rotate(-34.87)"/><path class="cls-5" d="M141.09,149.32a2.55,2.55,0,0,1-3.55-.64h0a2.55,2.55,0,0,1,.63-3.55l2.67-1.86a2.55,2.55,0,0,1,3.56.64h0a2.55,2.55,0,0,1-.64,3.56Z" transform="translate(0.03)"/><circle class="cls-6" cx="153.96" cy="128.5" r="1.37" transform="translate(17.91 275.79) rotate(-87.11)"/><circle class="cls-6" cx="161" cy="125.73" r="1.37" transform="translate(27.35 280.19) rotate(-87.11)"/><circle class="cls-6" cx="149.34" cy="122.63" r="1.37" transform="translate(19.38 265.6) rotate(-87.11)"/><circle class="cls-6" cx="163.28" cy="118.5" r="1.37" transform="translate(36.74 275.6) rotate(-87.11)"/><circle class="cls-6" cx="147.34" cy="117.13" r="1.37" transform="translate(22.97 258.38) rotate(-87.11)"/><ellipse class="cls-6" cx="156.77" cy="121.26" rx="2.1" ry="2.87" transform="translate(27.8 271.71) rotate(-87.11)"/><ellipse class="cls-6" cx="164.27" cy="113.19" rx="2.1" ry="2.87" transform="translate(42.97 271.55) rotate(-87.11)"/><ellipse class="cls-6" cx="144.47" cy="113.19" rx="2.1" ry="2.87" transform="translate(24.18 251.78) rotate(-87.11)"/><path class="cls-6" d="M154.58,115.26c-2.56-.13-4.56-1.56-4.48-3.18s2.21-2.84,4.77-2.71,4.56,1.56,4.48,3.18S157.14,115.38,154.58,115.26Z" transform="translate(0.03)"/><path class="cls-6" d="M169.13,110.26c-2.56-.13-4.56-1.56-4.48-3.18s2.21-2.84,4.77-2.71,4.56,1.56,4.48,3.18S171.69,110.38,169.13,110.26Z" transform="translate(0.03)"/><path class="cls-6" d="M140.07,109.34c-2.56-.13-4.56-1.56-4.48-3.18s2.21-2.84,4.77-2.71,4.56,1.56,4.48,3.18S142.63,109.47,140.07,109.34Z" transform="translate(0.03)"/><path class="cls-6" d="M154.54,107.55c-4.47-.23-8-2.09-7.89-4.17s3.8-3.57,8.27-3.35,8,2.09,7.89,4.16S159,107.78,154.54,107.55Z" transform="translate(0.03)"/></g></svg>