<svg xmlns="http://www.w3.org/2000/svg" viewBox="0 0 761.13 671.22"><defs><style>.cls-1{fill:#346767;}.cls-2{fill:#62b2b0;}.cls-3{fill:#6c9;opacity:0.8;}.cls-4{fill:#69c;}.cls-5{fill:#4c4c4c;}.cls-6{fill:#eaeaea;}</style></defs><title>windsurf</title><g id="board"><path class="cls-1" d="M651.18,584c133.5-37.25,108-56,108-56-16-15-142.75,11-142.75,11l-277,62s-48,33,15,45Z"/><path class="cls-2" d="M671.13,578.22s30.72-33.4-13.82-46.65c0,0,84.12-15.58,101.87-3.58C759.18,528,778.83,545.94,671.13,578.22Z"/></g><g id="sail"><path class="cls-3" d="M290.43,562s-94-384-163-509c0,0,23-24,127-46l13-7s241,188,330,349c0,0,41,91,47,205,0,0-124.53,17.84-231,31C364.43,591.06,290.43,562,290.43,562Z"/><path class="cls-4" d="M267.43,0S434.31,136,510.87,229.49L452.63,432.58Z"/><path class="cls-4" d="M145.82,90.83,225.43,101l22.12,298.41S181.43,160.67,145.82,90.83Z"/></g><g id="wishbone"><path class="cls-5" d="M593.25,341.61S707.6,364,332.18,561.5c0,0-7.25-2.5,0-8.5,0,0,297.92-156,265.92-198.67C598.1,354.33,591.07,350.88,593.25,341.61Z"/></g><g id="perso"><path class="cls-6" d="M489.43,602l61-83.1s25-30.9,0-59.9c0,0-40,36-43-19,0,0,28,24,42,0l27-8s-29-38,11-47c0,0,28,18,10,41,0,0,27.33,7,27.33,20.67,0,0-12,28-6,39.33,0,0,6,41.67-17.57,56.41L583.43,592s-16-.33-25.67-7c0,0,36.67-25.67,16.33-43.67L507.77,606S500.1,610,489.43,602Z"/></g><g id="waves"><path class="cls-4" d="M189.43,659.67s137.33-36,87.33-94c0,0,129.33,68,68.67,94S189.43,659.67,189.43,659.67Z"/><path class="cls-6" d="M276.77,565.67s43.45,40.06-43.11,78C233.66,643.7,371.43,612.67,276.77,565.67Z"/><path class="cls-4" d="M280.43,659.67s137.33-36,87.33-94c0,0,129.33,68,68.67,94S280.43,659.67,280.43,659.67Z"/><path class="cls-6" d="M367.77,565.67s43.45,40.06-43.11,78C324.66,643.7,462.43,612.67,367.77,565.67Z"/><path class="cls-4" d="M356.43,659.67s137.33-36,87.33-94c0,0,129.33,68,68.67,94S356.43,659.67,356.43,659.67Z"/><path class="cls-6" d="M443.77,565.67s43.45,40.06-43.11,78C400.66,643.7,538.43,612.67,443.77,565.67Z"/></g><g id="wind"><rect class="cls-6" y="120.6" width="192.68" height="22.5" rx="11.25" ry="11.25"/><rect class="cls-6" x="65.02" y="44.1" width="192.68" height="22.5" rx="11.25" ry="11.25"/><rect class="cls-6" x="105.84" y="167.5" width="192.68" height="22.5" rx="11.25" ry="11.25"/><rect class="cls-6" x="65.02" y="254.5" width="192.68" height="22.5" rx="11.25" ry="11.25"/><rect class="cls-6" x="202.18" y="341.49" width="192.68" height="22.5" rx="11.25" ry="11.25"/><rect class="cls-6" x="117.14" y="410.08" width="192.68" height="22.5" rx="11.25" ry="11.25"/><rect class="cls-6" x="170.93" y="486.23" width="192.68" height="22.5" rx="11.25" ry="11.25"/></g></svg>