<?xml version="1.0" encoding="utf-8"?>
<!-- Generator: Adobe Illustrator 21.1.0, SVG Export Plug-In . SVG Version: 6.00 Build 0)  -->
<svg version="1.1" id="Calque_1" xmlns="http://www.w3.org/2000/svg" xmlns:xlink="http://www.w3.org/1999/xlink" x="0px" y="0px"
	 viewBox="0 0 705.8 366.9" style="enable-background:new 0 0 705.8 366.9;" xml:space="preserve">
<style type="text/css">
	.st0{fill:#98154A;}
	.st1{fill:none;}
	.st2{fill-rule:evenodd;clip-rule:evenodd;fill:#7F8D4E;}
	.st3{fill:#54845E;}
</style>
<g>
	<path class="st0" d="M575.7,211.7c3.9,2.1,8.3,3.7,13.2,5c5.8,1.5,11.5,2.2,16.9,2.2c10.5,0,15.8-3.2,15.8-9.5
		c0-4.7-6.1-9.1-18.2-13.2c-10.4-3.8-18.3-8.3-23.7-13.6c-6-6-8.9-13.1-8.9-21.3c0-10.5,4.1-19.1,12.4-25.8
		c8.5-7,19.9-10.5,34.2-10.5c6.4,0,12.4,0.6,18.1,1.7c4.7,0.9,9.1,2.3,13.2,4.1l-6.5,24.9c-0.7-0.3-1.4-0.6-2.1-0.9
		c-0.8-0.3-1.6-0.6-2.4-0.9c-1.8-0.8-3.7-1.4-5.7-1.9c-4.9-1.3-9.9-1.9-15-1.9c-9.7,0-14.6,2.9-14.6,8.6c0,3.8,6.9,8.3,20.8,13.6
		c20.1,7.5,30.1,19.1,30.1,34.9c0,10.7-4,19.3-12,26c-8.7,7.3-21.2,11-37.3,11c-6.5,0-13.1-0.7-19.8-2.2c-6-1.4-10.7-3-14.3-4.8
		L575.7,211.7z"/>
</g>
<g>
	<g>
		<path class="st0" d="M182.8,129.1c0.3,0,1.4,3.4,3.3,10.1l32,107.4l-0.2,0.2h-33.8c-0.2,0-1.2-3.2-2.8-9.6l-4.9-17.7h-23.7v-0.2
			l4.7-23.1h14.6l-11.3-44.2h-0.2l-21.1,94.7l-0.2,0.2h-32.2l-0.3-0.3l34.1-117.3H182.8z"/>
	</g>
	<g>
		<path class="st0" d="M271.2,127.3h3.7c23.1,0,38.3,6.7,45.6,20.2c2.9,5.8,4.3,11.8,4.3,18.1c0,19.1-9.3,31.9-28,38.3
			c-7.3,2.2-14.8,3.3-22.4,3.3l-0.2-0.2v-24c0-0.2,1.6-0.5,4.7-0.7c2.4-0.6,4.8-1.5,7.1-2.8c4.8-3.2,7.1-7.7,7.1-13.2
			c0-7-3.4-11.6-10.1-13.9c-2.8-0.7-5.4-1-7.8-1c-3.6,0.1-6.7,0.3-9.2,0.7v94.8l-0.3,0.2h-31l-0.3-0.2V130.1c0-0.2,3.5-0.7,10.6-1.4
			C253,127.8,261.7,127.3,271.2,127.3z"/>
	</g>
	<g>
		<path class="st0" d="M394.7,129.1c0.3,0,1.4,3.4,3.3,10.1l32,107.4l-0.2,0.2h-33.8c-0.2,0-1.2-3.2-2.8-9.6l-4.9-17.7h-23.7v-0.2
			l4.7-23.1h14.6l-11.3-44.2h-0.2l-21.1,94.7l-0.2,0.2h-32.2l-0.3-0.3L353,129.1H394.7z"/>
	</g>
	<g>
		<path class="st0" d="M546.3,241.5c-5.2,1.7-11.2,3.2-17.9,4.4c-8.1,1.5-15.7,2.3-22.6,2.3c-21.7,0-38.1-5.3-49.2-15.8
			c-11.1-10.6-16.7-24.6-16.7-42.3c0.1-19.7,6.8-35.1,20.2-46.1c12.4-10.3,28.5-15.5,48.4-15.5c7.4,0,14.3,0.6,20.7,1.7
			c5.5,1,9.9,2.4,13.2,4l-6.3,25.2c-3.6-1.6-7.4-2.8-11.5-3.7c-4.8-0.9-10.2-1.4-16.4-1.4c-10.3,0-18.6,2.7-24.9,8
			c-7,5.9-10.4,14.6-10.4,25.9c0,10.7,3.1,19.2,9.4,25.6c6.1,6,14.1,9,23.8,9c5.1,0,8.4-0.3,9.9-1v-20.2h-15.7v-24.4h45.9V241.5z"/>
	</g>
</g>
<g>
	<g>
		<ellipse class="st1" cx="365.3" cy="199" rx="312.8" ry="139.9"/>
		<g>
			<path class="st2" d="M182.5,24.6C242,7.1,297.9,1.1,349.1,0.1c51.2-0.8,98.1,4,140.1,12.6c83.7,17.5,149.4,50.2,187.7,94.8
				c24.8,28.9,31.1,59.1,28.5,74.6c-2.4,15.9-8.2,18.8-12.7,15.8c-4.9-3.1-9.4-11.9-16.9-20.8c-7.3-8.9-17.1-17.7-27.7-24.9
				c16.5,3.2,23.4-1,20.4-14.9c-3-13.6-17.8-33.4-39.2-49.5c-42.8-33.5-107.3-50.8-134-55.4c-29.5-5.9-80.8-11.5-124.4-9.3
				c-43.7,1.7-79.2,9.8-78.4,16.8c0.8,7,22.3,8.8,48.8,10.4c26.5,1.4,58.2,3.1,80,4.9c43.6,2.7,105.5,14,145.1,16.6
				c-2.3,6.4-32.4,1.2-79.2-2.5C440.1,65.8,376,64.1,307,72.1c-34.4,4-73.3,10.2-111.6,20.8c-38.1,10.7-76.5,25.6-105.5,48.3
				c-14.4,11.3-26.2,24.8-32,40.2c-6.2,15.3-5.4,31.8-1.2,45.4c9.1,27.5,25.4,43.8,30,53.3c9.7,17.7,24.9,34.2,53.3,48.9
				c28.3,14.4,70.3,27,132.5,29.3c132.6,2.9,226.5-33.1,280.7-67.9c27.2-17.7,44.5-35.7,53.3-49.9c9.2-14.3,9.7-24.3,8.8-29.5
				c-0.4-2.1,2.3-7.8,3.3-9.9c0.7-1.8,2.3-2.2,3.9-2.1c3.1,0.8,7.6,2.6,9.9,9.6c2.2,6.8,0.5,19.5-9,34.8
				c-19,30.9-67.4,68-140.3,93.1c-36.5,12.6-79.2,22.5-127.9,27.4c-48.7,4.7-103.5,4.8-164-6.8c-30.2-6.1-61.9-15-94.8-31.3
				c-16.4-8.3-33.1-18.2-49.5-33c-16-14.5-32.9-34.1-41.7-62.7c-9.3-28.1-5.4-63.3,8.1-88.6c13.1-25.9,31.3-44,49.7-58.7
				C100.2,54.1,140.6,37.3,182.5,24.6L182.5,24.6z"/>
		</g>
	</g>
	<g>
		<g>
			<path class="st3" d="M675.4,180.6c1.7,5.8,3,12,3.8,18.8l6.9-0.7c0-0.1,0-0.1,0-0.2h0c0,0,0,0,0,0c-0.6-6.8-1.9-13.4-4-19.7
				c0,0,0,0,0,0l0,0c0,0,0-0.1,0-0.1L675.4,180.6z"/>
			<path class="st3" d="M601.1,285.2l4.1,5.5c51.4-24,78.1-53.9,81.7-91.4l1-10.5L601.1,285.2z M677.9,210.3
				c-6.4,25.5-25.9,47.2-59,65.6C634.5,258.5,667.1,222.3,677.9,210.3z"/>
			<path class="st3" d="M178.1,62.4c-41.5,13.8-72.6,29.9-97.9,50.9c-26.7,21.2-52.4,57.9-44.2,97.3c8.4,40.2,40.9,63.5,64.6,77.6
				c25.5,14.7,54.6,25.9,91.5,35.3c83.4,20.6,181.2,24.2,275.4,10c51.7-8,96.8-21.1,134.2-38.8l0.6-0.3l4-4.4l-4.1-5.5
				c-5.3,2.5-11,4.9-16.9,7.3c-40.9,15.9-88.2,25.7-144.4,30c-80.8,4.9-198.1,0.3-298.7-49.5C122.1,262,104.6,249,93,235.6
				c-12.1-14-17.5-28-15.7-40.5l0-0.1c3.2-30.3,39-54.2,60.1-65.8C201.5,95.5,269,84.4,320.7,78.5c67.9-6.8,127.3-5.1,187,5.5
				c39.3,7.3,70.8,17.2,99.1,31c26.1,13.3,57.6,32.9,68.7,65.8l6.7-2.1c0,0,0-0.1,0-0.1h0c0,0,0,0,0,0c-8.9-30.3-28-46.9-53.9-66.9
				c-32-23.2-90.4-44.9-145.3-54.3c-11.2-2.1-22.1-3.6-32.6-4.9c23.9,1.1,49.5,4,77.5,9.8l1.5-6.8C438.9,35,292.9,24.5,178.1,62.4z
				 M193.7,316.6c-36.2-9.2-64.7-20.2-89.7-34.5c-35.9-21.2-55.3-44.4-61.3-72.9c-7.5-36.3,16.7-70.6,41.8-90.5
				c24.7-20.4,55.1-36.2,95.7-49.7C250,46,331.5,41.1,404.7,45.4c-21,0.8-41.1,2.6-61.2,4.7c0,0-0.5,0.1-1.2,0.1
				c-2.7,0.3-9.1,1-9.1,1v0c0,0-0.1,0-0.1,0l0.8,6.9l10.3-1.1c15.6-1.4,71.6-4.9,137.4,7.2c50.1,8.5,102.8,27.4,135.1,48
				c-2.3-1.2-4.5-2.4-6.8-3.6c-28.9-14.1-61-24.2-101-31.6c-60.3-10.7-120.4-12.4-189-5.5c-52.3,6-120.7,17.2-185.8,51.4
				c-27.3,15-60.4,39.4-63.7,71.2c-0.3,1.8-0.4,3.7-0.4,5.6c0,26.8,26.3,57.1,69.1,78.7c102,50.5,220.7,55.2,302.3,50.2l0,0
				c9.9-0.7,19.5-1.7,28.9-2.8c-1.3,0.2-2.6,0.5-3.9,0.7C373.1,340.5,276.3,337,193.7,316.6z M70.4,194.2
				C70.4,194.2,70.4,194.2,70.4,194.2c0-0.1,0-0.1,0-0.1L70.4,194.2z"/>
		</g>
	</g>
</g>
</svg>
