<?xml version="1.0" encoding="utf-8"?>
<!-- Generator: Adobe Illustrator 22.1.0, SVG Export Plug-In . SVG Version: 6.00 Build 0)  -->
<svg version="1.1" xmlns="http://www.w3.org/2000/svg" xmlns:xlink="http://www.w3.org/1999/xlink" x="0px" y="0px"
	 viewBox="0 0 300 300" style="enable-background:new 0 0 300 300;" xml:space="preserve">
<style type="text/css">
	.st0{fill:#66CC99;}
	.st1{fill:#62B2B0;}
	.st2{fill:#6699CC;}
	.st3{fill:#4C7399;}
	.st4{fill:#EAEAEA;}
	.st5{fill:#C1C1C1;}
</style>
<g id="columns">
	
		<rect x="45.6" y="99.7" transform="matrix(1 -1.200121e-03 1.200121e-03 1 -0.2217 7.002434e-02)" class="st0" width="25.2" height="170.1"/>
	
		<rect x="93.8" y="99.7" transform="matrix(1 -1.200121e-03 1.200121e-03 1 -0.2217 0.1279)" class="st0" width="25.2" height="170.1"/>
	
		<rect x="140" y="99.7" transform="matrix(1 -1.200121e-03 1.200121e-03 1 -0.2216 0.1832)" class="st0" width="25.2" height="170.1"/>
	
		<rect x="184.1" y="99.6" transform="matrix(1 -1.200121e-03 1.200121e-03 1 -0.2215 0.2362)" class="st0" width="25.2" height="170.1"/>
	
		<rect x="228.1" y="102" transform="matrix(1 -1.200121e-03 1.200121e-03 1 -0.2243 0.289)" class="st0" width="25.2" height="170.1"/>
	
		<rect x="45.6" y="99.7" transform="matrix(1 -1.200122e-03 1.200122e-03 1 -0.2217 6.233766e-02)" class="st1" width="12.4" height="170.1"/>
	
		<rect x="93.7" y="99.7" transform="matrix(1 -1.200122e-03 1.200122e-03 1 -0.2217 0.12)" class="st1" width="12.4" height="170.1"/>
	
		<rect x="139.8" y="99.7" transform="matrix(1 -1.200122e-03 1.200122e-03 1 -0.2216 0.1754)" class="st1" width="12.4" height="170.1"/>
	
		<rect x="184.3" y="99.7" transform="matrix(1 -1.200122e-03 1.200122e-03 1 -0.2216 0.2287)" class="st1" width="12.4" height="170.1"/>
	
		<rect x="227.8" y="99.7" transform="matrix(1 -1.200122e-03 1.200122e-03 1 -0.2216 0.281)" class="st1" width="12.4" height="170.1"/>
</g>
<g id="top">
	<polygon class="st2" points="41.9,88.2 147.9,1.6 253.3,89.1 	"/>
	<polygon class="st3" points="41.9,88.1 147.9,1.6 89.4,89.1 	"/>
	<g>
		<path class="st4" d="M145.5,71.4v-6.6c-3.8-0.1-7.7-1.2-10-2.9l1.6-4.4c2.3,1.6,5.7,2.8,9.4,2.8c4.6,0,7.7-2.7,7.7-6.4
			c0-3.6-2.5-5.8-7.4-7.7c-6.6-2.6-10.7-5.6-10.7-11.3c0-5.4,3.8-9.5,9.8-10.5V18h4v6.3c3.9,0.1,6.6,1.2,8.5,2.3l-1.6,4.3
			c-1.4-0.8-4-2.2-8.2-2.2c-5,0-6.9,3-6.9,5.6c0,3.4,2.4,5.1,8.1,7.4c6.7,2.7,10.1,6.1,10.1,11.9c0,5.1-3.6,10-10.3,11.1v6.8H145.5z
			"/>
	</g>
</g>
<g id="frames">
	<rect x="28.4" y="256.4" class="st4" width="242.2" height="22.7"/>
	<rect x="28.4" y="82.1" class="st4" width="242.2" height="22.7"/>
	<polygon class="st5" points="28.4,279 28.4,279 28.4,256.4 52.8,256.4 	"/>
	<polygon class="st5" points="80.1,104.8 28.4,104.8 28.4,82.1 94.1,82.1 	"/>
</g>
<g id="basis">
	<rect x="4" y="275.5" class="st2" width="291" height="22.7"/>
	<polygon class="st3" points="4,298.2 4,298.2 4,275.5 28.4,275.5 	"/>
</g>
</svg>
