<svg id="Calque_1" data-name="Calque 1" xmlns="http://www.w3.org/2000/svg" viewBox="0 0 225 117.91"><defs><style>.cls-1{fill:#00283b;}.cls-2{fill:#da9218;}.cls-3{fill:#004776;}.cls-4{fill:#a9b82c;}.cls-5{fill:#971c79;}.cls-6{fill:#1881b4;}</style></defs><title>c2i</title><path id="_Tracé_" data-name="&lt;Tracé&gt;" class="cls-1" d="M58,87.52A28.57,28.57,0,1,1,78.24,38.83l5.48-5.89a36.61,36.61,0,1,0-2.31,54.13l-5-6.32A28.45,28.45,0,0,1,58,87.52Z"/><g id="_Groupe_" data-name="&lt;Groupe&gt;"><path class="cls-1" d="M86.31,55.45A28.77,28.77,0,0,1,86.54,59,28.44,28.44,0,0,1,81,75.89l5.12,6.5a36.58,36.58,0,0,0,8.06-29Z"/><path class="cls-1" d="M92.72,47.47A36.56,36.56,0,0,0,88,38l-5.63,6.06a28.47,28.47,0,0,1,2.58,5.46Z"/></g><path id="_Tracé_2" data-name="&lt;Tracé&gt;" class="cls-2" d="M70.06,103.93A46.33,46.33,0,0,1,23.83,89.14l-1.12-1.31L12.47,95.24l1.29,1.54a58.92,58.92,0,0,0,60,19.22l1.94-.51-4-12Z"/><path id="_Tracé_3" data-name="&lt;Tracé&gt;" class="cls-3" d="M19.36,82.94a46.38,46.38,0,0,1,.08-48.17l.9-1.48L10.09,25.88,9,27.57a59,59,0,0,0-.09,62.55L10,91.83l10.25-7.42Z"/><path id="_Tracé_4" data-name="&lt;Tracé&gt;" class="cls-4" d="M24,28.6A46.2,46.2,0,0,1,69.44,13.81l1.68.39L75,2.16,73,1.68A59.36,59.36,0,0,0,13.87,20.93l-1.3,1.54L22.83,29.9Z"/><path id="_Tracé_5" data-name="&lt;Tracé&gt;" class="cls-5" d="M99.21,81.89A46.37,46.37,0,0,1,77.3,101.48l-1.58.68,4,12,1.86-.77a58.89,58.89,0,0,0,31.68-31.49Z"/><g id="_Groupe_2" data-name="&lt;Groupe&gt;"><path class="cls-1" d="M105.41,48.43h9.23c5.11,0,9.91,1.65,9.91,7.62a6.81,6.81,0,0,1-6.16,7.21L125.45,75h-5.71l-6.16-11.26h-3.45V75h-4.73Zm8.41,11.26c2.66,0,5.78-.23,5.78-3.68,0-3.15-2.93-3.53-5.37-3.53h-4.09v7.21Z"/><path class="cls-1" d="M132.25,67.57a4.67,4.67,0,0,0,4.84,4.28,5.92,5.92,0,0,0,4.84-2.44l3.23,2.44a9.38,9.38,0,0,1-7.62,3.6c-5.44,0-9.8-3.79-9.8-9.46s4.35-9.46,9.8-9.46c5,0,8.45,3.53,8.45,9.8v1.24Zm9.23-3.38c0-2.63-1.76-4.28-4.58-4.28a4.48,4.48,0,0,0-4.65,4.28Zm-2.66-15.76h5.11l-5.29,5.41H135.1Z"/><path class="cls-1" d="M159.8,62a4.09,4.09,0,0,0-3.53-1.84c-1.2,0-2.63.56-2.63,1.91,0,3.23,9.72.6,9.72,7.62,0,4.28-4.09,5.78-7.77,5.78a8.81,8.81,0,0,1-7-2.78l3-2.82a5.51,5.51,0,0,0,4.28,2.21c1.31,0,3-.64,3-2.06,0-3.72-9.72-.79-9.72-7.66,0-4,3.6-5.82,7.24-5.82,2.4,0,5,.75,6.42,2.74Z"/><path class="cls-1" d="M170.46,67.57a4.67,4.67,0,0,0,4.84,4.28,5.92,5.92,0,0,0,4.84-2.44l3.23,2.44a9.38,9.38,0,0,1-7.62,3.6c-5.44,0-9.8-3.79-9.8-9.46s4.35-9.46,9.8-9.46c5,0,8.45,3.53,8.45,9.8v1.24Zm9.23-3.38c0-2.63-1.76-4.28-4.58-4.28a4.48,4.48,0,0,0-4.65,4.28Z"/><path class="cls-1" d="M199.66,72.52h-.11a6.47,6.47,0,0,1-5.78,2.93c-3.34,0-6.57-1.84-6.57-5.41,0-5.86,6.83-6.27,11.34-6.27h1.13v-.49c0-2.21-1.73-3.38-4.13-3.38a7.09,7.09,0,0,0-4.8,1.88l-2.36-2.36A10.56,10.56,0,0,1,196,56.53c7.69,0,7.69,5.56,7.69,8.11V75h-4.05Zm-.26-5.59h-.94c-2.48,0-6.76.19-6.76,2.78,0,1.65,1.69,2.36,3.15,2.36,3.08,0,4.54-1.61,4.54-4.13Z"/><path class="cls-1" d="M225,75h-4.28V72.11h-.08a5.65,5.65,0,0,1-5.52,3.34c-4.84,0-6.57-3.42-6.57-7.09V57h4.5V66.1c0,2,.15,5.29,3.3,5.29,3,0,4.13-2.18,4.13-4.58V57H225Z"/></g><path id="_Tracé_6" data-name="&lt;Tracé&gt;" class="cls-1" d="M54.13,71l8.79-8.27A45.48,45.48,0,0,0,70,54.8a12.43,12.43,0,0,0,1.94-6.66,11.61,11.61,0,0,0-4.08-8.82,15,15,0,0,0-10.48-3.68,16.07,16.07,0,0,0-10.93,3.89,13.42,13.42,0,0,0-4.69,10.06v1.14h6.32l.09-1a8.77,8.77,0,0,1,2.77-6.08,9.08,9.08,0,0,1,6.2-2.15,9,9,0,0,1,6,2.05,5.9,5.9,0,0,1,2.34,4.67,7.51,7.51,0,0,1-1.34,4.21,48.31,48.31,0,0,1-6.42,6.83L41.74,74.29v2.58H72.51V71Z"/><path id="_Tracé_7" data-name="&lt;Tracé&gt;" class="cls-6" d="M115.16,41.14A59.41,59.41,0,0,0,80.86,4.19L79,3.45l-3.86,12,1.6.66a46.14,46.14,0,0,1,25,25Z"/></svg>