<?xml version="1.0" encoding="utf-8"?>
<!-- Generator: Adobe Illustrator 21.1.0, SVG Export Plug-In . SVG Version: 6.00 Build 0)  -->
<svg version="1.1" id="stag" xmlns="http://www.w3.org/2000/svg" xmlns:xlink="http://www.w3.org/1999/xlink" x="0px" y="0px"
	 viewBox="0 0 515.7 270" style="enable-background:new 0 0 515.7 270;" xml:space="preserve">
<style type="text/css">
	.st0{fill:#272954;}
	.st1{fill:none;}
</style>
<path class="st0" d="M364,32.8c-0.5,4.2-0.6,8.6-1.7,12.7c-2.7,10-6.2,19.7-3.8,30.3c2.6,11.5,10,19.4,19.2,25.7
	c3.7,2.5,7.6,0.7,10.6-4.4c4.6-7.8,6.2-16.5,6.5-25.4c0.1-3.1,0-6.3,0-9.4c0.4-0.1,0.8-0.2,1.2-0.4c0.9,3,2.4,6,2.5,9
	c0.3,9,0.1,17.9,0.1,26.9c0,2.7-0.2,5.3-0.1,8c0.3,8.8,4.9,13.4,13.6,12.9c6.3-0.3,12.6-1.3,18.8-2.7c8.4-2,12.1-8.1,10.5-16.5
	c-1-5.4-2.5-10.7-3.9-16c-2.7-10.6-1.9-21,2.2-31.3c0.6,5.1,0.8,10.2,2,15.1c1.7,6.7,3.5,13.6,6.5,19.8c3.6,7.4,10,8.3,16.7,3.6
	c14.2-9.9,20.3-27.5,15.2-44c-1.9-6.2-4.2-12.3-5.6-18.6c-1-4.4-0.6-9-0.8-13.5c0.5,0,1-0.1,1.5-0.1c0.5,2.6,0.7,5.3,1.5,7.9
	c0.9,2.8,1.8,5.8,3.5,8.1c1.2,1.6,3.9,3.4,5.6,3.1c1.7-0.3,4-3.1,4.1-4.8c0.1-7.7-0.4-15.5-0.9-23.2c-0.1-1.5-0.8-3.1-1.5-5.5
	c5.6,4.1,7.1,9.4,8.1,14.8c2.3,12.5,1.1,24.9-1.7,37.2c-1.1,4.8-2,9.8-2,14.7c0.1,5.7,3.5,7.1,8.5,4.2c7.1-4,11-9.9,14.1-21.7
	c2.3,6.6,1,12.1-1.8,17.3c-4.9,9.1-12.3,15.7-21.2,20.6c-7.2,3.9-13.2,8.8-18.1,15.4c-6.1,8.3-14,14.6-23.6,19.3
	c1.2,0.1,2.3,0.3,3.5,0.3c5.8,0.3,11.6,0.4,17.4,0.8c1.9,0.1,3.9,0.9,5.7,1.8c8.6,4.5,9,8.8,1.1,14.2c-4,2.7-8.2,5.1-11.4,7.1
	c4.3,9.5,9.8,18.3,12.3,27.9c3.2,12.1,5.2,24.8,5.7,37.4c0.8,19.2,1.8,38.2,9.7,56.7c-47.5,0-94.6,0-142.3,0
	c4.8-9.3,11.1-16.9,18.6-23.5c10.3-9,22.2-15.1,34.8-20.3c3.6-1.5,6.8-3.7,11.2-6.2c-1.1,6.4-2.2,12.8-3.4,19.8
	c5-3.4,8.9-7.4,9.9-13.3c3.3-20.2-3.3-38.6-27-42.1c-6.6-1-13.3-1-19.9-1.6c-4.3-0.3-8.7-0.4-12.9-1.1c-6-1-10.9-3.7-14-9.4
	c-2.2-4.1-5.2-7.8-7.4-11.9c-2.6-4.8-1.4-7.3,3.7-8.8c17.5-5.1,34.3-11.7,49.9-21.1c-0.1-0.5-0.1-1-0.3-1.1
	c-10.5-8.2-20.8-16.5-31.5-24.4c-5.1-3.7-10.8-6.6-16.4-9.4c-8.8-4.4-16.7-9.8-21.4-18.8c-1-1.8-1.5-3.9-2.2-5.8
	c0.4-0.3,0.8-0.5,1.2-0.8c1.1,1.2,2.1,2.6,3.3,3.6c4.2,3.2,8.1,7,12.8,9.1c6.3,2.8,9.6-0.4,8.4-7.2c-1.2-6.9-2.8-13.7-3.6-20.6
	c-1.4-11.7,0.2-23.3,3.8-34.5c0.6-1.8,1.9-3.4,3.8-4.5c-1.1,8-2.3,16-3.2,24.1c-0.3,3.2-1.2,7.6,2.8,8.7c4.3,1.1,5.7-3.2,7.1-6.3
	c1.2-2.6,1.8-5.5,2.7-8.2C362.9,32.7,363.4,32.7,364,32.8z"/>
<path class="st0" d="M5.7,196.9c0-20.2,0-40,0-59.8c0-1.5,0-2.9,0-5.3c12.8,0.8,25.5-2,37.7,2.8c13.7,5.5,21.6,19,19.8,33.5
	c-1.9,15.3-12.4,26.9-27.5,28.6C25.9,197.8,16.1,196.9,5.7,196.9z M12.8,137.8c0,17.7-0.1,34,0.1,50.2c0,1,2,2.7,3,2.7
	c6.3,0,12.7,0.2,18.9-0.7c11.5-1.8,19.8-11.1,20.7-22.5c1.1-12.9-5.3-24.1-17.2-27.2C30.4,138.3,21.8,138.6,12.8,137.8z"/>
<path class="st0" d="M178.4,200.9c9.9,5.6,19.7,8.8,29.7,2.7c6.6-4.1,7.2-11.1,6.4-19.1c-6.9,6.8-14.5,11.5-23.8,8.5
	c-4.9-1.6-10.1-4.7-13.5-8.6c-7.4-8.7-5.5-22.8,2.8-30.4c9.4-8.6,22.2-7.7,34.2,2.7c0.2-2.6,0.5-4.7,0.7-7.2c2.1,0,4.1,0,6.3,0
	c0,15.3,0.7,30.4-0.2,45.5c-0.5,9.1-6.9,14.9-16,16.9c-10.6,2.3-20.4,0.4-29.5-5.7c0.3-1,0.5-1.6,0.8-2.2
	C176.8,203,177.5,202.1,178.4,200.9z M197.2,187.4c10.2-0.1,17.9-7.5,17.7-17c-0.2-9.1-8.3-16.4-18.1-16.2
	c-9.7,0.2-16.7,7.3-16.6,16.8C180.3,180.5,187.6,187.5,197.2,187.4z"/>
<path class="st0" d="M13.8,235c-7.2-12.1-6.7-20.1,1.4-25c7.3-4.4,17.2-2.5,21.4,4c5.1,8,1.8,14.9-11.3,23.3c4.6,4,9.2,8,14,12.3
	c1.8-3.2,4.1-7.3,6.6-11.7c1.6,0.7,3.1,1.4,5.2,2.3c-2.8,5.1-5.3,9.8-8.3,15.2c3,3.2,6.2,6.6,9.7,10.4c-1.5,1.2-2.8,2.4-5,4.2
	c-2.6-3.5-5.2-7-7.8-10.5c-3,2.4-4.6,3.7-6.3,5c-6.8,5-14.2,6.2-22.2,3.7c-6.2-2-10-6.4-11.1-12.9c-1-6.3,1.2-11.5,6.2-15.4
	C8.6,238.1,11.1,236.7,13.8,235z M34.2,255.8c-5-5.2-9.8-10.2-14.7-15.1c-0.6-0.6-1.8-0.8-2.6-0.7c-5.6,0.9-10.9,8.1-10.2,13.7
	c0.8,6.2,6.6,10.7,13.3,10.1C25.6,263.3,30.1,260.7,34.2,255.8z M23.9,213.1c-5,0-9,3.9-9.1,8.7c0,4.3,4.4,11,7.2,10.8
	c4.8-0.3,10.6-6.4,10.6-11.2C32.6,216.7,28.8,213.1,23.9,213.1z"/>
<path class="st0" d="M103.3,242.6c-5.8,0-11.4,0-17.3,0c0-2.1,0-3.6,0-5.6c8.1,0,15.9,0,24.4,0c0,7.3,0.1,14.5-0.1,21.6
	c0,1.1-0.8,2.6-1.8,3.3c-10.3,7.8-21.8,9.9-34,5.6c-11.5-4.1-17.3-13.3-18.5-25.1c-1.2-12.5,3-23,13.8-30.1
	c11.2-7.4,28.2-5.7,37.9,3.6c-1.2,1.4-2.4,2.9-3.6,4.4c0-0.5,0-1,0-1.5c-6-1.6-11.8-4.3-17.9-4.7c-13.9-0.8-24.2,10.9-23.7,25.6
	c0.5,14.8,11.5,25.1,25.6,23.9C102.1,262.3,105.5,257.8,103.3,242.6z"/>
<path class="st0" d="M230.1,231.7c0-9,0-17.1,0-25.4c2.5,0,4.4,0,6.8,0c0.1,1.7,0.2,3.4,0.2,5c0,17.1,0,34.3,0,51.4
	c0,6.2-0.3,6.4-6.9,5.2c-0.2-2-0.4-4.1-0.7-7.5c-5.6,7.2-12.5,10.7-20.4,8.4c-4.5-1.3-9.3-4.1-12.4-7.6c-7.5-8.7-6.4-23.6,1.5-31.6
	C206.8,221,217.2,221.5,230.1,231.7z M198.5,246.1c0,10.1,6.7,17.8,15.6,17.7c8.9-0.1,16.1-8,16.1-17.6c-0.1-9.3-7.1-16.9-16-17.1
	C205.2,229,198.5,236.1,198.5,246.1z"/>
<path class="st0" d="M286.3,197.1c-2.1,0-4,0-6.2,0c-0.2-1.9-0.3-3.5-0.4-4.4c-5.3,1.9-10.4,4.8-15.9,5.6
	c-11.2,1.6-20-5.9-19.5-15.9c0.3-7.7,5.7-13.1,14.7-14.2c3.4-0.4,7-0.4,10.5-0.2c3.3,0.2,6.5,0.7,9.7,1.1
	c1.9-13.3-9.3-17.7-28.5-11.3c-0.7-1.6-1.3-3.2-2-4.7c7.6-5.7,23.2-6.8,30.2-1.3c3.3,2.6,6.6,7,7,10.8
	C286.9,174,286.3,185.5,286.3,197.1z M267,172.8c-0.1-0.2-0.1-0.4-0.2-0.6c-3.5,0.9-7.3,1.3-10.4,2.8c-6.2,3.1-6.7,11.2-1.2,15.3
	c7.2,5.4,20,2.2,23.8-5.8c3-6.4,1.2-10-5.5-11.1C271.3,173.1,269.1,173,267,172.8z"/>
<path class="st0" d="M118.6,173.2c0,14.3-11,25.5-25.2,25.6c-14,0-25.1-10.9-25.2-25c-0.1-14.4,10.7-25.6,25-25.7
	C107.7,148,118.6,158.7,118.6,173.2z M75.5,173.2c-0.1,10.8,7.9,19.1,18.2,19.1c10.1,0,17.9-8.3,17.9-18.9
	c0-10.5-8.4-19.3-18.3-19.2C83.3,154.2,75.6,162.5,75.5,173.2z"/>
<path class="st0" d="M159.9,149.3c2.7,0,4.5,0,6.6,0c0,15.9,0,31.6,0,47.8c-2.1,0-4.1,0-6.3,0c-0.2-2.1-0.4-4.1-0.6-6.8
	c-5.3,6-11.2,9.1-18.8,8.2c-8.9-1.1-15.1-6.3-15.7-15.3c-0.7-11.1-0.2-22.2-0.2-33.7c2.1,0,4.1,0,6.7,0c0,4,0,8.1,0,12.2
	c0,5.8-0.3,11.7,0.2,17.5c0.6,8.4,5.7,13.1,13.5,13c7.8,0,14.1-5.7,14.4-13.6c0.3-7.8,0.1-15.6,0.2-23.5
	C159.9,153.3,159.9,151.5,159.9,149.3z"/>
<path class="st0" d="M241.6,246.5c0-13.1,10.1-23.2,23.1-23.1c13,0.1,23,10.2,22.9,23.3c-0.1,12.9-10.4,22.9-23.4,22.8
	C251.2,269.4,241.6,259.6,241.6,246.5z M280.9,246.9c0.1-9.9-7.2-17.8-16.4-17.8c-9.2,0-16.3,7.5-16.3,17.3
	c-0.1,9.8,7.4,17.6,16.7,17.5C273.8,263.7,280.8,256.3,280.9,246.9z"/>
<path class="st0" d="M137.9,269.5c-12.8,0-22.8-9.9-23-22.7c-0.1-12.9,10.2-23.4,23-23.4c13.1,0,23.1,10,23.1,23
	C161.1,259.4,151,269.5,137.9,269.5z M154.5,246.6c0-9.7-7.5-17.6-16.7-17.6c-9.1,0.1-16.2,7.7-16.2,17.5
	c0.1,9.6,7.3,17.2,16.4,17.3C147.1,264,154.5,256.3,154.5,246.6z"/>
<path class="st0" d="M329.6,153.5c-1.1,1.8-2,3.3-2.8,4.7c-4-1.3-7.5-2.9-11.2-3.6c-2.5-0.5-5.5-0.5-7.8,0.5c-2.1,1-4.6,3.5-4.8,5.5
	c-0.2,1.9,1.9,5,3.9,6c3.7,2.1,8.1,3.1,12.1,4.5c8.9,3.1,12.5,7.7,11.5,15.1c-0.9,6.8-6.6,11.5-15,12.1c-8,0.6-15.1-1.8-22-6.9
	c1.1-1.6,2.2-3.2,2.7-3.8c6.2,1.7,11.7,3.4,17.3,4.7c1.7,0.4,4,0.1,5.3-0.8c2-1.6,4.6-4,4.8-6.1c0.1-2.1-2-5.4-4.1-6.4
	c-4.2-2.2-9.1-3.2-13.6-4.9c-7.4-2.8-10.7-7-10.1-13.1c0.6-6.6,5.4-11.4,13-12.5C316.2,147.4,323,149.4,329.6,153.5z"/>
<path class="st0" d="M298.7,268.3c-2.4,0-4,0-6,0c0-14.6,0-28.9,0-43.7c1.9,0,3.6,0,5.6,0c0.2,1.8,0.4,3.6,0.7,6.1
	c1.3-1.2,2.3-2.2,3.3-3c5.6-4.9,12.1-5.5,18.7-3c6.5,2.4,9.5,7.8,9.6,14.4c0.2,9.6,0.1,19.2,0.1,29.1c-2.1,0-3.9,0-6.2,0
	c0-8.6,0.1-16.8,0-25.1c-0.2-7.5-2.9-11.6-8.4-13.3c-9-2.7-17.1,3.3-17.4,13.1c-0.1,4.2,0,8.3,0,12.5
	C298.7,259.6,298.7,263.7,298.7,268.3z"/>
<path class="st0" d="M236.5,197.1c-2.2,0-4.1,0-6.3,0c0-22.7,0-45,0-67.7c2.1,0,4,0,6.3,0C236.5,151.9,236.5,174.4,236.5,197.1z"/>
<path class="st0" d="M172.5,267.8c-4.8,1.5-6.6,0.5-6.5-4.1c0.2-12.9,0.1-25.9,0.1-39.1c2.3,0,4.1,0,6.2,0c0,3,0,5.9,0,9.4
	c2.9-2.8,5-5.5,7.8-7.2c2.8-1.8,6.2-2.6,10.1-4.1c0,3.2,0,5.3,0,7.3c-13.9,3.7-17.7,8.7-17.7,23.4
	C172.5,258.2,172.5,263,172.5,267.8z"/>
<path class="st1" d="M12.8,137.8c9,0.8,17.6,0.5,25.7,2.5c11.9,3,18.2,14.3,17.2,27.2c-0.9,11.3-9.2,20.7-20.7,22.5
	c-6.2,0.9-12.6,0.7-18.9,0.7c-1.1,0-3-1.7-3-2.7C12.8,171.8,12.8,155.5,12.8,137.8z"/>
<path class="st1" d="M197.2,187.4c-9.6,0.1-16.9-7-17-16.4c-0.1-9.5,6.9-16.7,16.6-16.8c9.8-0.2,17.9,7.1,18.1,16.2
	C215.1,180,207.4,187.3,197.2,187.4z"/>
<path class="st1" d="M34.2,255.8c-4.2,4.8-8.6,7.5-14.2,8c-6.7,0.5-12.5-4-13.3-10.1c-0.7-5.6,4.5-12.7,10.2-13.7
	c0.8-0.1,2,0.1,2.6,0.7C24.4,245.6,29.2,250.6,34.2,255.8z"/>
<path class="st1" d="M23.9,213.1c4.9,0,8.7,3.6,8.7,8.4c0,4.8-5.7,10.9-10.6,11.2c-2.8,0.2-7.3-6.5-7.2-10.8
	C14.9,216.9,18.8,213.1,23.9,213.1z"/>
<path class="st1" d="M198.5,246.1c0-9.9,6.7-17.1,15.7-16.9c8.9,0.2,15.9,7.7,16,17.1c0.1,9.6-7.1,17.5-16.1,17.6
	C205.2,263.9,198.5,256.2,198.5,246.1z"/>
<path class="st1" d="M267,172.8c2.2,0.2,4.3,0.3,6.5,0.6c6.8,1.1,8.5,4.7,5.5,11.1c-3.8,8-16.7,11.2-23.8,5.8
	c-5.5-4.1-5-12.2,1.2-15.3c3.2-1.6,6.9-1.9,10.4-2.8C266.8,172.4,266.9,172.6,267,172.8z"/>
<path class="st1" d="M75.5,173.2c0.1-10.7,7.8-18.9,17.8-19c9.9-0.1,18.3,8.8,18.3,19.2c0,10.6-7.8,18.8-17.9,18.9
	C83.4,192.3,75.4,183.9,75.5,173.2z"/>
<path class="st1" d="M280.9,246.9c-0.1,9.5-7.1,16.9-16.1,17c-9.3,0.1-16.8-7.7-16.7-17.5c0.1-9.8,7.2-17.3,16.3-17.3
	C273.7,229.1,281,237,280.9,246.9z"/>
<path class="st1" d="M154.5,246.6c0,9.6-7.4,17.3-16.5,17.2c-9.2-0.1-16.4-7.7-16.4-17.3c-0.1-9.8,7-17.4,16.2-17.5
	C147,229,154.6,237,154.5,246.6z"/>
</svg>
