<?xml version="1.0" encoding="utf-8"?>
<!-- Generator: Adobe Illustrator 18.0.0, SVG Export Plug-In . SVG Version: 6.00 Build 0)  -->
<!DOCTYPE svg PUBLIC "-//W3C//DTD SVG 1.1//EN" "http://www.w3.org/Graphics/SVG/1.1/DTD/svg11.dtd">
<svg version="1.1" id="Layer_1" xmlns="http://www.w3.org/2000/svg" xmlns:xlink="http://www.w3.org/1999/xlink" x="0px" y="0px"
	 viewBox="0 0 456.5 105.7" enable-background="new 0 0 456.5 105.7" xml:space="preserve">
<path fill="#006C32" d="M97.6,74.9c3.8-5.5,6.5-10,8.8-16.6h7.1c-3.3,8.4-7.2,15-12.7,22.5V92h-6.3V80.9
	c-5.5-7.6-9.4-14.1-12.7-22.5h7.1C91.1,65,93.8,69.5,97.6,74.9"/>
<path fill="#006C32" d="M162.7,72.1c-3.1-1-4.9-1.5-6-2.3c-1.2-0.7-1.5-1.6-1.5-2.5c0-1.4,0.8-2.3,2-2.9c1.2-0.6,2.8-0.8,4.2-0.8
	c2.2,0,4.7,0.5,7.3,1.4l2.1-4.9c-2.6-1.3-6.1-2.1-9.4-2.1c-3.4,0-6.4,0.8-8.5,2.3c-2.6,1.7-3.9,4.2-3.9,7.2c0,5.8,4.9,8,9.7,9.6
	c2,0.7,4.1,1.2,5.5,2c1.4,0.8,2.2,1.9,2.2,3.3c0,1.6-1,2.7-2,3.2c-1.2,0.7-3.1,1-5,1c-4.5,0-7.7-1.7-10-3.3l-2.2,5.1
	c2.9,2.2,7.7,3.8,12.5,3.8c7.4,0,13-3.9,13-10.2C172.7,76.5,168.2,73.8,162.7,72.1"/>
<path fill="#006C32" d="M128.1,86.1h-4.6V64.2h4c7,0,11.5,3.8,11.5,10.7C139,81.5,134.9,86.1,128.1,86.1 M127.4,58.3h-10.1V92h10.7
	c9.9,0,17.3-7,17.3-17.1C145.3,65,138.3,58.3,127.4,58.3"/>
<path fill="#006C32" d="M203.8,86.9h-5.4v-9.8h5.6c4.8,0,7.3,1.3,7.3,4.7C211.3,86.3,207,86.9,203.8,86.9 M198.4,63.4h4.8
	c4.5,0,6.6,1.1,6.6,4c0,2.9-2.1,4.6-6.1,4.6h-5.3V63.4z M210,74.3L210,74.3c3.6-1.2,5.8-3.7,5.8-7.6c0-5.9-5.2-8.3-10.3-8.3h-13.1
	V92h12.2c6.3,0,12.7-2.6,12.7-9.6C217.3,77.7,214.4,74.9,210,74.3"/>
<polygon fill="#006C32" points="283.4,58.3 277.5,58.3 277.5,82.6 277.4,82.6 263.2,58.3 255.5,58.3 255.5,92 261.3,92 261.3,66.9 
	261.4,66.9 275.9,92 283.4,92 "/>
<polygon fill="#006C32" points="302.9,74.5 318.5,58.3 310.6,58.3 296.6,73.4 296.4,73.4 296.4,58.3 290.5,58.3 290.5,92 296.4,92 
	296.4,75.7 296.6,75.7 311.5,92 319.8,92 "/>
<polygon fill="#006C32" points="26,92 44.9,92 46.9,86 32.1,86 32.1,58.3 26,58.3 "/>
<polygon fill="#006C32" points="0,92 18.9,92 21,86 6.2,86 6.2,58.3 0,58.3 "/>
<path fill="#006C32" d="M65,86.6c-6.8,0-10.7-5-10.7-11.4c0-6.4,3.9-11.4,10.7-11.4c6.9,0,10.8,5.2,10.8,11.5
	C75.7,81.5,71.8,86.6,65,86.6 M65.1,58C54.8,58,48,65.6,48,75.2c0,9.5,6.6,17.1,17,17.1c10.3,0,17.1-7.7,17.1-17.2
	C82,65.6,75.3,58,65.1,58"/>
<path fill="#006C32" d="M235.3,84.8c2.5,0,4.9-0.2,7-0.8l3.1,8h7l-14.5-33.6h-5.1L218.2,92h7l3.1-8
	C230.4,84.6,232.8,84.8,235.3,84.8 M235.3,79.7c-1.8,0-3.4-0.1-5.2-0.5l5.2-13.3l5.2,13.3C238.7,79.6,237.1,79.7,235.3,79.7"/>
<path fill="#231F20" d="M451.8,55.6c2.3,1.7,4.7,2.9,4.7,5.6c0,0.8-1,1.6-3.2,1.6c-1.7,0-3.5-0.5-4.4-1.7c-0.7-0.9,0.3-2.2-0.3-3.1
	c-0.5-0.8-1.5-0.4-2.2-0.8c-0.8-0.5-0.9-0.8-1.5-2c-0.6-1.4-2.7-3.7-5.2-6.2c-2.1-2.1-4.3-3.2-5.3-3.1c-0.7,0.1-0.9,0.1-1.6,0.1
	c-1.8,0-3.3,1.7-5.9,2.8c-1.8,0.8-2.8,1.2-3.9,1.4l-0.4,0.5l2.3-0.1c2.2,0,5-0.3,7.2-0.3c2.2,0,3.3,2,4.2,4.1
	c1.7,4.2,4.2,10.3,7.3,15.4c1.5,2.4,2.7,3.9,2.7,6.9c0,0.9-0.1,2.2-1.3,2.2c-1.7,0-6-1.8-6-3.7c0-1.5,1.2-2.1,1.2-3.6
	c0-0.9-1.4-0.8-1.7-1.6c-1.1-4.5-2.4-9-4.9-11.7c-1.3-1.4-1.5-2-2.8-2c-0.7,0-1.4,0.2-2,0.4c-3.5,1.3-8.2,5.3-14.1,7
	c-2.2,0.7-2.6-0.6-4.9-0.2h0.2c-1.9,0.4-3.3,1.5-5.9,2.2c-3.5,1-9.6,1.5-14.5,0.8c-3.5-0.5-8-1.2-9.9-1.1c-1.5,4.2-4.6,9.8-9.3,12
	c-2.5,1.1-3.2,2.6-2.5,5.4c0.9,3.5,4,6,5.6,9c1.5,2.5,3.9,6.6,6.4,7.9c2.5,1.3,4.1,3.2,4.1,4.9c0,0.8-0.3,1.2-1.1,1.2h-5.1
	c-0.8,0-1.2-0.5-1.3-0.8c-0.7-1.3-0.2-2.5-1.2-3.7c-0.7-0.8-1.2-0.6-2.1-1.3c-1.5-1.5-0.4-2.3-1.5-4.2c-3.2-5.1-4.6-6.3-7.3-10
	c-1.5-1.9-3.4-2.9-3.4-5.4c0-3.1,3.1-3.6,3-6.7c-2,1.5-4.3,2.6-7.9,3.1c-0.5,0.1-1.7,1-2.2,1.6c-1.2,1.2-1.7,2.5-1.9,4.3
	c-0.4,4.2-1.2,8.4-0.7,12.6c0.7,2.7,1.2,3.6,3.4,5.1c1.4,0.9,3,2.2,3.2,4.2c0,0.5-0.2,1.2-0.9,1.2h-5.5c-0.5,0-1-0.4-1.2-0.7
	c-0.6-1.1-0.2-1.8-0.5-3.1c-0.5-2.5-3.4-2.4-3.4-5c0-0.8,0.5-1.8,0.5-3.4c0.2-3.5,1.2-9.3,0.2-16.2c-0.5-4,3.7-4.2,5.9-7.7
	c1.3-2,0.9-1.2,1.7-2.6c0.8-1.5,0.6-2.6,0.5-3.5c0-1.2-1.2-3.6-0.4-8.6c0.3-2.2,1.4-4.5,2.9-6.4c0-0.1,0-0.4-0.5-0.4
	c-2.2,0.2-2.2-0.4-3.6-0.4c-1.4,0-2.5,1.2-2.7,1.8c-0.7-0.3-1-1.1-1-1.5c0-0.8,0.2-1.5,0.9-2.2c0.3-0.3,0-0.5-0.4-0.5
	c-1.7,0-3.3,2.1-3.7,3.5c-1-0.2-1.1-1.5-1.5-1.5c-0.5,0-0.8,0.7-0.8,1.4c0,4.9,8,6,8,12.5c0,7.5-9,5.9-9,8.6c0,0.5,0.4,1,1.1,1.3
	c-0.3,0.7-1.1,1-1.9,1c-2,0-3.5-1.5-3.5-3.5c0-4.1,5.5-4.2,5.5-7.3c0-1.5-0.9-1.9-1.8-2.6c-5.2-3.7-8.2-7.4-8.2-13.5
	c0-6.6,4.6-11.6,10.5-11.6c8.6,0,8.9,10,16.7,10.8c2.9-2,6.4-3.2,9.8-3.2c5.1,0,7.3,1.3,12.7,1.3c2.2,0,5.8-0.6,10.1-3.6
	c1.6-1.1,2.3-1.3,3.8-2.6c3.4-2.9,6.6-8.6,6.6-12.7v0.2c0-1.3-0.3-2.1-0.9-2.1c-1.8,0-3.5,1.7-5.3,3.5c-1.2,1.2,0.6,1.8-2,3.2
	c-0.9,0.5-2-0.4-3-0.4c-2.1,0-3-2.5-3-4.6c0-1.1,0.8-1.4,1.3-2.4c1.1-2.1,1-2.9,2-4.9c0.6-1.4,1.7-2.3,1.6-3.3c0-0.4-0.3-0.6-0.3-1
	c0-2.1,2.8-3.5,2.8-5.6c0-1.2-1.3-1.7-1.6-2.6c-0.3-0.9-0.1-1.2-0.1-1.2c0.1-0.2,0.2-0.2,0.4-0.2c1.1,0,1.5,1.2,2.5,1.8
	c0.1-1.4-0.4-1.7-0.4-2.7c0-0.5-0.1-1.4,0.5-1.4c0.7,0,0.6,0.9,1.2,1.4c0.8,0.6,1.5,0.5,2.3,1.1c1.1,0.7,1.7,1.9,2.1,1.9
	c1.1,0.2,1.4-1.2,0.8-1.9c1.2-0.1,2.5,0.9,4.1,0.9c2.5,0,3.4,0.7,3.9,1.1c1.6,1.4,1.9,2.5,3.7,2.5c0.9,0,1.4-0.8,1.6-1.1
	c1.2,0.9,1.3,3.2,0,5.2c0.5,1.6,2.8,1.8,3.9,2.6c1.1,0.8,0.9,1.2,1.7,1.6c0.6,0.4,1.2,0.3,1.6,0c0.5,2.2-1.3,4.1-3.6,4.4
	c0.1,2.8,3,4.5,4.3,5.2c-0.8,1.7-2.2,2.2-3.4,2.5c0.4,1.7,2.2,4.2,1.3,6.4c-0.8-0.4-2.1,0-2.1,1.2c0,1.4,1.8,2.1-0.1,3.1
	c-0.8,0.5-1,1.7,0.5,2.9c2-0.5,3.9-0.5,6.2-0.5c1.4,0,3.2-0.4,4.5-0.4c2.3,0,3.7,0.9,5.4,2.8C443.5,47.4,447.4,52.3,451.8,55.6"/>
<path fill="#6D6E70" d="M337.3,43.3c0.9,0,2.6-5.1,6.1-5.1c1,0,1.2,0.4,1.2,0.8c0,0.7-1.2,1.3-1.2,2.2c0,0.2,0.1,0.4,0.4,0.4
	c0.8,0,1.5-1.9,4.9-1.9c0.9,0,1.7,0.1,2.5,0.3c0.4,0.1,1.2,0.5,0.8-0.6c-0.8-2.4-3.5-4.6-7.2-4.6c-3.7,0-7.6,3.3-8,7.3
	C336.9,42.8,336.9,43.3,337.3,43.3"/>
<path fill="#6D6E70" d="M401.3,11.5c-1-0.4-1.2-0.9-0.8-2.2c0.2-1.3,0.3-1.9-0.3-2c-0.5-0.2-1.2,0.2-1.9,0.9
	c-0.6,0.8-1.6,1.9-1.9,2.7c-0.3,1.1,1,0.9,0.1,2.7c-1.6,2.9-2,3.6-2.8,5.6c-0.7,2.2-1.2,2.5-1.6,3.2c-0.5,0.6,0.6,0.7,1.8,0.3
	c1.3-0.5,1.4,1.1,0.9,2.2c-0.4,0.8-0.1,1.1,1,0.2c1-0.8-0.5-1.4-0.2-3.9c0.4-2.2,0.8-3.5,2.2-5.7c1.2-1.9,2.2-3.3,4.2-2.6
	C402.8,13.3,402.4,12,401.3,11.5"/>
<path fill="#6D6E70" d="M444.2,77c0.4,0,0.5-0.5,0.5-1c0-1.1-0.6-2.7-1.5-3.4c-0.2,1.6-1,2.7-1,3.4C442.2,76.5,443.7,77,444.2,77"/>
<path fill="#6D6E70" d="M453.8,61.5c0.6,0,1.5-0.2,1.5-0.7c0-0.9-1.4-2.5-2.6-2.9C453.5,59.5,452.7,61.5,453.8,61.5"/>
<path fill="#6D6E70" d="M411.4,40.4c8.7,4,8.2,11.3,8.9,9.5c0.3-0.8,1.5-4.4-1.6-7.9c-2.4-2.8-3.3-2.1-2.4-4.4
	c3.8-9.2,6.2-23.1-5.2-27.9c-1.3-0.5-2.4-0.5-2.4-0.3c0,0.2,1.2,0.6,2.7,1.6c7.6,5,5.2,18.7-1.7,25.3
	C407.5,38.6,408.6,39.1,411.4,40.4"/>
<path fill="#6D6E70" d="M381.6,104.4c0.6,0,0.3-0.9,0.1-1.3c-0.5-0.9-1.5-1.5-2.4-1.9c0.2,0.9,0.3,3.2,1.2,3.2H381.6"/>
<path fill="#6D6E70" d="M355.3,104.4c0.6,0,0.2-0.9-0.1-1.3c-0.5-0.9-1.6-1.5-2.5-1.9c0.2,0.9,0.4,3.2,1.3,3.2H355.3"/>
<path fill="#6D6E70" d="M387.2,52.1c4.8-0.5,5.6-1.6,6.4-5.2c0.4-1.7,1.6-3.5,2.7-4.6c0.7-0.8,1.4-1.4,2.1-2.5
	c0.2-0.5,0.4-0.8,0-0.7c-0.5,0.4-2.2,1.5-2.9,2c-3.4,2.4-8.6,3.5-10.6,3.5c-4.4,0-8.2-1.3-12.2-1.3c-12,0-16.5,9.4-15.9,14.9
	c0.1,0.9,0.2,0.9,0.5,0.9c0.8,0,1.6-3.2,4.6-6.1c4.4-4.2,9.2-6.6,16-6.6c4.9,0,7,1.6,7,2.2c0,1.2-2.1,1.3-1.9,2.5
	C382.9,51.6,384,52.5,387.2,52.1"/>
</svg>
