<svg xmlns="http://www.w3.org/2000/svg" viewBox="0 0 330.98 330.98"><defs><style>.cls-1{fill:#242dd1;}.cls-2{fill:#4c5ae0;}.cls-3,.cls-4{fill:none;stroke-miterlimit:10;}.cls-3{stroke:#242dd1;stroke-width:7px;stroke-dasharray:12.07 10.06;}.cls-4{stroke:#4c5ae0;stroke-width:5px;stroke-dasharray:11.97 9.97;}</style></defs><title>portfoliov1</title><g id="gear"><path class="cls-1" d="M165,13.5A151.49,151.49,0,1,0,316.48,165,151.49,151.49,0,0,0,165,13.5Zm92,47.3a17.71,17.71,0,1,1-17.71,17.71A17.71,17.71,0,0,1,257,60.8ZM39,182.22A17.71,17.71,0,1,1,56.7,164.51,17.71,17.71,0,0,1,39,182.22Zm35,87A17.71,17.71,0,1,1,91.7,251.51,17.71,17.71,0,0,1,74,269.22Zm0-173A17.71,17.71,0,1,1,91.7,78.51,17.71,17.71,0,0,1,74,96.22Zm91,212a17.71,17.71,0,1,1,17.71-17.71A17.71,17.71,0,0,1,165,308.22Zm0-250A17.71,17.71,0,1,1,182.7,40.51,17.71,17.71,0,0,1,165,58.22Zm92,211a17.71,17.71,0,1,1,17.71-17.71A17.71,17.71,0,0,1,257,269.22Zm33-80a17.71,17.71,0,1,1,17.71-17.71A17.71,17.71,0,0,1,290,189.22Z"/><circle class="cls-2" cx="164.99" cy="164.99" r="86.99"/><circle class="cls-1" cx="164.99" cy="164.99" r="23.54"/><circle class="cls-2" cx="165.24" cy="165.23" r="11.24"/></g><g id="gear_dash" data-name="gear dash"><circle class="cls-3" cx="165.49" cy="165.49" r="161.99"/><circle class="cls-4" cx="165.49" cy="165.49" r="97.76"/></g></svg>