<?xml version="1.0" encoding="utf-8"?>
<!-- Generator: Adobe Illustrator 22.1.0, SVG Export Plug-In . SVG Version: 6.00 Build 0)  -->
<svg version="1.1" xmlns="http://www.w3.org/2000/svg" xmlns:xlink="http://www.w3.org/1999/xlink" x="0px" y="0px"
	 viewBox="0 0 300 300" style="enable-background:new 0 0 300 300;" xml:space="preserve">
<style type="text/css">
	.st0{fill:#66CC99;}
	.st1{fill:#62B2B0;}
	.st2{fill:#6699CC;}
	.st3{fill:#4C7399;}
	.st4{fill:#EAEAEA;}
	.st5{fill:#C1C1C1;}
	.st6{fill:#CC9D14;}
</style>
<g id="walls">
	<rect x="74.9" y="161" class="st0" width="166.2" height="86.8"/>
	<rect x="175.2" y="131.1" class="st0" width="65.9" height="103.3"/>
	<polygon class="st1" points="215.2,154.9 175.2,179 175.1,131.1 256,131 	"/>
	<polygon class="st1" points="145.3,198.4 74.9,198.4 74.9,179 175.2,179 	"/>
</g>
<g id="glasses">
	<rect x="74.9" y="198.4" class="st2" width="166.2" height="49.4"/>
	<polygon class="st3" points="74.9,198.4 74.9,247.9 145.3,198.4 	"/>
	
		<rect x="51.7" y="221.7" transform="matrix(-1.836970e-16 1 -1 -1.836970e-16 299.537 146.7751)" class="st4" width="49.4" height="3"/>
	
		<rect x="214.9" y="221.7" transform="matrix(-1.836970e-16 1 -1 -1.836970e-16 462.7487 -16.4365)" class="st4" width="49.4" height="3"/>
	
		<rect x="104.1" y="221.7" transform="matrix(-1.836970e-16 1 -1 -1.836970e-16 351.9445 94.3677)" class="st4" width="49.4" height="3"/>
	
		<rect x="161" y="221.7" transform="matrix(-1.836970e-16 1 -1 -1.836970e-16 408.8439 37.4683)" class="st4" width="49.4" height="3"/>
	<rect x="196.2" y="154.5" class="st2" width="24" height="22.6"/>
	<polygon class="st3" points="196.2,154.6 196.2,166.6 215.6,154.6 	"/>
	<polygon class="st5" points="74.9,247.9 74.9,198.4 77.9,198.4 77.9,245.9 	"/>
	<polygon class="st5" points="127.3,211 127.3,198.4 130.3,198.4 130.3,208.9 	"/>
</g>
<g id="roof">
	<g>
		<polygon class="st6" points="175.2,179 9,179 175.2,92.1 		"/>
		<line class="st6" x1="175.2" y1="92.1" x2="9" y2="179"/>
	</g>
	<g>
		<polygon class="st6" points="175.2,140.1 292,140.1 175.2,92.1 		"/>
		<path class="st6" d="M292,140.1"/>
	</g>
</g>
<g id="coin">
	<g id="coin_1_">
		<circle class="st4" cx="91.8" cy="102.6" r="52.4"/>
		<circle class="st6" cx="91.8" cy="102.6" r="43.2"/>
	</g>
	<g>
		<path class="st4" d="M89.5,129.4v-6.6c-3.8-0.1-7.7-1.2-10-2.9l1.6-4.4c2.3,1.6,5.7,2.8,9.4,2.8c4.6,0,7.7-2.7,7.7-6.4
			c0-3.6-2.5-5.8-7.4-7.7c-6.6-2.6-10.7-5.6-10.7-11.3c0-5.4,3.8-9.5,9.8-10.5V76h4v6.3c3.9,0.1,6.6,1.2,8.5,2.3l-1.6,4.3
			c-1.4-0.8-4-2.2-8.2-2.2c-5,0-6.9,3-6.9,5.6c0,3.4,2.4,5.1,8.1,7.4c6.7,2.7,10.1,6.1,10.1,11.9c0,5.1-3.6,10-10.3,11.1v6.8H89.5z"
			/>
	</g>
</g>
</svg>
